<svg width="665" height="720" viewBox="0 0 665 720" fill="none" xmlns="http://www.w3.org/2000/svg">
<path opacity="0.6" d="M630.819 382.749C619.551 399.733 605.686 415.499 599.816 435.314C597.025 446.425 595.507 457.855 595.295 469.353C592.934 508.373 588.987 548.683 570.669 582.615C561.343 599.628 548.755 614.368 533.72 625.88C518.685 637.392 501.539 645.419 483.396 649.44C417.814 663.522 348.185 657.502 283.312 642.632C201.065 623.964 105.223 594.153 63.7628 509.556C45.7043 472.104 35.6046 430.899 34.1765 388.848C32.7484 346.798 40.0266 304.927 55.4977 266.191C69.5653 231.721 91.4595 199.043 123.238 182.454C159.841 163.391 201.403 168.874 240.536 163.248C273.056 158.59 308.478 140.567 338.368 126.414C354.325 118.889 370.248 110.971 386.575 104.593C452.583 78.9257 524.877 78.0531 591.416 102.12C636.655 118.638 658.886 186.144 664.284 232.295C670.593 284.536 659.527 339.752 630.819 382.749Z" fill="url(#paint0_linear)"/>
<path fill-rule="evenodd" clip-rule="evenodd" d="M265 680.91C283.778 680.91 299 666.359 299 648.41C299 630.46 283.778 615.91 265 615.91C246.222 615.91 231 630.46 231 648.41C231 666.359 246.222 680.91 265 680.91Z" fill="#ECF8FB"/>
<path opacity="0.7" fill-rule="evenodd" clip-rule="evenodd" d="M223.494 504.331L231.865 513.979L222.079 522.232L213.708 512.584L223.494 504.331Z" fill="#2C7D98"/>
<path opacity="0.2" fill-rule="evenodd" clip-rule="evenodd" d="M367.022 555.575L372.929 574.417L353.816 580.243L347.909 561.401L367.022 555.575Z" fill="#2C7D98"/>
<path fill-rule="evenodd" clip-rule="evenodd" d="M256.353 99.1778L265.852 129.477L235.117 138.846L225.618 108.547L256.353 99.1778Z" fill="#ECF8FB"/>
<path opacity="0.44" d="M251.62 576.332C248.861 579.352 245.433 582.562 243.258 584.371C242.235 585.368 238.813 587.803 235.645 588.808C230.189 592.276 226.839 593.307 219.858 596.673C216.303 598.365 211.446 599.977 205.603 601.406C199.76 602.834 193.062 604.047 185.942 604.965C160.206 608.246 132.736 610.018 107.078 610.913C74.5492 612.062 36.5882 612.743 19.6694 607.184C12.2961 604.714 8.03195 601.678 7.17788 598.292C6.3238 594.905 8.90063 591.25 14.7265 587.585C20.0291 584.314 28.4272 580.934 40.8306 578.547C55.1171 575.801 71.5273 574.898 86.9037 573.166C99.6821 571.729 113.511 569.106 125.187 566.979C131.42 565.846 137.638 564.682 144.026 563.631C169.849 559.39 198.322 556.969 224.7 556.771C242.635 556.649 250.041 558.911 252.487 562.503C255.335 566.563 257.807 569.562 251.62 576.332Z" fill="#FFE7CA"/>
<path opacity="0.4" fill-rule="evenodd" clip-rule="evenodd" d="M656.305 589.318C669.844 538.726 666.763 493.951 649.424 489.311C632.085 484.671 607.053 521.923 593.514 572.515C579.975 623.107 583.056 667.882 600.395 672.522C617.734 677.162 642.766 639.91 656.305 589.318Z" fill="#FFE7CA"/>
<path opacity="0.5" fill-rule="evenodd" clip-rule="evenodd" d="M424 123.166C424 112.027 433.002 102.91 444 102.91V123.166L430.332 137.91C426.444 134.305 424 129.017 424 123.166Z" fill="#2C7D98"/>
<path fill-rule="evenodd" clip-rule="evenodd" d="M443.471 122.91H463.668C463.668 128.131 461.539 133.023 458.172 136.578C454.469 140.466 449.195 142.91 443.471 142.91C438.199 142.91 433.373 140.801 429.668 137.467L443.471 122.91Z" fill="#2C7D98"/>
<path fill-rule="evenodd" clip-rule="evenodd" d="M464 122.91C464 111.912 454.998 102.91 444 102.91V122.91H464ZM434 102.91L442 120.91L424 112.91C425.78 108.244 429.777 104.69 434 102.91Z" fill="#C0D8E0"/>
<path opacity="0.3" d="M368 193.91C372 182.91 386.8 159.31 414 152.91" stroke="#2C7D98" stroke-width="3" stroke-dasharray="20 10"/>
<path opacity="0.3" d="M503.143 317.054C505.784 328.718 505.536 358.017 483.423 381.898" stroke="#2C7D98" stroke-width="3" stroke-dasharray="20 10"/>
<path opacity="0.3" d="M537 247.91C559.902 235.208 514.135 201.184 509 184.91C505.714 174.495 502 135.91 473 146.91" stroke="#2C7D98" stroke-width="3" stroke-dasharray="20 10"/>
<path d="M258.28 464.629L250.744 469.186L250.217 469.491C242.853 473.878 234.472 476.331 225.873 476.617L216.229 477.473H215.019C206.442 478.277 198.245 481.351 191.295 486.372L127.536 532.061H126.078C122.847 532.177 119.64 531.46 116.775 529.982C112.793 527.906 109.722 524.462 108.145 520.302C106.567 516.142 106.592 511.555 108.216 507.412L108.557 506.556L169.277 460.47C175.685 455.613 180.039 448.584 181.496 440.745L182.829 433.344L183.077 431.999C184.353 425.184 187.374 418.805 191.854 413.466L203.421 399.705L258.28 464.629Z" fill="#2C7D98"/>
<path d="M258.28 464.629L250.744 469.186L250.217 469.492C242.853 473.878 234.472 476.331 225.873 476.617L216.228 477.473C197.622 468.299 184.69 452.06 182.829 433.222L183.077 431.876C184.353 425.062 187.374 418.683 191.853 413.344L203.421 399.705L258.28 464.629Z" fill="url(#paint1_linear)"/>
<path opacity="0.2" d="M250.745 469.187L250.218 469.492C242.853 473.879 234.472 476.332 225.874 476.618L215.02 477.566C206.452 478.342 198.255 481.385 191.296 486.373L127.536 532.062H126.079C122.847 532.178 119.64 531.461 116.775 529.983L187.357 473.529L216.415 457.015L250.745 469.187Z" fill="url(#paint2_linear)"/>
<path d="M258.306 464.593C270.563 454.774 268.4 432.127 253.475 414.011C238.55 395.894 216.515 389.167 204.259 398.986C192.002 408.805 194.166 431.452 209.09 449.568C224.015 467.685 246.05 474.412 258.306 464.593Z" fill="white"/>
<path d="M254.61 460.106C265.192 451.629 263.326 432.079 250.442 416.44C237.558 400.801 218.536 394.995 207.955 403.472C197.373 411.949 199.239 431.499 212.123 447.138C225.007 462.777 244.029 468.583 254.61 460.106Z" fill="#2C7D98"/>
<path d="M254.61 460.106C265.192 451.629 263.326 432.079 250.442 416.44C237.558 400.801 218.536 394.995 207.955 403.472C197.373 411.949 199.239 431.499 212.123 447.138C225.007 462.777 244.029 468.583 254.61 460.106Z" fill="url(#paint3_linear)"/>
<path opacity="0.4" d="M136.56 488.895C135.813 489.343 135.236 490.02 134.916 490.822C134.837 491.359 134.868 491.906 135.006 492.431C135.144 492.956 135.388 493.449 135.723 493.88C136.219 494.675 136.777 495.562 137.707 495.806C138.192 495.879 138.686 495.854 139.16 495.733C139.635 495.612 140.079 495.398 140.467 495.103C142.76 493.829 144.985 492.441 147.135 490.944C148.111 490.409 148.892 489.585 149.368 488.589C150.205 486.204 147.848 481.77 145.026 483.115C142.029 484.781 139.195 486.715 136.56 488.895Z" fill="url(#paint4_linear)"/>
<path d="M139.786 488.161C139.293 488.434 138.91 488.866 138.7 489.384C138.611 490.079 138.8 490.781 139.227 491.341C139.308 491.654 139.473 491.939 139.703 492.168C139.934 492.397 140.223 492.56 140.54 492.642C140.857 492.723 141.19 492.719 141.504 492.63C141.819 492.541 142.103 492.37 142.328 492.136C143.776 491.321 145.202 490.434 146.608 489.476C147.225 489.124 147.714 488.589 148.004 487.947C148.562 486.417 147.042 483.573 145.244 484.46C143.306 485.515 141.478 486.754 139.786 488.161Z" fill="#2C7D98"/>
<path opacity="0.8" d="M621.116 397.811C608.042 415.664 601.955 432.237 595.144 453.065C591.906 464.746 590.145 476.76 589.899 488.846L262.048 464.929C262.048 464.929 222 473.567 206.5 441.037C191 408.507 208.001 396.045 208.001 396.045L291.913 147.278C310.427 139.369 328.902 127.102 347.847 120.397C445.001 75.8131 508.312 75.7421 585.516 101.041C638.005 118.404 659.799 191.335 666.062 239.847C673.264 294.573 654.425 352.614 621.116 397.811Z" fill="url(#paint5_linear)"/>
<path fill-rule="evenodd" clip-rule="evenodd" d="M325.82 304.293C329.041 304.937 331.922 304.784 333.033 304.045C335.819 302.19 332.113 291.039 328.168 287.515C324.222 283.99 311.335 286.369 313.836 295.218C314.703 298.288 316.945 300.514 319.619 302.034L321.841 318.756L331.671 315.309L325.82 304.293Z" fill="#B28B67"/>
<path fill-rule="evenodd" clip-rule="evenodd" d="M326.984 285.165C326.98 284.601 327.625 282.621 324.941 281.891C324.458 281.76 323.916 282.249 323.302 282.275C322.841 282.294 322.494 281.772 321.982 281.839C321.45 281.909 321.08 282.567 320.506 282.722C320.154 282.817 319.436 282.477 319.069 282.573C318.414 282.746 318.049 283.541 317.441 283.797C317.089 283.945 316.465 283.521 316.096 283.616C315.199 283.848 314.55 284.525 313.827 284.916C313.16 285.275 313.346 286.818 312.947 287.338C311.694 288.97 310.52 289.715 309.586 291.266C308.475 293.11 308.52 294.177 308.178 295.267C307.835 296.356 308.526 299.53 309.608 301.339C310.246 302.407 311.961 305.332 313.707 306.085C316.096 307.116 319.916 306.33 320.159 305.996C321.287 304.445 322.598 297.599 324.256 294.76C325.475 292.673 327.011 288.663 326.984 285.165Z" fill="#2C7D98"/>
<mask id="mask0" mask-type="alpha" maskUnits="userSpaceOnUse" x="308" y="281" width="20" height="26">
<path fill-rule="evenodd" clip-rule="evenodd" d="M326.984 285.165C326.98 284.601 327.625 282.621 324.941 281.891C324.458 281.76 323.916 282.249 323.302 282.275C322.841 282.294 322.494 281.772 321.982 281.839C321.45 281.909 321.08 282.567 320.506 282.722C320.154 282.817 319.436 282.477 319.069 282.573C318.414 282.746 318.049 283.541 317.441 283.797C317.089 283.945 316.465 283.521 316.096 283.616C315.199 283.848 314.55 284.525 313.827 284.916C313.16 285.275 313.346 286.818 312.947 287.338C311.694 288.97 310.52 289.715 309.586 291.266C308.475 293.11 308.52 294.177 308.178 295.267C307.835 296.356 308.526 299.53 309.608 301.339C310.246 302.407 311.961 305.332 313.707 306.085C316.096 307.116 319.916 306.33 320.159 305.996C321.287 304.445 322.598 297.599 324.256 294.76C325.475 292.673 327.011 288.663 326.984 285.165Z" fill="white"/>
</mask>
<g mask="url(#mask0)">
<path fill-rule="evenodd" clip-rule="evenodd" d="M319.062 295.031C318.962 291.31 317.962 282.281 317.962 282.281L316.797 282.831C316.797 282.831 317.755 288.479 318.011 292.267C318.245 295.729 318.322 299.177 318.382 301.888C318.466 305.634 318.518 307.972 318.91 306.997C318.957 306.88 318.999 306.748 319.036 306.601C319.05 306.615 319.065 306.62 319.082 306.617C319.068 306.726 319.118 306.661 319.249 306.414C320.005 304.988 321.923 300.226 323.133 293.024C323.689 289.71 324.011 281.695 324.011 281.695L322.706 281.615C322.706 281.615 322.821 287.818 322.4 290.993C321.658 296.577 320.631 300.896 319.916 303.574C320.096 302.141 320.237 300.257 320.411 297.906L320.411 297.905C320.488 296.871 320.572 295.745 320.669 294.529C320.964 290.817 320.927 281.735 320.927 281.735L319.71 282.162C319.71 282.162 320.063 287.878 319.917 291.671C319.782 295.138 319.493 298.576 319.266 301.278L319.266 301.278C319.262 301.329 319.257 301.38 319.253 301.431C319.232 300.527 319.2 299.523 319.164 298.416C319.131 297.379 319.095 296.251 319.062 295.031Z" fill="black" fill-opacity="0.2"/>
</g>
<path fill-rule="evenodd" clip-rule="evenodd" d="M325.996 355.017C330.316 364.685 388.439 377.229 389.013 377.952C389.395 378.433 386.676 417.707 386.676 417.707L391.41 417.84C391.41 417.84 401.407 373.751 398.841 370.326C395.166 365.423 348.879 347.111 348.879 347.111L325.996 355.017Z" fill="#B28B67"/>
<path fill-rule="evenodd" clip-rule="evenodd" d="M385.923 412.202L393.591 412.255C402.167 391.324 403.042 376.229 399.605 369.899C396.168 363.569 349.792 346.7 349.792 346.7L325.517 355.212C334.642 377.911 384.89 379.496 385.834 380.269C386.777 381.041 384.435 392.672 385.923 412.202Z" fill="#ACC2CA"/>
<path fill-rule="evenodd" clip-rule="evenodd" d="M387.182 414.801C386.337 413.991 384.974 413.857 384.185 414.721C383.739 415.21 383.321 415.727 383.131 416.123C382.63 417.171 382.023 419.345 382.023 419.345C383.257 419.918 404.202 429.642 404.202 429.642C404.202 429.642 406.414 427.229 404.658 426.14C402.903 425.05 401.758 424.298 401.758 424.298L393.998 415.425C393.628 415.001 392.976 414.963 392.557 415.339L391.572 416.224C391.572 416.224 389.469 416.216 388.39 415.715C388.019 415.543 387.588 415.19 387.182 414.801Z" fill="#E4E4E4"/>
<path fill-rule="evenodd" clip-rule="evenodd" d="M331.467 353.098L328.357 410.641L322.814 460.31L327.729 458.587L348.126 347.256L331.467 353.098Z" fill="#997659"/>
<path fill-rule="evenodd" clip-rule="evenodd" d="M323.739 453.937C322.991 453.035 321.65 452.745 320.766 453.514C320.267 453.949 319.792 454.415 319.558 454.787C318.938 455.771 318.082 457.862 318.082 457.862C319.241 458.571 338.912 470.61 338.912 470.61C338.912 470.61 341.389 468.464 339.773 467.182C338.156 465.901 337.106 465.023 337.106 465.023L330.434 455.328C330.114 454.865 329.47 454.752 329.009 455.078L327.929 455.845C327.929 455.845 325.841 455.598 324.828 454.978C324.481 454.766 324.095 454.368 323.739 453.937Z" fill="#E4E4E4"/>
<path fill-rule="evenodd" clip-rule="evenodd" d="M321.52 450.85L333.168 449.037C337.199 433.851 354.445 371.33 349.898 346.635L325.588 355.16C318.737 376.567 325.083 435.6 321.52 450.85Z" fill="#C0D8E0"/>
<path fill-rule="evenodd" clip-rule="evenodd" d="M376.866 317.504L364.341 329.127L371.238 333.444L379.324 321.154C384.513 318.203 386.776 316.437 386.114 315.857C385.555 315.368 384.911 315.555 384.319 315.727C383.857 315.861 383.426 315.986 383.09 315.776C382.323 315.296 382.882 312.784 383.517 310.423C384.152 308.062 382.939 308.564 382.297 309.045C380.355 311.221 378.545 314.041 376.866 317.504ZM313.965 350.631L304.98 351.934C304.62 368.706 304.149 377.993 303.566 379.795C303.138 381.116 299.153 385.531 296.318 388.137C295.18 389.183 295.873 390.202 296.397 390.421C299.701 391.808 301.729 390.205 303.936 388.46C304.575 387.954 305.229 387.437 305.934 386.977C307.757 385.787 308.731 386.586 309.652 387.342C310.467 388.011 311.24 388.645 312.523 387.834C312.362 387.586 312.175 387.31 311.972 387.013C310.664 385.09 308.735 382.255 309.274 380.025C309.551 378.881 311.115 369.083 313.965 350.631Z" fill="#B28B67"/>
<path fill-rule="evenodd" clip-rule="evenodd" d="M325.024 310.065L328.35 308.225C338.723 312.89 348.261 329.492 354.247 330.033C359.907 330.545 366.024 325.984 373.169 320.217L377.669 324.857C373.088 335.395 359.653 347.653 351.847 346.082C339.367 343.57 329.115 322.564 325.024 310.065Z" fill="#EBD6BC"/>
<path fill-rule="evenodd" clip-rule="evenodd" d="M325.404 359.314C325.404 359.314 346.705 351.845 356.741 348.326C358.173 347.823 357.168 345.882 356.59 344.927C349.921 333.905 335.982 324.39 329.89 307.508L320.347 309.282C317.145 323.747 319.821 339.234 325.404 359.314Z" fill="#F2F2F2"/>
<path fill-rule="evenodd" clip-rule="evenodd" d="M321.397 308.914L319.766 309.486C303.932 328.9 298.562 352.271 303.657 379.599L310.683 378.563C313.233 372.043 315.655 361.986 317.948 348.392C318.455 355.919 319.554 363.436 321.501 370.225L349.71 360.334C350.266 344.827 323.347 308.23 323.347 308.23L321.397 308.914Z" fill="#FFE7CA"/>
<path d="M438.345 248.256L461.635 312.874L547.816 282.384V279.632L463.464 309.816L441.384 246.207L438.345 248.256Z" fill="#2C7D98"/>
<path d="M475.279 305.596L461.758 272.507L469.759 268.256L485.172 302.048L475.279 305.596Z" fill="#2C7D98"/>
<path d="M494.879 298.225L473.481 244.768L481.482 240.518L504.771 294.677L494.879 298.225Z" fill="#2C7D98"/>
<path d="M517.455 290.489L489.08 218.408L497.081 214.157L527.379 286.941L517.455 290.489Z" fill="#2C7D98"/>
<path d="M453.08 379.196V418.462H507.815V416.933H454.972L454.879 397.086L454.817 378.676L453.08 379.196Z" fill="#2C7D98"/>
<path d="M474.881 405.863L470.384 399.563L459.964 405.221L459.158 403.814L470.881 397.453L474.974 403.202L482.975 393.539L489.27 396.046L507.35 383.875L508.28 385.221L489.487 397.851L483.471 395.496L474.881 405.863Z" fill="#2C7D98"/>
<path d="M363.471 242.485L330.196 237.409L345.081 207.5L378.357 212.577L363.471 242.485Z" fill="#2C7D98"/>
<path d="M361.766 232.791L328.491 227.715L343.376 197.806L376.682 202.883L361.766 232.791Z" fill="#2C7D98"/>
<path d="M330.165 237.41C330.165 237.41 324.397 232.914 328.49 227.715L361.859 232.792C361.859 232.792 359.564 238.908 363.564 242.486L330.165 237.41Z" fill="#2C7D98"/>
<path d="M363.471 242.517L330.196 237.41C330.196 237.41 324.397 232.914 328.49 227.715L361.859 232.792C361.669 233.372 361.524 233.965 361.425 234.566C361.109 235.819 361.082 237.125 361.345 238.39C361.608 239.655 362.154 240.845 362.944 241.875L363.471 242.517Z" fill="#2C7D98"/>
<path d="M362.851 241.874L330.847 236.981C329.708 236.176 328.936 234.961 328.699 233.599C328.461 232.237 328.776 230.837 329.576 229.703L361.332 234.565C361.016 235.818 360.989 237.125 361.252 238.389C361.515 239.654 362.061 240.845 362.851 241.874Z" fill="white"/>
<path d="M362.851 241.874L377.365 212.424C376.091 209.4 375.873 206.043 376.744 202.883L361.332 234.565C361.029 235.819 361.009 237.123 361.271 238.386C361.533 239.648 362.073 240.839 362.851 241.874Z" fill="white"/>
<path opacity="0.43" d="M362.851 241.324L377.365 211.843C377.365 211.843 375.535 209.336 376.744 202.883L361.425 234.015C361.109 235.262 361.073 236.562 361.32 237.825C361.566 239.087 362.089 240.281 362.851 241.324Z" fill="#2C7D98"/>
<defs>
<linearGradient id="paint0_linear" x1="449.532" y1="84.6851" x2="214.916" y2="674.726" gradientUnits="userSpaceOnUse">
<stop stop-color="#FFE7CA"/>
<stop offset="1" stop-color="#FFE7CA" stop-opacity="0.4"/>
</linearGradient>
<linearGradient id="paint1_linear" x1="7368.77" y1="7419.89" x2="3652.62" y2="9615.7" gradientUnits="userSpaceOnUse">
<stop offset="0.01"/>
<stop offset="0.08" stop-opacity="0.69"/>
<stop offset="0.21" stop-opacity="0.32"/>
<stop offset="1" stop-opacity="0"/>
</linearGradient>
<linearGradient id="paint2_linear" x1="7991.51" y1="8277.42" x2="12041.6" y2="13538.1" gradientUnits="userSpaceOnUse">
<stop offset="0.01"/>
<stop offset="0.08" stop-opacity="0.69"/>
<stop offset="0.21" stop-opacity="0.32"/>
<stop offset="1" stop-opacity="0"/>
</linearGradient>
<linearGradient id="paint3_linear" x1="200.5" y1="419.843" x2="289.734" y2="451.16" gradientUnits="userSpaceOnUse">
<stop stop-color="#C0D8E0"/>
<stop offset="1" stop-color="#C0D8E0" stop-opacity="0"/>
</linearGradient>
<linearGradient id="paint4_linear" x1="978.449" y1="1887.4" x2="1123.92" y2="2043.55" gradientUnits="userSpaceOnUse">
<stop offset="0.01"/>
<stop offset="0.08" stop-opacity="0.69"/>
<stop offset="0.21" stop-opacity="0.32"/>
<stop offset="1" stop-opacity="0"/>
</linearGradient>
<linearGradient id="paint5_linear" x1="204" y1="286.739" x2="671.98" y2="286.739" gradientUnits="userSpaceOnUse">
<stop offset="0.01" stop-color="white"/>
<stop offset="1" stop-color="white" stop-opacity="0"/>
</linearGradient>
</defs>
</svg>
