<svg width="60" height="60" viewBox="0 0 60 60" fill="none" xmlns="http://www.w3.org/2000/svg">
<path fill-rule="evenodd" clip-rule="evenodd" d="M6.76231 23.3088C6.85932 23.2247 6.92065 23.1188 6.95408 23.0055C8.42707 22.8602 9.87216 23.4242 10.8513 24.5388L13.3797 27.4181L13.7162 26.8366L11.3306 24.1199C10.1929 22.8246 8.50316 22.1813 6.79287 22.3836C6.55681 22.1465 6.17698 22.1283 5.92143 22.3515C5.65624 22.5831 5.62978 22.9846 5.86236 23.2489C6.09412 23.5132 6.49713 23.5402 6.76231 23.3088ZM39.199 41.3894L41.5457 45.4696C41.9834 44.3855 41.7599 43.0966 40.8784 42.2229C40.4052 41.7543 39.8131 41.4787 39.199 41.3894Z" fill="#2C7D98"/>
<path fill-rule="evenodd" clip-rule="evenodd" d="M37.709 12H22.2925L38.4508 40.0895L38.8206 40.7322L38.8139 40.7199C39.7247 40.7328 40.6322 41.0824 41.3281 41.7716C42.5158 42.9492 42.7168 44.7478 41.9296 46.1361L44.4765 50.5641H60.0001L37.709 12Z" fill="#2C7D98"/>
<path fill-rule="evenodd" clip-rule="evenodd" d="M15.898 44.1485C16.7793 45.151 18.0066 45.6763 19.2484 45.7021L37.7091 12H22.2926L8.54761 35.7777L15.898 44.1485Z" fill="#A9DEEA"/>
<path fill-rule="evenodd" clip-rule="evenodd" d="M18.8475 46.3135C17.5684 46.1936 16.3308 45.6055 15.419 44.567L8.21095 36.3595L0 50.5641H16.5845L19.2471 45.7031L18.8475 46.3135Z" fill="#A6DCE9"/>
<path fill-rule="evenodd" clip-rule="evenodd" d="M2.94 26.5787C3.02019 26.5527 3.09628 26.5114 3.16355 26.4533C3.42792 26.222 3.45499 25.8192 3.22303 25.5549C2.99046 25.2902 2.58724 25.2641 2.32226 25.4954C2.05728 25.727 2.0302 26.1289 2.26258 26.3934C2.27775 26.4102 2.29478 26.4235 2.312 26.438C1.96027 28.0489 2.3885 29.7297 3.48268 30.976L8.21072 36.3597L8.54728 35.7775L3.96199 30.5569C3.00317 29.4646 2.63216 27.992 2.94 26.5787ZM23.0094 44.8315C24.8708 42.9936 25.0716 40.0489 23.4787 37.9778L23.1407 38.5953C24.4059 40.4723 24.1079 43.045 22.359 44.5732C21.4652 45.3538 20.351 45.7248 19.2482 45.7021L18.8474 46.3137C20.1262 46.433 21.4482 46.0848 22.5291 45.2509L27.5873 51.0101L28.067 50.5905L23.0094 44.8315ZM42.3766 44.7531C42.3553 44.9436 42.3196 45.1324 42.2681 45.3183C42.3196 45.1324 42.3553 44.9436 42.3766 44.7531ZM42.1605 43.0489C42.2253 43.2191 42.277 43.393 42.3162 43.5691C42.277 43.393 42.2253 43.2191 42.1605 43.0489ZM40.7767 41.3236C40.8719 41.387 40.965 41.4549 41.0556 41.5275C40.965 41.4547 40.8719 41.387 40.7767 41.3236ZM38.8181 40.7204C38.9202 40.7214 39.0222 40.7288 39.1241 40.7386C39.0222 40.7288 38.9202 40.7214 38.8181 40.7204ZM38.8137 40.7201V40.7203C38.8153 40.7203 38.8165 40.7201 38.818 40.7203C38.8165 40.7201 38.8153 40.7201 38.8137 40.7201Z" fill="#2C7D98"/>
<path fill-rule="evenodd" clip-rule="evenodd" d="M42.0522 45.8962C42.0606 45.8787 42.0684 45.8611 42.0762 45.8435C42.0684 45.8611 42.0606 45.8787 42.0522 45.8962ZM39.124 40.7386C39.1453 40.7408 39.1665 40.7435 39.1888 40.7459C39.1665 40.7435 39.1453 40.7408 39.124 40.7386ZM42.0762 45.8435C42.1127 45.7633 42.1474 45.6823 42.1771 45.5999C42.1474 45.6823 42.1127 45.7633 42.0762 45.8435ZM41.5457 45.4689C41.4013 45.8289 41.1833 46.1664 40.8918 46.4581C39.7257 47.6292 37.821 47.6357 36.6456 46.4724C35.4724 45.3087 35.4654 43.4082 36.632 42.2371C37.3287 41.5376 38.288 41.2567 39.199 41.3899V41.3895L38.8136 40.7204C37.8601 40.7065 36.9032 41.0626 36.18 41.7887C34.8405 43.1325 34.7778 45.2666 35.9823 46.6874L33.645 49.0332L32.1183 50.5643C31.5824 51.0604 30.8642 51.3645 30.077 51.3645C29.3046 51.3645 28.6087 51.1297 28.0663 50.5913L27.5872 51.01C28.2016 51.6403 29.1126 52.0001 30.0776 52.0001C31.0848 52.0001 31.9985 51.5889 32.6579 50.9274L36.4349 47.1362C37.8669 48.3269 40.0056 48.251 41.3447 46.9065C41.5787 46.6714 41.7723 46.4117 41.9294 46.1359L41.5457 45.4697V45.4689ZM41.9294 46.1352C41.9743 46.0568 42.0145 45.977 42.0523 45.8962C42.0145 45.977 41.9743 46.0568 41.9294 46.1352ZM39.1889 40.7458C39.2898 40.7579 39.3917 40.7722 39.4922 40.7927C39.3917 40.7722 39.2898 40.7579 39.1889 40.7458ZM40.4741 41.1439C40.5736 41.1966 40.6706 41.2537 40.766 41.3165C40.6706 41.2537 40.5736 41.1966 40.4741 41.1439Z" fill="#2C7D98"/>
<path fill-rule="evenodd" clip-rule="evenodd" d="M39.199 41.3896C39.4869 41.4317 39.7693 41.5163 40.0372 41.641C39.7693 41.5154 39.4869 41.4317 39.199 41.3896Z" fill="#2C7D98"/>
</svg>
