<svg width="107" height="125" viewBox="0 0 107 125" fill="none" xmlns="http://www.w3.org/2000/svg">
<path fill-rule="evenodd" clip-rule="evenodd" d="M4.19164 90.9935H6.25982C5.84633 86.9499 5.50176 82.6679 5.22682 78.6959C4.91525 82.7373 4.4673 86.9499 4.19164 90.9935ZM10.2594 98.9379H7.01898L6.57067 93.9633H3.88116L3.43285 98.9379H0.192017L3.19128 74.7595H7.26018L10.2594 98.9379ZM16.1554 91.6844H19.2936V94.9657C19.2936 97.4533 18.2936 99.2836 14.9146 99.2836C11.4322 99.2836 10.4326 97.4533 10.4326 94.9657V78.7651C10.4326 76.2422 11.4322 74.4119 14.9146 74.4119C18.2936 74.4119 19.2936 76.2422 19.2936 78.7651V81.6659H16.1554V78.7651C16.1554 77.9355 15.8457 77.3141 14.9146 77.3141C13.9839 77.3141 13.6386 77.9355 13.6386 78.7651V94.9304C13.6386 95.8294 13.9839 96.417 14.9146 96.417C15.8457 96.417 16.1554 95.8294 16.1554 94.9304V91.6844ZM23.6375 90.9935H25.7064C25.2925 86.9499 24.9483 82.6679 24.6723 78.6959C24.3618 82.7373 23.9135 86.9499 23.6375 90.9935ZM29.7056 98.9379H26.4641L26.0165 93.9633H23.3273L22.8787 98.9379H19.6382L22.6375 74.7595H26.7064L29.7056 98.9379ZM35.1883 95.8969C36.0497 95.8969 36.3254 95.4837 36.3254 94.7235V79.0411C36.3254 78.2115 36.0153 77.8325 35.1535 77.8325H33.7748V95.8969H35.1883ZM30.5673 74.7595H35.2568C38.671 74.7595 39.5325 76.3812 39.5325 79.0059V94.6898C39.5325 97.3838 38.7044 98.9379 35.3261 98.9379H30.5673V74.7595Z" fill="#5CC6D2"/>
<path fill-rule="evenodd" clip-rule="evenodd" d="M44.6354 95.8969H48.7729V98.938H41.4283V74.7595H48.7729V77.8326H44.6354V85.225H48.2212V88.1945H44.6354V95.8969Z" fill="#5CC6D2"/>
<path fill-rule="evenodd" clip-rule="evenodd" d="M55.9095 98.938L52.9099 80.3198L53.2889 93.9634V98.938H50.3241V74.7595H54.2548L56.9784 92.4448L59.702 74.7595H63.6334V98.938H60.6679V93.9634L61.0477 80.3198L58.048 98.938H55.9095Z" fill="#5CC6D2"/>
<path fill-rule="evenodd" clip-rule="evenodd" d="M65.702 98.9381H68.9095V74.76H65.702V98.9381Z" fill="#5CC6D2"/>
<path fill-rule="evenodd" clip-rule="evenodd" d="M73.77 90.9935H75.8386C75.4254 86.9499 75.0798 82.6679 74.8045 78.6959C74.4943 82.7374 74.0453 86.9499 73.77 90.9935ZM79.8393 98.9379H76.5977L76.149 93.9634H73.4599L73.0109 98.9379H69.7704L72.7711 74.7595H76.8393L79.8393 98.9379ZM91.1812 95.8969C92.0434 95.8969 92.3198 95.4837 92.3198 94.7236V79.0412C92.3198 78.2116 92.0086 77.8326 91.1464 77.8326H89.7696V95.8969H91.1812ZM86.5617 74.7596H91.2505C94.6647 74.7596 95.5262 76.3813 95.5262 79.0059V94.6898C95.5262 97.3838 94.6984 98.938 91.3201 98.938H86.5617V74.7596ZM100.215 90.9935H102.285C101.87 86.9499 101.525 82.6679 101.25 78.6959C100.938 82.7374 100.491 86.9499 100.215 90.9935ZM106.283 98.9379H103.043L102.593 93.9634H99.9042L99.457 98.9379H96.2154L99.2154 74.7595H103.284L106.283 98.9379Z" fill="#5CC6D2"/>
<path fill-rule="evenodd" clip-rule="evenodd" d="M3.33229 121.54H7.18429V124.371H0.347534V101.862H7.18429V104.725H3.33229V111.605H6.67033V114.37H3.33229V121.54Z" fill="#2C7D98"/>
<path fill-rule="evenodd" clip-rule="evenodd" d="M13.4422 118.166C13.4422 112.28 8.14624 114.37 8.14624 107.522V105.561C8.14624 103.245 9.14152 101.541 12.287 101.541C15.432 101.541 16.4273 103.245 16.4273 105.561V108.294H13.4422V105.561C13.4422 104.788 13.1858 104.242 12.287 104.242C11.4208 104.242 11.1321 104.788 11.1321 105.561V107.424C11.1321 112.474 16.4273 110.577 16.4273 118.102V120.704C16.4273 123.021 15.432 124.693 12.287 124.693C9.14152 124.693 8.14624 123.021 8.14624 120.704V117.618H11.1321V120.673C11.1321 121.445 11.4208 122.025 12.287 122.025C13.1858 122.025 13.4422 121.445 13.4422 120.673V118.166ZM22.1402 112.119C22.9421 112.119 23.1986 111.734 23.1986 110.996V105.85C23.1986 105.078 22.9098 104.725 22.1072 104.725H20.8562V112.119H22.1402ZM17.8707 101.862H22.332C25.4133 101.862 26.1518 103.406 26.1518 105.721V111.059C26.1518 113.471 25.1249 114.886 22.2686 114.886H20.8562V124.371H17.8707V101.862Z" fill="#2C7D98"/>
<path fill-rule="evenodd" clip-rule="evenodd" d="M30.4199 121.54H34.2719V124.371H27.4352V101.862H34.2719V104.725H30.4199V111.605H33.758V114.37H30.4199V121.54Z" fill="#2C7D98"/>
<path fill-rule="evenodd" clip-rule="evenodd" d="M40.7224 117.618H43.6433V120.673C43.6433 122.987 42.7122 124.693 39.5668 124.693C36.3256 124.693 35.3945 122.987 35.3945 120.673V105.592C35.3945 103.245 36.3256 101.541 39.5668 101.541C42.7122 101.541 43.6433 103.245 43.6433 105.592V108.294H40.7224V105.592C40.7224 104.822 40.4337 104.242 39.5668 104.242C38.7006 104.242 38.3793 104.822 38.3793 105.592V120.641C38.3793 121.477 38.7006 122.025 39.5668 122.025C40.4337 122.025 40.7224 121.477 40.7224 120.641V117.618Z" fill="#2C7D98"/>
<path fill-rule="evenodd" clip-rule="evenodd" d="M45.087 124.371H48.0722V101.862H45.087V124.371Z" fill="#2C7D98"/>
<path fill-rule="evenodd" clip-rule="evenodd" d="M52.5966 116.974H54.5226C54.1378 113.212 53.8161 109.227 53.5589 105.529C53.2713 109.29 52.8542 113.212 52.5966 116.974ZM58.2459 124.371H55.2292L54.8106 119.742H52.3079L51.8908 124.371H48.8727L51.6656 101.862H55.4541L58.2459 124.371Z" fill="#2C7D98"/>
<path fill-rule="evenodd" clip-rule="evenodd" d="M59.047 101.862H62.0325V121.54H65.1137V124.371H59.047V101.862Z" fill="#2C7D98"/>
<path fill-rule="evenodd" clip-rule="evenodd" d="M65.9142 124.371H68.9V101.862H65.9142V124.371Z" fill="#2C7D98"/>
<path fill-rule="evenodd" clip-rule="evenodd" d="M75.1262 121.54C75.9278 121.54 76.1843 121.155 76.1843 120.448V105.85C76.1843 105.078 75.8959 104.725 75.0936 104.725H73.8107V121.54H75.1262ZM70.8256 101.862H75.1897C78.3681 101.862 79.1705 103.375 79.1705 105.818V120.416C79.1705 122.924 78.3997 124.371 75.2543 124.371H70.8256V101.862ZM83.5338 116.974H85.4598C85.0753 113.212 84.7543 109.227 84.4979 105.529C84.2084 109.29 83.7902 113.212 83.5338 116.974ZM89.1841 124.371H86.1663L85.7489 119.742H83.2454L82.8283 124.371H79.8113L82.6038 101.862H86.3912L89.1841 124.371ZM94.2855 121.54C95.0878 121.54 95.3446 121.155 95.3446 120.448V105.85C95.3446 105.078 95.0552 104.725 94.2536 104.725H92.9696V121.54H94.2855ZM89.9848 101.862H94.3497C97.5274 101.862 98.3294 103.375 98.3294 105.818V120.416C98.3294 122.924 97.5586 124.371 94.4139 124.371H89.9848V101.862Z" fill="#2C7D98"/>
<path fill-rule="evenodd" clip-rule="evenodd" d="M103.079 121.54H106.93V124.371H100.094V101.862H106.93V104.725H103.079V111.605H106.417V114.37H103.079V121.54Z" fill="#2C7D98"/>
<path fill-rule="evenodd" clip-rule="evenodd" d="M11.9594 20.0894C12.131 19.9401 12.2394 19.7519 12.2986 19.5506C14.9036 19.2926 17.4592 20.2944 19.1908 22.2744L23.6623 27.3892L24.2575 26.3561L20.0385 21.5302C18.0265 19.2293 15.0381 18.0865 12.0135 18.4459C11.596 18.0248 10.9242 17.9924 10.4723 18.3888C10.0033 18.8002 9.95653 19.5135 10.3678 19.983C10.7777 20.4524 11.4904 20.5004 11.9594 20.0894ZM69.3242 52.208L73.4743 59.4561C74.2484 57.5303 73.853 55.2407 72.2941 53.6887C71.4573 52.8562 70.4101 52.3667 69.3242 52.208Z" fill="#2C7D98"/>
<path fill-rule="evenodd" clip-rule="evenodd" d="M66.6889 0.000244141H39.4246L68.0008 49.8989L68.6548 51.0406L68.6428 51.0188C70.2536 51.0417 71.8586 51.6627 73.0893 52.8869C75.1898 54.9788 75.5452 58.1739 74.1531 60.6401L78.6573 68.5061H106.111L66.6889 0.000244141Z" fill="#2C7D98"/>
<path fill-rule="evenodd" clip-rule="evenodd" d="M28.1157 57.1093C29.6743 58.8901 31.8447 59.8233 34.0409 59.8691L66.689 0.000244141H39.4247L15.1165 42.2393L28.1157 57.1093Z" fill="#A9DEEA"/>
<path fill-rule="evenodd" clip-rule="evenodd" d="M33.3321 60.9554C31.0699 60.7424 28.8813 59.6977 27.2687 57.8529L14.5212 43.2729L0 68.5062H29.33L34.0387 59.8711L33.3321 60.9554Z" fill="#A6DCE9"/>
<path fill-rule="evenodd" clip-rule="evenodd" d="M5.19966 25.8978C5.34148 25.8517 5.47604 25.7783 5.59501 25.6751C6.06255 25.2641 6.11042 24.5486 5.7002 24.0791C5.28888 23.6089 4.57579 23.5624 4.10717 23.9734C3.63854 24.3847 3.59067 25.0988 4.00162 25.5686C4.02846 25.5984 4.05856 25.622 4.08903 25.6478C3.46698 28.5094 4.22432 31.4952 6.15939 33.7092L14.521 43.2728L15.1162 42.2387L7.00705 32.9647C5.31137 31.0243 4.65522 28.4083 5.19966 25.8978ZM40.6926 58.3224C43.9846 55.0575 44.3397 49.8264 41.5225 46.1472L40.9248 47.2442C43.1623 50.5786 42.6353 55.1487 39.5425 57.8634C37.9618 59.2501 35.9912 59.9092 34.0409 59.8689L33.3321 60.9554C35.5936 61.1672 37.9317 60.5488 39.8432 59.0673L48.7887 69.298L49.6371 68.5528L40.6926 58.3224ZM74.9438 58.1831C74.9061 58.5214 74.8429 58.8568 74.7519 59.1871C74.8429 58.8568 74.9061 58.5214 74.9438 58.1831ZM74.5616 55.1557C74.6762 55.458 74.7676 55.7668 74.8369 56.0797C74.7676 55.7668 74.6762 55.458 74.5616 55.1557ZM72.1143 52.0908C72.2826 52.2034 72.4473 52.324 72.6076 52.453C72.4473 52.3237 72.2826 52.2034 72.1143 52.0908ZM68.6505 51.0193C68.8311 51.0211 69.0114 51.0342 69.1917 51.0516C69.0114 51.0342 68.8311 51.0211 68.6505 51.0193ZM68.6427 51.0187V51.0191C68.6456 51.0191 68.6478 51.0187 68.6503 51.0191C68.6478 51.0187 68.6456 51.0187 68.6427 51.0187Z" fill="#2C7D98"/>
<path fill-rule="evenodd" clip-rule="evenodd" d="M74.3703 60.214C74.3852 60.1828 74.399 60.1515 74.4128 60.1203C74.399 60.1515 74.3852 60.1828 74.3703 60.214ZM69.1918 51.0518C69.2295 51.0558 69.2668 51.0606 69.3064 51.0649C69.2668 51.0606 69.2295 51.0558 69.1918 51.0518ZM74.4128 60.1203C74.4774 59.9779 74.5387 59.834 74.5913 59.6876C74.5387 59.834 74.4774 59.9779 74.4128 60.1203ZM73.4745 59.4548C73.2192 60.0943 72.8336 60.6939 72.3182 61.2121C70.2558 63.2924 66.8873 63.304 64.8086 61.2375C62.7339 59.1703 62.7215 55.7942 64.7847 53.7139C66.0168 52.4712 67.7132 51.9723 69.3244 52.2088V52.2081L68.6428 51.0195C66.9566 50.9948 65.2642 51.6274 63.9852 52.9174C61.6164 55.3044 61.5054 59.0954 63.6356 61.6194L59.5021 65.7866L56.8021 68.5064C55.8543 69.3876 54.5841 69.9279 53.192 69.9279C51.826 69.9279 50.5954 69.5108 49.636 68.5544L48.7887 69.2982C49.8754 70.4178 51.4865 71.0569 53.1931 71.0569C54.9744 71.0569 56.5903 70.3265 57.7564 69.1514L64.4361 62.4167C66.9685 64.5319 70.7509 64.397 73.119 62.0086C73.5329 61.5911 73.8753 61.1296 74.1531 60.6398L73.4745 59.4563V59.4548ZM74.1532 60.6384C74.2326 60.4993 74.3037 60.3575 74.3704 60.214C74.3037 60.3575 74.2326 60.4993 74.1532 60.6384ZM69.3065 51.0648C69.485 51.0862 69.6652 51.1116 69.843 51.148C69.6652 51.1116 69.485 51.0862 69.3065 51.0648ZM71.5795 51.7718C71.7554 51.8656 71.927 51.967 72.0956 52.0785C71.927 51.967 71.7554 51.8656 71.5795 51.7718Z" fill="#2C7D98"/>
<path fill-rule="evenodd" clip-rule="evenodd" d="M69.3242 52.2085C69.8335 52.283 70.3329 52.4327 70.8066 52.6536C70.3329 52.4312 69.8335 52.283 69.3242 52.2085Z" fill="#2C7D98"/>
</svg>
