<svg width="18" height="16" viewBox="0 0 18 16" fill="none" xmlns="http://www.w3.org/2000/svg">
<path fill-rule="evenodd" clip-rule="evenodd" d="M17.7984 8.52458C17.788 8.53696 17.7846 8.55219 17.7742 8.56362L13.5902 11.7772C13.3194 12.0743 12.8816 12.0743 12.6108 11.7772C12.3409 11.4829 12.3409 11.0039 12.6108 10.7087L14.4623 8.73217H0.66186C0.29589 8.73217 0 8.40554 0 8.00274C0 7.60088 0.29589 7.27426 0.66186 7.27426H14.4683L12.6108 5.29008C12.3409 4.99488 12.3409 4.51589 12.6108 4.22069C12.8816 3.92644 13.3194 3.92644 13.5902 4.22069L17.7742 7.43519C17.8045 7.46757 17.8183 7.50851 17.8417 7.54565C17.936 7.67135 18 7.82657 18 8.00274C18 8.20843 17.9221 8.39221 17.7984 8.52458Z" fill="white"/>
</svg>
