<svg width="304" height="206" viewBox="0 0 304 206" fill="none" xmlns="http://www.w3.org/2000/svg">
<mask id="mask0" mask-type="alpha" maskUnits="userSpaceOnUse" x="0" y="0" width="304" height="206">
<rect width="304" height="206" fill="#C4C4C4"/>
</mask>
<g mask="url(#mask0)">
<path opacity="0.06" fill-rule="evenodd" clip-rule="evenodd" d="M151.05 171.255C153.184 143.43 267.714 89.7238 288.976 116.079C310.238 142.435 304.856 197.871 260.299 210.537C215.742 223.203 148.915 199.08 151.05 171.255Z" fill="#2C7D98"/>
<path opacity="0.4" fill-rule="evenodd" clip-rule="evenodd" d="M206.91 155.076C203.892 122.414 41.9971 59.3732 11.9418 90.31C-18.1135 121.247 10.7809 179.307 73.7657 194.175C136.75 209.042 209.927 187.738 206.91 155.076Z" fill="#C0D8E0"/>
<path d="M8.24753 214.467C11.9813 217.912 18.1636 218.557 23.7774 218.894C49.9805 220.476 76.2951 220.361 102.476 218.55C112.095 217.884 121.757 216.981 131.289 215.591C142.857 213.901 154.286 211.479 165.977 210.541C202.572 207.604 239.823 219.266 275.832 213.17C279.985 212.454 284.751 211.021 285.809 207.64C286.745 204.695 284.113 201.622 280.764 200.297C277.414 198.971 273.549 198.979 269.833 199.007C193.207 199.552 116.581 200.34 39.9544 200.641C33.8333 200.641 27.2314 200.017 21.3727 201.765C16.4934 203.227 2.83481 209.481 8.24753 214.467Z" fill="#C0D8E0"/>
<path d="M129.178 15H87.8219C79.636 15 73 21.597 73 29.7349V191.265C73 199.403 79.636 206 87.8219 206H129.178C137.364 206 144 199.403 144 191.265V29.7349C144 21.597 137.364 15 129.178 15Z" fill="#A6DCE9"/>
<path opacity="0.3" d="M129.178 15H87.8219C79.636 15 73 21.597 73 29.7349V191.265C73 199.403 79.636 206 87.8219 206H129.178C137.364 206 144 199.403 144 191.265V29.7349C144 21.597 137.364 15 129.178 15Z" fill="url(#paint0_linear)"/>
<path d="M151.431 15H95.569C86.4182 15 79 22.399 79 31.5262V189.474C79 198.601 86.4182 206 95.569 206H151.431C160.582 206 168 198.601 168 189.474V31.5262C168 22.399 160.582 15 151.431 15Z" fill="#A6DCE9"/>
<path d="M162 29H87V192H162V29Z" fill="#ECF8FB"/>
<path d="M184.116 122.689L207.102 122.386L215.534 148.523L225.746 184.518H202.956L184.116 122.689ZM212.804 149.38L205.032 125.291L187.958 125.521L205.066 181.693H221.965L212.804 149.38Z" fill="#C0D8E0"/>
<path d="M253.423 113.062H217.429V178.639H253.423V113.062Z" fill="#A6DCE9"/>
<path opacity="0.4" d="M253.423 113.062H217.429V178.639H253.423V113.062Z" fill="url(#paint1_linear)"/>
<path opacity="0.3" d="M246.197 113.224V132.674L233.181 178.322H250.854L254.717 164.495L253.429 113.062L246.197 113.224Z" fill="#333333"/>
<path d="M282.452 126.281L254.196 118.295L239.651 169.774L267.906 177.761L282.452 126.281Z" fill="#FFE7CA"/>
<path opacity="0.2" d="M282.454 126.203L254.198 118.217L239.653 169.696L267.908 177.683L282.454 126.203Z" fill="url(#paint2_linear)"/>
<path d="M219.815 203.677C219.17 202.611 218.961 201.337 219.231 200.121C219.501 198.904 220.229 197.839 221.263 197.145C222.298 196.451 223.56 196.182 224.788 196.394C226.016 196.606 227.114 197.283 227.856 198.284C228.247 198.811 228.526 199.412 228.678 200.05C228.829 200.688 228.85 201.35 228.738 201.996C228.627 202.642 228.385 203.259 228.028 203.809C227.671 204.359 227.207 204.831 226.662 205.196C226.117 205.562 225.504 205.813 224.86 205.934C224.216 206.055 223.553 206.045 222.913 205.903C222.273 205.761 221.668 205.49 221.136 205.108C220.603 204.725 220.154 204.239 219.815 203.677ZM225.49 199.868C225.272 199.53 224.957 199.264 224.587 199.105C224.217 198.947 223.807 198.902 223.412 198.978C223.016 199.053 222.652 199.246 222.366 199.529C222.08 199.813 221.885 200.176 221.807 200.572C221.729 200.967 221.77 201.377 221.927 201.748C222.083 202.12 222.346 202.436 222.683 202.657C223.02 202.877 223.416 202.992 223.818 202.987C224.221 202.981 224.613 202.856 224.944 202.626C225.375 202.327 225.673 201.872 225.774 201.357C225.876 200.843 225.774 200.309 225.49 199.868Z" fill="#2E2E3F"/>
<path d="M255.317 203.678C254.652 202.61 254.427 201.325 254.691 200.095C254.955 198.865 255.687 197.786 256.732 197.085C257.777 196.385 259.053 196.119 260.291 196.342C261.529 196.566 262.632 197.262 263.365 198.284C264.031 199.352 264.256 200.636 263.992 201.866C263.728 203.097 262.996 204.176 261.951 204.876C260.906 205.577 259.629 205.843 258.392 205.619C257.154 205.396 256.051 204.699 255.317 203.678ZM260.993 199.868C260.774 199.53 260.459 199.265 260.088 199.107C259.717 198.949 259.308 198.906 258.912 198.982C258.516 199.058 258.153 199.251 257.867 199.536C257.582 199.821 257.388 200.184 257.311 200.58C257.234 200.975 257.276 201.385 257.433 201.756C257.59 202.127 257.854 202.443 258.192 202.663C258.53 202.883 258.926 202.997 259.329 202.99C259.731 202.984 260.123 202.857 260.454 202.626C260.883 202.326 261.179 201.87 261.28 201.356C261.381 200.842 261.278 200.308 260.993 199.868Z" fill="#2E2E3F"/>
<path d="M207.749 133.625H289L270.335 184.504H222.228L207.749 133.625ZM284.915 136.476H211.524L224.378 181.646H268.34L284.915 136.476Z" fill="#C0D8E0"/>
<path d="M187.379 133.625H270.018L251.347 184.504H203.24L187.379 133.625ZM265.94 136.476H192.542L205.396 181.646H249.392L265.94 136.476Z" fill="#C0D8E0"/>
<path d="M203.004 198.729H258.782V195.878H205.862V183.075H203.004V198.729Z" fill="#C0D8E0"/>
<path d="M221.675 198.729H267.086V195.878H224.526V183.075H221.675V198.729Z" fill="#C0D8E0"/>
<path d="M207.358 200.974C207.358 200.015 207.643 199.078 208.176 198.281C208.708 197.483 209.466 196.862 210.352 196.495C211.238 196.129 212.213 196.033 213.153 196.221C214.093 196.408 214.957 196.871 215.634 197.549C216.312 198.228 216.773 199.092 216.959 200.033C217.145 200.973 217.048 201.948 216.68 202.834C216.313 203.72 215.69 204.476 214.893 205.008C214.095 205.54 213.157 205.823 212.198 205.822C210.914 205.818 209.685 205.306 208.777 204.398C207.87 203.489 207.36 202.258 207.358 200.974ZM210.21 200.974C210.203 201.377 210.317 201.773 210.536 202.11C210.756 202.448 211.071 202.713 211.442 202.87C211.813 203.027 212.222 203.07 212.618 202.993C213.013 202.916 213.377 202.723 213.661 202.438C213.946 202.153 214.14 201.79 214.216 201.394C214.293 200.999 214.251 200.589 214.093 200.218C213.936 199.847 213.672 199.532 213.334 199.312C212.996 199.093 212.601 198.979 212.198 198.985C211.673 198.994 211.173 199.206 210.802 199.578C210.431 199.949 210.218 200.45 210.21 200.974Z" fill="#2E2E3F"/>
<path d="M242.793 203.677C242.149 202.611 241.94 201.337 242.21 200.121C242.48 198.904 243.207 197.839 244.242 197.145C245.277 196.451 246.539 196.182 247.766 196.394C248.994 196.606 250.093 197.283 250.835 198.284C251.225 198.811 251.505 199.412 251.656 200.05C251.808 200.688 251.829 201.35 251.717 201.996C251.605 202.642 251.364 203.259 251.007 203.809C250.65 204.359 250.185 204.831 249.64 205.196C249.096 205.562 248.483 205.813 247.839 205.934C247.194 206.055 246.532 206.045 245.892 205.903C245.252 205.761 244.647 205.49 244.114 205.108C243.582 204.725 243.132 204.239 242.793 203.677ZM248.469 199.868C248.25 199.53 247.936 199.264 247.566 199.105C247.195 198.947 246.786 198.902 246.39 198.978C245.994 199.053 245.63 199.246 245.344 199.529C245.059 199.813 244.864 200.176 244.786 200.572C244.707 200.967 244.749 201.377 244.905 201.748C245.061 202.12 245.325 202.436 245.662 202.657C245.999 202.877 246.394 202.992 246.797 202.987C247.2 202.981 247.592 202.856 247.923 202.626C248.353 202.327 248.651 201.872 248.753 201.357C248.855 200.843 248.753 200.309 248.469 199.868Z" fill="#2E2E3F"/>
<path d="M282.616 143.818H192.407V145.969H282.616V143.818Z" fill="#C0D8E0"/>
<path d="M280.682 151.052H194.76V153.202H280.682V151.052Z" fill="#C0D8E0"/>
<path d="M277.898 158.286H197.119V160.436H277.898V158.286Z" fill="#C0D8E0"/>
<path d="M275.115 165.52H199.479V167.67H275.115V165.52Z" fill="#C0D8E0"/>
<path d="M272.324 172.747H201.831V174.897H272.324V172.747Z" fill="#C0D8E0"/>
<path d="M276.87 134.429L259.519 182.006L261.539 182.743L278.89 135.166L276.87 134.429Z" fill="#C0D8E0"/>
<path d="M251.791 134.515L237.972 181.447L240.034 182.054L253.854 135.123L251.791 134.515Z" fill="#C0D8E0"/>
<path d="M230.693 134.133L229.088 182.033L231.237 182.105L232.842 134.205L230.693 134.133Z" fill="#C0D8E0"/>
<path d="M205.972 135.465L203.917 136.098L218.372 183.035L220.427 182.402L205.972 135.465Z" fill="#C0D8E0"/>
<path fill-rule="evenodd" clip-rule="evenodd" d="M165.357 66.6637C167.928 68.2024 170.454 68.9459 171.64 68.6424C174.614 67.8813 174.887 57.0802 172.587 52.8221C170.286 48.5639 158.457 46.708 157.861 55.1447C157.654 58.0728 158.892 60.686 160.722 62.8183L157.441 78H166.971L165.357 66.6637Z" fill="#B28B67"/>
<path fill-rule="evenodd" clip-rule="evenodd" d="M167.154 47.9142C165.898 47.7097 162.517 47.5691 161.893 47.5692C161.495 47.5692 161.063 47.6596 160.827 47.2963C160.633 46.9988 160.704 46.4956 160.646 46.1503C160.579 45.7492 160.484 45.3533 160.388 44.9584C160.114 43.8346 159.7 42.7655 159.121 41.7617C158.033 39.8785 156.441 38.4034 154.43 37.545C152.209 36.5972 149.697 36.3802 147.308 36.5724C144.752 36.7781 142.438 37.6159 140.025 38.4043C137.725 39.1555 135.316 39.4512 132.911 39.0844C130.488 38.7148 128.657 37.4106 126.613 36.1729C124.52 34.9057 122.129 34.0769 119.655 34.2674C117.346 34.4453 115.217 35.392 113.308 36.6567C111.521 37.8399 110.047 39.2634 109.215 41.267C108.32 43.4222 108.32 45.788 109.793 47.6927C111.927 50.4536 115.889 51.1675 119.185 51.0966C121.091 51.0556 122.963 50.7101 124.763 50.0815C127.164 49.2432 129.238 47.8224 131.484 46.6696C132.538 46.1286 133.627 45.6843 134.769 45.3643C135.877 45.0536 136.968 44.9111 137.972 45.5757C139.033 46.2787 139.984 46.9694 141.198 47.4095C142.363 47.8317 143.596 48.0679 144.837 48.0584C147.252 48.0398 149.632 47.2929 151.977 46.7926C153.889 46.3847 155.935 45.9782 157.884 46.3703C158.698 46.534 159.886 46.8718 160.18 47.7112C155.235 48.6011 153.293 54.6733 154.687 59.1309C155.439 61.5368 159.962 64.3493 161.721 63.0845C162.835 62.2832 162.158 61.2312 161.721 60.5367C160.882 59.2068 160.596 57.4985 162.147 56.5726C163.485 55.7741 164.891 57.6704 164.918 57.6684C165.286 57.6396 168.463 55.8553 170.653 53.2517C172.812 53.3788 173.14 51.9649 172.624 50.8085C172.109 49.6522 168.89 48.197 167.154 47.9142Z" fill="#191847"/>
<path fill-rule="evenodd" clip-rule="evenodd" d="M151.347 111L166.148 159.901L173.318 201.488H178.94L171.364 111H151.347Z" fill="#997659"/>
<path fill-rule="evenodd" clip-rule="evenodd" d="M146.051 111C147.056 137.849 145.873 151.698 145.648 154.138C145.423 156.577 142.342 172.394 135.048 202.307L141.038 200.228C152.566 172.793 156.494 158.535 157.817 154.933C159.139 151.33 162.65 136.686 168.351 111H146.051Z" fill="#B28B67"/>
<path fill-rule="evenodd" clip-rule="evenodd" d="M137.429 200.238C136.308 199.877 135.014 200.325 134.694 201.458C134.546 201.981 134.434 202.498 134.434 202.862C134.434 203.937 134.788 206 134.788 206C136.022 206 156.973 206 156.973 206C156.973 206 157.838 203.111 155.974 202.881C154.111 202.65 152.879 202.465 152.879 202.465L143.143 198.079C142.627 197.846 142.021 198.088 141.807 198.613L141.381 199.656C141.381 199.656 139.656 200.469 138.578 200.469C138.257 200.469 137.847 200.373 137.429 200.238Z" fill="white"/>
<path fill-rule="evenodd" clip-rule="evenodd" d="M174.402 200.238C173.282 199.877 171.988 200.325 171.667 201.458C171.519 201.981 171.407 202.498 171.407 202.862C171.407 203.937 171.762 206 171.762 206C172.996 206 193.946 206 193.946 206C193.946 206 194.811 203.111 192.948 202.881C191.085 202.65 189.853 202.465 189.853 202.465L180.117 198.079C179.601 197.846 178.994 198.088 178.78 198.613L178.355 199.656C178.355 199.656 176.63 200.469 175.552 200.469C175.231 200.469 174.82 200.373 174.402 200.238Z" fill="white"/>
<path fill-rule="evenodd" clip-rule="evenodd" d="M149.38 111L155.673 135.914H174.896L172.029 111H149.38Z" fill="#69A1AC"/>
<path fill-rule="evenodd" clip-rule="evenodd" d="M145.84 111C142.734 120.409 144.66 135.914 144.66 135.914H164.276L169.67 111H145.84Z" fill="#89C5CC"/>
<path fill-rule="evenodd" clip-rule="evenodd" d="M124.433 123.945C125.902 121.791 135.799 92.8049 135.799 92.8049L144.335 94.0372C144.335 94.0372 130.143 124.221 129.332 125.625C128.279 127.449 129.211 130.444 129.844 132.476C129.942 132.79 130.032 133.081 130.108 133.341C128.78 133.724 128.275 132.965 127.742 132.165C127.14 131.262 126.504 130.306 124.608 130.882C123.875 131.105 123.172 131.391 122.484 131.67C120.109 132.636 117.928 133.523 115.421 131.447C115.024 131.118 114.689 130.042 115.951 129.415C119.097 127.854 123.716 124.998 124.433 123.945ZM195.993 117.447L186.457 105.135L181.896 110.958L192.435 119.334C194.679 124.269 196.096 126.464 196.686 125.919C197.136 125.503 196.964 124.861 196.815 124.303C196.671 123.764 196.548 123.305 197.026 123.204C197.719 123.059 198.172 123.063 199.638 123.078C200.231 123.084 200.991 123.092 202 123.092L203.258 123.092C201.437 121.149 199.016 119.268 195.993 117.447Z" fill="#B28B67"/>
<path fill-rule="evenodd" clip-rule="evenodd" d="M165.221 69.2785L168.675 69.1751C171.353 88.6685 196.854 105.283 197.545 112.527C197.799 115.183 195.763 116.222 196.61 117.139L191.776 119.727C191.156 118.758 189.349 120.117 186.196 118.545C183.044 116.974 162.102 91.4763 165.221 69.2785Z" fill="#CF4D4D"/>
<path fill-rule="evenodd" clip-rule="evenodd" d="M170.674 74.7647C168.249 89.0847 171.59 98.009 174.129 104.793C176.092 110.036 177.576 114.001 175.549 118.19C171.749 126.041 145.202 131.323 141.956 122.648C140.655 119.171 140.397 115.158 140.889 110.903C139.335 113.949 138.007 116.698 137.053 118.914C136.045 121.251 134.074 122.218 132.588 122.947C131.567 123.448 130.775 123.836 130.684 124.48L125.169 122.093C125.45 121.243 125.195 120.503 124.886 119.609C124.435 118.302 123.871 116.667 124.702 113.878C132.614 87.3302 150.395 74.9718 157.426 70.9894C157.936 68.8962 160.022 67.5747 162.144 68.0254L167.803 69.2274C169.55 69.5987 170.787 71.0592 170.952 72.7475L171.041 72.7764C171.018 72.895 170.994 73.0133 170.971 73.1312C170.972 73.4081 170.943 73.6892 170.883 73.971L170.83 74.2217C170.79 74.4088 170.738 74.59 170.674 74.7647Z" fill="#EB5757"/>
<path opacity="0.2" d="M129.564 197H118.436C116.538 197 115 198.342 115 199.997V200.003C115 201.658 116.538 203 118.436 203H129.564C131.462 203 133 201.658 133 200.003V199.997C133 198.342 131.462 197 129.564 197Z" fill="url(#paint3_linear)"/>
</g>
<defs>
<linearGradient id="paint0_linear" x1="-1990.26" y1="55559.7" x2="26125.8" y2="49040" gradientUnits="userSpaceOnUse">
<stop offset="0.01"/>
<stop offset="0.13" stop-opacity="0.69"/>
<stop offset="1" stop-opacity="0"/>
</linearGradient>
<linearGradient id="paint1_linear" x1="235.426" y1="113.062" x2="235.426" y2="178.639" gradientUnits="userSpaceOnUse">
<stop stop-color="#333333" stop-opacity="0"/>
<stop offset="0.442708" stop-color="#333333"/>
</linearGradient>
<linearGradient id="paint2_linear" x1="268.326" y1="122.21" x2="253.781" y2="173.689" gradientUnits="userSpaceOnUse">
<stop stop-color="#333333" stop-opacity="0"/>
<stop offset="0.744792" stop-color="#333333"/>
</linearGradient>
<linearGradient id="paint3_linear" x1="2701.42" y1="2040.14" x2="2700.72" y2="2558.13" gradientUnits="userSpaceOnUse">
<stop offset="0.01"/>
<stop offset="0.13" stop-opacity="0.69"/>
<stop offset="1" stop-opacity="0"/>
</linearGradient>
</defs>
</svg>
