<svg width="19" height="16" viewBox="0 0 19 16" fill="none" xmlns="http://www.w3.org/2000/svg">
<path fill-rule="evenodd" clip-rule="evenodd" d="M18.0176 1.96881H16.1161C16.0508 1.97382 15.9192 2.06885 15.8936 2.13088L13.2431 10.003C13.2383 10.016 13.2289 10.025 13.2241 10.038C13.2099 10.0751 13.1891 10.1061 13.1701 10.1411C13.1323 10.2121 13.0906 10.2781 13.0385 10.3372C13.012 10.3672 12.9845 10.3922 12.9542 10.4192C12.8946 10.4722 12.8292 10.5152 12.7582 10.5512C12.726 10.5683 12.6957 10.5873 12.6607 10.6003C12.5508 10.6423 12.4362 10.6703 12.316 10.6703C12.316 10.6703 12.316 10.6703 12.315 10.6703H4.1721C3.75828 10.6703 3.38991 10.4092 3.25071 10.018L1.05281 3.81655C0.945804 3.51543 0.991258 3.1813 1.17497 2.92019C1.35773 2.65909 1.65603 2.50403 1.97421 2.50403H13.7033L14.0413 1.49863C14.3283 0.646285 15.2203 0.00402832 16.1161 0.00402832H18.0176C18.5584 0.00402832 18.9959 0.443204 18.9959 0.986421C18.9959 1.52964 18.5584 1.96881 18.0176 1.96881V1.96881ZM3.36056 4.46883L4.86244 8.70552H11.6152L13.0414 4.46883H3.36056V4.46883ZM4.50354 11.5767C5.44387 11.5767 6.20997 12.345 6.20997 13.2903C6.20997 14.2357 5.44387 15.004 4.50354 15.004C3.56226 15.004 2.79712 14.2357 2.79712 13.2903C2.79712 12.345 3.56226 11.5767 4.50354 11.5767V11.5767ZM12.6162 11.5767C13.5574 11.5767 14.3235 12.345 14.3235 13.2903C14.3235 14.2357 13.5574 15.004 12.6162 15.004C11.6749 15.004 10.9107 14.2357 10.9107 13.2903C10.9107 12.345 11.6749 11.5767 12.6162 11.5767V11.5767Z" fill="#A6DCE9"/>
</svg>
