<svg width="248" height="361" viewBox="0 0 248 361" fill="none" xmlns="http://www.w3.org/2000/svg">
<path opacity="0.3" fill-rule="evenodd" clip-rule="evenodd" d="M145.65 15.1278C184.73 6.25413 230.581 86.475 206.222 137.1C181.863 187.725 74.4099 221.107 58.1695 197.025C41.9292 172.943 102.246 132.267 113.263 110.391C124.28 88.5157 106.571 24.0015 145.65 15.1278Z" fill="#FFE7CA"/>
<path d="M212.742 170.637C212.742 170.637 229.816 191.048 218.433 208.542C207.05 226.036 186.855 239.047 179.169 252.282C171.483 265.516 185.428 279.87 190.268 282.554C195.108 285.239 239.205 317.775 211.891 351.189H119.7C119.7 351.189 89.824 320.916 139.62 284.353C139.62 284.353 175.188 266.188 141.899 240.39C108.609 214.591 102.634 190.033 118.419 170.86L212.742 170.637Z" fill="#FFE7CA"/>
<path d="M212.742 170.637C212.742 170.637 229.816 191.048 218.433 208.542C207.05 226.036 186.855 239.047 179.169 252.282C171.483 265.516 185.428 279.87 190.268 282.554C195.108 285.239 239.205 317.775 211.891 351.189H119.7C119.7 351.189 89.824 320.916 139.62 284.353C139.62 284.353 175.188 266.188 141.899 240.39C108.609 214.591 102.634 190.033 118.419 170.86L212.742 170.637Z" fill="url(#paint0_linear)"/>
<path d="M113.191 162.281H219.903C222.315 162.281 224.271 164.238 224.271 166.653V166.661C224.271 169.075 222.315 171.033 219.903 171.033H113.191C110.779 171.033 108.824 169.075 108.824 166.661V166.653C108.824 164.238 110.779 162.281 113.191 162.281Z" fill="#FFE7CA"/>
<path d="M113.191 351.533H219.903C222.315 351.533 224.271 353.49 224.271 355.905V355.913C224.271 358.327 222.315 360.285 219.903 360.285H113.191C110.779 360.285 108.824 358.327 108.824 355.913V355.905C108.824 353.49 110.779 351.533 113.191 351.533Z" fill="#FFE7CA"/>
<path d="M113.191 162.281H219.903C222.315 162.281 224.271 164.238 224.271 166.653V166.661C224.271 169.075 222.315 171.033 219.903 171.033H113.191C110.779 171.033 108.824 169.075 108.824 166.661V166.653C108.824 164.238 110.779 162.281 113.191 162.281Z" fill="url(#paint1_linear)"/>
<path opacity="0.1" d="M113.191 351.533H219.903C222.315 351.533 224.271 353.49 224.271 355.905V355.913C224.271 358.327 222.315 360.285 219.903 360.285H113.191C110.779 360.285 108.824 358.327 108.824 355.913V355.905C108.824 353.49 110.779 351.533 113.191 351.533Z" fill="url(#paint2_linear)"/>
<path d="M127.48 304.713C143.102 296.366 194.79 294.981 204.6 302.131C195.443 289.998 182.865 282.856 182.865 282.856C170.485 275.111 156.402 281.841 156.402 281.841C156.402 281.841 138.494 291.014 127.48 304.713Z" fill="url(#paint3_linear)"/>
<path d="M127.807 350.518H205.064L208.047 347.833C216.868 332.722 214.702 319.376 208.907 308.757C207.636 306.461 206.2 304.261 204.608 302.174C194.798 294.98 143.111 296.366 127.489 304.756C125.89 306.731 124.453 308.832 123.19 311.038C122.356 312.495 121.626 314.011 121.007 315.572C113.303 335.046 127.807 350.518 127.807 350.518Z" fill="#FFE7CA"/>
<path opacity="0.1" d="M123.165 310.995C126.853 324.436 163.633 303.93 180.768 302.39C192.082 301.383 204.032 308.275 204.032 308.275C204.032 308.275 207.893 309.678 208.924 308.74C207.654 306.444 206.217 304.243 204.626 302.157C194.816 294.963 143.128 296.349 127.506 304.739C125.894 306.704 124.442 308.796 123.165 310.995Z" fill="url(#paint4_linear)"/>
<path d="M204.78 219.531C204.78 219.531 178.317 240.39 176.606 244.425C174.896 248.461 161.131 250.819 156.832 247.231C152.534 243.642 141.615 236.801 130.799 221.321C119.984 205.84 155.551 215.943 167.502 218.188C179.452 220.434 199.94 205.849 204.78 219.531Z" fill="#FFE7CA"/>
<path d="M204.78 219.531C204.78 219.531 194.532 226.26 185.427 224.238C176.323 222.216 170.347 216.39 157.829 217.509C145.311 218.627 132.794 224.014 128.804 218.189C124.815 212.363 129.088 207.639 141.615 209.214C154.141 210.788 174.904 211.003 184.86 210.332C194.816 209.661 213.025 211.236 204.78 219.531Z" fill="#FFE7CA"/>
<path d="M204.78 219.531C204.78 219.531 194.532 226.26 185.427 224.238C176.323 222.216 170.347 216.39 157.829 217.509C145.311 218.627 132.794 224.014 128.804 218.189C124.815 212.363 129.088 207.639 141.615 209.214C154.141 210.788 174.904 211.003 184.86 210.332C194.816 209.661 213.025 211.236 204.78 219.531Z" fill="url(#paint5_linear)"/>
<path d="M167.777 254.226C168.504 254.705 169.096 255.363 169.496 256.137C169.64 256.375 169.733 256.64 169.768 256.915C169.804 257.191 169.781 257.471 169.703 257.737C169.581 258.03 169.374 258.278 169.108 258.45C168.843 258.622 168.531 258.71 168.215 258.701C167.676 258.65 167.162 258.443 166.737 258.107C165.877 257.548 164.931 256.834 165.06 255.965C165.189 255.096 166.53 254.476 167.682 254.132" fill="#FFE7CA"/>
<path d="M162.98 262.187C163.269 262.261 163.541 262.392 163.779 262.574C163.899 262.677 163.968 262.789 163.874 262.901C163.679 263.047 163.437 263.117 163.194 263.099C162.964 263.085 162.736 263.044 162.515 262.978C162.12 262.858 161.656 262.712 161.75 262.539C161.845 262.367 162.421 262.238 162.945 262.169" fill="#FFE7CA"/>
<path d="M167.605 264.708C167.895 264.782 168.167 264.913 168.405 265.095C168.525 265.198 168.585 265.319 168.499 265.422C168.304 265.568 168.063 265.638 167.82 265.62C167.589 265.61 167.361 265.57 167.141 265.499C166.745 265.387 166.281 265.241 166.367 265.06C166.453 264.88 167.046 264.759 167.571 264.69" fill="#FFE7CA"/>
<path d="M160.254 276.454C160.627 276.295 161.027 276.21 161.432 276.204C161.655 276.204 161.853 276.256 161.905 276.419C161.9 276.554 161.863 276.686 161.797 276.804C161.731 276.922 161.638 277.023 161.526 277.099C161.302 277.269 161.053 277.402 160.787 277.495C160.297 277.684 159.747 277.874 159.583 277.676C159.42 277.478 159.824 276.91 160.211 276.454" fill="#FFE7CA"/>
<path d="M173.907 291.753C174.277 291.595 174.674 291.511 175.076 291.504C175.308 291.504 175.506 291.564 175.549 291.719C175.592 291.874 175.463 292.167 175.179 292.399C174.953 292.571 174.701 292.705 174.431 292.795C173.95 292.984 173.391 293.173 173.236 292.975C173.082 292.777 173.477 292.21 173.855 291.753" fill="#FFE7CA"/>
<defs>
<linearGradient id="paint0_linear" x1="222.345" y1="260.913" x2="110.08" y2="260.913" gradientUnits="userSpaceOnUse">
<stop offset="0.02" stop-color="white" stop-opacity="0"/>
<stop offset="0.32" stop-color="white" stop-opacity="0.39"/>
<stop offset="0.68" stop-color="white" stop-opacity="0.68"/>
<stop offset="1" stop-color="white"/>
</linearGradient>
<linearGradient id="paint1_linear" x1="-29048.4" y1="1378.55" x2="-29049" y2="1206.66" gradientUnits="userSpaceOnUse">
<stop offset="0.01"/>
<stop offset="0.13" stop-opacity="0.69"/>
<stop offset="1" stop-opacity="0"/>
</linearGradient>
<linearGradient id="paint2_linear" x1="-29109.6" y1="3192.83" x2="-29109.6" y2="3603.44" gradientUnits="userSpaceOnUse">
<stop offset="0.01"/>
<stop offset="0.13" stop-opacity="0.69"/>
<stop offset="1" stop-opacity="0"/>
</linearGradient>
<linearGradient id="paint3_linear" x1="-20938.4" y1="7335.3" x2="-20877.8" y2="8244.43" gradientUnits="userSpaceOnUse">
<stop offset="0.02" stop-color="white" stop-opacity="0"/>
<stop offset="0.32" stop-color="white" stop-opacity="0.39"/>
<stop offset="0.68" stop-color="white" stop-opacity="0.68"/>
<stop offset="1" stop-color="white"/>
</linearGradient>
<linearGradient id="paint4_linear" x1="-23369.8" y1="5336.67" x2="-23309.9" y2="6754.57" gradientUnits="userSpaceOnUse">
<stop offset="0.01"/>
<stop offset="0.13" stop-opacity="0.69"/>
<stop offset="1" stop-opacity="0"/>
</linearGradient>
<linearGradient id="paint5_linear" x1="-21094.8" y1="3568.44" x2="-21091.2" y2="3005.14" gradientUnits="userSpaceOnUse">
<stop offset="0.01"/>
<stop offset="0.13" stop-opacity="0.69"/>
<stop offset="1" stop-opacity="0"/>
</linearGradient>
</defs>
</svg>
