<svg width="14" height="14" viewBox="0 0 14 14" fill="none" xmlns="http://www.w3.org/2000/svg">
<path d="M0.719459 0.12238C0.846182 0.0587528 0.983652 0.014752 1.12607 0.00377734C1.12607 0.00377734 1.41797 -0.0568939 2.01652 0.542658L7.00103 5.53554L11.9868 0.541391C12.5841 -0.0568939 12.8738 0.00156205 12.8738 0.00156205C13.0176 0.0126417 13.1558 0.0573813 13.284 0.122486C13.4102 0.179254 13.5313 0.258815 13.6375 0.365177C13.7444 0.472278 13.8225 0.593517 13.8799 0.720667C13.9434 0.847604 13.9873 0.985305 13.9983 1.12796C13.9983 1.12796 14.0589 1.42035 13.4603 2.01991L8.4758 7.01279L13.7428 12.2887C14.0917 12.6382 14.0445 13.2527 13.6375 13.6604C13.2305 14.0681 12.617 14.1154 12.2681 13.7659L7.00103 8.49004L1.73399 13.7659C1.38511 14.1154 0.771601 14.0681 0.364565 13.6604C-0.0424716 13.2527 -0.0896642 12.6382 0.259224 12.2887L5.52626 7.01279L0.540483 2.01864C-0.0567984 1.42035 0.00155943 1.13018 0.00155943 1.13018C0.0126204 0.986148 0.0572851 0.847708 0.122281 0.719294C0.178954 0.592883 0.258381 0.471539 0.364565 0.365177C0.471485 0.258077 0.592522 0.179887 0.719459 0.12238Z" fill="#2C7D98"/>
</svg>
