<svg width="60" height="60" viewBox="0 0 60 60" fill="none" xmlns="http://www.w3.org/2000/svg">
<path d="M44.3035 31.742L38.6802 24.5835C40.677 22.5363 41.8828 19.8471 42.0831 16.9944H50.7906V17.9474C48.775 18.3616 47.3276 20.1347 47.3253 22.1924C47.3258 24.5847 49.2656 26.5236 51.6578 26.5232C54.0501 26.5228 55.9891 24.5829 55.9886 22.1907C55.9882 20.1326 54.5398 18.359 52.5233 17.9474V16.1281C52.5233 15.6496 52.1354 15.2617 51.657 15.2617H42.0831C41.9138 12.8615 41.0297 10.5668 39.5448 8.67329L40.7533 7.46476H50.95C51.4285 8.81808 52.9135 9.52728 54.2667 9.04874C55.62 8.57031 56.3292 7.08531 55.8507 5.7321C55.3721 4.37888 53.8873 3.66958 52.5341 4.14801C51.794 4.40964 51.2118 4.99192 50.9502 5.73199H40.3948C40.165 5.73199 39.9447 5.82339 39.7823 5.98582L38.3831 7.38495C33.5687 2.74834 25.9071 2.89248 21.2704 7.7069C19.2997 9.75318 18.1116 12.4275 17.9143 15.2616H10.6371L7.80496 8.89161C9.07099 8.22529 9.55722 6.65896 8.89101 5.39293C8.2248 4.12689 6.65837 3.64077 5.39233 4.30698C4.1264 4.97319 3.64017 6.53952 4.30638 7.80555C4.65649 8.4709 5.27852 8.95139 6.01078 9.12194L9.28119 16.4806C9.42045 16.7932 9.73081 16.9945 10.073 16.9943H17.9142C18.1137 19.8142 19.2962 22.4747 21.2556 24.5123L13.9421 31.8259C9.21307 31.1174 4.80507 34.3765 4.09651 39.1055C3.38796 43.8345 6.6471 48.2425 11.3761 48.951C11.5188 48.9725 11.6621 48.9902 11.8057 49.0044V53.3803C11.8057 53.8587 12.1936 54.2466 12.672 54.2466H20.6284C21.1068 55.5999 22.5918 56.3091 23.9451 55.8306C25.2983 55.352 26.0076 53.8671 25.529 52.5139C25.0505 51.1607 23.5656 50.4514 22.2124 50.9299C21.4722 51.1916 20.89 51.7739 20.6284 52.5139H13.5383V49.0044C18.2965 48.5301 21.7693 44.2883 21.2949 39.5301C20.974 36.3104 18.8844 33.5382 15.8774 32.3431L22.5482 25.6724C26.8924 29.0928 33.0072 29.1174 37.3789 25.7321L42.1854 31.8502C35.5487 32.776 30.9191 38.9064 31.8449 45.543C32.7707 52.1796 38.9012 56.8092 45.5377 55.8834C52.1744 54.9576 56.804 48.8271 55.8782 42.1906C55.0651 36.3613 50.1854 31.9563 44.3035 31.742ZM54.256 22.1924C54.256 23.6278 53.0924 24.7914 51.657 24.7914C50.2216 24.7914 49.058 23.6278 49.058 22.1924C49.058 20.757 50.2216 19.5934 51.657 19.5934C53.0924 19.5934 54.256 20.757 54.256 22.1924ZM53.3896 5.7321C53.8681 5.7321 54.256 6.12 54.256 6.59843C54.256 7.07686 53.8681 7.46476 53.3896 7.46476C52.9112 7.46476 52.5233 7.07686 52.5233 6.59843C52.5233 6.12 52.9112 5.7321 53.3896 5.7321ZM6.60769 7.46476C6.12925 7.46476 5.74135 7.07686 5.74135 6.59843C5.74135 6.12 6.12925 5.7321 6.60769 5.7321C7.08612 5.7321 7.47402 6.12 7.47402 6.59843C7.47402 7.07686 7.08612 7.46476 6.60769 7.46476ZM23.068 52.514C23.5464 52.514 23.9343 52.9019 23.9343 53.3804C23.9343 53.8588 23.5464 54.2467 23.068 54.2467C22.5896 54.2467 22.2017 53.8588 22.2017 53.3804C22.2017 52.9019 22.5896 52.514 23.068 52.514ZM16.1373 46.3787C13.9963 47.629 11.3477 47.629 9.20668 46.3787V44.717C9.20668 42.8032 10.7582 41.2517 12.672 41.2517C14.5858 41.2517 16.1373 42.8032 16.1373 44.717V46.3787ZM10.9393 37.7864C10.9393 36.8294 11.715 36.0537 12.672 36.0537C13.629 36.0537 14.4047 36.8294 14.4047 37.7864C14.4047 38.7434 13.629 39.519 12.672 39.519C11.715 39.519 10.9393 38.7432 10.9393 37.7864ZM17.87 35.786C18.99 37.056 19.6064 38.692 19.6027 40.3854C19.6023 42.0689 18.9861 43.694 17.87 44.9544V44.717C17.8689 42.823 16.8377 41.0794 15.1783 40.1662C16.4998 38.7818 16.4487 36.5882 15.0643 35.2668C13.6799 33.9454 11.4863 33.9964 10.1648 35.3808C8.88668 36.7198 8.88668 38.8271 10.1648 40.1661C8.50582 41.0795 7.47499 42.823 7.47402 44.7169V44.9543C4.94227 42.0835 5.21711 37.7039 8.08781 35.1721C10.9586 32.6404 15.3383 32.9152 17.87 35.786ZM36.063 24.5523C32.4464 27.1779 27.5509 27.1779 23.9343 24.5523V22.4523C23.9343 20.8734 25.2143 19.5934 26.7932 19.5934H28.7165L27.4594 22.7365C27.3307 23.0584 27.4064 23.4263 27.6518 23.6712L29.3844 25.4039C29.7227 25.7421 30.2711 25.7421 30.6094 25.4039L32.3421 23.6712C32.5875 23.4262 32.6632 23.0584 32.5344 22.7365L31.2782 19.5934H33.2041C34.783 19.5934 36.063 20.8734 36.063 22.4523V24.5523ZM30.1227 10.4839C30.0902 10.5381 30.0637 10.5955 30.0438 10.6554C29.6055 11.9696 27.2387 12.4677 25.7149 12.6124C25.9473 9.7091 27.3135 8.33098 29.9988 8.33098C32.4574 8.33098 33.8106 9.4936 34.1979 11.9193L31.3113 10.1867C30.9008 9.94063 30.3687 10.0737 30.1227 10.4839ZM31.1933 12.1378L34.2896 13.996C33.9422 16.1168 31.3285 17.8607 29.9987 17.8607C28.0664 17.5316 26.459 16.1918 25.7874 14.3504C27.2706 14.2282 29.9484 13.7786 31.1933 12.1378ZM30.7143 22.85L29.9987 23.5664L29.2831 22.85L29.9987 21.0592L30.7143 22.85ZM33.7785 17.9006C35.1299 16.8371 35.9615 15.2458 36.063 13.5291C36.063 7.8009 32.7649 6.59843 29.9987 6.59843C27.2325 6.59843 23.9343 7.8009 23.9343 13.5291C24.035 15.2468 24.8667 16.8391 26.2189 17.9032C23.9224 18.1862 22.1983 20.1384 22.2017 22.4523V22.979C18.404 18.6729 18.8161 12.1034 23.1224 8.30575C27.4286 4.50808 33.998 4.92023 37.7957 9.22634C41.261 13.1557 41.261 19.0496 37.7957 22.9789V22.4522C37.8003 20.1375 36.0759 18.1836 33.7785 17.9006ZM49.9243 52.2749C46.3077 54.9006 41.4123 54.9006 37.7957 52.2749V50.1749C37.7957 48.596 39.0757 47.316 40.6545 47.316H42.5778L41.3208 50.4591C41.192 50.781 41.2677 51.1488 41.5131 51.3939L43.2457 53.1265C43.584 53.4647 44.1324 53.4647 44.4707 53.1265L46.2034 51.3939C46.4488 51.1488 46.5245 50.781 46.3957 50.4591L45.1395 47.316H47.0654C48.6443 47.316 49.9243 48.596 49.9243 50.1749V52.2749ZM45.0546 39.8604V39.8595L48.1509 41.7178C47.8035 43.8394 45.1898 45.5834 43.86 45.5834C41.9277 45.2543 40.3204 43.9144 39.6487 42.073C41.1319 41.9508 43.8097 41.5011 45.0546 39.8604ZM39.576 40.3351C39.8081 37.4321 41.1743 36.0537 43.86 36.0537C46.3186 36.0537 47.6718 37.2163 48.0591 39.6421L45.1725 37.9094C44.7622 37.6633 44.23 37.7963 43.9839 38.2067C43.9514 38.2608 43.925 38.3182 43.905 38.3781C43.4667 39.6923 41.0998 40.1905 39.576 40.3351ZM44.5756 50.5726L43.86 51.289L43.1444 50.5726L43.86 48.7819L44.5756 50.5726ZM51.657 50.7042V50.1748C51.6616 47.86 49.9372 45.9062 47.6398 45.6231C48.9913 44.5596 49.8228 42.9684 49.9243 41.2516C49.9243 35.5234 46.6262 34.3209 43.86 34.3209C41.0938 34.3209 37.7957 35.5234 37.7957 41.2516C37.8964 42.9693 38.728 44.5616 40.0802 45.6257C37.7837 45.9087 36.0596 47.861 36.063 50.1748V50.7016C32.2742 46.3921 32.6963 39.827 37.0058 36.0382C41.3152 32.2494 47.8803 32.6716 51.6691 36.981C53.3385 38.8798 54.2582 41.3222 54.256 43.8505C54.2554 46.3759 53.331 48.8136 51.657 50.7042Z" fill="#2C7D98"/>
</svg>
