<svg width="405" height="317" viewBox="0 0 405 317" fill="none" xmlns="http://www.w3.org/2000/svg">
<g clip-path="url(#clip0)">
<path opacity="0.44" d="M169.407 316.75C145.647 311.038 122.79 302.683 100.296 293.819C66.9672 280.688 32.2188 264.773 14.5179 236.598C1.77085 216.309 -0.331872 192.175 0.0423411 168.966C0.303697 154.022 1.55107 138.824 7.59789 124.858C18.8243 98.9105 47.318 79.4635 78.5975 76.3942C96.6548 74.6166 115.152 77.8933 132.971 74.7588C183.383 65.8708 209.893 10.5636 260.234 1.3912C273.153 -0.978937 286.553 0.0342966 299.609 1.72895C327.853 5.40266 448.54 77.3423 388.434 210.763C378.847 232.035 359.436 248.614 338.575 261.929C321.403 272.891 301.991 281.222 286.423 293.925C278.493 300.39 271.288 308.146 261.196 311.518C254.983 313.604 248.205 313.829 241.565 314.03L187.482 315.695" fill="#FFE7CA"/>
<path d="M129.24 148.104V191.472H97.7055V223.86H54.2492V191.472H22.738V148.104H54.2492V117.618H97.7055V148.104H129.24Z" fill="#2C7D98"/>
<path d="M165.004 274.474L172.31 317L206.702 315.477L207.807 285.317L213.07 315.987L242.116 314.967L252.648 267.02L165.004 274.474Z" fill="#606161"/>
<path d="M165.004 274.474L172.31 317L206.702 315.477L207.807 285.317L213.07 315.987L242.116 314.967L252.648 267.02L165.004 274.474Z" fill="url(#paint0_linear)"/>
<path d="M180.834 56.9843C180.748 57.9375 180.867 58.8981 181.183 59.8015C181.5 60.705 182.007 61.5304 182.67 62.2223C182.979 62.5713 183.371 62.838 183.81 62.9985C186.085 63.7096 186.139 59.0937 185.461 57.7961C184.659 56.3266 181.101 54.0157 180.834 56.9843Z" fill="url(#paint1_linear)"/>
<path d="M221.392 53.7547C221.507 54.7053 221.418 55.6695 221.13 56.583C220.843 57.4965 220.363 58.3382 219.723 59.0519C219.427 59.4162 219.046 59.7013 218.612 59.8815C216.361 60.6636 216.153 56.0537 216.794 54.7324C217.525 53.2036 221.006 50.7979 221.392 53.7547Z" fill="url(#paint2_linear)"/>
<path d="M191.247 84.1045C181.191 89.1351 173.659 97.9461 166.418 106.526C164.957 108.256 164.303 110.36 163.543 112.487C155.53 135.003 156.968 149.408 154.633 167.681C152.703 182.649 148.295 197.901 152.02 212.548C152.02 212.548 153.802 272.613 157.11 282.082L256.526 278.118C256.526 278.118 247.361 181.126 246.535 169.252C242.431 111.634 230.557 99.1193 221.677 91.3216C212.797 83.5238 191.247 84.1045 191.247 84.1045Z" fill="#2C7D98"/>
<path d="M191.247 84.1045C181.191 89.1351 173.659 97.9461 166.418 106.526C164.957 108.256 164.303 110.36 163.543 112.487C155.53 135.003 156.968 149.408 154.633 167.681C152.703 182.649 148.295 197.901 152.02 212.548C152.02 212.548 153.802 272.613 157.11 282.082L256.526 278.118C256.526 278.118 247.153 185.914 246.898 174.01C245.823 123.751 232.838 99.4808 221.695 91.3216C212.143 84.3415 191.247 84.1045 191.247 84.1045Z" fill="url(#paint3_linear)"/>
<path d="M203.299 210.794C203.659 210.848 204.026 210.781 204.344 210.605C204.523 210.446 204.663 210.249 204.754 210.028C204.846 209.807 204.886 209.569 204.873 209.331C205.116 205.349 202.455 201.865 200.923 198.185C199.628 195.092 199.105 191.721 197.858 188.604C196.61 185.487 194.389 182.465 191.146 181.576C189.781 181.277 188.381 181.174 186.988 181.268L175.702 181.529C175.391 181.463 175.069 181.474 174.763 181.561C174.457 181.647 174.177 181.807 173.947 182.026C173.717 182.245 173.544 182.516 173.443 182.817C173.342 183.117 173.316 183.438 173.368 183.751C173.088 186.66 170.992 193.504 172.875 196.076C173.718 197.261 175.975 197.646 177.235 198.239C179.057 199.123 180.826 200.112 182.533 201.201C188.734 205.053 195.541 210.794 203.299 210.794Z" fill="url(#paint4_linear)"/>
<path d="M219.8 182.975C214.454 185.724 212.458 192.171 209.934 197.628C208.471 200.789 206.68 203.788 204.588 206.575C203.952 207.423 203.252 208.389 203.4 209.431C203.528 209.96 203.819 210.436 204.231 210.793C204.643 211.15 205.156 211.37 205.699 211.422C206.785 211.504 207.876 211.329 208.883 210.913C214.139 209.124 219.039 206.427 223.358 202.943C226.185 200.662 228.847 197.99 232.268 196.757C233.604 196.277 235.149 195.945 235.951 194.772C236.364 194.047 236.601 193.235 236.646 192.402C236.937 190.138 237.24 187.834 236.8 185.594C236.063 181.748 234.377 180.676 230.943 180.931C227.29 181.197 223.126 181.262 219.8 182.975Z" fill="url(#paint5_linear)"/>
<path d="M188.639 90.6578C188.639 90.6578 200.353 101.389 206.601 93.9464C212.85 86.5042 212.096 89.2891 212.096 89.2891L208.841 159.208L188.639 90.6578Z" fill="#606161"/>
<path d="M203.459 18.2145C201.285 15.6459 198.189 14.0275 194.835 13.7054C191.585 13.415 188.016 14.6001 186.293 17.3613C185.04 19.3641 184.915 21.8527 184.909 24.2169C184.909 26.4211 184.986 28.7143 186.02 30.6637C187.112 32.5651 188.857 34.0086 190.932 34.7285C195.684 36.5061 201.309 34.9062 204.926 31.4755C208.544 28.0447 206.376 21.6631 203.459 18.2145Z" fill="#606161"/>
<path d="M203.459 18.2145C201.285 15.6459 198.189 14.0275 194.835 13.7054C191.585 13.415 188.016 14.6001 186.293 17.3613C185.04 19.3641 184.915 21.8527 184.909 24.2169C184.909 26.4211 184.986 28.7143 186.02 30.6637C187.112 32.5651 188.857 34.0086 190.932 34.7285C195.684 36.5061 201.309 34.9062 204.926 31.4755C208.544 28.0447 206.376 21.6631 203.459 18.2145Z" fill="url(#paint6_linear)"/>
<path d="M192.815 69.6878C192.815 69.6878 192.922 84.7678 189.53 87.9971C186.139 91.2264 203.608 105.773 210.635 89.117C210.635 89.117 206.275 82.0421 207.54 69.9781C208.805 57.9141 192.815 69.6878 192.815 69.6878Z" fill="url(#paint7_linear)"/>
<path d="M192.34 73.2669L192.393 76.5732C192.393 76.5732 201.351 89.0164 204.867 84.7087C208.384 80.401 207.302 79.5122 207.302 79.5122L207.564 69.9546L192.34 73.2669Z" fill="url(#paint8_linear)"/>
<path d="M184.113 48.2622C184.113 48.2622 181.963 71.3177 194.371 75.6846C206.78 80.0516 214.032 73.3856 217.234 62.2163C220.436 51.0471 214.906 28.7145 201.79 31.1083C188.675 33.5021 184.113 48.2622 184.113 48.2622Z" fill="url(#paint9_linear)"/>
<path d="M182.26 56.0239C181.677 55.2395 181.297 54.3236 181.155 53.3575C180.285 49.0513 180.562 44.5927 181.959 40.4267C183.355 36.2606 185.823 32.5327 189.114 29.6147C190.451 28.4001 192.007 27.4509 193.7 26.8179C195.402 26.3131 197.179 26.1125 198.951 26.2254C204.481 26.3913 210.029 28.1037 214.395 31.4989C218.76 34.8942 221.82 40.0374 222.176 45.542C222.349 47.1771 222.108 48.8293 221.475 50.3475C221.152 51.1006 220.656 51.7677 220.028 52.2955C219.4 52.8234 218.657 53.1972 217.858 53.3872C215.012 53.9264 214.187 51.3192 211.858 49.6009C208.348 47.0233 207.178 43.1304 199.301 43.9125C186.447 45.1983 185.788 60.1776 182.26 56.0239Z" fill="#606161"/>
<path d="M179.712 92.1924C179.712 92.1924 137.229 122.637 136.35 178.815C135.834 211.369 172.584 205.23 173.772 204.418C174.96 203.607 178.09 175.769 178.09 175.769C178.09 175.769 164.963 175.977 163.329 173.624C161.696 171.272 179.712 92.1924 179.712 92.1924Z" fill="#2C7D98"/>
<path d="M179.712 92.1924C179.712 92.1924 137.229 122.637 136.35 178.815C135.834 211.369 172.584 205.23 173.772 204.418C174.96 203.607 178.09 175.769 178.09 175.769C178.09 175.769 164.963 175.977 163.329 173.624C161.696 171.272 179.712 92.1924 179.712 92.1924Z" fill="url(#paint10_linear)"/>
<path d="M224.991 92.1924C224.991 92.1924 267.48 122.637 268.353 178.815C268.869 211.369 232.119 205.23 230.931 204.418C229.743 203.607 226.619 175.769 226.619 175.769C226.619 175.769 239.746 175.977 241.374 173.624C243.001 171.272 224.991 92.1924 224.991 92.1924Z" fill="#2C7D98"/>
<path d="M224.991 92.1924C224.991 92.1924 267.48 122.637 268.353 178.815C268.869 211.369 232.119 205.23 230.931 204.418C229.743 203.607 226.619 175.769 226.619 175.769C226.619 175.769 239.746 175.977 241.374 173.624C243.001 171.272 224.991 92.1924 224.991 92.1924Z" fill="url(#paint11_linear)"/>
<path d="M230.551 101.679C230.408 101.678 230.27 101.633 230.154 101.551C230.038 101.468 229.95 101.351 229.904 101.217C227.165 93.0221 216.474 88.3234 216.367 88.2522C216.285 88.2175 216.21 88.1667 216.148 88.103C216.086 88.0393 216.037 87.9639 216.005 87.8811C215.972 87.7984 215.956 87.71 215.958 87.6211C215.96 87.5322 215.98 87.4446 216.016 87.3634C216.088 87.1992 216.222 87.0699 216.389 87.0033C216.555 86.9368 216.742 86.9384 216.907 87.0079C217.37 87.2094 228.264 92.0148 231.199 100.79C231.253 100.962 231.239 101.148 231.157 101.308C231.076 101.469 230.935 101.591 230.765 101.649C230.696 101.671 230.623 101.681 230.551 101.679Z" fill="#2C7D98"/>
<path d="M230.551 101.679C230.408 101.678 230.27 101.633 230.154 101.551C230.038 101.468 229.95 101.351 229.904 101.217C227.165 93.0221 216.474 88.3234 216.367 88.2522C216.285 88.2175 216.21 88.1667 216.148 88.103C216.086 88.0393 216.037 87.9639 216.005 87.8811C215.972 87.7984 215.956 87.71 215.958 87.6211C215.96 87.5322 215.98 87.4446 216.016 87.3634C216.088 87.1992 216.222 87.0699 216.389 87.0033C216.555 86.9368 216.742 86.9384 216.907 87.0079C217.37 87.2094 228.264 92.0148 231.199 100.79C231.253 100.962 231.239 101.148 231.157 101.308C231.076 101.469 230.935 101.591 230.765 101.649C230.696 101.671 230.623 101.681 230.551 101.679Z" fill="url(#paint12_linear)"/>
<path d="M188.521 147.938C170.54 122.246 183.887 91.7244 183.953 91.6474C184.05 91.5056 184.094 91.3343 184.078 91.1632C184.062 90.9922 183.986 90.8322 183.864 90.7112C183.812 90.6511 183.748 90.6028 183.675 90.5697C183.603 90.5367 183.524 90.5195 183.445 90.5195C183.365 90.5195 183.287 90.5367 183.215 90.5697C183.142 90.6028 183.078 90.6511 183.026 90.7112C182.753 91.0549 168.77 122.264 187.344 148.003C187.558 148.288 188.687 148.169 188.521 147.938Z" fill="#2C7D98"/>
<path d="M191.597 84.6553C191.597 84.6553 187.148 88.5661 191.811 98.017C196.474 107.468 209.269 160.98 209.269 160.98L184.766 122.098L187.184 107.237L182.082 103.35C182.082 103.35 181.856 89.3304 184.458 86.3737C187.059 83.4169 189.91 83.5828 191.597 84.6553Z" fill="#2C7D98"/>
<path d="M208.211 82.605C208.211 82.605 215.398 84.2759 216.646 87.6297C217.893 90.9834 223.007 100.825 223.007 100.825L219.895 105.24L224.962 110.916L209.251 160.98C209.251 160.98 212.411 93.4306 210.617 89.1169C208.823 84.8033 208.211 82.605 208.211 82.605Z" fill="#2C7D98"/>
<path d="M191.597 84.6553C191.597 84.6553 187.148 88.5661 191.811 98.017C196.474 107.468 209.269 160.98 209.269 160.98L184.766 122.098L187.184 107.237L182.082 103.35C182.082 103.35 181.856 89.3304 184.458 86.3737C187.059 83.4169 189.91 83.5828 191.597 84.6553Z" fill="url(#paint13_linear)"/>
<path d="M209.399 157.893C209.993 144.608 212.221 92.8678 210.629 89.1111C208.847 84.7797 208.205 82.5933 208.205 82.5933C208.223 82.6151 208.249 82.6298 208.277 82.6347C209.073 82.8125 215.476 84.4716 216.634 87.612C217.905 90.9717 223.043 100.79 223.043 100.79L219.931 105.234L224.962 110.905L209.251 160.98C209.251 160.98 209.286 159.878 209.399 157.893Z" fill="url(#paint14_linear)"/>
<path d="M219.123 55.4375C219.274 55.295 219.395 55.1237 219.479 54.9338C219.526 54.7176 219.552 54.4973 219.556 54.2761C219.578 54.0486 219.684 53.8374 219.853 53.6836C219.932 53.6115 220.029 53.5619 220.133 53.54C220.238 53.5181 220.346 53.5247 220.447 53.5592C220.537 53.5993 220.618 53.6581 220.683 53.7316C220.749 53.8052 220.798 53.8918 220.827 53.9858C220.89 54.1772 220.922 54.3771 220.923 54.5783C221.014 55.3341 220.911 56.1005 220.626 56.8063C220.352 57.2924 219.999 57.7291 219.58 58.098C219.433 58.2817 219.22 58.4008 218.986 58.4298C218.835 58.4183 218.689 58.3672 218.564 58.2817C218.508 58.2564 218.459 58.2177 218.422 58.1691C218.395 58.1175 218.379 58.0611 218.374 58.0032C218.276 57.4823 218.276 56.9479 218.374 56.427C218.518 56.0295 218.779 55.6846 219.123 55.4375Z" fill="url(#paint15_linear)"/>
<path d="M183.424 58.4832C183.267 58.3504 183.141 58.1845 183.056 57.9974C182.998 57.7825 182.964 57.5619 182.955 57.3397C182.926 57.1103 182.814 56.8994 182.64 56.7471C182.554 56.6771 182.452 56.6304 182.342 56.6117C182.233 56.593 182.121 56.6029 182.016 56.6405C181.928 56.6844 181.85 56.746 181.786 56.8215C181.723 56.8969 181.676 56.9846 181.648 57.0789C181.597 57.2723 181.573 57.4716 181.577 57.6715C181.506 58.4308 181.631 59.1956 181.939 59.8935C182.231 60.3701 182.6 60.7947 183.032 61.1497C183.183 61.3262 183.395 61.4386 183.626 61.4637C183.776 61.4471 183.919 61.392 184.042 61.3037C184.099 61.2777 184.148 61.2368 184.184 61.1852C184.21 61.1314 184.224 61.0729 184.226 61.0134C184.297 60.49 184.273 59.958 184.155 59.4432C184.009 59.0596 183.755 58.7263 183.424 58.4832Z" fill="url(#paint16_linear)"/>
<path d="M209.399 157.893C209.993 144.608 212.221 92.8678 210.629 89.1111C208.847 84.7797 208.205 82.5933 208.205 82.5933C208.223 82.6151 208.249 82.6298 208.277 82.6347C208.782 83.1028 212.114 86.1366 212.945 88.2638C213.777 90.391 214.971 142.581 209.399 157.893Z" fill="url(#paint17_linear)"/>
<path d="M171.621 158.888C171.621 158.888 176.926 143.69 190.95 145.675C204.974 147.66 207.415 156.838 207.415 156.838C207.415 156.838 211.169 139.809 230.397 146.901C249.624 153.994 234.745 176.883 232.505 178.406C230.266 179.929 205.402 203.832 205.402 203.832C205.402 203.832 174.205 176.877 172.435 174.093C170.665 171.308 168.859 166.076 171.621 158.888Z" fill="#2C7D98"/>
<path d="M176.754 159.593C176.754 159.593 181.375 144.513 193.35 146.385C205.325 148.258 207.344 157.341 207.344 157.341C207.344 157.341 213.735 140.685 230.397 146.901C249.927 154.183 234.43 176.883 232.506 178.406C230.581 179.929 205.336 203.885 205.336 203.885C205.336 203.885 178.85 177.387 177.354 174.638C175.857 171.888 174.348 166.727 176.754 159.593Z" fill="url(#paint18_linear)"/>
<path d="M174.782 158.586C176.373 154.035 180.228 149.87 185.052 149.591C185.368 149.551 185.689 149.6 185.978 149.733C186.161 149.869 186.314 150.04 186.427 150.237C186.541 150.434 186.612 150.652 186.638 150.877C187.309 154.029 185.663 157.158 185.099 160.328C184.006 166.473 186.982 172.511 189.453 178.24C189.863 179.177 190.225 180.356 189.566 181.138C189.323 181.367 189.036 181.547 188.723 181.665C188.41 181.784 188.077 181.841 187.742 181.831C176.439 182.619 171.687 167.438 174.782 158.586Z" fill="url(#paint19_linear)"/>
<path d="M204.641 188.616L198.44 168.464L194.728 176.226L175.114 176.842L171.93 173.536L192.358 172.795L199.171 158.539L204.861 177.014L209.773 162.941L213.45 170.804L218.024 159.309L222.372 173.008L236.129 173.026L234.091 176.587L219.741 176.694L217.638 170.063L213.718 179.911L210.261 172.528L204.641 188.616Z" fill="white"/>
<path d="M232.957 141.142C232.414 141.144 231.879 141.024 231.389 140.792C230.04 140.146 229.167 138.694 228.781 136.472C228.062 132.325 225.627 103.528 229.244 100.446C229.509 100.203 229.834 100.034 230.186 99.9568C230.538 99.8798 230.903 99.8974 231.246 100.008C234.275 100.95 236.919 110.158 237.655 112.955L243.203 134.843C243.292 136.431 242.752 139.121 240.293 139.405L240.055 137.391C241.243 137.249 241.195 135.157 241.195 135.133L235.677 113.464C234.121 107.539 231.704 102.07 230.611 101.945C228.365 103.865 229.589 129.202 230.783 136.129C231.044 137.64 231.555 138.623 232.268 138.961C232.854 139.156 233.493 139.116 234.05 138.848L235.03 140.626C234.387 140.953 233.678 141.129 232.957 141.142Z" fill="#2C7D98"/>
<path d="M232.957 141.142C232.414 141.144 231.879 141.024 231.389 140.792C230.04 140.146 229.167 138.694 228.781 136.472C228.062 132.325 225.627 103.528 229.244 100.446C229.509 100.203 229.834 100.034 230.186 99.9568C230.538 99.8798 230.903 99.8974 231.246 100.008C234.275 100.95 236.919 110.158 237.655 112.955L243.203 134.843C243.292 136.431 242.752 139.121 240.293 139.405L240.055 137.391C241.243 137.249 241.195 135.157 241.195 135.133L235.677 113.464C234.121 107.539 231.704 102.07 230.611 101.945C228.365 103.865 229.589 129.202 230.783 136.129C231.044 137.64 231.555 138.623 232.268 138.961C232.854 139.156 233.493 139.116 234.05 138.848L235.03 140.626C234.387 140.953 233.678 141.129 232.957 141.142Z" fill="url(#paint20_linear)"/>
</g>
<defs>
<linearGradient id="paint0_linear" x1="165.004" y1="292.013" x2="252.648" y2="292.013" gradientUnits="userSpaceOnUse">
<stop offset="0.12" stop-color="#010101" stop-opacity="0"/>
<stop offset="0.95" stop-color="#010101"/>
</linearGradient>
<linearGradient id="paint1_linear" x1="180.818" y1="59.3356" x2="185.813" y2="59.2552" gradientUnits="userSpaceOnUse">
<stop stop-color="#E5C6D6"/>
<stop offset="0.42" stop-color="#EAD4D0"/>
<stop offset="1" stop-color="#F0E9CB"/>
</linearGradient>
<linearGradient id="paint2_linear" x1="3868.67" y1="1107.64" x2="3826.88" y2="1108.48" gradientUnits="userSpaceOnUse">
<stop stop-color="#E5C6D6"/>
<stop offset="0.42" stop-color="#EAD4D0"/>
<stop offset="1" stop-color="#F0E9CB"/>
</linearGradient>
<linearGradient id="paint3_linear" x1="207.849" y1="324.265" x2="195.678" y2="85.3695" gradientUnits="userSpaceOnUse">
<stop stop-color="white" stop-opacity="0"/>
<stop offset="0.95" stop-color="white"/>
</linearGradient>
<linearGradient id="paint4_linear" x1="9938.77" y1="11664.6" x2="11200.4" y2="10876.3" gradientUnits="userSpaceOnUse">
<stop stop-color="#E5C6D6"/>
<stop offset="0.42" stop-color="#EAD4D0"/>
<stop offset="1" stop-color="#F0E9CB"/>
</linearGradient>
<linearGradient id="paint5_linear" x1="13517" y1="12063.6" x2="12276.5" y2="11260.3" gradientUnits="userSpaceOnUse">
<stop stop-color="#E5C6D6"/>
<stop offset="0.42" stop-color="#EAD4D0"/>
<stop offset="1" stop-color="#F0E9CB"/>
</linearGradient>
<linearGradient id="paint6_linear" x1="192.903" y1="18.8383" x2="197.965" y2="31.6665" gradientUnits="userSpaceOnUse">
<stop stop-color="#010101" stop-opacity="0"/>
<stop offset="0.95" stop-color="#010101"/>
</linearGradient>
<linearGradient id="paint7_linear" x1="7409.47" y1="6230.55" x2="8190.38" y2="6230.55" gradientUnits="userSpaceOnUse">
<stop stop-color="#E5C6D6"/>
<stop offset="0.42" stop-color="#EAD4D0"/>
<stop offset="1" stop-color="#F0E9CB"/>
</linearGradient>
<linearGradient id="paint8_linear" x1="5559.12" y1="3158.85" x2="5807.44" y2="1862.23" gradientUnits="userSpaceOnUse">
<stop offset="0.12" stop-color="#010101" stop-opacity="0"/>
<stop offset="0.95" stop-color="#010101"/>
</linearGradient>
<linearGradient id="paint9_linear" x1="11372.9" y1="6717.3" x2="13333.8" y2="6717.3" gradientUnits="userSpaceOnUse">
<stop stop-color="#E5C6D6"/>
<stop offset="0.42" stop-color="#EAD4D0"/>
<stop offset="1" stop-color="#F0E9CB"/>
</linearGradient>
<linearGradient id="paint10_linear" x1="112.89" y1="142.933" x2="174.264" y2="149.126" gradientUnits="userSpaceOnUse">
<stop offset="0.52" stop-color="white" stop-opacity="0.52"/>
<stop offset="0.95" stop-color="white"/>
</linearGradient>
<linearGradient id="paint11_linear" x1="21635.1" y1="32948.1" x2="17559.5" y2="33024.2" gradientUnits="userSpaceOnUse">
<stop offset="0.52" stop-color="white" stop-opacity="0.52"/>
<stop offset="0.95" stop-color="white"/>
</linearGradient>
<linearGradient id="paint12_linear" x1="6046.3" y1="3050.59" x2="5804.56" y2="3218.53" gradientUnits="userSpaceOnUse">
<stop offset="0.12" stop-color="#010101" stop-opacity="0"/>
<stop offset="0.95" stop-color="#010101"/>
</linearGradient>
<linearGradient id="paint13_linear" x1="9112.64" y1="20882.9" x2="9989.18" y2="20765.3" gradientUnits="userSpaceOnUse">
<stop stop-color="white" stop-opacity="0"/>
<stop offset="0.95" stop-color="white"/>
</linearGradient>
<linearGradient id="paint14_linear" x1="232.749" y1="120.664" x2="206.002" y2="121.944" gradientUnits="userSpaceOnUse">
<stop stop-color="white" stop-opacity="0"/>
<stop offset="0.11" stop-color="white" stop-opacity="0.18"/>
<stop offset="0.29" stop-color="white" stop-opacity="0.42"/>
<stop offset="0.45" stop-color="white" stop-opacity="0.63"/>
<stop offset="0.6" stop-color="white" stop-opacity="0.79"/>
<stop offset="0.74" stop-color="white" stop-opacity="0.9"/>
<stop offset="0.86" stop-color="white" stop-opacity="0.98"/>
<stop offset="0.95" stop-color="white"/>
</linearGradient>
<linearGradient id="paint15_linear" x1="1256.63" y1="763.342" x2="1210.02" y2="758.867" gradientUnits="userSpaceOnUse">
<stop offset="0.12" stop-color="#010101" stop-opacity="0"/>
<stop offset="0.95" stop-color="#010101"/>
</linearGradient>
<linearGradient id="paint16_linear" x1="1755.1" y1="764.721" x2="1802.46" y2="758.287" gradientUnits="userSpaceOnUse">
<stop offset="0.12" stop-color="#010101" stop-opacity="0"/>
<stop offset="0.95" stop-color="#010101"/>
</linearGradient>
<linearGradient id="paint17_linear" x1="1942.71" y1="19580.6" x2="2183.35" y2="19574.8" gradientUnits="userSpaceOnUse">
<stop stop-color="white" stop-opacity="0"/>
<stop offset="0.95" stop-color="white"/>
</linearGradient>
<linearGradient id="paint18_linear" x1="21215.6" y1="16584" x2="29302.3" y2="29380.2" gradientUnits="userSpaceOnUse">
<stop offset="0.12" stop-color="#010101" stop-opacity="0"/>
<stop offset="0.95" stop-color="#010101"/>
</linearGradient>
<linearGradient id="paint19_linear" x1="4769.17" y1="10478.8" x2="6059.2" y2="10558.7" gradientUnits="userSpaceOnUse">
<stop stop-color="white" stop-opacity="0"/>
<stop offset="0.95" stop-color="white"/>
</linearGradient>
<linearGradient id="paint20_linear" x1="5935.81" y1="10098.2" x2="8103.46" y2="10218.8" gradientUnits="userSpaceOnUse">
<stop offset="0.12" stop-color="#010101" stop-opacity="0"/>
<stop offset="0.95" stop-color="#010101"/>
</linearGradient>
<clipPath id="clip0">
<rect width="405" height="317" fill="white"/>
</clipPath>
</defs>
</svg>
