<svg width="678" height="527" viewBox="0 0 678 527" fill="none" xmlns="http://www.w3.org/2000/svg">
<path opacity="0.18" d="M279.579 83.3389C239.656 113.91 207.624 152.761 165.188 180.249C125.97 205.668 78.649 220.932 44.9022 252.258C16.1015 279.005 -0.0351228 315.108 5.74029e-05 352.718C0.0352376 390.328 16.2394 426.405 45.0901 453.107C85.4359 490.448 145.109 504.505 202.293 507.286C259.477 510.067 316.872 503.147 374.08 505.971C428.211 508.644 482.107 520.028 536.12 516.233C590.134 512.439 647.412 489.09 668.782 443.362C692.407 392.762 665.33 335.823 646.66 283.498C632.538 243.95 623.213 203.091 618.855 161.665C612.373 99.7026 600.467 13.6584 515.525 10.2304C429.778 7.25038 345.821 33.2646 279.579 83.3389V83.3389Z" fill="#A6DCE9"/>
<path opacity="0.4" d="M459.684 430.297C341.373 443.934 221.502 433.453 102.217 433.765C93.5508 433.765 81.7436 436.999 83.1085 444.654C152.435 459.382 224.427 460.531 295.704 461.622L425.41 463.57C455.069 464.018 484.75 464.466 514.236 462.966C525.263 462.401 536.572 461.486 546.516 457.122C574.442 444.849 560.598 428.7 536.507 425.953C511.051 423.07 485.01 427.375 459.684 430.297Z" fill="#2C7D98"/>
<path fill-rule="evenodd" clip-rule="evenodd" d="M46.314 421.692C46.314 433.295 47.2296 442.702 59.52 442.702C71.8104 442.702 72.7261 433.295 72.7261 421.692" fill="#C0D8E0"/>
<path fill-rule="evenodd" clip-rule="evenodd" d="M63.1764 414.452C62.7259 415.231 62.3242 416.026 61.9693 416.832C61.9568 415.171 62.0487 413.498 62.2994 411.803C62.7281 408.898 63.3828 406.008 63.9981 403.123C64.4402 401.049 64.4123 397.325 66.0904 395.673C66.5505 395.315 66.6613 396.016 66.6613 396.32C66.6671 396.384 66.66 395.079 66.2133 395.306C63.5585 396.678 62.6982 400.989 61.8483 403.148C60.6082 406.298 59.5531 409.519 59.1186 412.797C59.0088 413.626 58.9491 414.453 58.9353 415.28C58.845 415.059 58.7603 414.836 58.6665 414.616C57.1342 411.022 55.0663 407.515 52.4872 404.281C51.8524 403.485 43.8701 395.634 43.2453 396.836C43.3069 397.01 43.436 397.155 43.6328 397.27C43.6444 397.283 43.6447 397.276 43.638 397.256C44.1068 398.014 45.4397 399.183 45.8549 399.847C46.8997 401.517 47.7118 403.289 48.537 405.027C50.2806 408.7 51.898 412.411 53.4659 416.129C53.831 416.995 54.2115 417.856 54.5997 418.715C50.5978 412.943 45.2592 407.702 37.9102 404.703C40.4202 405.98 42.0659 408.382 43.761 410.222C45.8054 412.44 47.9587 414.599 50.007 416.816C52.423 419.43 55.2657 422.184 57.5895 425.077C59.8404 429.803 62.0278 434.533 63.378 439.501C62.8248 437.785 63.3347 435.413 63.2399 433.612C63.1648 432.178 62.9972 430.756 62.7676 429.336C63.0515 429.977 63.2961 430.617 63.4069 431.213C63.3058 430.214 63.1892 429.221 63.064 428.233C63.3854 427.308 63.701 426.444 63.9143 425.733C65.007 422.086 66.3081 418.501 68.0799 415.008C69.7195 411.776 71.6001 408.585 73.6494 405.492C74.6053 404.049 75.5744 402.613 76.5374 401.173C77.1677 400.231 77.7679 398.722 78.6454 397.819C72.9729 403.006 66.7753 408.229 63.1764 414.452" fill="#C0D8E0"/>
<path opacity="0.3" d="M315.035 134.122V422.156C315.035 434.614 326.07 444.681 339.669 444.662L471.308 444.468C484.907 444.468 495.941 434.322 495.941 421.884V133.831C495.941 121.372 484.907 111.285 471.308 111.324L339.669 111.519C326.07 111.538 315.035 121.664 315.035 134.122ZM327.585 134.316C327.585 126.639 334.385 120.401 342.777 120.401H361.33V122.111C361.446 124.576 362.533 126.894 364.354 128.559C366.174 130.223 368.58 131.099 371.044 130.993L441.817 130.876C444.282 130.972 446.684 130.09 448.503 128.423C450.322 126.757 451.41 124.439 451.531 121.975V120.265H470.686C479.079 120.265 485.878 126.465 485.878 134.142V421.301C485.878 428.978 479.079 435.197 470.686 435.216L342.777 435.43C334.385 435.43 327.585 429.23 327.585 421.553V134.316Z" fill="#2C7D98"/>
<path d="M308.838 140.03V428.083C308.838 440.541 319.873 450.609 333.472 450.589L465.13 450.376C478.729 450.376 489.764 440.25 489.764 427.792V139.758C489.764 127.3 478.729 117.213 465.13 117.232L333.472 117.446C319.873 117.466 308.838 127.592 308.838 140.03ZM321.408 140.244C321.408 132.47 328.188 126.328 336.58 126.309H355.133V128.019C355.249 130.482 356.337 132.799 358.158 134.46C359.979 136.122 362.385 136.993 364.847 136.882H435.601C438.068 136.977 440.474 136.093 442.293 134.422C444.112 132.751 445.198 130.429 445.314 127.961V126.27H464.489C472.862 126.27 479.661 132.47 479.661 140.147V427.228C479.661 434.886 472.862 441.124 464.489 441.144L336.677 441.416C328.285 441.416 321.505 435.216 321.505 427.539L321.408 140.244Z" fill="white"/>
<path d="M321.407 140.167V427.462C321.407 435.236 328.187 441.358 336.58 441.339L464.508 441.144C472.881 441.144 479.681 434.886 479.681 427.228V139.992C479.681 132.218 472.881 126.095 464.508 126.115H445.333V127.806C445.217 130.274 444.132 132.596 442.312 134.267C440.493 135.937 438.088 136.822 435.62 136.727H364.866C362.404 136.837 359.998 135.966 358.177 134.305C356.356 132.643 355.268 130.327 355.152 127.864V126.154H336.677C328.187 126.329 321.407 132.567 321.407 140.167Z" stroke="url(#paint0_linear)" stroke-width="0.45" stroke-miterlimit="10"/>
<path d="M321.407 140.167V427.462C321.407 435.236 328.187 441.358 336.58 441.339L464.508 441.144C472.881 441.144 479.681 434.886 479.681 427.228V139.992C479.681 132.218 472.881 126.095 464.508 126.115H445.333V127.806C445.217 130.274 444.132 132.596 442.312 134.267C440.493 135.937 438.088 136.822 435.62 136.727H364.866C362.404 136.837 359.998 135.966 358.177 134.305C356.356 132.643 355.268 130.327 355.152 127.864V126.154H336.677C328.187 126.329 321.407 132.567 321.407 140.167Z" fill="#A6DCE9"/>
<path opacity="0.28" d="M461.108 214.566H347.557V242.32H461.108V214.566Z" fill="white"/>
<path opacity="0.28" d="M461.108 173.595H347.557V201.349H461.108V173.595Z" fill="white"/>
<path d="M390.607 130.585L414.911 130.546V128.563L390.607 128.602V130.585Z" fill="url(#paint1_linear)"/>
<path d="M384.215 131.726C385.675 131.712 386.847 130.613 386.834 129.271C386.821 127.93 385.627 126.853 384.168 126.868C382.709 126.882 381.537 127.981 381.55 129.323C381.563 130.665 382.756 131.741 384.215 131.726Z" fill="url(#paint2_linear)"/>
<path fill-rule="evenodd" clip-rule="evenodd" d="M250.382 179.67C250.382 168.164 259.68 158.747 271.04 158.747V179.67L256.922 194.898C252.906 191.175 250.382 185.713 250.382 179.67Z" fill="#CFEFF7"/>
<path fill-rule="evenodd" clip-rule="evenodd" d="M270.493 179.405H291.355C291.355 184.798 289.155 189.85 285.677 193.522C281.852 197.538 276.405 200.063 270.493 200.063C265.047 200.063 260.062 197.884 256.236 194.441L270.493 179.405Z" fill="#8FCDDC"/>
<path fill-rule="evenodd" clip-rule="evenodd" d="M291.698 179.405C291.698 168.045 282.399 158.747 271.04 158.747V179.405H291.698ZM260.711 158.747L268.974 177.339L250.382 169.076C252.22 164.257 256.349 160.586 260.711 158.747Z" fill="#A6DCE9"/>
<path opacity="0.5" fill-rule="evenodd" clip-rule="evenodd" d="M120.568 213.082C122.89 209.772 127.198 201.365 130.465 200.183C132.57 199.421 131.956 207.302 131.982 208.804C132.084 214.618 131.518 220.395 130.819 226.16C129.559 236.556 125.442 245.816 119.794 254.664C116.888 259.218 113.48 263.826 108.759 266.667C106.586 267.976 103.971 268.195 101.825 269.322C99.3253 270.634 100.687 269.573 99.5601 272.178C97.9959 275.794 97.4955 280.459 96.7718 284.317C93.4487 302.03 85.4034 395.662 86.7982 413.678C86.922 415.275 84.6953 415.657 84.5842 413.708C83.9933 403.371 89.1059 331.788 91.6853 308.378C94.2647 284.969 96.8749 264.287 99.4921 256.188C102.667 246.363 108.402 234.546 113.175 225.383C115.393 221.126 117.809 217.016 120.568 213.082Z" fill="#69A1AC"/>
<path fill-rule="evenodd" clip-rule="evenodd" d="M137.799 327.896C143.84 323.462 150.379 331.832 144.913 336.267C141.891 338.719 138.732 337.847 136.953 335.804C135.798 337.211 134.718 338.683 133.679 339.926C130.516 343.713 127.526 347.591 124.668 351.559C118.732 359.803 113.644 368.513 108.325 377.063C103.076 385.502 97.8683 393.984 93.1103 402.637C89.0797 409.968 83.7073 418.592 82.3273 426.629C84.4211 409.584 92.3661 393.201 101.827 378.175C111.211 363.272 121.981 346.997 136.511 335.236C135.032 333.061 134.991 329.957 137.799 327.896Z" fill="#C1DEE2"/>
<path opacity="0.5" fill-rule="evenodd" clip-rule="evenodd" d="M23.169 286.328C26.5495 286.989 32.0732 294.636 34.8597 297.549C38.1713 301.012 41.1757 304.702 44.0077 308.569C50.1045 316.892 55.557 325.741 60.1935 334.969C67.7522 350.012 73.8077 365.455 78.2024 381.836C80.8926 391.864 82.6343 402.257 83.6666 412.578C83.8615 414.524 85.9022 429.53 82.9617 429.935C80.3171 430.299 81.1339 418.54 81.0063 416.941C79.5641 398.895 75.2436 381.337 69.2338 364.329C67.9248 360.623 66.7087 356.085 64.6153 352.751C63.1077 350.349 64.6045 351.187 61.9552 350.278C59.6803 349.497 57.0884 349.688 54.7589 348.732C49.6982 346.656 45.6461 342.628 42.0941 338.575C35.1914 330.699 29.7213 322.179 26.87 312.087C25.2883 306.492 23.8348 300.864 23.0282 295.095C22.8195 293.604 20.9917 285.902 23.169 286.328Z" fill="#69A1AC"/>
<path opacity="0.5" fill-rule="evenodd" clip-rule="evenodd" d="M36.5092 159.094C49.2427 181.177 59.7066 205.435 66.4632 230.004C70.5569 244.891 73.4198 260.166 76.2643 275.331C80.6684 298.813 84.8342 322.293 86.0192 346.191C87.2114 370.228 89.5688 397.952 81.6979 421.104C85.6295 397.599 81.8864 372.579 81.2236 348.928C80.9069 337.638 79.9891 326.458 78.7852 315.233C77.6169 304.345 75.7082 293.508 73.9307 282.705C73.0649 277.444 72.1556 272.19 71.2298 266.94C70.9535 265.374 70.8367 260.725 69.843 259.655C68.8429 258.578 63.7402 258.139 62.1382 257.349C58.9123 255.757 55.8779 253.495 53.1924 251.106C48.0442 246.526 43.5656 240.542 40.0307 234.643C31.8518 220.993 28.5819 204.335 28.7472 188.526C28.7789 185.457 33.715 152.406 31.7326 151.951C31.8519 151.811 31.9648 151.667 32.0713 151.517C33.5722 154.03 35.0449 156.559 36.5092 159.094Z" fill="#89C5CC"/>
<path opacity="0.5" fill-rule="evenodd" clip-rule="evenodd" d="M173.946 238.739C174.143 238.455 175.421 236.485 174.778 236.61C176.089 236.354 172.974 238.784 176.241 237.293C174.69 238.758 175.585 240.661 175.606 242.632C175.64 245.833 175.104 249.008 174.501 252.14C173.548 257.091 172.129 261.905 170.069 266.511C165.58 276.546 157.956 286.208 148.906 292.482C144.438 295.58 140.059 296.634 134.963 298.061C131.744 298.962 131.489 300.627 129.78 303.75C126.224 310.255 122.73 316.737 119.593 323.462C115.847 331.492 112.211 339.531 108.781 347.703C97.2261 375.229 87.8215 403.745 82.8824 433.257C82.7615 415.866 86.7847 397.954 91.8596 381.377C95.5564 369.3 100.369 357.658 105.502 346.133C106.746 343.341 108.631 339.75 109.159 336.667C109.529 334.507 108.398 332.43 107.88 330.155C105.862 321.296 106.006 311.37 107.779 302.463C109.733 292.642 115.384 288.083 124.945 286.692C128.441 286.183 132.885 286.369 136.091 284.879C139.584 283.255 141.025 277.919 143.011 274.494C148.346 265.292 154.685 256.467 161.963 248.714C163.979 246.567 166.146 244.587 168.445 242.751C169.895 241.593 172.958 240.166 173.946 238.739Z" fill="#89C5CC"/>
<path fill-rule="evenodd" clip-rule="evenodd" d="M64.3896 420.205C63.9443 417.185 66.2842 414.475 69.3361 414.475H98.0808C101.133 414.475 103.473 417.185 103.027 420.205L101.679 429.344C100.365 438.256 92.7173 444.859 83.7084 444.859V444.859C74.6996 444.859 67.0517 438.256 65.7374 429.344L64.3896 420.205Z" fill="#C1DEE2"/>
<path d="M325.526 363.908C323.751 365.676 322.343 367.778 321.382 370.093C320.422 372.408 319.929 374.89 319.931 377.396C319.915 380.074 320.471 382.725 321.563 385.17C322.711 387.794 324.436 390.124 326.609 391.988C328.782 393.852 331.347 395.202 334.113 395.938V400.311H104.367C98.4309 400.137 92.7958 397.656 88.6582 393.394C84.5205 389.132 82.2061 383.425 82.2061 377.484C82.2061 371.542 84.5205 365.835 88.6582 361.573C92.7958 357.311 98.4309 354.83 104.367 354.657H334.113V359.03C330.871 359.87 327.909 361.553 325.526 363.908V363.908Z" fill="#A6DCE9"/>
<path opacity="0.1" d="M334.113 395.86V400.233H104.367C99.5881 400.24 94.928 398.741 91.0472 395.951C87.1665 393.16 84.2618 389.219 82.7449 384.685C91.4677 386.22 146.719 395.024 177.472 377.474L321.563 385.248C322.73 387.842 324.463 390.142 326.635 391.978C328.807 393.815 331.362 395.141 334.113 395.86V395.86Z" fill="url(#paint3_linear)"/>
<path d="M325.527 363.908C323.153 366.279 321.447 369.234 320.579 372.475C319.711 375.716 319.713 379.128 320.584 382.368C321.455 385.608 323.164 388.562 325.539 390.93C327.914 393.299 330.872 394.999 334.113 395.86V396.501H196.569C191.509 396.501 186.657 394.49 183.079 390.911C179.501 387.332 177.491 382.478 177.491 377.416C177.491 372.354 179.501 367.499 183.079 363.92C186.657 360.341 191.509 358.33 196.569 358.33H334.113V358.952C330.863 359.815 327.9 361.525 325.527 363.908Z" fill="white"/>
<path d="M325.526 409.542C323.738 411.325 322.322 413.446 321.361 415.782C320.4 418.118 319.914 420.622 319.931 423.147C319.928 425.793 320.484 428.409 321.563 430.824C322.708 433.45 324.431 435.782 326.604 437.647C328.778 439.511 331.345 440.86 334.113 441.592V445.965H104.367C101.372 445.965 98.4059 445.374 95.6388 444.228C92.8717 443.081 90.3574 441.4 88.2395 439.282C86.1216 437.163 84.4416 434.647 83.2954 431.879C82.1493 429.111 81.5593 426.144 81.5593 423.147C81.5593 420.151 82.1493 417.184 83.2954 414.416C84.4416 411.647 86.1216 409.132 88.2395 407.013C90.3574 404.894 92.8717 403.214 95.6388 402.067C98.4059 400.92 101.372 400.33 104.367 400.33H334.113V404.684C330.876 405.526 327.916 407.201 325.526 409.542V409.542Z" fill="#FFE7CA"/>
<path opacity="0.1" d="M334.113 441.417V445.79H104.367C99.5882 445.796 94.928 444.298 91.0473 441.508C87.1665 438.717 84.2619 434.775 82.7449 430.241C91.4677 431.777 146.719 440.581 177.472 423.05L321.563 430.727C322.718 433.338 324.445 435.655 326.618 437.506C328.791 439.357 331.353 440.694 334.113 441.417Z" fill="url(#paint4_linear)"/>
<path d="M325.526 409.542C323.173 411.915 321.484 414.864 320.628 418.095C319.771 421.326 319.778 424.725 320.648 427.953C321.517 431.18 323.219 434.122 325.582 436.485C327.945 438.848 330.887 440.549 334.113 441.417V442.058H196.569C191.509 442.058 186.657 440.047 183.079 436.468C179.501 432.889 177.491 428.034 177.491 422.972C177.491 417.911 179.501 413.056 183.079 409.477C186.657 405.898 191.509 403.887 196.569 403.887H334.113V404.509C330.858 405.401 327.896 407.138 325.526 409.542Z" fill="white"/>
<path opacity="0.1" d="M395.378 211.812L399.59 215.235L453.403 280.354L451.902 281.355L395.378 211.812Z" fill="#333333"/>
<path d="M395.089 209.889L394.343 210.329L459.526 284.616L460.534 283.464L395.089 209.889Z" fill="white"/>
<path fill-rule="evenodd" clip-rule="evenodd" d="M229.166 267.287C232.619 269.376 236.013 270.386 237.606 269.974C241.6 268.94 241.967 254.271 238.877 248.488C235.786 242.705 219.898 240.184 219.097 251.642C218.819 255.619 220.482 259.168 222.94 262.064L218.533 282.683H231.333L229.166 267.287Z" fill="#B28B67"/>
<path fill-rule="evenodd" clip-rule="evenodd" d="M221.956 264.644C220.35 257.469 215.773 252.578 216.472 249.371C217.171 246.164 220.198 245.382 220.198 245.382C220.198 245.382 221.764 239.024 230.296 239.973C238.829 240.923 244.037 244.48 241.788 252.308C239.721 252.308 237.225 251.557 233.774 252.843C232.131 253.455 231.424 256.64 231.424 256.64H229.865C229.865 256.64 227.594 252.861 225.387 253.862C223.18 254.864 224.384 258.728 224.384 258.728L223.616 264.644H221.956Z" fill="#191847"/>
<path fill-rule="evenodd" clip-rule="evenodd" d="M259.239 362.762C254.609 372.62 247.374 396.55 247.374 396.55L253.516 399.367C253.516 399.367 269.101 374.213 278.625 357.017C278.181 360.888 277.73 365.247 277.311 369.828C276.318 380.681 277.31 404.128 277.844 410.902C278.18 415.158 283.941 414.267 284.479 410.891C284.57 410.319 284.941 408.311 285.495 405.316C288.212 390.629 295.321 352.189 295.333 342.777C295.338 338.989 287.968 335.587 283.575 338.235C280.558 335.003 274.847 333.14 271.566 338.479C269.48 341.874 264.524 351.51 259.239 362.762Z" fill="#B28B67"/>
<path fill-rule="evenodd" clip-rule="evenodd" d="M247.813 387.691L268.895 337.556C273.945 329.4 288.105 339.215 286.382 343.946C282.472 354.685 262.587 389.451 261.422 392.651L247.813 387.691Z" fill="#219653"/>
<path fill-rule="evenodd" clip-rule="evenodd" d="M248.841 394.42C248.103 393.508 246.762 393.272 245.894 394.057C245.169 394.712 244.41 395.473 244.08 396.048C243.358 397.302 242.391 399.949 242.391 399.949C243.84 400.789 268.442 415.048 268.442 415.048C268.442 415.048 271.395 412.267 269.362 410.73C267.329 409.193 266.006 408.138 266.006 408.138L257.297 396.091C256.966 395.634 256.324 395.54 255.878 395.885L254.389 397.036C254.389 397.036 251.818 396.81 250.552 396.076C250.009 395.762 249.381 395.088 248.841 394.42Z" fill="#E4E4E4"/>
<path fill-rule="evenodd" clip-rule="evenodd" d="M278.917 407.976C277.822 407.557 276.54 408.025 276.179 409.141C275.878 410.072 275.6 411.11 275.6 411.774C275.6 413.222 276.081 416 276.081 416C277.754 416 306.162 416 306.162 416C306.162 416 307.334 412.109 304.808 411.799C302.282 411.488 300.611 411.238 300.611 411.238L287.07 405.178C286.555 404.948 285.951 405.189 285.736 405.711L285.02 407.455C285.02 407.455 282.682 408.55 281.22 408.55C280.593 408.55 279.716 408.282 278.917 407.976Z" fill="#E4E4E4"/>
<path fill-rule="evenodd" clip-rule="evenodd" d="M296.811 346.629C296.811 360.853 290.082 394.033 290.078 397.165L275.6 397.176C275.6 397.176 278.779 352.767 277.854 352.289C276.93 351.81 239.96 355.994 228.873 355.994C212.884 355.994 206.27 345.872 205.733 327.122H237.406C243.855 327.815 277.493 334.626 289.985 336.967C295.333 337.97 296.811 342.71 296.811 346.629Z" fill="#6FCF97"/>
<path fill-rule="evenodd" clip-rule="evenodd" d="M280.059 266.065L259.843 272.157L265.005 280.789L280.722 271.502C288.06 271.064 291.526 270.337 291.123 269.323C290.782 268.468 289.972 268.322 289.226 268.188C288.644 268.083 288.102 267.986 287.85 267.565C287.276 266.605 289.289 264.105 291.3 261.814C293.312 259.523 291.702 259.417 290.73 259.6C287.387 260.963 283.83 263.118 280.059 266.065ZM275.069 320.478L258.057 307.937L254.296 317.27L271.143 324.283C275.908 329.901 278.572 332.244 279.136 331.31C279.611 330.522 279.24 329.785 278.897 329.106C278.63 328.576 278.382 328.083 278.565 327.628C278.983 326.59 282.184 326.699 285.217 326.933C288.249 327.167 287.366 325.812 286.634 325.143C283.538 323.283 279.684 321.728 275.069 320.478Z" fill="#B28B67"/>
<path fill-rule="evenodd" clip-rule="evenodd" d="M231.632 274.163C240.897 291.505 254.293 304.798 273.715 318.618L266.361 326.942C244.676 318.852 233.232 313.97 227.611 297.586C226.201 293.474 225.215 280.365 224.369 273.468L231.632 274.163Z" fill="#4349B7"/>
<path fill-rule="evenodd" clip-rule="evenodd" d="M205.733 331.941H246.8C246.8 331.941 232.847 289.219 232.544 273.298C232.534 272.757 231.538 271.803 231.098 271.928C226.267 273.298 220.758 270.904 220.758 270.904C211.023 286.623 207.656 305.976 205.733 331.941Z" fill="#F2F2F2"/>
<path fill-rule="evenodd" clip-rule="evenodd" d="M231.059 294.885C237.473 322.505 237.178 345.115 223.017 345.115H201.121C197.643 321.652 206.783 289.12 215.257 272.712C215.58 272.085 216.269 270.904 217.892 270.904H224.254C224.257 270.912 224.26 270.921 224.263 270.929C226.177 270.945 228.286 271.015 230.569 271.091C242.325 271.483 258.715 272.029 277.159 266.085L279.333 276.993C262.686 287.741 245.83 296.067 231.059 294.885Z" fill="#454EEB"/>
<path fill-rule="evenodd" clip-rule="evenodd" d="M495.935 256.061C492.315 258.243 488.758 259.297 487.089 258.866C482.902 257.787 482.517 242.472 485.757 236.434C488.996 230.397 505.648 227.765 506.488 239.728C506.779 243.88 505.036 247.585 502.46 250.608L507.078 272.135H493.663L495.935 256.061Z" fill="#B28B67"/>
<path fill-rule="evenodd" clip-rule="evenodd" d="M503.491 253.302C505.175 245.81 509.972 240.704 509.239 237.356C508.506 234.008 505.334 233.192 505.334 233.192C505.334 233.192 503.693 226.554 494.75 227.545C485.806 228.536 480.348 232.25 482.705 240.423C484.872 240.423 487.488 239.639 491.105 240.982C492.827 241.621 493.568 244.945 493.568 244.945H495.202C495.202 244.945 497.582 241 499.895 242.045C502.208 243.091 500.947 247.125 500.947 247.125L501.752 253.302H503.491Z" fill="#191847"/>
<path fill-rule="evenodd" clip-rule="evenodd" d="M516.004 319.339L495.768 390.491L481.003 442.933H470.235L485.924 319.339H516.004Z" fill="#191847"/>
<path fill-rule="evenodd" clip-rule="evenodd" d="M521.416 319.339C521.884 356.011 523.48 376.014 523.972 379.345C524.463 382.677 531.894 403.873 546.264 442.933H535.109C516.814 405.462 506.602 384.266 504.471 379.345C502.341 374.425 495.766 354.423 485.863 319.339H521.416Z" fill="#2F3676"/>
<path fill-rule="evenodd" clip-rule="evenodd" d="M547.261 453L546.703 441.256L534.982 441.256C526.645 447.128 513.213 450.763 513.213 450.763V453H534.423L541.68 451.882V453H547.261Z" fill="#191847"/>
<path fill-rule="evenodd" clip-rule="evenodd" d="M482.514 453L481.956 441.256L470.235 441.256C461.898 447.128 448.466 450.763 448.466 450.763V453H469.677L476.933 451.882V453H482.514Z" fill="#191847"/>
<path fill-rule="evenodd" clip-rule="evenodd" d="M461.384 278.892L482.074 286.696L476.047 295.295L460.293 284.497C452.654 283.507 449.083 282.5 449.579 281.475C449.997 280.61 450.855 280.518 451.645 280.432C452.261 280.366 452.835 280.304 453.129 279.885C453.799 278.928 451.877 276.182 449.942 273.655C448.006 271.127 449.697 271.133 450.7 271.395C454.096 273.054 457.657 275.553 461.384 278.892ZM444.138 296.346L453.228 299.788L453.935 308.31C453.935 308.31 447.916 305.14 443.029 304.492C436.798 303.666 434.193 302.732 430.74 299.417C428.892 297.644 426.998 293.822 428.306 292.307C428.808 291.726 431.108 292.609 433.453 293.51C435.241 294.197 437.056 294.894 438.123 294.962C439.56 295.053 439.143 293.269 438.809 291.843C438.57 290.821 438.374 289.982 438.937 290.153C441.413 289.849 444.138 296.346 444.138 296.346Z" fill="#997659"/>
<path fill-rule="evenodd" clip-rule="evenodd" d="M491.103 283.041C484.363 283.916 475.189 283.758 464.761 279.036L462.177 287.936C469.701 293.551 479.744 297.622 487.833 296.253C494.207 295.174 496.392 286.988 491.103 283.041Z" fill="#C1B996"/>
<path fill-rule="evenodd" clip-rule="evenodd" d="M517.314 337.842C523.595 336.111 529.366 334.519 532.946 334.714C535.074 321.493 530.707 313.971 526.676 307.026C524.246 302.841 521.938 298.866 521.247 293.979C519.237 279.75 504.711 259.454 503.027 259.691L487.668 261.849C488.219 270.752 486.628 280.699 485.027 290.71C484.653 293.047 484.278 295.389 483.931 297.721C473.124 301.819 447.101 296.498 447.101 296.498C447.101 296.498 442.659 310.3 443.905 315.736C459.389 321.231 472.225 322.847 482.444 321.637C482.968 327.716 484.511 333.354 487.72 338.253C492.019 344.817 505.559 341.084 517.314 337.842Z" fill="#D9D0AA"/>
<defs>
<linearGradient id="paint0_linear" x1="544.037" y1="181.253" x2="306.457" y2="387.999" gradientUnits="userSpaceOnUse">
<stop stop-color="white"/>
<stop offset="1" stop-color="#CBCBCB"/>
</linearGradient>
<linearGradient id="paint1_linear" x1="-65576.8" y1="234.894" x2="-65576.8" y2="251.166" gradientUnits="userSpaceOnUse">
<stop stop-color="white"/>
<stop offset="1" stop-color="#CBCBCB"/>
</linearGradient>
<linearGradient id="paint2_linear" x1="-9853.83" y1="1493.21" x2="-9855.66" y2="1521.88" gradientUnits="userSpaceOnUse">
<stop stop-color="white"/>
<stop offset="1" stop-color="#CBCBCB"/>
</linearGradient>
<linearGradient id="paint3_linear" x1="25443.3" y1="3194.8" x2="25506.4" y2="9049.55" gradientUnits="userSpaceOnUse">
<stop offset="0.01"/>
<stop offset="0.08" stop-opacity="0.69"/>
<stop offset="0.21" stop-opacity="0.32"/>
<stop offset="1" stop-opacity="0"/>
</linearGradient>
<linearGradient id="paint4_linear" x1="25443.3" y1="3772.13" x2="25506.3" y2="9621.67" gradientUnits="userSpaceOnUse">
<stop offset="0.01"/>
<stop offset="0.08" stop-opacity="0.69"/>
<stop offset="0.21" stop-opacity="0.32"/>
<stop offset="1" stop-opacity="0"/>
</linearGradient>
</defs>
</svg>
