<svg width="405" height="317" viewBox="0 0 405 317" fill="none" xmlns="http://www.w3.org/2000/svg">
<g clip-path="url(#clip0)">
<path opacity="0.44" d="M169.407 316.75C145.647 311.038 122.79 302.683 100.296 293.819C66.9672 280.688 32.2188 264.773 14.5179 236.598C1.77085 216.309 -0.331872 192.175 0.0423411 168.966C0.303697 154.022 1.55107 138.824 7.59789 124.858C18.8243 98.9105 47.318 79.4635 78.5975 76.3942C96.6548 74.6166 115.152 77.8933 132.971 74.7588C183.383 65.8708 209.893 10.5636 260.234 1.3912C273.153 -0.978937 286.553 0.0342966 299.609 1.72895C327.853 5.40266 448.54 77.3423 388.434 210.763C378.847 232.035 359.436 248.614 338.575 261.929C321.403 272.891 301.991 281.222 286.423 293.925C278.493 300.39 271.288 308.146 261.196 311.518C254.983 313.604 224.141 320.299 217.5 320.5L169.407 316.75Z" fill="#FFE7CA"/>
<path opacity="0.2" d="M331.5 267.296H45.262L28.5 254L15 237L30.1147 232.672H30.7904L369.22 225.067L365.5 238.5C366.489 244.706 336.5 261 331.5 267.296Z" fill="url(#paint0_linear)"/>
<path d="M103.52 83.6108H28.1845C24.8054 83.6108 22.0662 86.3515 22.0662 89.7322C22.0662 93.1129 24.8054 95.8536 28.1845 95.8536H103.52C106.899 95.8536 109.638 93.1129 109.638 89.7322C109.638 86.3515 106.899 83.6108 103.52 83.6108Z" stroke="#2C7D98" stroke-width="0.68" stroke-miterlimit="10"/>
<path d="M193.683 83.6108H118.348C114.969 83.6108 112.229 86.3515 112.229 89.7322C112.229 93.1129 114.969 95.8536 118.348 95.8536H193.683C197.062 95.8536 199.801 93.1129 199.801 89.7322C199.801 86.3515 197.062 83.6108 193.683 83.6108Z" stroke="#2C7D98" stroke-width="0.68" stroke-miterlimit="10"/>
<path d="M283.846 83.6108H208.511C205.132 83.6108 202.392 86.3515 202.392 89.7322C202.392 93.1129 205.132 95.8536 208.511 95.8536H283.846C287.225 95.8536 289.964 93.1129 289.964 89.7322C289.964 86.3515 287.225 83.6108 283.846 83.6108Z" stroke="#2C7D98" stroke-width="0.68" stroke-miterlimit="10"/>
<path d="M374.009 83.6108H298.674C295.295 83.6108 292.555 86.3515 292.555 89.7322C292.555 93.1129 295.295 95.8536 298.674 95.8536H374.009C377.388 95.8536 380.127 93.1129 380.127 89.7322C380.127 86.3515 377.388 83.6108 374.009 83.6108Z" stroke="#2C7D98" stroke-width="0.68" stroke-miterlimit="10"/>
<path d="M380.929 69.2573H24.0708C17.9566 69.2573 13 74.2194 13 80.3404V231.096C13 237.217 17.9566 242.179 24.0708 242.179H380.929C387.043 242.179 392 237.217 392 231.096V80.3404C392 74.2194 387.043 69.2573 380.929 69.2573Z" fill="#2C7D98"/>
<path d="M380.929 63.5557H24.0708C17.9566 63.5557 13 68.5177 13 74.6388V225.394C13 231.515 17.9566 236.478 24.0708 236.478H380.929C387.043 236.478 392 231.515 392 225.394V74.6388C392 68.5177 387.043 63.5557 380.929 63.5557Z" fill="url(#paint1_linear)"/>
<path opacity="0.26" d="M306.232 219.076C306.172 217.09 305.723 215.136 304.911 213.323C302.193 208.157 295.087 207.584 290.32 204.217C286.489 201.504 284.284 196.947 283.43 192.324C282.576 187.7 282.918 182.958 283.267 178.275C283.363 176.944 283.504 175.502 284.403 174.513C286.348 172.35 289.882 173.896 292.281 175.539L298.666 179.91C300.018 180.832 301.874 181.753 303.121 180.743C303.968 180.074 304.109 178.869 304.191 177.769L305.401 160.895C305.735 156.235 306.537 150.808 310.598 148.564C314.66 146.319 319.961 148.72 322.523 152.548C325.085 156.376 325.567 161.193 325.902 165.787C327.619 189.941 327.258 214.199 324.825 238.291C324.728 239.243 324.558 240.313 323.771 240.856C323.153 241.181 322.45 241.306 321.758 241.213C317.303 241.072 309.247 242.759 307.064 238.068C304.881 233.378 306.693 224.265 306.232 219.076Z" fill="url(#paint2_linear)"/>
<path d="M281.908 170.44L300.099 165.534L309.433 187.232L306.344 193.246L293.848 192.532L281.908 170.44Z" fill="url(#paint3_linear)"/>
<path d="M285.197 186.749C284.935 184.846 284.977 182.914 285.323 181.025C285.354 180.729 285.447 180.442 285.598 180.185C286.14 179.397 287.432 179.709 288.056 180.423C288.679 181.137 288.954 182.11 289.541 182.846C290.038 183.448 290.729 183.857 291.278 184.415C292.157 185.424 292.747 186.651 292.986 187.968C293.078 188.302 293.116 188.648 293.097 188.994C292.997 189.475 292.789 189.927 292.489 190.317C291.516 191.803 289.853 193.855 288.033 192.443C286.378 191.172 285.509 188.719 285.197 186.749Z" fill="url(#paint4_linear)"/>
<path opacity="0.68" d="M379.994 86.146H302.75C301.053 86.146 299.676 87.5238 299.676 89.2234V95.735C299.676 97.4346 301.053 98.8124 302.75 98.8124H379.994C381.691 98.8124 383.068 97.4346 383.068 95.735V89.2234C383.068 87.5238 381.691 86.146 379.994 86.146Z" fill="#2C7D98"/>
<path d="M99.9777 102.767H28.9491C25.8489 102.767 23.3357 105.283 23.3357 108.386V218.608C23.3357 221.711 25.8489 224.227 28.9491 224.227H99.9777C103.078 224.227 105.591 221.711 105.591 218.608V108.386C105.591 105.283 103.078 102.767 99.9777 102.767Z" fill="white"/>
<path d="M191.641 102.618H122.045C117.85 102.618 114.449 106.023 114.449 110.222V133.861C114.449 138.06 117.85 141.465 122.045 141.465H191.641C195.836 141.465 199.237 138.06 199.237 133.861V110.222C199.237 106.023 195.836 102.618 191.641 102.618Z" fill="white"/>
<path d="M191.5 147.27H122.186C117.913 147.27 114.449 150.738 114.449 155.016V179.821C114.449 184.098 117.913 187.566 122.186 187.566H191.5C195.773 187.566 199.237 184.098 199.237 179.821V155.016C199.237 150.738 195.773 147.27 191.5 147.27Z" fill="white"/>
<path d="M191.641 192.346H122.045C117.85 192.346 114.449 195.751 114.449 199.951V223.589C114.449 227.788 117.85 231.193 122.045 231.193H191.641C195.836 231.193 199.237 227.788 199.237 223.589V199.951C199.237 195.751 195.836 192.346 191.641 192.346Z" fill="white"/>
<path d="M285.257 103.882H214.859C210.886 103.882 207.664 107.107 207.664 111.085V112.467C207.664 116.445 210.886 119.67 214.859 119.67H285.257C289.23 119.67 292.452 116.445 292.452 112.467V111.085C292.452 107.107 289.23 103.882 285.257 103.882Z" fill="white"/>
<path d="M378.687 105.146H302.81C300.349 105.146 298.354 107.142 298.354 109.606V114.051C298.354 116.514 300.349 118.511 302.81 118.511H378.687C381.147 118.511 383.142 116.514 383.142 114.051V109.606C383.142 107.142 381.147 105.146 378.687 105.146Z" fill="white"/>
<path opacity="0.68" d="M102.94 86.146H25.9792C24.2855 86.146 22.9126 87.5205 22.9126 89.216V95.7424C22.9126 97.4379 24.2855 98.8124 25.9792 98.8124H102.94C104.634 98.8124 106.007 97.4379 106.007 95.7424V89.216C106.007 87.5205 104.634 86.146 102.94 86.146Z" fill="#2C7D98"/>
<path opacity="0.93" d="M194.945 86.146H117.984C116.29 86.146 114.917 87.5205 114.917 89.216V95.7424C114.917 97.4379 116.29 98.8124 117.984 98.8124H194.945C196.638 98.8124 198.011 97.4379 198.011 95.7424V89.216C198.011 87.5205 196.638 86.146 194.945 86.146Z" fill="#2C7D98"/>
<path opacity="0.68" d="M288.249 86.146H211.005C209.308 86.146 207.931 87.5238 207.931 89.2234V95.735C207.931 97.4346 209.308 98.8124 211.005 98.8124H288.249C289.947 98.8124 291.323 97.4346 291.323 95.735V89.2234C291.323 87.5238 289.947 86.146 288.249 86.146Z" fill="#2C7D98"/>
<path opacity="0.26" d="M288.249 86.146H211.005C209.308 86.146 207.931 87.5238 207.931 89.2234V95.735C207.931 97.4346 209.308 98.8124 211.005 98.8124H288.249C289.947 98.8124 291.323 97.4346 291.323 95.735V89.2234C291.323 87.5238 289.947 86.146 288.249 86.146Z" fill="url(#paint5_linear)"/>
<path opacity="0.26" d="M380.625 86.146H303.381C301.684 86.146 300.307 87.5238 300.307 89.2234V95.735C300.307 97.4346 301.684 98.8124 303.381 98.8124H380.625C382.323 98.8124 383.699 97.4346 383.699 95.735V89.2234C383.699 87.5238 382.323 86.146 380.625 86.146Z" fill="url(#paint6_linear)"/>
<path d="M123.649 117.708C126.138 117.708 128.156 115.688 128.156 113.196C128.156 110.704 126.138 108.684 123.649 108.684C121.16 108.684 119.142 110.704 119.142 113.196C119.142 115.688 121.16 117.708 123.649 117.708Z" fill="#C0D8E0"/>
<path d="M123.649 131.489C126.138 131.489 128.156 129.469 128.156 126.977C128.156 124.485 126.138 122.465 123.649 122.465C121.16 122.465 119.142 124.485 119.142 126.977C119.142 129.469 121.16 131.489 123.649 131.489Z" fill="#C0D8E0"/>
<path opacity="0.68" d="M63.8025 111.062H31.9785C31.0476 111.062 30.293 111.818 30.293 112.75C30.293 113.682 31.0476 114.437 31.9785 114.437H63.8025C64.7334 114.437 65.488 113.682 65.488 112.75C65.488 111.818 64.7334 111.062 63.8025 111.062Z" fill="#2C7D98"/>
<path opacity="0.68" d="M61.3002 121.194H31.9785C31.0476 121.194 30.293 121.949 30.293 122.881C30.293 123.813 31.0476 124.569 31.9785 124.569H61.3002C62.2311 124.569 62.9857 123.813 62.9857 122.881C62.9857 121.949 62.2311 121.194 61.3002 121.194Z" fill="#2C7D98"/>
<path opacity="0.68" d="M61.3002 143.152H31.9785C31.0476 143.152 30.293 143.907 30.293 144.839C30.293 145.771 31.0476 146.527 31.9785 146.527H61.3002C62.2311 146.527 62.9857 145.771 62.9857 144.839C62.9857 143.907 62.2311 143.152 61.3002 143.152Z" fill="#2C7D98"/>
<path opacity="0.68" d="M87.7782 151.596H31.9785C31.0476 151.596 30.293 152.352 30.293 153.284C30.293 154.215 31.0476 154.971 31.9785 154.971H87.7782C88.7091 154.971 89.4637 154.215 89.4637 153.284C89.4637 152.352 88.7091 151.596 87.7782 151.596Z" fill="#2C7D98"/>
<path opacity="0.68" d="M190.282 110.431H134.482C133.551 110.431 132.797 111.186 132.797 112.118C132.797 113.05 133.551 113.805 134.482 113.805H190.282C191.213 113.805 191.967 113.05 191.967 112.118C191.967 111.186 191.213 110.431 190.282 110.431Z" fill="#2C7D98"/>
<path d="M216.864 116.92C219.353 116.92 221.371 114.9 221.371 112.408C221.371 109.916 219.353 107.896 216.864 107.896C214.375 107.896 212.357 109.916 212.357 112.408C212.357 114.9 214.375 116.92 216.864 116.92Z" fill="#C0D8E0"/>
<path opacity="0.68" d="M283.504 109.635H227.705C226.774 109.635 226.019 110.391 226.019 111.323C226.019 112.255 226.774 113.01 227.705 113.01H283.504C284.435 113.01 285.19 112.255 285.19 111.323C285.19 110.391 284.435 109.635 283.504 109.635Z" fill="#2C7D98"/>
<path d="M310.19 116.92C312.679 116.92 314.697 114.9 314.697 112.408C314.697 109.916 312.679 107.896 310.19 107.896C307.701 107.896 305.683 109.916 305.683 112.408C305.683 114.9 307.701 116.92 310.19 116.92Z" fill="#C0D8E0"/>
<path opacity="0.68" d="M376.83 109.635H321.031C320.1 109.635 319.345 110.391 319.345 111.323C319.345 112.255 320.1 113.01 321.031 113.01H376.83C377.761 113.01 378.516 112.255 378.516 111.323C378.516 110.391 377.761 109.635 376.83 109.635Z" fill="#2C7D98"/>
<path d="M285.257 122.569H214.859C210.886 122.569 207.664 125.794 207.664 129.772V131.155C207.664 135.133 210.886 138.358 214.859 138.358H285.257C289.23 138.358 292.452 135.133 292.452 131.155V129.772C292.452 125.794 289.23 122.569 285.257 122.569Z" fill="white"/>
<path d="M216.864 135.607C219.353 135.607 221.371 133.587 221.371 131.095C221.371 128.603 219.353 126.583 216.864 126.583C214.375 126.583 212.357 128.603 212.357 131.095C212.357 133.587 214.375 135.607 216.864 135.607Z" fill="#C0D8E0"/>
<path opacity="0.68" d="M283.504 128.323H227.705C226.774 128.323 226.019 129.078 226.019 130.01C226.019 130.942 226.774 131.697 227.705 131.697H283.504C284.435 131.697 285.19 130.942 285.19 130.01C285.19 129.078 284.435 128.323 283.504 128.323Z" fill="#2C7D98"/>
<g filter="url(#filter0_d)">
<path d="M291.173 162.27L221.976 149.323C218.07 148.592 214.311 151.17 213.579 155.08L213.325 156.439C212.593 160.349 215.166 164.112 219.072 164.842L288.269 177.79C292.175 178.52 295.934 175.943 296.666 172.033L296.92 170.674C297.652 166.764 295.079 163.001 291.173 162.27Z" fill="white"/>
<path d="M221.55 162.5C223.997 162.958 226.352 161.344 226.81 158.894C227.268 156.445 225.656 154.088 223.21 153.63C220.763 153.172 218.408 154.787 217.95 157.236C217.491 159.686 219.103 162.043 221.55 162.5Z" fill="#C0D8E0"/>
<path opacity="0.68" d="M288.392 167.603L233.544 157.341C232.629 157.17 231.748 157.773 231.577 158.689C231.405 159.605 232.008 160.487 232.923 160.658L287.771 170.92C288.686 171.092 289.567 170.488 289.738 169.572C289.91 168.656 289.307 167.774 288.392 167.603Z" fill="#2C7D98"/>
</g>
<path opacity="0.68" d="M180.555 124.784H134.334C133.485 124.784 132.797 125.473 132.797 126.323V126.62C132.797 127.47 133.485 128.159 134.334 128.159H180.555C181.404 128.159 182.092 127.47 182.092 126.62V126.323C182.092 125.473 181.404 124.784 180.555 124.784Z" fill="#2C7D98"/>
<path d="M123.649 159.988C126.138 159.988 128.156 157.968 128.156 155.476C128.156 152.984 126.138 150.964 123.649 150.964C121.16 150.964 119.142 152.984 119.142 155.476C119.142 157.968 121.16 159.988 123.649 159.988Z" fill="#C0D8E0"/>
<path opacity="0.68" d="M180.555 153.291H134.334C133.485 153.291 132.797 153.98 132.797 154.83V155.127C132.797 155.977 133.485 156.666 134.334 156.666H180.555C181.404 156.666 182.092 155.977 182.092 155.127V154.83C182.092 153.98 181.404 153.291 180.555 153.291Z" fill="#2C7D98"/>
<path d="M123.649 172.023C126.138 172.023 128.156 170.003 128.156 167.511C128.156 165.019 126.138 162.999 123.649 162.999C121.16 162.999 119.142 165.019 119.142 167.511C119.142 170.003 121.16 172.023 123.649 172.023Z" fill="#C0D8E0"/>
<path opacity="0.68" d="M180.555 165.326H134.334C133.485 165.326 132.797 166.015 132.797 166.864V167.162C132.797 168.012 133.485 168.7 134.334 168.7H180.555C181.404 168.7 182.092 168.012 182.092 167.162V166.864C182.092 166.015 181.404 165.326 180.555 165.326Z" fill="#2C7D98"/>
<path d="M123.649 184.058C126.138 184.058 128.156 182.038 128.156 179.546C128.156 177.054 126.138 175.034 123.649 175.034C121.16 175.034 119.142 177.054 119.142 179.546C119.142 182.038 121.16 184.058 123.649 184.058Z" fill="#C0D8E0"/>
<path opacity="0.68" d="M180.555 177.36H134.334C133.485 177.36 132.797 178.049 132.797 178.899V179.196C132.797 180.046 133.485 180.735 134.334 180.735H180.555C181.404 180.735 182.092 180.046 182.092 179.196V178.899C182.092 178.049 181.404 177.36 180.555 177.36Z" fill="#2C7D98"/>
<path d="M123.649 205.912C126.138 205.912 128.156 203.892 128.156 201.4C128.156 198.908 126.138 196.888 123.649 196.888C121.16 196.888 119.142 198.908 119.142 201.4C119.142 203.892 121.16 205.912 123.649 205.912Z" fill="#C0D8E0"/>
<path opacity="0.68" d="M180.555 199.214H134.334C133.485 199.214 132.797 199.903 132.797 200.753V201.05C132.797 201.9 133.485 202.589 134.334 202.589H180.555C181.404 202.589 182.092 201.9 182.092 201.05V200.753C182.092 199.903 181.404 199.214 180.555 199.214Z" fill="#2C7D98"/>
<path d="M123.649 227.052C126.138 227.052 128.156 225.032 128.156 222.54C128.156 220.048 126.138 218.028 123.649 218.028C121.16 218.028 119.142 220.048 119.142 222.54C119.142 225.032 121.16 227.052 123.649 227.052Z" fill="#C0D8E0"/>
<path opacity="0.68" d="M180.555 210.506H134.334C133.485 210.506 132.797 211.195 132.797 212.045V212.342C132.797 213.192 133.485 213.881 134.334 213.881H180.555C181.404 213.881 182.092 213.192 182.092 212.342V212.045C182.092 211.195 181.404 210.506 180.555 210.506Z" fill="#2C7D98"/>
<path opacity="0.68" d="M180.555 221.485H134.334C133.485 221.485 132.797 222.174 132.797 223.024V223.321C132.797 224.171 133.485 224.86 134.334 224.86H180.555C181.404 224.86 182.092 224.171 182.092 223.321V223.024C182.092 222.174 181.404 221.485 180.555 221.485Z" fill="#2C7D98"/>
<path opacity="0.68" d="M61.3002 178.624H31.9785C31.0476 178.624 30.293 179.379 30.293 180.311C30.293 181.243 31.0476 181.999 31.9785 181.999H61.3002C62.2311 181.999 62.9857 181.243 62.9857 180.311C62.9857 179.379 62.2311 178.624 61.3002 178.624Z" fill="#2C7D98"/>
<path opacity="0.68" d="M87.7782 187.068H31.9785C31.0476 187.068 30.293 187.824 30.293 188.756C30.293 189.688 31.0476 190.443 31.9785 190.443H87.7782C88.7091 190.443 89.4637 189.688 89.4637 188.756C89.4637 187.824 88.7091 187.068 87.7782 187.068Z" fill="#2C7D98"/>
<ellipse opacity="0.4" cx="318.052" cy="293.351" rx="59.0821" ry="14" transform="rotate(6.95677 318.052 293.351)" fill="#FFE7CA"/>
<path fill-rule="evenodd" clip-rule="evenodd" d="M325.012 147.834C322.298 149.485 319.632 150.283 318.38 149.957C315.241 149.141 314.952 137.549 317.381 132.98C319.81 128.41 332.295 126.418 332.925 135.472C333.143 138.615 331.836 141.419 329.905 143.707L333.368 160H323.309L325.012 147.834Z" fill="#B28B67"/>
<path fill-rule="evenodd" clip-rule="evenodd" d="M321.354 128.003C322.729 127.58 324.724 127.436 325.563 127.533C325.086 126.379 324.896 125.092 325.051 123.839C325.201 122.622 325.74 121.586 326.238 120.5C326.468 119.999 326.728 119.501 327.116 119.118C327.512 118.728 328.012 118.471 328.537 118.348C329.074 118.222 329.635 118.233 330.173 118.347C330.411 118.397 330.625 118.507 330.858 118.568C331.097 118.631 331.213 118.48 331.386 118.328C331.804 117.962 332.417 117.782 332.946 117.717C333.539 117.645 334.155 117.735 334.721 117.932C335.272 118.124 335.801 118.435 336.199 118.888C336.376 119.09 336.537 119.32 336.642 119.574C336.685 119.678 336.692 119.739 336.795 119.777C336.89 119.813 337.001 119.814 337.099 119.847C338.049 120.172 338.861 120.913 339.303 121.864C339.561 122.419 339.683 123.395 339.65 124.49C339.616 125.585 338.637 128.442 337.721 129.484C336.903 130.414 335.701 131.028 334.542 131.297C335.311 132.185 335.824 133.295 336.203 134.424C336.614 135.65 336.869 136.924 336.963 138.222C337.053 139.456 337.061 140.76 336.774 141.967C336.506 143.096 335.933 144.022 334.977 144.61C334.538 144.879 334.067 145.081 333.593 145.266C333.125 145.448 332.657 145.625 332.167 145.727C331.241 145.92 330.173 145.887 329.459 145.143C329.202 144.874 328.919 144.537 328.732 144.209C328.664 144.091 328.623 144.014 328.705 143.899C328.804 143.761 328.962 143.655 329.089 143.547C329.808 142.931 330.253 142.11 330.366 141.133C330.48 140.142 330.216 138.863 329.261 138.43C328.083 137.896 326.786 138.509 325.738 139.081C325.293 137.495 324.38 136.067 322.947 135.34C321.362 134.535 319.543 134.441 317.914 133.751C317.49 133.571 317.057 133.367 316.745 133C316.614 132.847 316.461 132.648 316.409 132.446C316.341 132.179 316.511 131.956 316.642 131.749C317.338 130.649 319.98 128.426 321.354 128.003Z" fill="#191847"/>
<path fill-rule="evenodd" clip-rule="evenodd" d="M340.24 195L324.435 246.475L316.779 290.25H310.776L318.866 195H340.24Z" fill="#997659"/>
<path fill-rule="evenodd" clip-rule="evenodd" d="M345.894 195C344.821 223.262 346.084 237.841 346.324 240.408C346.565 242.976 349.855 259.625 357.643 291.112L351.247 288.924C338.937 260.046 334.743 245.037 333.331 241.245C331.919 237.453 328.17 222.038 322.082 195H345.894Z" fill="#B28B67"/>
<path fill-rule="evenodd" clip-rule="evenodd" d="M355.261 288.883C356.369 288.51 357.649 288.961 357.982 290.081C358.16 290.679 358.3 291.282 358.3 291.697C358.3 292.829 357.922 295 357.922 295C356.604 295 334.233 295 334.233 295C334.233 295 333.309 291.959 335.299 291.716C337.288 291.474 338.604 291.279 338.604 291.279L349.071 286.63C349.585 286.402 350.186 286.642 350.401 287.161L350.881 288.322C350.881 288.322 352.723 289.178 353.875 289.178C354.258 289.178 354.761 289.051 355.261 288.883Z" fill="#E4E4E4"/>
<path fill-rule="evenodd" clip-rule="evenodd" d="M315.781 288.883C316.889 288.51 318.169 288.961 318.502 290.081C318.68 290.679 318.82 291.282 318.82 291.697C318.82 292.829 318.442 295 318.442 295C317.124 295 294.753 295 294.753 295C294.753 295 293.829 291.959 295.819 291.716C297.808 291.474 299.124 291.279 299.124 291.279L309.591 286.63C310.105 286.402 310.706 286.642 310.921 287.161L311.402 288.322C311.402 288.322 313.243 289.178 314.395 289.178C314.778 289.178 315.281 289.051 315.781 288.883Z" fill="#E4E4E4"/>
<path fill-rule="evenodd" clip-rule="evenodd" d="M342.34 195L335.62 221.226H315.094L318.155 195H342.34Z" fill="#69A1AC"/>
<path fill-rule="evenodd" clip-rule="evenodd" d="M346.12 195C349.437 204.904 347.38 221.226 347.38 221.226H326.435L320.675 195H346.12Z" fill="#89C5CC"/>
<path fill-rule="evenodd" clip-rule="evenodd" d="M299.439 164.601L314.935 170.446L310.421 176.886L298.621 168.799C292.9 168.058 290.225 167.303 290.597 166.535C290.91 165.888 291.553 165.818 292.145 165.755C292.606 165.705 293.036 165.658 293.256 165.345C293.758 164.628 292.318 162.572 290.869 160.678C289.419 158.785 290.685 158.79 291.437 158.986C293.98 160.229 296.647 162.1 299.439 164.601ZM286.522 177.673L293.33 180.251L293.86 186.634C293.86 186.634 289.351 184.26 285.692 183.774C281.025 183.155 279.074 182.456 276.487 179.974C275.103 178.645 273.685 175.783 274.665 174.648C275.041 174.213 276.763 174.874 278.52 175.549C279.859 176.064 281.218 176.586 282.017 176.637C283.093 176.705 282.781 175.369 282.531 174.301C282.352 173.535 282.205 172.907 282.627 173.035C284.481 172.807 286.522 177.673 286.522 177.673Z" fill="#997659"/>
<path fill-rule="evenodd" clip-rule="evenodd" d="M321.697 167.708C316.649 168.363 309.778 168.245 301.968 164.709L300.033 171.375C305.668 175.58 313.19 178.629 319.248 177.604C324.022 176.796 325.658 170.664 321.697 167.708Z" fill="#866BB6"/>
<path fill-rule="evenodd" clip-rule="evenodd" d="M341.328 208.752C346.032 207.455 350.354 206.263 353.035 206.409C354.629 196.507 351.358 190.873 348.339 185.672C346.519 182.538 344.791 179.56 344.274 175.901C342.768 165.244 331.889 150.043 330.627 150.22L319.124 151.837C319.536 158.505 318.345 165.954 317.146 173.452C316.866 175.203 316.585 176.956 316.325 178.703C308.231 181.772 288.741 177.787 288.741 177.787C288.741 177.787 285.415 188.124 286.348 192.195C297.944 196.311 307.558 197.521 315.211 196.615C315.604 201.168 316.759 205.391 319.163 209.06C322.383 213.976 332.524 211.18 341.328 208.752Z" fill="#9982C3"/>
</g>
<defs>
<filter id="filter0_d" x="142" y="98" width="226.245" height="171.113" filterUnits="userSpaceOnUse" color-interpolation-filters="sRGB">
<feFlood flood-opacity="0" result="BackgroundImageFix"/>
<feColorMatrix in="SourceAlpha" type="matrix" values="0 0 0 0 0 0 0 0 0 0 0 0 0 0 0 0 0 0 127 0"/>
<feOffset dy="20"/>
<feGaussianBlur stdDeviation="35"/>
<feColorMatrix type="matrix" values="0 0 0 0 0 0 0 0 0 0 0 0 0 0 0 0 0 0 0.08 0"/>
<feBlend mode="normal" in2="BackgroundImageFix" result="effect1_dropShadow"/>
<feBlend mode="normal" in="SourceGraphic" in2="effect1_dropShadow" result="shape"/>
</filter>
<linearGradient id="paint0_linear" x1="197.603" y1="190.287" x2="227.844" y2="400.671" gradientUnits="userSpaceOnUse">
<stop stop-color="#010101" stop-opacity="0"/>
<stop offset="0.95" stop-color="#010101"/>
</linearGradient>
<linearGradient id="paint1_linear" x1="209.669" y1="-61.488" x2="198.678" y2="261.98" gradientUnits="userSpaceOnUse">
<stop stop-color="white" stop-opacity="0"/>
<stop offset="0.95" stop-color="white"/>
</linearGradient>
<linearGradient id="paint2_linear" x1="15475.7" y1="21098.6" x2="26400.4" y2="23241.8" gradientUnits="userSpaceOnUse">
<stop stop-color="#010101" stop-opacity="0"/>
<stop offset="0.95" stop-color="#010101"/>
</linearGradient>
<linearGradient id="paint3_linear" x1="10799.4" y1="4889.24" x2="10738.3" y2="6681.03" gradientUnits="userSpaceOnUse">
<stop stop-color="white" stop-opacity="0"/>
<stop offset="0.95" stop-color="white"/>
</linearGradient>
<linearGradient id="paint4_linear" x1="285.026" y1="186.318" x2="293.12" y2="186.318" gradientUnits="userSpaceOnUse">
<stop stop-color="#E5C6D6"/>
<stop offset="0.42" stop-color="#EAD4D0"/>
<stop offset="1" stop-color="#F0E9CB"/>
</linearGradient>
<linearGradient id="paint5_linear" x1="26754.8" y1="1009.53" x2="26758.1" y2="2477.75" gradientUnits="userSpaceOnUse">
<stop stop-color="#010101" stop-opacity="0"/>
<stop offset="0.95" stop-color="#010101"/>
</linearGradient>
<linearGradient id="paint6_linear" x1="37181.8" y1="593.056" x2="37185.1" y2="2061.27" gradientUnits="userSpaceOnUse">
<stop stop-color="#010101" stop-opacity="0"/>
<stop offset="0.95" stop-color="#010101"/>
</linearGradient>
<clipPath id="clip0">
<rect width="405" height="317" fill="white"/>
</clipPath>
</defs>
</svg>
