<svg width="12" height="12" viewBox="0 0 12 12" fill="none" xmlns="http://www.w3.org/2000/svg">
<path d="M11.3327 7C10.6164 7 10.6661 7.54218 10.6661 7.79988V9.99954C10.6661 10.2572 10.2544 10.6661 9.99953 10.6661H2.00079C1.74592 10.6661 1.33423 10.2572 1.33423 9.99954V7.79988C1.33423 7.54218 1.33423 7 0.667662 7C0.00109863 7 0.00109863 7.54218 0.00109863 7.79988V10.5994C0.00109863 11.3725 0.620915 11.9992 1.3855 11.9992H10.6148C11.3794 11.9992 11.9992 11.3725 11.9992 10.5994V7.79988C11.9992 7.54218 12.049 7 11.3327 7Z" fill="#2C7D98"/>
<path d="M9.79567 5.01138C9.53687 4.77027 9.12659 4.77027 8.86782 5.01138L6.66735 7.13288V0.645243C6.66735 0.289418 6.36836 0.000976562 5.99952 0.000976562C5.63068 0.000976562 5.33169 0.289418 5.33169 0.645243V7.13292L3.13255 5.01138C2.86725 4.7642 2.44449 4.77129 2.18827 5.02719C1.9383 5.27687 1.9383 5.67267 2.18827 5.92234L5.52734 9.1436C5.78783 9.3955 6.21067 9.39603 6.47178 9.14477L6.47299 9.1436L9.81207 5.92234C10.0683 5.6664 10.061 5.25856 9.79567 5.01138Z" fill="#2C7D98"/>
</svg>
