<svg width="405" height="317" viewBox="0 0 405 317" fill="none" xmlns="http://www.w3.org/2000/svg">
<g clip-path="url(#clip0)">
<path opacity="0.44" d="M403.615 216.754C402.827 228.346 401.225 240.119 395.655 250.739C385.484 270.167 362.787 283.593 338.477 289.504C332.296 290.991 325.992 292.089 319.617 292.791C300.996 294.905 281.837 293.983 263.12 292.049C247.056 290.386 231.088 287.981 215.049 286.138C206.013 285.136 196.941 284.234 187.846 283.783C170.432 282.932 152.982 283.573 135.58 284.625C134.767 284.625 133.942 284.715 133.189 284.775C117.377 285.777 101.313 287.05 85.6682 285.447C82.0481 285.09 78.4563 284.555 74.9114 283.843C73.0868 283.483 71.282 283.062 69.4972 282.581C51.5094 277.802 35.7328 267.772 21.8565 257.422C7.57385 246.772 0.880725 230.26 0.235317 214.569C-0.529612 196.094 -3.51761 165.244 71.2541 114.646C86.9591 103.966 85.6324 83.035 93.1024 67.2645C103.859 44.6508 125.899 25.3635 153.591 18.0193C165.544 14.8331 178.248 13.8813 190.81 14.0115C206.78 14.1221 222.674 15.865 238.14 19.2016C267.351 25.4637 302.012 38.1783 324.039 57.706C327.848 61.0562 331.288 64.6879 334.318 68.557C353.082 92.6837 350.967 124.074 370.281 148.051C378.648 158.401 390.6 166.637 397.245 177.828C404.333 189.651 404.524 203.508 403.615 216.754Z" fill="#FFE7CA"/>
<path d="M148.51 284.15C147.83 284.15 147.14 284.24 146.51 284.3C133.28 285.3 119.84 286.57 106.75 284.97C103.721 284.614 100.716 284.08 97.7499 283.37C96.2233 283.01 94.7133 282.59 93.2199 282.11C91.8799 239.45 128.51 182.95 132.97 176.17L146.7 176.75L190.09 178.58C150.86 215.82 147.18 260.61 148.51 284.15Z" fill="#2C7D98"/>
<path d="M148.51 284.15C147.83 284.15 147.14 284.24 146.51 284.3C133.28 285.3 119.84 286.57 106.75 284.97C103.721 284.614 100.716 284.08 97.7499 283.37C96.2233 283.01 94.7133 282.59 93.2199 282.11C91.8799 239.45 128.51 182.95 132.97 176.17L146.7 176.75L190.09 178.58C150.86 215.82 147.18 260.61 148.51 284.15Z" fill="url(#paint0_linear)"/>
<path d="M147.97 175.51C147.53 175.92 147.1 176.33 146.68 176.75C106.44 215.95 104.8 263 106.7 284.95C103.671 284.594 100.666 284.06 97.7 283.35C96.1733 282.99 94.6633 282.57 93.17 282.09C91.88 239.45 128.51 182.95 132.97 176.17L133.42 175.51H147.97Z" fill="#2C7D98"/>
<path fill-rule="evenodd" clip-rule="evenodd" d="M277.857 129.056C267.198 133.111 257.244 134.207 253.012 132.269C242.4 127.409 248.672 86.6302 260.156 72.1732C271.64 57.7162 317.149 58.6928 313.682 90.8025C312.478 101.947 306.08 110.936 297.795 117.72L299.816 176.985L264.163 170.578L277.857 129.056Z" fill="#B28B67"/>
<path fill-rule="evenodd" clip-rule="evenodd" d="M277.371 57.2733C282.509 56.667 289.671 57.4353 292.585 58.3098C291.62 53.9616 291.758 49.3353 293.093 45.0466C294.392 40.8793 296.954 37.5928 299.403 34.1067C300.532 32.4999 301.768 30.9221 303.385 29.8283C305.032 28.7139 306.968 28.1309 308.905 28.0349C310.888 27.9366 312.872 28.3309 314.706 29.0731C315.518 29.4014 316.206 29.922 316.994 30.2844C317.802 30.6557 318.308 30.2008 319.018 29.7798C320.73 28.7657 323.015 28.5239 324.93 28.6345C327.079 28.7587 329.204 29.4672 331.086 30.5171C332.918 31.5391 334.597 32.9662 335.723 34.8078C336.225 35.6275 336.651 36.5346 336.862 37.4895C336.948 37.8813 336.935 38.1018 337.275 38.3009C337.59 38.4851 337.984 38.5596 338.311 38.7398C341.473 40.4817 343.885 43.5929 344.853 47.205C345.418 49.3124 345.237 52.8113 344.429 56.6244C343.622 60.4375 338.352 69.8189 334.45 72.8849C330.967 75.6215 326.32 77.0056 322.04 77.2079C324.21 80.809 325.328 85.0227 325.961 89.2176C326.648 93.7743 326.749 98.3987 326.266 103.005C325.806 107.382 325.015 111.955 323.24 116C321.58 119.783 318.966 122.661 315.205 124.109C313.482 124.773 311.684 125.18 309.887 125.526C308.116 125.866 306.343 126.187 304.543 126.233C301.137 126.32 297.374 125.524 295.313 122.462C294.57 121.358 293.78 119.997 293.321 118.729C293.156 118.274 293.06 117.978 293.423 117.626C293.858 117.205 294.488 116.936 295.003 116.638C297.941 114.941 300.036 112.346 301.049 108.997C302.076 105.599 301.946 100.951 298.835 98.8287C294.995 96.2086 290.011 97.5283 285.939 98.8618C285.36 93.0253 283.019 87.4434 278.399 83.9837C273.287 80.1562 266.9 78.668 261.561 75.2127C260.169 74.3124 258.765 73.3218 257.888 71.839C257.522 71.2193 257.104 70.4258 257.047 69.6829C256.971 68.7072 257.715 68.034 258.311 67.391C261.472 63.9816 272.233 57.8796 277.371 57.2733Z" fill="#191847"/>
<path d="M79.5901 73.39L84.6901 68.05L205.9 73.39L234.08 173.23L228.98 178.57H102.42L79.5901 73.39Z" fill="#2C7D98"/>
<path d="M79.5901 73.39L84.6901 68.05L205.9 73.39L234.08 173.23L228.98 178.57H102.42L79.5901 73.39Z" fill="#214753"/>
<path d="M84.6899 68.05H211L234.08 173.23H107.52L84.6899 68.05Z" fill="#2C7D98"/>
<path d="M89.79 71.6399H207.48L228.98 169.64H111.06L89.79 71.6399Z" fill="white"/>
<path d="M183.65 212.01C183.567 212.717 183.308 213.392 182.898 213.973C182.488 214.555 181.938 215.025 181.3 215.34C179.46 216.42 177.21 216.48 175.07 216.51C173.586 216.641 172.091 216.446 170.69 215.94C169.495 215.295 168.422 214.446 167.52 213.43C162.32 208.43 155.41 204.64 152.83 197.93C151.58 194.67 151.52 191.1 151.48 187.63C151.48 183.94 151.48 179.89 153.93 177.12C155.84 174.93 159 173.82 160.24 171.19C158.153 170.015 156.257 168.528 154.62 166.78C153.813 165.896 153.214 164.843 152.868 163.697C152.522 162.551 152.437 161.343 152.62 160.16C155.517 161.125 158.292 162.424 160.89 164.03C165.628 166.959 169.73 170.809 172.953 175.352C176.175 179.896 178.453 185.04 179.65 190.48C180.65 195.29 180.75 200.29 182.07 205.04C182.66 207.24 183.91 209.8 183.65 212.01Z" fill="#B28B67"/>
<path d="M183.65 212.01C183.174 212.222 182.748 212.532 182.4 212.92C181.05 214.92 177.72 214.41 176.02 212.66C174.32 210.91 173.66 208.44 172.5 206.29C169.6 200.84 163.32 196.74 163.34 190.57C163.34 185.8 167.34 181.57 166.98 176.88C166.78 174.4 165.43 172.38 163.98 170.5C162.633 168.512 161.598 166.331 160.91 164.03C165.648 166.959 169.75 170.809 172.973 175.352C176.195 179.896 178.473 185.04 179.67 190.48C180.67 195.29 180.77 200.29 182.09 205.04C182.66 207.24 183.91 209.8 183.65 212.01Z" fill="url(#paint1_linear)"/>
<path d="M309.18 274.79C307.95 280.94 306.11 287.3 302.49 292.3C301.97 292.37 301.49 292.44 300.93 292.49C297.81 292.87 294.677 293.14 291.53 293.3C279.399 293.77 267.25 293.188 255.22 291.56C241.78 289.9 228.42 287.5 215 285.66C215.628 284.951 216.347 284.328 217.14 283.81C221.152 280.827 224.459 276.998 226.826 272.595C229.194 268.192 230.564 263.322 230.84 258.33C230.044 257.799 229.116 257.501 228.16 257.47C225.62 257.23 222.35 257.78 220.48 257.55C204.94 255.6 165.83 217.47 165.83 217.47L185.26 207.75L214.17 217.47C214.17 217.47 245.26 168.65 257.89 154.64C270.52 140.63 293.3 140.34 293.3 140.34C296.03 140.238 298.758 140.576 301.38 141.34C316.86 145.87 324.84 164.64 325.88 180.53C327.97 211.79 315.22 244.64 309.18 274.79Z" fill="white"/>
<path d="M309.18 274.79C307.95 280.94 306.11 287.3 302.49 292.3C301.97 292.37 301.49 292.44 300.93 292.49C287 293.88 273.93 295.04 260.09 292.01C257.94 291.54 255.4 290.6 255.02 288.43C254.94 287.176 255.262 285.928 255.94 284.87C265.42 265.73 271.49 243.53 271.23 222.07C266.07 221.42 259.7 231.41 255.94 234.82L242.11 247.36C236.11 252.76 229.21 258.52 221.2 257.89C216.48 257.52 212.26 254.95 208.2 252.45L193.97 243.53C189.78 240.92 185.23 237.83 184.13 233.01C190.82 233.52 196.68 237.4 202.68 240.39C208.68 243.38 215.91 245.57 221.94 242.64C226.28 240.53 229.04 236.22 231.62 232.15C248.565 205.366 267.143 179.65 287.25 155.15C292.1 149.24 292.91 140.43 301.41 141.38C316.89 145.91 324.87 164.68 325.91 180.57C327.97 211.79 315.22 244.64 309.18 274.79Z" fill="url(#paint2_linear)"/>
<path opacity="0.18" d="M122.224 91.5056C123.276 90.153 124.597 89.0328 126.104 88.2156C127.825 87.187 129.719 86.4789 131.694 86.1256C134.24 85.7984 136.828 86.1128 139.223 87.0402C141.617 87.9675 143.742 89.4784 145.404 91.4356C148.698 95.4394 150.407 100.514 150.204 105.696C150.876 105.467 151.607 105.48 152.271 105.732C152.936 105.984 153.491 106.459 153.844 107.076C154.501 108.342 154.746 109.783 154.544 111.196C154.524 112.38 154.178 113.535 153.544 114.536C153.216 115.028 152.744 115.407 152.193 115.62C151.641 115.833 151.037 115.87 150.464 115.726C150.805 117.182 150.814 118.696 150.488 120.156C150.163 121.615 149.512 122.983 148.584 124.156C147.804 125.156 146.794 126.046 146.584 127.276C146.384 128.816 147.584 130.216 149.024 130.886C150.483 131.411 151.972 131.848 153.484 132.196C156.754 133.451 159.444 135.874 161.034 138.996C162.598 142.095 163.77 145.377 164.524 148.766C164.704 149.446 164.844 150.276 164.324 150.766C163.95 151.035 163.492 151.159 163.034 151.116L123.424 152.346C122.974 147.756 122.714 142.566 125.804 139.136C128.194 136.496 131.954 135.686 135.454 135.006C135.411 132.982 134.937 130.991 134.064 129.166C133.837 128.596 133.46 128.099 132.974 127.726C132.444 127.452 131.873 127.266 131.284 127.176C127.394 126.176 125.284 121.986 124.284 118.096C124.156 117.391 123.906 116.714 123.544 116.096C122.971 115.392 122.246 114.828 121.424 114.446C116.594 111.676 115.584 108.586 119.064 104.446C122.194 100.876 119.184 95.6956 122.224 91.5056Z" fill="#2C7D98"/>
<path opacity="0.32" d="M46.3999 36.45L63.0499 118.88H112.78L98.6899 36.45H46.3999Z" fill="#2C7D98"/>
<path opacity="0.32" d="M61.6299 148.74L78.2699 231.18H128L113.91 148.74H61.6299Z" fill="#2C7D98"/>
<path opacity="0.32" d="M163.07 36.45L179.71 118.88H229.44L215.35 36.45H163.07Z" fill="#2C7D98"/>
<path d="M168.34 27.99L184.98 110.42H234.71L220.62 27.99H168.34Z" fill="url(#paint3_linear)"/>
<g filter="url(#filter0_d)">
<path d="M53 30L68.5476 107H115L101.843 30H53Z" fill="url(#paint4_linear)"/>
</g>
<g filter="url(#filter1_d)">
<path d="M66.3501 143.12L82.9901 225.55H132.72L118.63 143.12H66.3501Z" fill="url(#paint5_linear)"/>
</g>
</g>
<defs>
<filter id="filter0_d" x="3" y="-16" width="162" height="177" filterUnits="userSpaceOnUse" color-interpolation-filters="sRGB">
<feFlood flood-opacity="0" result="BackgroundImageFix"/>
<feColorMatrix in="SourceAlpha" type="matrix" values="0 0 0 0 0 0 0 0 0 0 0 0 0 0 0 0 0 0 127 0"/>
<feOffset dy="4"/>
<feGaussianBlur stdDeviation="25"/>
<feColorMatrix type="matrix" values="0 0 0 0 0.12549 0 0 0 0 0.533333 0 0 0 0 0.627451 0 0 0 0.08 0"/>
<feBlend mode="normal" in2="BackgroundImageFix" result="effect1_dropShadow"/>
<feBlend mode="normal" in="SourceGraphic" in2="effect1_dropShadow" result="shape"/>
</filter>
<filter id="filter1_d" x="16.3501" y="97.1201" width="166.37" height="182.43" filterUnits="userSpaceOnUse" color-interpolation-filters="sRGB">
<feFlood flood-opacity="0" result="BackgroundImageFix"/>
<feColorMatrix in="SourceAlpha" type="matrix" values="0 0 0 0 0 0 0 0 0 0 0 0 0 0 0 0 0 0 127 0"/>
<feOffset dy="4"/>
<feGaussianBlur stdDeviation="25"/>
<feColorMatrix type="matrix" values="0 0 0 0 0.12549 0 0 0 0 0.533333 0 0 0 0 0.627451 0 0 0 0.08 0"/>
<feBlend mode="normal" in2="BackgroundImageFix" result="effect1_dropShadow"/>
<feBlend mode="normal" in="SourceGraphic" in2="effect1_dropShadow" result="shape"/>
</filter>
<linearGradient id="paint0_linear" x1="91.6299" y1="120.41" x2="216.25" y2="394.41" gradientUnits="userSpaceOnUse">
<stop offset="0.01"/>
<stop offset="0.13" stop-opacity="0.69"/>
<stop offset="0.25" stop-opacity="0.32"/>
<stop offset="1" stop-opacity="0"/>
</linearGradient>
<linearGradient id="paint1_linear" x1="4249.27" y1="8272.26" x2="2143.94" y2="8820.13" gradientUnits="userSpaceOnUse">
<stop offset="0.01"/>
<stop offset="0.13" stop-opacity="0.69"/>
<stop offset="0.25" stop-opacity="0.32"/>
<stop offset="1" stop-opacity="0"/>
</linearGradient>
<linearGradient id="paint2_linear" x1="82335.6" y1="27033.9" x2="-18707.3" y2="37348.9" gradientUnits="userSpaceOnUse">
<stop offset="0.01"/>
<stop offset="0.13" stop-opacity="0.69"/>
<stop offset="0.25" stop-opacity="0.32"/>
<stop offset="1" stop-opacity="0"/>
</linearGradient>
<linearGradient id="paint3_linear" x1="156.29" y1="34.93" x2="617.82" y2="375.01" gradientUnits="userSpaceOnUse">
<stop offset="0.01" stop-color="white"/>
<stop offset="0.13" stop-color="white" stop-opacity="0.69"/>
<stop offset="0.15" stop-color="white" stop-opacity="0.61"/>
<stop offset="0.2" stop-color="white" stop-opacity="0.47"/>
<stop offset="0.25" stop-color="white" stop-opacity="0.34"/>
<stop offset="0.3" stop-color="white" stop-opacity="0.23"/>
<stop offset="0.36" stop-color="white" stop-opacity="0.15"/>
<stop offset="0.44" stop-color="white" stop-opacity="0.08"/>
<stop offset="0.52" stop-color="white" stop-opacity="0.03"/>
<stop offset="0.65" stop-color="white" stop-opacity="0.01"/>
<stop offset="1" stop-color="white" stop-opacity="0"/>
</linearGradient>
<linearGradient id="paint4_linear" x1="656.26" y1="2403.91" x2="29502.7" y2="19519" gradientUnits="userSpaceOnUse">
<stop offset="0.01" stop-color="white"/>
<stop offset="0.13" stop-color="white" stop-opacity="0.69"/>
<stop offset="0.15" stop-color="white" stop-opacity="0.61"/>
<stop offset="0.2" stop-color="white" stop-opacity="0.47"/>
<stop offset="0.25" stop-color="white" stop-opacity="0.34"/>
<stop offset="0.3" stop-color="white" stop-opacity="0.23"/>
<stop offset="0.36" stop-color="white" stop-opacity="0.15"/>
<stop offset="0.44" stop-color="white" stop-opacity="0.08"/>
<stop offset="0.52" stop-color="white" stop-opacity="0.03"/>
<stop offset="0.65" stop-color="white" stop-opacity="0.01"/>
<stop offset="1" stop-color="white" stop-opacity="0"/>
</linearGradient>
<linearGradient id="paint5_linear" x1="1280.92" y1="11523.4" x2="36239.2" y2="32263.8" gradientUnits="userSpaceOnUse">
<stop offset="0.01" stop-color="white"/>
<stop offset="0.13" stop-color="white" stop-opacity="0.69"/>
<stop offset="0.15" stop-color="white" stop-opacity="0.61"/>
<stop offset="0.2" stop-color="white" stop-opacity="0.47"/>
<stop offset="0.25" stop-color="white" stop-opacity="0.34"/>
<stop offset="0.3" stop-color="white" stop-opacity="0.23"/>
<stop offset="0.36" stop-color="white" stop-opacity="0.15"/>
<stop offset="0.44" stop-color="white" stop-opacity="0.08"/>
<stop offset="0.52" stop-color="white" stop-opacity="0.03"/>
<stop offset="0.65" stop-color="white" stop-opacity="0.01"/>
<stop offset="1" stop-color="white" stop-opacity="0"/>
</linearGradient>
<clipPath id="clip0">
<rect width="405" height="317" fill="white"/>
</clipPath>
</defs>
</svg>
