<svg width="60" height="60" viewBox="0 0 60 60" fill="none" xmlns="http://www.w3.org/2000/svg">
<path d="M33.2 9.3H36.8V16.5C36.8 17.9912 38.0089 19.2 39.5 19.2H46.7V48.9C46.7 49.3971 46.2971 49.8 45.8 49.8H16.1C15.603 49.8 15.2 49.3971 15.2 48.9V29.1C15.2 28.6029 14.7971 28.2 14.3 28.2C13.803 28.2 13.4 28.6029 13.4 29.1V48.9C13.4 50.3912 14.6089 51.6 16.1 51.6H17.9V54.3C17.9 55.0161 18.1845 55.7028 18.6908 56.2092C19.1972 56.7155 19.8839 57 20.6 57H50.3C51.7912 57 53 55.7912 53 54.3V15.6C53 14.1088 51.7912 12.9 50.3 12.9H43.4726L38.3363 7.7637C38.1676 7.59491 37.9387 7.50005 37.7 7.5H33.2C32.703 7.5 32.3 7.90294 32.3 8.4C32.3 8.89706 32.703 9.3 33.2 9.3ZM38.6 16.5V10.5726L45.4274 17.4H39.5C39.003 17.4 38.6 16.9971 38.6 16.5ZM50.3 14.7C50.7971 14.7 51.2 15.1029 51.2 15.6V54.3C51.2 54.7971 50.7971 55.2 50.3 55.2H20.6C20.103 55.2 19.7 54.7971 19.7 54.3V51.6H45.8C47.2912 51.6 48.5 50.3912 48.5 48.9V18.3C48.5 18.0613 48.4051 17.8324 48.2363 17.6637L45.2726 14.7H50.3Z" fill="#2C7D98"/>
<path d="M18.8 39H33.2C33.6971 39 34.1 38.5971 34.1 38.1C34.1 37.603 33.6971 37.2 33.2 37.2H18.8C18.303 37.2 17.9 37.603 17.9 38.1C17.9 38.5971 18.303 39 18.8 39Z" fill="#2C7D98"/>
<path d="M18.8 46.2H26.9C27.3971 46.2 27.8 45.7971 27.8 45.3C27.8 44.803 27.3971 44.4 26.9 44.4H18.8C18.303 44.4 17.9 44.803 17.9 45.3C17.9 45.7971 18.303 46.2 18.8 46.2Z" fill="#2C7D98"/>
<path d="M39.0005 32.5488C39.3575 32.7869 39.833 32.7398 40.1363 32.4363L44.6363 27.9363C44.9774 27.5832 44.9725 27.0218 44.6254 26.6747C44.2782 26.3275 43.7169 26.3226 43.3637 26.6637L39.3857 30.6417L37.2995 29.2512C37.032 29.0728 36.6896 29.0506 36.4013 29.193C36.113 29.3355 35.9226 29.6209 35.9018 29.9418C35.881 30.2627 36.033 30.5704 36.3005 30.7488L39.0005 32.5488Z" fill="#2C7D98"/>
<path d="M36.3005 37.9488L39.0005 39.7488C39.3575 39.9868 39.8329 39.9397 40.1363 39.6363L44.6363 35.1363C44.9774 34.7832 44.9725 34.2218 44.6253 33.8747C44.2782 33.5275 43.7168 33.5226 43.3637 33.8637L39.3857 37.8417L37.2995 36.4512C36.8859 36.1753 36.3271 36.2869 36.0512 36.7005C35.7753 37.114 35.8869 37.6729 36.3005 37.9488Z" fill="#2C7D98"/>
<path d="M36.3005 45.1488L39.0005 46.9488C39.3575 47.1869 39.8329 47.1398 40.1363 46.8363L44.6363 42.3363C44.9774 41.9832 44.9725 41.4218 44.6253 41.0747C44.2782 40.7275 43.7168 40.7226 43.3637 41.0637L39.3857 45.0417L37.2995 43.6512C36.8859 43.3753 36.3271 43.487 36.0512 43.9005C35.7753 44.3141 35.8869 44.8729 36.3005 45.1488Z" fill="#2C7D98"/>
<path d="M13.3459 19.5078L14.767 15.6H19.2328L20.6539 19.5078C20.8239 19.975 21.3404 20.216 21.8077 20.046C22.2749 19.876 22.5159 19.3594 22.3459 18.8922L19.0537 9.84C18.7398 8.97619 17.9189 8.40112 16.9999 8.40112C16.0808 8.40112 15.26 8.97619 14.9461 9.84L11.6539 18.8922C11.4839 19.3594 11.7248 19.876 12.1921 20.046C12.6593 20.216 13.1759 19.975 13.3459 19.5078ZM16.6399 10.4529C16.7075 10.3158 16.847 10.229 16.9999 10.229C17.1527 10.229 17.2923 10.3158 17.3599 10.4529L18.5785 13.8H15.4213L16.6399 10.4529Z" fill="#2C7D98"/>
<path d="M20.15 27.3C26.8602 27.3 32.3 21.8603 32.3 15.15C32.3 8.43974 26.8602 3 20.15 3C13.4397 3 8 8.43974 8 15.15C8.00744 21.8572 13.4428 27.2926 20.15 27.3ZM20.15 4.8C25.8661 4.8 30.5 9.43385 30.5 15.15C30.5 20.8661 25.8661 25.5 20.15 25.5C14.4338 25.5 9.8 20.8661 9.8 15.15C9.80645 9.43653 14.4365 4.80645 20.15 4.8Z" fill="#2C7D98"/>
<path d="M23.2999 14.7H25.0999V16.5C25.0999 16.9971 25.5028 17.4 25.9999 17.4C26.497 17.4 26.8999 16.9971 26.8999 16.5V14.7H28.6999C29.197 14.7 29.5999 14.2971 29.5999 13.8C29.5999 13.303 29.197 12.9 28.6999 12.9H26.8999V11.1C26.8999 10.603 26.497 10.2 25.9999 10.2C25.5028 10.2 25.0999 10.603 25.0999 11.1V12.9H23.2999C22.8028 12.9 22.3999 13.303 22.3999 13.8C22.3999 14.2971 22.8028 14.7 23.2999 14.7Z" fill="#2C7D98"/>
<path d="M33.2 44.4H30.5C30.0029 44.4 29.6 44.803 29.6 45.3C29.6 45.7971 30.0029 46.2 30.5 46.2H33.2C33.697 46.2 34.1 45.7971 34.1 45.3C34.1 44.803 33.697 44.4 33.2 44.4Z" fill="#2C7D98"/>
<path d="M33.1999 31.8C33.697 31.8 34.0999 31.397 34.0999 30.9C34.0999 30.4029 33.697 30 33.1999 30H25.1C24.6029 30 24.2 30.4029 24.2 30.9C24.2 31.397 24.6029 31.8 25.1 31.8H33.1999Z" fill="#2C7D98"/>
<path d="M18.8 31.8H21.5C21.9971 31.8 22.4 31.397 22.4 30.9C22.4 30.4029 21.9971 30 21.5 30H18.8C18.303 30 17.9 30.4029 17.9 30.9C17.9 31.397 18.303 31.8 18.8 31.8Z" fill="#2C7D98"/>
</svg>
