<svg width="60" height="60" viewBox="0 0 60 60" fill="none" xmlns="http://www.w3.org/2000/svg">
<path d="M52.9532 31.3298C52.7882 30.4681 52.0365 29.8449 51.1612 29.8444H49.3984L49.2687 29.0655C49.1394 28.2832 48.5246 27.672 47.7433 27.5489C47.5698 27.5215 47.3946 27.5032 47.222 27.4794C47.521 26.0801 47.2726 24.6192 46.5282 23.3982C46.9215 22.3754 46.8481 21.2312 46.3273 20.2673C45.8066 19.3034 44.8908 18.6167 43.8214 18.3881C43.1378 14.7198 39.9547 12.0533 36.2325 12.0308C36.1412 12.0308 36.0599 12.0427 35.9732 12.0454C35.3785 11.109 34.3979 10.4875 33.299 10.3505C32.2002 10.2134 31.0977 10.5752 30.2922 11.337C29.2776 10.6758 28.0936 10.3232 26.8834 10.322C24.9335 10.33 23.0958 11.2374 21.9008 12.7822C20.5739 12.3943 19.1431 12.6325 18.0125 13.4295C16.8818 14.2265 16.1741 15.4958 16.0893 16.8789C14.6956 17.4662 13.7887 18.8338 13.7878 20.3495C13.7907 20.6123 13.8213 20.874 13.8791 21.1302C12.6466 22.9931 12.3245 25.3163 13.0037 27.4455C12.759 27.4794 12.5089 27.5096 12.2733 27.5444C11.4879 27.6632 10.8677 28.2747 10.736 29.06L10.6064 29.8416H8.83899C7.9652 29.8422 7.21433 30.4634 7.04787 31.3234L3.05027 51.9002C2.89415 52.706 3.10585 53.5397 3.62736 54.1725C4.14886 54.8054 4.92544 55.1711 5.74424 55.1695H24.7819C25.5378 56.4197 27.8347 57 30.0001 57C32.1427 57 34.4176 56.4335 35.1954 55.1695H54.2559C55.0745 55.1711 55.8509 54.8055 56.3724 54.1728C56.8939 53.5402 57.1057 52.7068 56.9499 51.9011L52.9532 31.3298ZM16.5485 22.0061C15.8072 21.5593 15.4535 20.6723 15.6831 19.8363C15.9127 19.0003 16.6695 18.4199 17.5344 18.4165C18.1397 18.4147 18.7094 18.7032 19.0672 19.1927C19.2615 19.4552 19.5809 19.5939 19.9049 19.5564C20.2289 19.5189 20.5083 19.311 20.6379 19.0109C20.7676 18.7108 20.7277 18.3642 20.5333 18.1017C19.9134 17.271 18.974 16.7397 17.9443 16.6373C18.2165 15.3555 19.3439 14.4378 20.651 14.4342C20.7624 14.4399 20.8734 14.4521 20.9833 14.4709C20.9099 14.6585 20.8459 14.8497 20.7916 15.0438C20.678 15.5283 20.9714 16.015 21.452 16.1395C21.9327 16.2639 22.4244 15.9805 22.559 15.5014C22.6628 15.0992 22.8223 14.7135 23.0328 14.3555C23.8426 12.9954 25.3035 12.1596 26.8834 12.1525C27.7433 12.1563 28.5835 12.4107 29.3017 12.8847C29.1649 13.2701 29.0924 13.6755 29.0872 14.0846C29.0872 14.5901 29.4959 14.9999 30.0001 14.9999C30.5043 14.9999 30.913 14.5901 30.913 14.0846C30.913 13.0213 31.7727 12.1594 32.8333 12.1594C33.8938 12.1594 34.7536 13.0213 34.7536 14.0846C34.7536 14.5901 35.1623 14.9999 35.6665 14.9999C36.1707 14.9999 36.5794 14.5901 36.5794 14.0846C36.5794 14.0141 36.562 13.9473 36.5584 13.8769C39.1723 14.0385 41.3704 15.9014 41.9646 18.4586C41.5388 18.5829 41.1386 18.7829 40.7833 19.049C40.5224 19.2451 40.3857 19.566 40.4247 19.8906C40.4637 20.2153 40.6725 20.4944 40.9724 20.6228C41.2724 20.7513 41.6179 20.7096 41.8788 20.5134C42.6083 19.9719 43.616 20.015 44.2968 20.617C44.9775 21.2189 45.1462 22.2159 44.7015 23.0093C44.5028 23.3596 44.2008 23.6396 43.837 23.811C43.4554 23.9962 43.2513 24.4204 43.344 24.835C43.4367 25.2497 43.802 25.5459 44.2259 25.55C44.3597 25.5502 44.492 25.5205 44.6129 25.4631C44.8549 25.3455 45.0835 25.2022 45.2949 25.0356C45.7668 26.3807 45.4708 27.8766 44.5226 28.9392L44.5006 28.9621C43.3113 30.2538 41.4141 30.6028 39.8448 29.8188C39.6911 29.7374 39.5435 29.645 39.403 29.5424C40.0754 28.5972 40.1683 27.3558 39.644 26.3207C39.4972 26.0285 39.2061 25.837 38.8804 25.8184C38.5546 25.7997 38.2437 25.9567 38.0647 26.2302C37.8857 26.5037 37.8659 26.8522 38.0126 27.1444C38.3128 27.7493 38.1256 28.4834 37.5726 28.8696C37.2479 29.0864 36.8467 29.1549 36.4687 29.0583C36.0907 28.9616 35.7713 28.7088 35.5898 28.3626C35.4438 28.0701 35.1533 27.8779 34.8277 27.8584C34.5021 27.8388 34.1908 27.995 34.0111 28.2679C33.8314 28.5409 33.8107 28.8893 33.9566 29.1817C34.492 30.2653 35.5951 30.9496 36.8012 30.9464C37.1939 30.9437 37.5825 30.867 37.9469 30.7203C38.273 31.0065 38.6322 31.2523 39.0168 31.4525C40.3179 32.1286 41.8309 32.2689 43.2335 31.8433C42.3314 33.0783 40.9812 33.9083 39.4742 34.1543C39.0054 34.2308 38.6734 34.655 38.7108 35.1298C38.7482 35.6045 39.1425 35.9712 39.6175 35.9729C39.6661 35.9729 39.7146 35.9692 39.7627 35.962C40.3186 35.8655 40.8618 35.7064 41.3822 35.4878C41.6634 35.9863 41.8917 36.5131 42.0632 37.0593C42.0946 37.1547 42.1106 37.2545 42.1107 37.355C42.1104 37.7505 41.8748 38.1078 41.5118 38.2629C41.0919 38.4257 40.6151 38.2973 40.3332 37.9453C39.6262 37.1129 38.7005 36.4962 37.6612 36.1651C35.6884 35.5025 34.927 34.9103 34.6039 34.266C35.0775 34.2067 35.5456 34.1088 36.0033 33.9731C36.3151 33.877 36.5521 33.6214 36.625 33.3026C36.6978 32.9838 36.5955 32.6502 36.3566 32.4276C36.1176 32.2049 35.7784 32.127 35.4666 32.2231C34.9543 32.3807 34.4255 32.4781 33.8909 32.5133C32.8608 32.594 31.826 32.4375 30.8655 32.0556C30.5049 31.9146 30.0948 32.017 29.8422 32.311C28.513 33.8417 26.2381 34.1019 24.5993 32.9106C22.9604 31.7193 22.4998 29.4708 23.5376 27.7283C23.7058 27.4469 23.7114 27.097 23.5524 26.8104C23.3934 26.5237 23.094 26.3438 22.7669 26.3385C22.4398 26.3332 22.1347 26.5033 21.9665 26.7847C21.7487 27.1563 21.5736 27.5515 21.4444 27.9626C20.7255 27.9247 20.1586 27.3352 20.1471 26.6135V26.5907C20.1467 26.3491 20.0499 26.1178 19.8785 25.9482C19.707 25.7785 19.4751 25.6846 19.2342 25.6873C18.7279 25.6923 18.3203 26.1058 18.3213 26.6135C18.3254 28.2367 19.5463 29.5972 21.1559 29.7721C21.1592 30.0789 21.1869 30.385 21.239 30.6873C19.2006 31.1295 17.0865 30.395 15.7582 28.783C14.43 27.1711 14.1094 24.951 14.9271 23.0276C15.1314 23.2347 15.3594 23.4169 15.6063 23.5703C16.0376 23.8236 16.5918 23.6821 16.8497 23.2529C17.1076 22.8237 16.9734 22.2663 16.5485 22.0025V22.0061ZM12.5317 29.3584C12.9525 29.2961 13.3871 29.2412 13.8189 29.1845C15.5068 31.8887 18.735 33.2018 21.825 32.441C22.6553 34.0208 24.1725 35.1226 25.9286 35.421C27.6847 35.7194 29.4793 35.1804 30.7824 33.963C31.4028 34.1486 32.0418 34.2646 32.6877 34.309C33.1286 35.9857 34.403 37.0017 37.0806 37.9014C37.8024 38.1282 38.4463 38.5535 38.9392 39.1287C39.4873 39.7821 40.2934 40.1617 41.1448 40.1675C41.5172 40.1674 41.8857 40.0921 42.2284 39.9461C43.2632 39.5027 43.9345 38.4832 43.9346 37.355C43.9355 37.0607 43.8886 36.7683 43.7959 36.4891C43.5906 35.8425 43.3202 35.2184 42.9889 34.6266C44.5412 33.5078 45.6226 31.8497 46.0225 29.9753C46.2169 29.7437 46.3927 29.497 46.5483 29.2376C46.8541 29.2769 47.1599 29.3117 47.4676 29.363L50.7632 49.2368C44.3213 47.0802 37.3549 47.0802 30.913 49.2368V37.7796C30.913 37.2742 30.5043 36.8644 30.0001 36.8644C29.4959 36.8644 29.0872 37.2742 29.0872 37.7796V49.2405C22.646 47.0819 15.6798 47.0793 9.23701 49.2331L12.5317 29.3584ZM5.03309 53.0022C4.86059 52.7933 4.79028 52.518 4.84138 52.2517L8.83899 31.6749H10.2996L7.43494 48.9357C7.33418 49.5639 7.56492 50.1997 8.04482 50.6162C8.52472 51.0326 9.18542 51.1704 9.79115 50.9804C14.6578 49.3996 19.8426 49.0698 24.8696 50.0212L24.5975 53.339H5.74424C5.46884 53.3392 5.20785 53.2156 5.03309 53.0022ZM30.0001 55.1695C27.8009 55.1695 26.5393 54.5178 26.354 54.2277L26.668 50.4294C27.6718 50.68 28.6541 51.0102 29.6057 51.4169C29.7288 51.4764 29.8635 51.5077 30.0001 51.5085C30.1371 51.5083 30.2722 51.477 30.3954 51.4169C31.3464 51.0078 32.3284 50.6754 33.3322 50.423L33.6462 54.2268C33.4609 54.5178 32.1993 55.1695 30.0001 55.1695ZM54.9671 53.0022C54.7923 53.2156 54.5313 53.3392 54.2559 53.339H35.4054L35.1315 50.0148C40.1612 49.0653 45.3483 49.398 50.2163 50.9822C50.8219 51.1698 51.4812 51.03 51.9592 50.6128C52.4373 50.1955 52.6662 49.5601 52.5643 48.9329L49.7024 31.6758H51.163L55.1615 52.2507C55.2122 52.5178 55.1408 52.7935 54.9671 53.0022Z" fill="#2C7D98"/>
<path d="M26.9747 23.7626C26.601 24.1015 26.572 24.68 26.9099 25.0549C27.6843 25.9121 28.7078 26.5038 29.8358 26.7463C29.3249 27.468 28.4965 27.8963 27.6138 27.8949C27.1096 27.8949 26.7009 28.3047 26.7009 28.8102C26.7009 29.3157 27.1096 29.7254 27.6138 29.7254C29.5036 29.733 31.1993 28.5628 31.867 26.7902C34.137 26.4131 35.9341 24.6613 36.374 22.397C36.442 22.0731 36.3302 21.7377 36.0818 21.5197C35.8334 21.3018 35.4869 21.2353 35.1758 21.3458C34.8646 21.4564 34.6372 21.7267 34.5811 22.0529C34.402 22.9968 33.8588 23.8319 33.0693 24.3767C31.5504 25.4023 29.5134 25.1695 28.2638 23.8275C27.9256 23.4529 27.3486 23.4238 26.9747 23.7626Z" fill="#2C7D98"/>
<path d="M23.7923 22.7695C24.2965 22.7695 24.7052 22.3598 24.7052 21.8543C24.7052 21.2232 24.9553 20.6179 25.4004 20.1716C25.8455 19.7253 26.4492 19.4746 27.0787 19.4746C27.5829 19.4746 27.9917 19.0648 27.9917 18.5594C27.9917 18.0539 27.5829 17.6441 27.0787 17.6441C24.7606 17.6466 22.8819 19.5301 22.8794 21.8543C22.8794 22.097 22.9756 22.3298 23.1468 22.5015C23.318 22.6731 23.5502 22.7695 23.7923 22.7695Z" fill="#2C7D98"/>
<path d="M30.913 4.83051V3.91526C30.913 3.40977 30.5042 3 30.0001 3C29.4959 3 29.0872 3.40977 29.0872 3.91526V4.83051C29.0872 5.33599 29.4959 5.74576 30.0001 5.74576C30.5042 5.74576 30.913 5.33599 30.913 4.83051Z" fill="#2C7D98"/>
<path d="M44.9808 9.56789L44.0679 10.4831C43.8306 10.7129 43.7354 11.0532 43.819 11.3732C43.9025 11.6932 44.1518 11.9431 44.4709 12.0269C44.7901 12.1107 45.1296 12.0152 45.3588 11.7773L46.2717 10.8621C46.509 10.6323 46.6042 10.292 46.5206 9.97197C46.4371 9.65197 46.1878 9.40206 45.8686 9.3183C45.5494 9.23454 45.21 9.32997 44.9808 9.56789Z" fill="#2C7D98"/>
<path d="M15.2868 12.0455C15.6559 12.0454 15.9887 11.8224 16.13 11.4805C16.2712 11.1385 16.1932 10.7449 15.9322 10.4831L15.0193 9.56789C14.7901 9.32997 14.4506 9.23454 14.1315 9.3183C13.8123 9.40206 13.563 9.65197 13.4795 9.97197C13.3959 10.292 13.4911 10.6323 13.7284 10.8621L14.6413 11.7773C14.8125 11.949 15.0447 12.0454 15.2868 12.0455Z" fill="#2C7D98"/>
<path d="M22.3143 8.19407C22.4343 8.19381 22.553 8.17019 22.664 8.12451C22.8877 8.03159 23.0655 7.85333 23.1581 7.62898C23.2507 7.40462 23.2506 7.15256 23.1579 6.92827L22.1089 4.39119C21.9888 4.08218 21.7113 3.86251 21.3836 3.81702C21.0559 3.77152 20.7293 3.90732 20.5299 4.17197C20.3305 4.43662 20.2895 4.7887 20.4228 5.09227L21.4708 7.62936C21.6122 7.97129 21.9451 8.19416 22.3143 8.19407Z" fill="#2C7D98"/>
<path d="M39.0834 3.89608C38.6178 3.70296 38.0841 3.92458 37.8911 4.39123L36.8422 6.92832C36.7491 7.15271 36.7489 7.405 36.8415 7.62957C36.9342 7.85414 37.1121 8.03255 37.3361 8.12547C37.447 8.17115 37.5658 8.19477 37.6857 8.19503C38.0549 8.19512 38.3878 7.97225 38.5292 7.63032L39.5773 5.09323C39.6703 4.86884 39.6706 4.61655 39.5779 4.39198C39.4853 4.1674 39.3074 3.98899 39.0834 3.89608Z" fill="#2C7D98"/>
<path d="M48.5548 19.092C48.6748 19.0918 48.7937 19.0679 48.9045 19.0215L51.4341 17.9708C51.7355 17.8458 51.9474 17.569 51.99 17.2448C52.0327 16.9206 51.8996 16.5982 51.6408 16.3991C51.3821 16.2 51.0371 16.1544 50.7357 16.2794L48.2052 17.3302C47.8014 17.4965 47.5715 17.9261 47.6567 18.3554C47.7419 18.7846 48.1183 19.0934 48.5548 19.092Z" fill="#2C7D98"/>
<path d="M11.0956 19.0216C11.5615 19.2152 12.0957 18.9935 12.2888 18.5264C12.4819 18.0593 12.2608 17.5238 11.7949 17.3302L9.26432 16.2795C8.79845 16.0861 8.26446 16.308 8.07161 16.7751C7.87876 17.2421 8.10008 17.7775 8.56595 17.9709L11.0956 19.0216Z" fill="#2C7D98"/>
</svg>
