<svg width="530" height="492" viewBox="0 0 530 492" fill="none" xmlns="http://www.w3.org/2000/svg">
<g opacity="0.504511">
<path fill-rule="evenodd" clip-rule="evenodd" d="M497.791 97.0274C527.548 136.725 385.068 249.775 238.79 303.164C92.5118 356.554 -11.078 313.278 31.6439 237.503C74.3658 161.727 468.034 57.3295 497.791 97.0274Z" fill="#F2F2F2"/>
<path fill-rule="evenodd" clip-rule="evenodd" d="M528.725 374.279C536.363 438.765 351.124 480.827 191.684 451.473C32.2441 422.119 -40.8992 307.487 35.1827 246.407C111.265 185.327 521.086 309.792 528.725 374.279Z" fill="#F2F2F2"/>
</g>
<path fill-rule="evenodd" clip-rule="evenodd" d="M489.973 172.715C491.792 175.208 490.933 179.271 490.078 181.923C489.749 182.945 488.66 185.569 487.382 187.541C488.325 187.239 489.276 186.964 490.238 186.717C494.19 185.702 498.232 184.932 502.265 184.451C503.317 184.326 504.501 184.353 505.701 184.381L505.701 184.381L505.702 184.381C506.108 184.391 506.516 184.4 506.921 184.404C507.011 184.295 507.139 184.218 507.316 184.179C507.242 184.172 507.182 184.169 507.136 184.166C507.063 184.163 507.026 184.161 507.022 184.147C507.017 184.134 507.047 184.108 507.108 184.056C507.131 184.036 507.159 184.013 507.191 183.984C509.539 181.933 512.213 180.173 515.235 179.79C517.799 179.466 522.8 181.687 519.616 185.381C518.194 187.034 507.601 187.187 506.827 184.86C503.358 185.677 499.903 186.656 496.503 187.833C496.533 187.981 496.543 188.133 496.533 188.284C497.391 188.224 498.328 188.173 498.652 188.197C501.446 188.403 507.223 190.822 506.359 195.207C505.696 198.577 502.127 196.723 500.553 195.672C498.018 193.98 496.853 191.976 495.446 189.433C494.919 189.409 494.594 189.029 494.47 188.566C488.986 190.61 483.67 193.195 478.693 196.472L479.023 196.535L479.024 196.535C480.603 196.833 482.445 197.181 482.841 197.443C484.918 198.809 487.532 201.939 486.509 205.008C484.358 211.453 476.847 204.98 475.784 199.647C475.508 199.438 475.284 199.212 475.149 198.967C473.654 200.094 472.195 201.291 470.779 202.564C468.649 204.473 466.534 206.516 464.436 208.651C466.164 208.622 470.051 209.216 470.476 209.42C473.057 210.665 475.849 214.5 474.239 217.818C472.422 221.549 468.451 218.464 466.623 216.488C465.874 215.678 463.07 211.624 462.98 210.147C458.039 215.299 453.215 220.952 448.58 226.685C450.761 226.114 456.802 225.2 457.48 225.23C460.977 225.385 466.683 227.77 465.608 233.123C464.567 238.317 458.666 236.358 455.818 234.75C454.093 233.776 452.321 232.397 451.064 230.688C450.837 230.379 450.644 229.972 450.451 229.564C450.218 229.073 449.986 228.583 449.697 228.27C449.439 227.991 449.155 227.917 448.875 227.842C448.578 227.764 448.284 227.687 448.025 227.37C445.532 230.468 443.095 233.583 440.728 236.652C439.611 238.1 438.518 239.572 437.44 241.057C437.757 241.822 437.454 242.952 436.51 242.944C436.373 242.943 436.253 242.912 436.142 242.868C435.343 243.992 434.551 245.124 433.768 246.263C434.012 246.225 434.358 246.214 434.838 246.238C433.84 245.501 435.234 245.46 436.297 245.429L436.297 245.429C436.672 245.418 437.006 245.408 437.179 245.369C437.855 245.217 438.522 245.031 439.189 244.846C440.613 244.45 442.032 244.055 443.519 243.992C446.677 243.859 452.092 245.921 450.475 250.952C448.991 255.578 444.226 254.177 441.202 252.622C439.289 251.638 437.554 250.244 435.885 248.78C435.587 248.519 435.188 248.233 434.792 247.949C434.204 247.529 433.626 247.115 433.401 246.797C430.406 251.178 427.511 255.653 424.616 260.128L424.616 260.129C423.319 262.133 422.022 264.138 420.715 266.135C421.029 266.202 421.339 266.255 421.629 266.299C421.507 266.185 421.444 266.024 421.443 265.814C421.677 265.745 421.988 265.648 422.361 265.531C426.913 264.099 440.779 259.737 438.575 269.668C436.954 276.945 424.444 272.534 419.878 267.414C417.659 270.787 415.409 274.13 413.082 277.402C411.399 279.769 409.65 282.073 407.834 284.296C410.273 283.066 413.45 281.86 416.058 282.402C419.855 283.191 423.635 287.633 421.745 292.266C419.378 298.042 415.505 293.901 411.873 290.017L411.873 290.017C410.019 288.034 408.227 286.119 406.731 285.625C400.764 292.702 394.043 298.83 386.242 303.101C377.759 307.746 366.269 312.25 356.416 310.621C360.719 310.79 366.006 308.808 369.719 307.417C370.224 307.227 370.701 307.049 371.142 306.888C376.903 304.788 382.467 301.943 387.622 298.31C395.88 292.491 402.755 285.018 408.904 276.486C408.251 274.652 407.117 272.683 406.179 271.052L406.179 271.052C405.603 270.052 405.101 269.179 404.827 268.543C403.508 265.473 401.537 259.55 405.061 257.363C408.527 255.212 410.789 260.111 411.754 263.171C412.685 266.128 412.736 268.835 412.252 271.666C415.298 267.161 418.235 262.556 421.171 257.951L421.171 257.951C421.711 257.104 422.251 256.257 422.792 255.411C421.943 254.325 420.737 253.141 419.456 251.883C415.39 247.89 410.573 243.161 414.056 238.523C419.314 231.523 425.7 244.036 425.545 249.52C425.526 250.193 425.44 250.848 425.31 251.489C429.047 245.706 432.872 240.006 437.003 234.587C436.809 233.664 435.562 232.245 434.064 230.54C430.697 226.709 426.062 221.435 429.261 217.107C431.57 213.982 435.468 214.803 437.82 217.58C440.181 220.367 440.401 224.578 439.848 228.197C439.611 229.761 439.076 231.221 438.403 232.592L438.404 232.675L438.404 232.757C442.515 227.423 446.722 222.052 451.092 216.862C451.063 216.777 451.034 216.689 451.005 216.602C450.677 216.32 450.536 215.825 450.58 215.363C450.493 215.115 450.403 214.86 450.312 214.601C448.95 210.747 447.2 205.792 447.632 201.855C447.95 198.958 449.804 196.245 452.387 198.547C454.488 200.417 454.486 205.796 454.152 208.437C453.989 209.725 453.394 211.15 452.797 212.58C452.546 213.181 452.295 213.783 452.075 214.375C452.342 214.512 452.522 214.766 452.618 215.06C457.014 209.931 461.583 205.017 466.384 200.525C466.147 199.255 465.592 197.862 465.02 196.425C463.643 192.969 462.166 189.259 464.772 186.401C468.62 182.182 471.39 189.584 471.195 193.183C471.129 194.399 470.9 195.606 470.575 196.776C474.549 193.482 478.847 190.899 483.405 189.003C483.385 188.962 483.364 188.931 483.344 188.885C483.357 188.909 483.37 188.93 483.383 188.951C483.393 188.967 483.403 188.983 483.412 188.999C483.868 188.81 484.326 188.627 484.787 188.452C484.905 188.165 484.989 187.899 485.022 187.772C484.152 189.448 483.319 182.614 483.163 181.334C482.819 178.504 482.545 174.704 484.419 172.515C485.994 170.676 488.464 170.648 489.973 172.715ZM356.418 310.926C355 310.88 353.692 310.65 352.596 310.149C353.832 310.503 355.11 310.757 356.418 310.926Z" fill="#F2F2F2"/>
<path d="M380.834 154.755V378.828C380.836 381.647 380.283 384.439 379.207 387.044C378.132 389.65 376.554 392.017 374.564 394.012C372.575 396.007 370.213 397.589 367.612 398.67C365.012 399.75 362.224 400.307 359.409 400.309H218.075C215.26 400.308 212.472 399.752 209.871 398.672C207.27 397.591 204.907 396.009 202.918 394.014C200.928 392.019 199.35 389.651 198.275 387.046C197.199 384.44 196.647 381.648 196.65 378.828V154.755C196.65 149.065 198.907 143.608 202.925 139.585C206.943 135.562 212.393 133.302 218.075 133.302H359.409C365.09 133.305 370.537 135.567 374.555 139.589C378.572 143.611 380.83 149.066 380.834 154.755Z" fill="#C0D8E0"/>
<path opacity="0.4" d="M361.792 152.41H212.226V376.832H361.792V152.41Z" fill="url(#paint0_linear)"/>
<path d="M363.966 150.636V374.411H233.137C233.137 374.411 215.004 370.592 214.046 339.992C213.087 309.391 215.004 150.636 215.004 150.636H363.966Z" fill="white"/>
<path d="M360.701 398.521C360.229 376.609 359.68 354.224 352.184 333.627C347.925 321.92 341.499 311.033 338.026 299.068C335.288 289.643 335.941 279.633 336.025 269.81C336.066 264.607 336.101 259.293 334.489 254.347C333.1 250.027 330.439 246.069 329.863 241.561C335.934 245.992 342.367 250.917 344.57 258.11C345.64 261.588 345.598 265.331 346.175 268.934C348.036 280.593 356.151 290.088 361.931 300.376C374.63 322.998 376.214 350.057 376.089 376.004C376.089 381.625 375.922 387.461 373.456 392.518C370.99 397.575 366.231 399.537 360.701 398.521Z" fill="url(#paint1_linear)"/>
<path d="M244.238 374.195C244.149 374.263 244.063 374.335 243.981 374.411H233.137C233.137 374.411 215.004 370.592 214.046 339.992C214.046 339.992 220.569 360.582 242.925 356.179C242.925 356.179 231.08 375.51 244.238 374.195Z" fill="white"/>
<path d="M244.238 374.195C244.149 374.263 244.063 374.335 243.981 374.411H233.137C233.137 374.411 215.004 370.592 214.046 339.992C214.046 339.992 220.569 360.582 242.925 356.179C242.925 356.179 231.08 375.51 244.238 374.195Z" fill="url(#paint2_linear)"/>
<path opacity="0.5" d="M345.51 226.902H238.926C237.837 226.902 236.953 227.787 236.953 228.878C236.953 229.969 237.837 230.853 238.926 230.853H345.51C346.6 230.853 347.483 229.969 347.483 228.878C347.483 227.787 346.6 226.902 345.51 226.902Z" fill="url(#paint3_linear)"/>
<path opacity="0.5" d="M345.51 254H238.926C237.837 254 236.953 254.884 236.953 255.976C236.953 257.067 237.837 257.951 238.926 257.951H345.51C346.6 257.951 347.483 257.067 347.483 255.976C347.483 254.884 346.6 254 345.51 254Z" fill="url(#paint4_linear)"/>
<path opacity="0.5" d="M345.51 213.951H238.926C237.837 213.951 236.953 214.836 236.953 215.927C236.953 217.018 237.837 217.902 238.926 217.902H345.51C346.6 217.902 347.483 217.018 347.483 215.927C347.483 214.836 346.6 213.951 345.51 213.951Z" fill="url(#paint5_linear)"/>
<path opacity="0.5" d="M345.51 201H238.926C237.837 201 236.953 201.884 236.953 202.976C236.953 204.067 237.837 204.951 238.926 204.951H345.51C346.6 204.951 347.483 204.067 347.483 202.976C347.483 201.884 346.6 201 345.51 201Z" fill="url(#paint6_linear)"/>
<path opacity="0.5" d="M345.51 239.854H238.926C237.837 239.854 236.953 240.738 236.953 241.829C236.953 242.92 237.837 243.805 238.926 243.805H345.51C346.6 243.805 347.483 242.92 347.483 241.829C347.483 240.738 346.6 239.854 345.51 239.854Z" fill="url(#paint7_linear)"/>
<path opacity="0.5" d="M345.51 266.951H238.926C237.837 266.951 236.953 267.836 236.953 268.927C236.953 270.018 237.837 270.902 238.926 270.902H345.51C346.6 270.902 347.483 270.018 347.483 268.927C347.483 267.836 346.6 266.951 345.51 266.951Z" fill="url(#paint8_linear)"/>
<path d="M321.811 141.607V148.063C321.813 149.931 321.446 151.782 320.733 153.509C320.02 155.235 318.973 156.804 317.654 158.126C316.334 159.447 314.767 160.495 313.043 161.209C311.318 161.923 309.47 162.29 307.604 162.288H269.589C267.722 162.29 265.872 161.923 264.147 161.209C262.421 160.495 260.853 159.448 259.531 158.127C258.21 156.806 257.162 155.237 256.446 153.51C255.731 151.783 255.362 149.932 255.361 148.063V141.607C255.365 137.832 256.865 134.213 259.533 131.545C262.201 128.877 265.818 127.38 269.589 127.382H307.604C309.47 127.381 311.318 127.748 313.042 128.463C314.766 129.177 316.332 130.225 317.652 131.546C318.971 132.867 320.018 134.436 320.731 136.162C321.445 137.889 321.812 139.739 321.811 141.607Z" fill="#C0D8E0"/>
<path d="M255.465 141.44V147.903C255.46 149.774 255.823 151.628 256.535 153.358C257.246 155.089 258.292 156.661 259.612 157.986C260.932 159.311 262.5 160.362 264.226 161.079C265.952 161.795 267.803 162.164 269.672 162.163H272.527C270.658 162.164 268.808 161.795 267.081 161.079C265.355 160.362 263.787 159.311 262.467 157.986C261.147 156.661 260.102 155.089 259.39 153.358C258.678 151.628 258.315 149.774 258.32 147.903V141.44C258.319 139.572 258.686 137.722 259.4 135.995C260.114 134.269 261.16 132.7 262.479 131.379C263.799 130.058 265.365 129.01 267.089 128.296C268.814 127.581 270.661 127.214 272.527 127.215H269.672C267.806 127.214 265.958 127.581 264.234 128.296C262.51 129.01 260.944 130.058 259.624 131.379C258.305 132.7 257.258 134.269 256.545 135.995C255.831 137.722 255.464 139.572 255.465 141.44Z" fill="url(#paint9_linear)"/>
<path opacity="0.8" d="M321.811 141.607V148.063C321.812 149.931 321.446 151.782 320.733 153.509C320.02 155.235 318.973 156.804 317.654 158.126C316.334 159.447 314.767 160.495 313.043 161.209C311.318 161.923 309.47 162.29 307.604 162.288H272.437C270.57 162.29 268.721 161.923 266.995 161.209C265.269 160.495 263.701 159.448 262.38 158.127C261.058 156.806 260.01 155.237 259.294 153.51C258.579 151.783 258.21 149.932 258.209 148.063V141.607C258.213 137.832 259.714 134.213 262.382 131.545C265.05 128.877 268.667 127.38 272.437 127.382H307.604C309.47 127.381 311.317 127.748 313.042 128.463C314.766 129.177 316.332 130.225 317.652 131.546C318.971 132.867 320.017 134.436 320.731 136.162C321.445 137.889 321.812 139.739 321.811 141.607Z" fill="url(#paint10_linear)"/>
<path d="M196.872 263.953C196.838 264.36 196.861 264.77 196.942 265.171C195.608 264.28 194.093 261.38 192.773 257.894C191.961 255.759 189.904 245.443 189.904 243.154C189.904 237.888 193.524 233.485 197.331 229.701C196.476 236.998 198.019 252.747 196.872 263.953Z" fill="url(#paint11_linear)"/>
<g opacity="0.5">
<path fill-rule="evenodd" clip-rule="evenodd" d="M130.464 144.845C133.07 141.13 137.906 131.694 141.573 130.366C143.935 129.511 143.247 138.357 143.276 140.043C143.389 146.569 142.754 153.053 141.97 159.524C140.556 171.194 135.935 181.586 129.596 191.519C126.334 196.629 122.508 201.802 117.209 204.991C114.77 206.46 111.835 206.705 109.426 207.971C106.62 209.444 108.148 208.253 106.884 211.176C105.128 215.235 104.566 220.471 103.754 224.802C100.024 244.683 90.9938 349.779 92.5593 370.002C92.6984 371.794 90.199 372.223 90.0742 370.035C89.4111 358.432 95.1496 278.085 98.0448 251.809C100.94 225.533 103.87 202.32 106.808 193.229C110.371 182.2 116.808 168.937 122.166 158.652C124.655 153.874 127.367 149.261 130.464 144.845Z" fill="#69A1AC"/>
<path fill-rule="evenodd" clip-rule="evenodd" d="M149.805 273.717C156.585 268.739 163.925 278.134 157.789 283.113C154.397 285.865 150.851 284.886 148.855 282.592C147.559 284.172 146.346 285.824 145.18 287.219C141.629 291.47 138.273 295.823 135.066 300.277C128.403 309.53 122.692 319.307 116.722 328.904C110.83 338.376 104.985 347.896 99.6442 357.608C95.1201 365.837 89.0899 375.517 87.541 384.538C89.8912 365.406 98.8089 347.017 109.428 330.152C119.961 313.424 132.049 295.156 148.358 281.955C146.698 279.514 146.652 276.03 149.805 273.717Z" fill="#C1DEE2"/>
<path fill-rule="evenodd" clip-rule="evenodd" d="M21.1396 227.059C24.9339 227.801 31.1339 236.384 34.2616 239.655C37.9786 243.541 41.3509 247.683 44.5297 252.023C51.373 261.365 57.4931 271.298 62.6972 281.655C71.1814 298.541 77.9783 315.874 82.9111 334.261C85.9306 345.516 87.8857 357.182 89.0443 368.766C89.2631 370.951 91.5537 387.795 88.2531 388.249C85.2847 388.658 86.2015 375.459 86.0583 373.664C84.4395 353.409 79.59 333.701 72.8444 314.61C71.3752 310.451 70.0101 305.357 67.6604 301.615C65.9683 298.919 67.6483 299.859 64.6746 298.839C62.1212 297.962 59.2119 298.176 56.5972 297.104C50.9169 294.774 46.3687 290.252 42.3818 285.703C34.6339 276.863 28.4941 267.3 25.2937 255.972C23.5183 249.692 21.8869 243.375 20.9815 236.9C20.7473 235.226 18.6956 226.581 21.1396 227.059Z" fill="#69A1AC"/>
<path fill-rule="evenodd" clip-rule="evenodd" d="M36.1132 84.2469C50.4058 109.034 62.1509 136.262 69.7348 163.839C74.3297 180.548 77.5431 197.694 80.7358 214.716C85.6792 241.073 90.3551 267.427 91.6851 294.252C93.0233 321.232 95.6693 352.351 86.8348 378.337C91.2477 351.954 87.0463 323.871 86.3024 297.324C85.9469 284.651 84.9167 272.102 83.5654 259.503C82.254 247.282 80.1116 235.118 78.1166 222.993C77.1448 217.087 76.1241 211.191 75.085 205.298C74.7748 203.539 74.6437 198.322 73.5284 197.121C72.4058 195.912 66.6784 195.419 64.8802 194.532C61.2593 192.745 57.8534 190.207 54.8391 187.525C49.0606 182.384 44.0336 175.667 40.0659 169.046C30.8856 153.724 27.2153 135.027 27.4008 117.283C27.4365 113.838 32.9769 76.7402 30.7518 76.2294C30.8858 76.0725 31.0125 75.9105 31.132 75.7419C32.8166 78.5625 34.4697 81.4022 36.1132 84.2469Z" fill="#89C5CC"/>
<path fill-rule="evenodd" clip-rule="evenodd" d="M190.378 173.644C190.598 173.325 192.033 171.113 191.311 171.255C192.782 170.967 189.287 173.694 192.953 172.021C191.212 173.665 192.217 175.801 192.24 178.014C192.278 181.607 191.677 185.17 191 188.686C189.931 194.243 188.338 199.647 186.026 204.816C180.987 216.08 172.43 226.924 162.271 233.967C157.256 237.444 152.341 238.628 146.621 240.229C143.008 241.24 142.722 243.109 140.804 246.615C136.812 253.916 132.89 261.192 129.369 268.74C125.165 277.754 121.084 286.777 117.234 295.949C104.264 326.845 93.7079 358.853 88.1641 391.979C88.0284 372.458 92.5442 352.353 98.2405 333.747C102.39 320.19 107.792 307.122 113.553 294.187C114.949 291.053 117.065 287.022 117.658 283.562C118.073 281.138 116.804 278.807 116.223 276.253C113.957 266.309 114.119 255.168 116.109 245.17C118.302 234.146 124.646 229.029 135.377 227.468C139.301 226.897 144.289 227.106 147.888 225.433C151.808 223.61 153.426 217.621 155.655 213.776C161.643 203.448 168.758 193.543 176.928 184.841C179.19 182.431 181.622 180.208 184.203 178.147C185.831 176.847 189.268 175.245 190.378 173.644Z" fill="#89C5CC"/>
<path fill-rule="evenodd" clip-rule="evenodd" d="M67.3037 376.626C66.8584 373.607 69.1983 370.896 72.2502 370.896H105.933C108.984 370.896 111.324 373.607 110.879 376.626L109.214 387.918C107.767 397.731 99.3464 405 89.4277 405H88.755C78.8364 405 70.4161 397.731 68.969 387.918L67.3037 376.626Z" fill="#C1DEE2"/>
</g>
<path fill-rule="evenodd" clip-rule="evenodd" d="M137.088 234.239C141.821 237.094 146.472 238.473 148.655 237.91C154.129 236.498 154.633 216.457 150.397 208.556C146.161 200.656 124.386 197.212 123.288 212.866C122.907 218.299 125.187 223.147 128.555 227.104L122.516 255.273H140.059L137.088 234.239Z" fill="#B28B67"/>
<path fill-rule="evenodd" clip-rule="evenodd" d="M152.053 212.104C151.879 211.08 151.455 209.942 151.112 208.974C150.67 207.725 150.002 206.598 149.266 205.537C147.881 203.539 146.219 201.734 144.384 200.237C141.033 197.501 136.767 195.923 132.572 196.436C130.454 196.694 128.398 197.503 126.648 198.849C125.066 200.065 123.546 201.854 121.498 201.983C119.27 202.123 117.228 200.155 115.442 198.94C113.427 197.57 111.284 196.572 108.93 196.183C104.986 195.534 101.28 196.867 98.562 200.105C95.6694 203.551 93.5667 208.605 95.4663 213.171C95.8194 214.02 96.2736 214.735 96.9256 215.328C97.5234 215.872 98.4366 216.451 98.679 217.32C98.9365 218.243 98.1673 219.435 97.8691 220.268C97.4418 221.462 97.0909 222.716 97.2157 224.014C97.4206 226.145 98.7591 228.18 100.172 229.581C101.611 231.006 103.381 231.824 105.272 232.201C106.534 232.452 107.825 232.591 109.108 232.497C109.745 232.45 110.307 232.273 110.924 232.132C111.524 231.995 111.859 232.154 112.369 232.484C114.734 234.014 117.277 234.606 120.009 234.378C122.314 234.186 124.971 233.627 126.851 232.047C128.939 230.291 128.898 227.871 128.406 225.285C128.927 225.543 130.367 225.703 129.507 224.674C129.166 224.266 128.522 224.1 128.084 223.86C127.575 223.581 127.057 223.221 126.662 222.765C125.065 220.927 126.678 217.185 128.685 216.568C131.668 215.652 132.336 219.873 134.465 220.965C135.689 221.593 136.97 220.735 137.887 219.859C139.116 218.685 139.953 217.13 140.676 215.548C141.272 214.245 141.826 212.923 142.433 211.627C142.716 211.021 143.697 209.309 143.205 208.625C145.341 208.198 147.72 209.087 149.56 210.252C150.321 210.733 150.9 211.264 151.306 212.115C151.393 212.297 151.582 212.838 151.82 212.861C152.262 212.902 152.097 212.361 152.053 212.104Z" fill="#191847"/>
<path fill-rule="evenodd" clip-rule="evenodd" d="M83.694 347.438C74.8574 347.438 67.694 354.601 67.694 363.438V422.14C67.694 430.976 74.8574 438.14 83.694 438.14H159.145C167.981 438.14 175.145 430.976 175.145 422.14V363.438C175.145 354.601 167.981 347.438 159.145 347.438H83.694ZM92.1607 367.919C89.9516 367.919 88.1607 369.709 88.1607 371.919V413.659C88.1607 415.868 89.9516 417.659 92.1607 417.659H150.678C152.887 417.659 154.678 415.868 154.678 413.659V371.919C154.678 369.709 152.887 367.919 150.678 367.919H92.1607Z" fill="#C5CFD6"/>
<path fill-rule="evenodd" clip-rule="evenodd" d="M247.625 434.482C233.214 416.872 223.463 403.816 218.372 395.315C209.655 380.759 202.521 367.808 200.27 362.86C194.901 351.062 212.629 345.538 216.642 351.041C222.714 359.369 235.684 385.578 255.55 429.667L247.625 434.482Z" fill="#B28B67"/>
<path fill-rule="evenodd" clip-rule="evenodd" d="M218.094 429.362L191.273 361.801C185.537 349.485 213.239 341.39 217.455 347.121C227.026 360.134 249.774 411.466 252.626 415.343L218.094 429.362Z" fill="#2F3676"/>
<path fill-rule="evenodd" clip-rule="evenodd" d="M146.661 415.813C151.886 408.187 170.889 382.529 181.24 371.913C184.214 368.863 187.117 365.935 189.861 363.206C198.02 355.096 214.268 368.727 206.124 376.114C185.842 394.511 156.25 419.346 153.778 421.56C150.312 424.664 143.378 420.606 146.661 415.813Z" fill="#B28B67"/>
<path fill-rule="evenodd" clip-rule="evenodd" d="M150.397 413.144C149.687 412.212 148.345 411.984 147.46 412.75C146.317 413.737 144.917 415.053 144.371 416.001C143.382 417.714 142.056 421.331 142.056 421.331C144.042 422.479 177.76 441.959 177.76 441.959C177.76 441.959 181.808 438.159 179.021 436.06C176.235 433.96 174.422 432.518 174.422 432.518L162.261 415.752C161.93 415.295 161.288 415.203 160.842 415.546L158.5 417.351C158.5 417.351 154.977 417.043 153.241 416.04C152.322 415.509 151.225 414.23 150.397 413.144Z" fill="#E4E4E4"/>
<path fill-rule="evenodd" clip-rule="evenodd" d="M243.992 431.265C242.911 430.813 241.635 431.287 241.25 432.394C240.754 433.82 240.199 435.66 240.199 436.754C240.199 438.733 240.858 442.529 240.858 442.529C243.152 442.529 282.085 442.529 282.085 442.529C282.085 442.529 283.693 437.212 280.23 436.788C276.768 436.364 274.478 436.023 274.478 436.023L255.569 427.587C255.054 427.357 254.451 427.598 254.237 428.119L253.11 430.853C253.11 430.853 249.905 432.35 247.901 432.35C246.84 432.35 245.251 431.791 243.992 431.265Z" fill="#E4E4E4"/>
<path fill-rule="evenodd" clip-rule="evenodd" d="M181.622 365.176C181.622 365.176 148.185 359.725 136.828 357.721C115.248 353.913 108.955 342.292 112.676 316.937L152.437 316.937C160.329 319.218 218.393 345.149 218.393 345.149C225.358 348.609 224.061 358.81 222.788 362.171C222.71 362.377 187.565 422.569 187.565 422.569L155.039 401.834L181.683 367.619C181.683 367.619 182.739 365.492 181.622 365.176Z" fill="#5C63AB"/>
<path fill-rule="evenodd" clip-rule="evenodd" d="M75.2942 348.833C77.4362 344.485 88.1385 288.518 88.1385 288.518L104.144 288.578C104.144 288.578 85.8584 347.864 84.7308 350.66C83.2661 354.293 85.7542 359.571 87.4414 363.15C87.7024 363.703 87.9442 364.216 88.1493 364.676C85.8082 365.725 84.6837 364.457 83.4981 363.122C82.1591 361.613 80.7422 360.016 77.4067 361.569C76.118 362.169 74.8985 362.879 73.7072 363.572C69.5919 365.965 65.8114 368.164 60.6686 364.989C59.8532 364.485 58.9598 362.59 61.1185 361.109C66.4967 357.418 74.247 350.959 75.2942 348.833ZM210.099 327.026L189.393 306.812L182.516 318.72L204.048 331.424C209.446 339.935 212.617 343.612 213.56 342.456C214.355 341.481 213.991 340.413 213.655 339.429C213.394 338.662 213.15 337.947 213.485 337.366C214.25 336.041 218.573 336.8 222.645 337.696C226.716 338.591 225.774 336.59 224.909 335.545C221.061 332.438 216.124 329.598 210.099 327.026Z" fill="#B28B67"/>
<path fill-rule="evenodd" clip-rule="evenodd" d="M136.912 243.08L143.232 241.996C153.189 277.217 204.348 301.226 207.489 314.392C208.64 319.221 205.168 321.662 206.961 323.132L198.746 329.151C197.354 327.527 194.386 330.498 188.186 328.419C181.986 326.341 136.912 284.786 136.912 243.08Z" fill="#277C7A"/>
<path fill-rule="evenodd" clip-rule="evenodd" d="M126.744 235.802C124.54 235.648 122.628 237.309 122.474 239.513L122.25 242.726C110.355 251.887 80.8726 279.26 73.19 330.217C72.383 335.569 73.8424 338.436 75.0085 340.727C75.8062 342.294 76.4667 343.592 76.1704 345.231L86.9225 348.201C86.9225 346.991 88.2776 346.07 90.0259 344.882C92.568 343.155 95.9414 340.864 97.1887 336.296C98.371 331.966 100.102 326.557 102.171 320.541C102.366 328.509 103.876 335.837 107.165 341.906C115.372 357.048 162.798 340.442 167.752 324.995C170.396 316.752 166.645 309.832 161.683 300.679C155.385 289.061 147.136 273.846 147.544 247.763L147.996 241.299C148.15 239.095 146.488 237.184 144.284 237.03L126.744 235.802Z" fill="#2C9491"/>
<path fill-rule="evenodd" clip-rule="evenodd" d="M403.127 188.082C398.387 190.939 393.729 192.32 391.543 191.756C386.06 190.343 385.556 170.287 389.798 162.38C394.04 154.473 415.848 151.027 416.947 166.693C417.329 172.13 415.046 176.982 411.672 180.942L417.721 209.132H400.152L403.127 188.082Z" fill="#B28B67"/>
<path fill-rule="evenodd" clip-rule="evenodd" d="M387.707 154.961C387.707 158.871 390.772 162.065 394.631 162.271C396.838 162.952 399.674 163.452 402.819 163.663C402.514 164.811 402.348 166.116 402.348 167.59C402.348 168.892 402.492 170.272 402.756 171.674C403.438 170.863 404.35 170.334 405.276 170.334C407.866 170.334 409.668 172.464 409.668 174.726C409.668 177.597 408.011 179.674 405.592 179.84C407.77 184.022 410.784 187.171 413.794 187.171C419.512 187.171 423.577 179.527 423.577 171.307C423.577 171.019 423.571 170.732 423.56 170.447C425.496 171.775 427.289 173.516 429.096 175.27C432.934 178.996 436.831 182.779 442.273 182.779C453.161 182.779 457.485 160.818 442.273 160.818C431.928 160.818 426.839 162.326 422.453 164.556C421.588 162.118 420.269 160.068 418.657 158.636C418.268 158.199 417.673 157.781 416.905 157.394C416.437 157.137 415.951 156.928 415.453 156.771C412.808 155.799 408.977 155.113 404.697 154.964C403.898 154.936 403.114 154.928 402.348 154.938C402.335 150.906 399.063 147.641 395.028 147.641C390.985 147.641 387.707 150.918 387.707 154.961Z" fill="#191847"/>
<path fill-rule="evenodd" clip-rule="evenodd" d="M429.409 270.949L401.903 361.05L388.578 437.674H378.131L392.21 270.949H429.409Z" fill="#997659"/>
<path fill-rule="evenodd" clip-rule="evenodd" d="M439.25 270.949C437.381 320.419 439.58 345.937 439.998 350.431C440.416 354.926 446.142 384.069 459.698 439.183L448.565 435.352C427.142 384.804 419.842 358.534 417.385 351.896C414.928 345.259 408.402 318.276 397.808 270.949H439.25Z" fill="#B28B67"/>
<path fill-rule="evenodd" clip-rule="evenodd" d="M457.047 434.711C458.128 434.259 459.405 434.733 459.79 435.84C460.286 437.269 460.841 439.111 460.841 440.206C460.841 442.188 460.182 445.988 460.182 445.988C457.888 445.988 418.955 445.988 418.955 445.988C418.955 445.988 417.348 440.665 420.81 440.241C424.272 439.816 426.562 439.474 426.562 439.474L445.471 431.028C445.986 430.798 446.589 431.039 446.803 431.561L447.93 434.298C447.93 434.298 451.135 435.797 453.139 435.797C454.2 435.797 455.787 435.237 457.047 434.711Z" fill="#E4E4E4"/>
<path fill-rule="evenodd" clip-rule="evenodd" d="M388.337 434.711C389.418 434.259 390.695 434.733 391.08 435.84C391.576 437.269 392.131 439.111 392.131 440.206C392.131 442.188 391.472 445.988 391.472 445.988C389.178 445.988 350.245 445.988 350.245 445.988C350.245 445.988 348.638 440.665 352.1 440.241C355.562 439.816 357.852 439.474 357.852 439.474L376.761 431.028C377.276 430.798 377.879 431.039 378.093 431.561L379.22 434.298C379.22 434.298 382.425 435.797 384.429 435.797C385.49 435.797 387.078 435.237 388.337 434.711Z" fill="#E4E4E4"/>
<path fill-rule="evenodd" clip-rule="evenodd" d="M433.064 270.949L421.369 316.854H385.647L390.973 270.949H433.064Z" fill="#69A1AC"/>
<path fill-rule="evenodd" clip-rule="evenodd" d="M439.643 270.949C445.415 288.285 441.836 316.854 441.836 316.854H405.383L395.359 270.949H439.643Z" fill="#89C5CC"/>
<path fill-rule="evenodd" clip-rule="evenodd" d="M328.447 197.967L357.081 202.339L351.705 214.991L328.578 205.443C318.522 206.252 313.672 205.932 314.028 204.484C314.328 203.264 315.401 202.912 316.39 202.588C317.161 202.335 317.88 202.1 318.142 201.483C318.74 200.076 315.529 197.081 312.36 194.37C309.19 191.658 311.358 191.206 312.714 191.269C317.517 192.472 322.761 194.704 328.447 197.967ZM345.564 270.556L366.305 250.356L373.19 262.251L351.624 274.948C346.215 283.451 343.038 287.126 342.094 285.971C341.298 284.998 341.664 283.93 342 282.947C342.262 282.181 342.507 281.466 342.171 280.886C341.405 279.563 337.076 280.322 332.998 281.218C328.92 282.114 329.864 280.114 330.731 279.07C334.586 275.964 339.53 273.126 345.564 270.556Z" fill="#B28B67"/>
<path fill-rule="evenodd" clip-rule="evenodd" d="M395.807 199.661C386.509 224.868 370.825 245.394 347.051 267.782L358.628 277.627C386.566 262.551 401.195 253.767 405.722 230.55C406.858 224.723 405.708 206.817 405.547 197.334L395.807 199.661Z" fill="#C44444"/>
<path fill-rule="evenodd" clip-rule="evenodd" d="M441.984 272.802L386.165 280.647C386.165 280.647 397.016 220.242 394.403 198.666C394.315 197.933 395.487 196.454 396.109 196.539C402.936 197.467 409.968 193.179 409.968 193.179C426.187 212.564 434.439 238.077 441.984 272.802Z" fill="#F2F2F2"/>
<path fill-rule="evenodd" clip-rule="evenodd" d="M400.522 227.558C397.05 266.113 401.747 296.614 420.994 293.909L450.756 289.726C451.026 257.351 432.424 215.13 417.79 194.571C417.231 193.786 416.07 192.321 413.864 192.631L405.216 193.847C405.214 193.859 405.212 193.871 405.21 193.883C402.61 194.27 399.758 194.767 396.669 195.307C380.765 198.082 358.59 201.951 332.392 197.44L331.509 212.598C356.177 223.945 380.67 231.978 400.522 227.558Z" fill="#EB5757"/>
<defs>
<linearGradient id="paint0_linear" x1="229.865" y1="464.564" x2="349.894" y2="45.6659" gradientUnits="userSpaceOnUse">
<stop stop-color="#010101" stop-opacity="0"/>
<stop offset="0.47" stop-color="#010101" stop-opacity="0.47"/>
<stop offset="0.95" stop-color="#010101"/>
</linearGradient>
<linearGradient id="paint1_linear" x1="16770.8" y1="51061.2" x2="30849" y2="48820.7" gradientUnits="userSpaceOnUse">
<stop stop-color="#010101" stop-opacity="0"/>
<stop offset="0.47" stop-color="#010101" stop-opacity="0.47"/>
<stop offset="0.95" stop-color="#010101"/>
</linearGradient>
<linearGradient id="paint2_linear" x1="6852.78" y1="12224.7" x2="3464.28" y2="15896.4" gradientUnits="userSpaceOnUse">
<stop stop-color="#010101" stop-opacity="0"/>
<stop offset="0.95" stop-color="#010101"/>
</linearGradient>
<linearGradient id="paint3_linear" x1="237.123" y1="226.902" x2="355.623" y2="226.902" gradientUnits="userSpaceOnUse">
<stop stop-color="#214753"/>
<stop offset="1" stop-color="#214753" stop-opacity="0"/>
</linearGradient>
<linearGradient id="paint4_linear" x1="237.123" y1="254" x2="355.623" y2="254" gradientUnits="userSpaceOnUse">
<stop stop-color="#214753"/>
<stop offset="1" stop-color="#214753" stop-opacity="0"/>
</linearGradient>
<linearGradient id="paint5_linear" x1="237.123" y1="213.951" x2="355.623" y2="213.951" gradientUnits="userSpaceOnUse">
<stop stop-color="#214753"/>
<stop offset="1" stop-color="#214753" stop-opacity="0"/>
</linearGradient>
<linearGradient id="paint6_linear" x1="237.123" y1="201" x2="355.623" y2="201" gradientUnits="userSpaceOnUse">
<stop stop-color="#214753"/>
<stop offset="1" stop-color="#214753" stop-opacity="0"/>
</linearGradient>
<linearGradient id="paint7_linear" x1="237.123" y1="239.854" x2="355.623" y2="239.854" gradientUnits="userSpaceOnUse">
<stop stop-color="#214753"/>
<stop offset="1" stop-color="#214753" stop-opacity="0"/>
</linearGradient>
<linearGradient id="paint8_linear" x1="237.123" y1="266.951" x2="355.623" y2="266.951" gradientUnits="userSpaceOnUse">
<stop stop-color="#214753"/>
<stop offset="1" stop-color="#214753" stop-opacity="0"/>
</linearGradient>
<linearGradient id="paint9_linear" x1="3992.98" y1="2116.11" x2="5708.19" y2="2191.54" gradientUnits="userSpaceOnUse">
<stop stop-color="#010101" stop-opacity="0"/>
<stop offset="0.47" stop-color="#010101" stop-opacity="0.47"/>
<stop offset="0.95" stop-color="#010101"/>
</linearGradient>
<linearGradient id="paint10_linear" x1="292.271" y1="108.649" x2="288.329" y2="171.581" gradientUnits="userSpaceOnUse">
<stop stop-color="white" stop-opacity="0"/>
<stop offset="0.95" stop-color="white"/>
</linearGradient>
<linearGradient id="paint11_linear" x1="1161.15" y1="7223.28" x2="3189.49" y2="7409.07" gradientUnits="userSpaceOnUse">
<stop stop-color="#010101" stop-opacity="0"/>
<stop offset="0.95" stop-color="#010101"/>
</linearGradient>
</defs>
</svg>
