<svg width="530" height="437" viewBox="0 0 530 437" fill="none" xmlns="http://www.w3.org/2000/svg">
<mask id="mask0" mask-type="alpha" maskUnits="userSpaceOnUse" x="0" y="0" width="530" height="437">
<rect width="530" height="437" fill="white"/>
</mask>
<g mask="url(#mask0)">
<g opacity="0.504511">
<path fill-rule="evenodd" clip-rule="evenodd" d="M498.791 63.0274C528.548 102.725 386.068 215.775 239.79 269.164C93.5118 322.554 -10.078 279.278 32.6439 203.503C75.3658 127.727 469.034 23.3295 498.791 63.0274Z" fill="#F2F2F2"/>
<path fill-rule="evenodd" clip-rule="evenodd" d="M529.725 340.279C537.363 404.765 352.124 446.827 192.684 417.473C33.2441 388.119 -39.8992 273.487 36.1827 212.407C112.265 151.327 522.086 275.792 529.725 340.279Z" fill="#F2F2F2"/>
</g>
<path fill-rule="evenodd" clip-rule="evenodd" d="M490.973 138.715C492.792 141.208 491.933 145.271 491.078 147.923C490.749 148.945 489.66 151.569 488.382 153.541C489.325 153.239 490.276 152.964 491.238 152.717C495.19 151.702 499.232 150.932 503.265 150.451C504.317 150.326 505.501 150.353 506.701 150.381L506.701 150.381L506.702 150.381C507.108 150.391 507.516 150.4 507.921 150.404C508.011 150.295 508.139 150.218 508.316 150.179C508.242 150.172 508.182 150.169 508.136 150.166C508.063 150.163 508.026 150.161 508.022 150.147C508.017 150.134 508.047 150.108 508.108 150.056C508.131 150.036 508.159 150.013 508.191 149.984C510.539 147.933 513.213 146.173 516.235 145.79C518.799 145.466 523.8 147.687 520.616 151.381C519.194 153.034 508.601 153.187 507.827 150.86C504.358 151.677 500.903 152.656 497.503 153.833C497.533 153.981 497.543 154.133 497.533 154.284C498.391 154.224 499.328 154.173 499.652 154.197C502.446 154.403 508.223 156.822 507.359 161.207C506.696 164.577 503.127 162.723 501.553 161.672C499.018 159.98 497.853 157.976 496.446 155.433C495.919 155.409 495.594 155.029 495.47 154.566C489.986 156.61 484.67 159.195 479.693 162.472L480.023 162.535L480.024 162.535C481.603 162.833 483.445 163.181 483.841 163.443C485.918 164.809 488.532 167.939 487.509 171.008C485.358 177.453 477.847 170.98 476.784 165.647C476.508 165.438 476.284 165.212 476.149 164.967C474.654 166.094 473.195 167.291 471.779 168.564C469.649 170.473 467.534 172.516 465.436 174.651C467.164 174.622 471.051 175.216 471.476 175.42C474.057 176.665 476.849 180.5 475.239 183.818C473.422 187.549 469.451 184.464 467.623 182.488C466.874 181.678 464.07 177.624 463.98 176.147C459.039 181.299 454.215 186.952 449.58 192.685C451.761 192.114 457.802 191.2 458.48 191.23C461.977 191.385 467.683 193.77 466.608 199.123C465.567 204.317 459.666 202.358 456.818 200.75C455.093 199.776 453.321 198.397 452.064 196.688C451.837 196.379 451.644 195.972 451.451 195.564C451.218 195.073 450.986 194.583 450.697 194.27C450.439 193.991 450.155 193.917 449.875 193.842C449.578 193.764 449.284 193.687 449.025 193.37C446.532 196.468 444.095 199.583 441.728 202.652C440.611 204.1 439.518 205.572 438.44 207.057C438.757 207.822 438.454 208.952 437.51 208.944C437.373 208.943 437.253 208.912 437.142 208.868C436.343 209.992 435.551 211.124 434.768 212.263C435.012 212.225 435.358 212.214 435.838 212.238C434.84 211.501 436.234 211.46 437.297 211.429L437.297 211.429C437.672 211.418 438.006 211.408 438.179 211.369C438.855 211.217 439.522 211.031 440.189 210.846C441.613 210.45 443.032 210.055 444.519 209.992C447.677 209.859 453.092 211.921 451.475 216.952C449.991 221.578 445.226 220.177 442.202 218.622C440.289 217.638 438.554 216.244 436.885 214.78C436.587 214.519 436.188 214.233 435.792 213.949C435.204 213.529 434.626 213.115 434.401 212.797C431.406 217.178 428.511 221.653 425.616 226.128L425.616 226.129C424.319 228.133 423.022 230.138 421.715 232.135C422.029 232.202 422.339 232.255 422.629 232.299C422.507 232.185 422.444 232.024 422.443 231.814C422.677 231.745 422.988 231.648 423.361 231.531C427.913 230.099 441.779 225.737 439.575 235.668C437.954 242.945 425.444 238.534 420.878 233.414C418.659 236.787 416.409 240.13 414.082 243.402C412.399 245.769 410.65 248.073 408.834 250.296C411.273 249.066 414.45 247.86 417.058 248.402C420.855 249.191 424.635 253.633 422.745 258.266C420.378 264.042 416.505 259.901 412.873 256.017L412.873 256.017C411.019 254.034 409.227 252.119 407.731 251.625C401.764 258.702 395.043 264.83 387.242 269.101C378.759 273.746 367.269 278.25 357.416 276.621C361.719 276.79 367.006 274.808 370.719 273.417C371.224 273.227 371.701 273.049 372.142 272.888C377.903 270.788 383.467 267.943 388.622 264.31C396.88 258.491 403.755 251.018 409.904 242.486C409.251 240.652 408.117 238.683 407.179 237.052L407.179 237.052C406.603 236.052 406.101 235.179 405.827 234.543C404.508 231.473 402.537 225.55 406.061 223.363C409.527 221.212 411.789 226.111 412.754 229.171C413.685 232.128 413.736 234.835 413.252 237.666C416.298 233.161 419.235 228.556 422.171 223.951L422.171 223.951C422.711 223.104 423.251 222.257 423.792 221.411C422.943 220.325 421.737 219.141 420.456 217.883C416.39 213.89 411.573 209.161 415.056 204.523C420.314 197.523 426.7 210.036 426.545 215.52C426.526 216.193 426.44 216.848 426.31 217.489C430.047 211.706 433.872 206.006 438.003 200.587C437.809 199.664 436.562 198.245 435.064 196.54C431.697 192.709 427.062 187.435 430.261 183.107C432.57 179.982 436.468 180.803 438.82 183.58C441.181 186.367 441.401 190.578 440.848 194.197C440.611 195.761 440.076 197.221 439.403 198.592L439.404 198.675L439.404 198.757C443.515 193.423 447.722 188.052 452.092 182.862C452.063 182.777 452.034 182.689 452.005 182.602C451.677 182.32 451.536 181.825 451.58 181.363C451.493 181.115 451.403 180.86 451.312 180.601C449.95 176.747 448.2 171.792 448.632 167.855C448.95 164.958 450.804 162.245 453.387 164.547C455.488 166.417 455.486 171.796 455.152 174.437C454.989 175.725 454.394 177.15 453.797 178.58C453.546 179.181 453.295 179.783 453.075 180.375C453.342 180.512 453.522 180.766 453.618 181.06C458.014 175.931 462.583 171.017 467.384 166.525C467.147 165.255 466.592 163.862 466.02 162.425C464.643 158.969 463.166 155.259 465.772 152.401C469.62 148.182 472.39 155.584 472.195 159.183C472.129 160.399 471.9 161.606 471.575 162.776C475.549 159.482 479.847 156.899 484.405 155.003C484.385 154.962 484.364 154.931 484.344 154.885C484.357 154.909 484.37 154.93 484.383 154.951C484.393 154.967 484.403 154.983 484.412 154.999C484.868 154.81 485.326 154.627 485.787 154.452C485.905 154.165 485.989 153.899 486.022 153.772C485.152 155.448 484.319 148.614 484.163 147.334C483.819 144.504 483.545 140.704 485.419 138.515C486.994 136.676 489.464 136.648 490.973 138.715ZM357.418 276.926C356 276.88 354.692 276.65 353.596 276.149C354.832 276.503 356.11 276.757 357.418 276.926Z" fill="#F2F2F2"/>
<path d="M381.834 120.755V344.828C381.836 347.647 381.283 350.439 380.207 353.044C379.132 355.65 377.554 358.017 375.564 360.012C373.575 362.007 371.213 363.589 368.612 364.67C366.012 365.75 363.224 366.307 360.409 366.309H219.075C216.26 366.308 213.472 365.752 210.871 364.672C208.27 363.591 205.907 362.009 203.918 360.014C201.928 358.019 200.35 355.651 199.275 353.046C198.199 350.44 197.647 347.648 197.65 344.828V120.755C197.65 115.065 199.907 109.608 203.925 105.585C207.943 101.562 213.393 99.3015 219.075 99.3015H360.409C366.09 99.3052 371.537 101.567 375.555 105.589C379.572 109.611 381.83 115.066 381.834 120.755Z" fill="#C0D8E0"/>
<path opacity="0.4" d="M362.792 118.41H213.226V342.832H362.792V118.41Z" fill="url(#paint0_linear)"/>
<path d="M364.966 116.636V340.411H234.137C234.137 340.411 216.004 336.592 215.046 305.992C214.087 275.391 216.004 116.636 216.004 116.636H364.966Z" fill="white"/>
<path d="M361.701 364.521C361.229 342.609 360.68 320.224 353.184 299.627C348.925 287.92 342.499 277.033 339.026 265.068C336.288 255.643 336.941 245.633 337.025 235.81C337.066 230.607 337.101 225.293 335.489 220.347C334.1 216.027 331.439 212.069 330.863 207.561C336.934 211.992 343.367 216.917 345.57 224.11C346.64 227.588 346.598 231.331 347.175 234.934C349.036 246.593 357.151 256.088 362.931 266.376C375.63 288.998 377.214 316.057 377.089 342.004C377.089 347.625 376.922 353.461 374.456 358.518C371.99 363.575 367.231 365.537 361.701 364.521Z" fill="url(#paint1_linear)"/>
<path d="M245.238 340.195C245.149 340.263 245.063 340.335 244.981 340.411H234.137C234.137 340.411 216.004 336.592 215.046 305.992C215.046 305.992 221.569 326.582 243.925 322.179C243.925 322.179 232.08 341.51 245.238 340.195Z" fill="white"/>
<path d="M245.238 340.195C245.149 340.263 245.063 340.335 244.981 340.411H234.137C234.137 340.411 216.004 336.592 215.046 305.992C215.046 305.992 221.569 326.582 243.925 322.179C243.925 322.179 232.08 341.51 245.238 340.195Z" fill="url(#paint2_linear)"/>
<path opacity="0.5" d="M346.51 192.902H239.926C238.837 192.902 237.953 193.787 237.953 194.878C237.953 195.969 238.837 196.853 239.926 196.853H346.51C347.6 196.853 348.483 195.969 348.483 194.878C348.483 193.787 347.6 192.902 346.51 192.902Z" fill="url(#paint3_linear)"/>
<path opacity="0.5" d="M346.51 220H239.926C238.837 220 237.953 220.884 237.953 221.976C237.953 223.067 238.837 223.951 239.926 223.951H346.51C347.6 223.951 348.483 223.067 348.483 221.976C348.483 220.884 347.6 220 346.51 220Z" fill="url(#paint4_linear)"/>
<path opacity="0.5" d="M346.51 179.951H239.926C238.837 179.951 237.953 180.836 237.953 181.927C237.953 183.018 238.837 183.902 239.926 183.902H346.51C347.6 183.902 348.483 183.018 348.483 181.927C348.483 180.836 347.6 179.951 346.51 179.951Z" fill="url(#paint5_linear)"/>
<path opacity="0.5" d="M346.51 167H239.926C238.837 167 237.953 167.884 237.953 168.976C237.953 170.067 238.837 170.951 239.926 170.951H346.51C347.6 170.951 348.483 170.067 348.483 168.976C348.483 167.884 347.6 167 346.51 167Z" fill="url(#paint6_linear)"/>
<path opacity="0.5" d="M346.51 205.854H239.926C238.837 205.854 237.953 206.738 237.953 207.829C237.953 208.92 238.837 209.805 239.926 209.805H346.51C347.6 209.805 348.483 208.92 348.483 207.829C348.483 206.738 347.6 205.854 346.51 205.854Z" fill="url(#paint7_linear)"/>
<path opacity="0.5" d="M346.51 232.951H239.926C238.837 232.951 237.953 233.836 237.953 234.927C237.953 236.018 238.837 236.902 239.926 236.902H346.51C347.6 236.902 348.483 236.018 348.483 234.927C348.483 233.836 347.6 232.951 346.51 232.951Z" fill="url(#paint8_linear)"/>
<path d="M322.811 107.607V114.063C322.813 115.931 322.446 117.782 321.733 119.509C321.02 121.235 319.973 122.804 318.654 124.126C317.334 125.447 315.767 126.495 314.043 127.209C312.318 127.923 310.47 128.29 308.604 128.288H270.589C268.722 128.29 266.872 127.923 265.147 127.209C263.421 126.495 261.853 125.448 260.531 124.127C259.21 122.806 258.162 121.237 257.446 119.51C256.731 117.783 256.362 115.932 256.361 114.063V107.607C256.365 103.832 257.865 100.213 260.533 97.5451C263.201 94.8775 266.818 93.38 270.589 93.3818H308.604C310.47 93.3809 312.318 93.7483 314.042 94.4628C315.766 95.1774 317.332 96.2252 318.652 97.5463C319.971 98.8675 321.018 100.436 321.731 102.162C322.445 103.889 322.812 105.739 322.811 107.607Z" fill="#C0D8E0"/>
<path d="M256.465 107.44V113.903C256.46 115.774 256.823 117.628 257.535 119.358C258.246 121.089 259.292 122.661 260.612 123.986C261.932 125.311 263.5 126.362 265.226 127.079C266.952 127.795 268.803 128.164 270.672 128.163H273.527C271.658 128.164 269.808 127.795 268.081 127.079C266.355 126.362 264.787 125.311 263.467 123.986C262.147 122.661 261.102 121.089 260.39 119.358C259.678 117.628 259.315 115.774 259.32 113.903V107.44C259.319 105.572 259.686 103.722 260.4 101.995C261.114 100.269 262.16 98.7005 263.479 97.3794C264.799 96.0582 266.365 95.0104 268.089 94.2958C269.814 93.5813 271.661 93.2139 273.527 93.2148H270.672C268.806 93.2139 266.958 93.5813 265.234 94.2958C263.51 95.0104 261.944 96.0582 260.624 97.3794C259.305 98.7005 258.258 100.269 257.545 101.995C256.831 103.722 256.464 105.572 256.465 107.44Z" fill="url(#paint9_linear)"/>
<path opacity="0.8" d="M322.811 107.607V114.063C322.812 115.931 322.446 117.782 321.733 119.509C321.02 121.235 319.973 122.804 318.654 124.126C317.334 125.447 315.767 126.495 314.043 127.209C312.318 127.923 310.47 128.29 308.604 128.288H273.437C271.57 128.29 269.721 127.923 267.995 127.209C266.269 126.495 264.701 125.448 263.38 124.127C262.058 122.806 261.01 121.237 260.294 119.51C259.579 117.783 259.21 115.932 259.209 114.063V107.607C259.213 103.832 260.714 100.213 263.382 97.5451C266.05 94.8775 269.667 93.38 273.437 93.3818H308.604C310.47 93.3809 312.317 93.7483 314.042 94.4628C315.766 95.1774 317.332 96.2252 318.652 97.5463C319.971 98.8675 321.017 100.436 321.731 102.162C322.445 103.889 322.812 105.739 322.811 107.607Z" fill="url(#paint10_linear)"/>
<path d="M197.872 229.953C197.838 230.36 197.861 230.77 197.942 231.171C196.608 230.28 195.093 227.38 193.773 223.894C192.961 221.759 190.904 211.443 190.904 209.154C190.904 203.888 194.524 199.485 198.331 195.701C197.476 202.998 199.019 218.747 197.872 229.953Z" fill="url(#paint11_linear)"/>
<g opacity="0.5">
<path fill-rule="evenodd" clip-rule="evenodd" d="M131.464 110.845C134.07 107.13 138.906 97.6938 142.573 96.3662C144.935 95.511 144.247 104.357 144.276 106.043C144.389 112.569 143.754 119.053 142.97 125.524C141.556 137.194 136.935 147.586 130.596 157.519C127.334 162.629 123.508 167.802 118.209 170.991C115.77 172.46 112.835 172.705 110.426 173.971C107.62 175.444 109.148 174.253 107.884 177.176C106.128 181.235 105.566 186.471 104.754 190.802C101.024 210.683 91.9938 315.779 93.5593 336.002C93.6984 337.794 91.199 338.223 91.0742 336.035C90.4111 324.432 96.1496 244.085 99.0448 217.809C101.94 191.533 104.87 168.32 107.808 159.229C111.371 148.2 117.808 134.937 123.166 124.652C125.655 119.874 128.367 115.261 131.464 110.845Z" fill="#69A1AC"/>
<path fill-rule="evenodd" clip-rule="evenodd" d="M150.805 239.717C157.585 234.739 164.925 244.134 158.789 249.113C155.397 251.865 151.851 250.886 149.855 248.592C148.559 250.172 147.346 251.824 146.18 253.219C142.629 257.47 139.273 261.823 136.066 266.277C129.403 275.53 123.692 285.307 117.722 294.904C111.83 304.376 105.985 313.896 100.644 323.608C96.1201 331.837 90.0899 341.517 88.541 350.538C90.8912 331.406 99.8089 313.017 110.428 296.152C120.961 279.424 133.049 261.156 149.358 247.955C147.698 245.514 147.652 242.03 150.805 239.717Z" fill="#C1DEE2"/>
<path fill-rule="evenodd" clip-rule="evenodd" d="M22.1396 193.059C25.9339 193.801 32.1339 202.384 35.2616 205.655C38.9786 209.541 42.3509 213.683 45.5297 218.023C52.373 227.365 58.4931 237.298 63.6972 247.655C72.1814 264.541 78.9783 281.874 83.9111 300.261C86.9306 311.516 88.8857 323.182 90.0443 334.766C90.2631 336.951 92.5537 353.795 89.2531 354.249C86.2847 354.658 87.2015 341.459 87.0583 339.664C85.4395 319.409 80.59 299.701 73.8444 280.61C72.3752 276.451 71.0101 271.357 68.6604 267.615C66.9683 264.919 68.6483 265.859 65.6746 264.839C63.1212 263.962 60.2119 264.176 57.5972 263.104C51.9169 260.774 47.3687 256.252 43.3818 251.703C35.6339 242.863 29.4941 233.3 26.2937 221.972C24.5183 215.692 22.8869 209.375 21.9815 202.9C21.7473 201.226 19.6956 192.581 22.1396 193.059Z" fill="#69A1AC"/>
<path fill-rule="evenodd" clip-rule="evenodd" d="M37.1132 50.2469C51.4058 75.0338 63.1509 102.262 70.7348 129.839C75.3297 146.548 78.5431 163.694 81.7358 180.716C86.6792 207.073 91.3551 233.427 92.6851 260.252C94.0233 287.232 96.6693 318.351 87.8348 344.337C92.2477 317.954 88.0463 289.871 87.3024 263.324C86.9469 250.651 85.9167 238.102 84.5654 225.503C83.254 213.282 81.1116 201.118 79.1166 188.993C78.1448 183.087 77.1241 177.191 76.085 171.298C75.7748 169.539 75.6437 164.322 74.5284 163.121C73.4058 161.912 67.6784 161.419 65.8802 160.532C62.2593 158.745 58.8534 156.207 55.8391 153.525C50.0606 148.384 45.0336 141.667 41.0659 135.046C31.8856 119.724 28.2153 101.027 28.4008 83.2831C28.4365 79.8381 33.9769 42.7402 31.7518 42.2294C31.8858 42.0725 32.0125 41.9105 32.132 41.7419C33.8166 44.5625 35.4697 47.4022 37.1132 50.2469Z" fill="#89C5CC"/>
<path fill-rule="evenodd" clip-rule="evenodd" d="M191.378 139.644C191.598 139.325 193.033 137.113 192.311 137.255C193.782 136.967 190.287 139.694 193.953 138.021C192.212 139.665 193.217 141.801 193.24 144.014C193.278 147.607 192.677 151.17 192 154.686C190.931 160.243 189.338 165.647 187.026 170.816C181.987 182.08 173.43 192.924 163.271 199.967C158.256 203.444 153.341 204.628 147.621 206.229C144.008 207.24 143.722 209.109 141.804 212.615C137.812 219.916 133.89 227.192 130.369 234.74C126.165 243.754 122.084 252.777 118.234 261.949C105.264 292.845 94.7079 324.853 89.1641 357.979C89.0284 338.458 93.5442 318.353 99.2405 299.747C103.39 286.19 108.792 273.122 114.553 260.187C115.949 257.053 118.065 253.022 118.658 249.562C119.073 247.138 117.804 244.807 117.223 242.253C114.957 232.309 115.119 221.168 117.109 211.17C119.302 200.146 125.646 195.029 136.377 193.468C140.301 192.897 145.289 193.106 148.888 191.433C152.808 189.61 154.426 183.621 156.655 179.776C162.643 169.448 169.758 159.543 177.928 150.841C180.19 148.431 182.622 146.208 185.203 144.147C186.831 142.847 190.268 141.245 191.378 139.644Z" fill="#89C5CC"/>
<path fill-rule="evenodd" clip-rule="evenodd" d="M68.3037 342.626C67.8584 339.607 70.1983 336.896 73.2502 336.896H106.933C109.984 336.896 112.324 339.607 111.879 342.626L110.214 353.918C108.767 363.731 100.346 371 90.4277 371H89.755C79.8364 371 71.4161 363.731 69.969 353.918L68.3037 342.626Z" fill="#C1DEE2"/>
</g>
<path fill-rule="evenodd" clip-rule="evenodd" d="M138.088 200.239C142.821 203.094 147.472 204.473 149.655 203.91C155.129 202.498 155.633 182.457 151.397 174.556C147.161 166.656 125.386 163.212 124.288 178.866C123.907 184.299 126.187 189.147 129.555 193.104L123.516 221.273H141.059L138.088 200.239Z" fill="#B28B67"/>
<path fill-rule="evenodd" clip-rule="evenodd" d="M153.053 178.104C152.879 177.08 152.455 175.942 152.112 174.974C151.67 173.725 151.002 172.598 150.266 171.537C148.881 169.539 147.219 167.734 145.384 166.237C142.033 163.501 137.767 161.923 133.572 162.436C131.454 162.694 129.398 163.503 127.648 164.849C126.066 166.065 124.546 167.854 122.498 167.983C120.27 168.123 118.228 166.155 116.442 164.94C114.427 163.57 112.284 162.572 109.93 162.183C105.986 161.534 102.28 162.867 99.562 166.105C96.6694 169.551 94.5667 174.605 96.4663 179.171C96.8194 180.02 97.2736 180.735 97.9256 181.328C98.5234 181.872 99.4366 182.451 99.679 183.32C99.9365 184.243 99.1673 185.435 98.8691 186.268C98.4418 187.462 98.0909 188.716 98.2157 190.014C98.4206 192.145 99.7591 194.18 101.172 195.581C102.611 197.006 104.381 197.824 106.272 198.201C107.534 198.452 108.825 198.591 110.108 198.497C110.745 198.45 111.307 198.273 111.924 198.132C112.524 197.995 112.859 198.154 113.369 198.484C115.734 200.014 118.277 200.606 121.009 200.378C123.314 200.186 125.971 199.627 127.851 198.047C129.939 196.291 129.898 193.871 129.406 191.285C129.927 191.543 131.367 191.703 130.507 190.674C130.166 190.266 129.522 190.1 129.084 189.86C128.575 189.581 128.057 189.221 127.662 188.765C126.065 186.927 127.678 183.185 129.685 182.568C132.668 181.652 133.336 185.873 135.465 186.965C136.689 187.593 137.97 186.735 138.887 185.859C140.116 184.685 140.953 183.13 141.676 181.548C142.272 180.245 142.826 178.923 143.433 177.627C143.716 177.021 144.697 175.309 144.205 174.625C146.341 174.198 148.72 175.087 150.56 176.252C151.321 176.733 151.9 177.264 152.306 178.115C152.393 178.297 152.582 178.838 152.82 178.861C153.262 178.902 153.097 178.361 153.053 178.104Z" fill="#191847"/>
<path fill-rule="evenodd" clip-rule="evenodd" d="M84.694 313.438C75.8574 313.438 68.694 320.601 68.694 329.438V388.14C68.694 396.976 75.8574 404.14 84.694 404.14H160.145C168.981 404.14 176.145 396.976 176.145 388.14V329.438C176.145 320.601 168.981 313.438 160.145 313.438H84.694ZM93.1607 333.919C90.9516 333.919 89.1607 335.709 89.1607 337.919V379.659C89.1607 381.868 90.9516 383.659 93.1607 383.659H151.678C153.887 383.659 155.678 381.868 155.678 379.659V337.919C155.678 335.709 153.887 333.919 151.678 333.919H93.1607Z" fill="#C5CFD6"/>
<path fill-rule="evenodd" clip-rule="evenodd" d="M248.625 400.482C234.214 382.872 224.463 369.816 219.372 361.315C210.655 346.759 203.521 333.808 201.27 328.86C195.901 317.062 213.629 311.538 217.642 317.041C223.714 325.369 236.684 351.578 256.55 395.667L248.625 400.482Z" fill="#B28B67"/>
<path fill-rule="evenodd" clip-rule="evenodd" d="M219.094 395.362L192.273 327.801C186.537 315.485 214.239 307.39 218.455 313.121C228.026 326.134 250.774 377.466 253.626 381.343L219.094 395.362Z" fill="#2F3676"/>
<path fill-rule="evenodd" clip-rule="evenodd" d="M147.661 381.813C152.886 374.187 171.889 348.529 182.24 337.913C185.214 334.863 188.117 331.935 190.861 329.206C199.02 321.096 215.268 334.727 207.124 342.114C186.842 360.511 157.25 385.346 154.778 387.56C151.312 390.664 144.378 386.606 147.661 381.813Z" fill="#B28B67"/>
<path fill-rule="evenodd" clip-rule="evenodd" d="M151.397 379.144C150.687 378.212 149.345 377.984 148.46 378.75C147.317 379.737 145.917 381.053 145.371 382.001C144.382 383.714 143.056 387.331 143.056 387.331C145.042 388.479 178.76 407.959 178.76 407.959C178.76 407.959 182.808 404.159 180.021 402.06C177.235 399.96 175.422 398.518 175.422 398.518L163.261 381.752C162.93 381.295 162.288 381.203 161.842 381.546L159.5 383.351C159.5 383.351 155.977 383.043 154.241 382.04C153.322 381.509 152.225 380.23 151.397 379.144Z" fill="#E4E4E4"/>
<path fill-rule="evenodd" clip-rule="evenodd" d="M244.992 397.265C243.911 396.813 242.635 397.287 242.25 398.394C241.754 399.82 241.199 401.66 241.199 402.754C241.199 404.733 241.858 408.529 241.858 408.529C244.152 408.529 283.085 408.529 283.085 408.529C283.085 408.529 284.693 403.212 281.23 402.788C277.768 402.364 275.478 402.023 275.478 402.023L256.569 393.587C256.054 393.357 255.451 393.598 255.237 394.119L254.11 396.853C254.11 396.853 250.905 398.35 248.901 398.35C247.84 398.35 246.251 397.791 244.992 397.265Z" fill="#E4E4E4"/>
<path fill-rule="evenodd" clip-rule="evenodd" d="M182.622 331.176C182.622 331.176 149.185 325.725 137.828 323.721C116.248 319.913 109.955 308.292 113.676 282.937L153.437 282.937C161.329 285.218 219.393 311.149 219.393 311.149C226.358 314.609 225.061 324.81 223.788 328.171C223.71 328.377 188.565 388.569 188.565 388.569L156.039 367.834L182.683 333.619C182.683 333.619 183.739 331.492 182.622 331.176Z" fill="#5C63AB"/>
<path fill-rule="evenodd" clip-rule="evenodd" d="M76.2942 314.833C78.4362 310.485 89.1385 254.518 89.1385 254.518L105.144 254.578C105.144 254.578 86.8584 313.864 85.7308 316.66C84.2661 320.293 86.7542 325.571 88.4414 329.15C88.7024 329.703 88.9442 330.216 89.1493 330.676C86.8082 331.725 85.6837 330.457 84.4981 329.122C83.1591 327.613 81.7422 326.016 78.4067 327.569C77.118 328.169 75.8985 328.879 74.7072 329.572C70.5919 331.965 66.8114 334.164 61.6686 330.989C60.8532 330.485 59.9598 328.59 62.1185 327.109C67.4967 323.418 75.247 316.959 76.2942 314.833ZM211.099 293.026L190.393 272.812L183.516 284.72L205.048 297.424C210.446 305.935 213.617 309.612 214.56 308.456C215.355 307.481 214.991 306.413 214.655 305.429C214.394 304.662 214.15 303.947 214.485 303.366C215.25 302.041 219.573 302.8 223.645 303.696C227.716 304.591 226.774 302.59 225.909 301.545C222.061 298.438 217.124 295.598 211.099 293.026Z" fill="#B28B67"/>
<path fill-rule="evenodd" clip-rule="evenodd" d="M137.912 209.08L144.232 207.996C154.189 243.217 205.348 267.226 208.489 280.392C209.64 285.221 206.168 287.662 207.961 289.132L199.746 295.151C198.354 293.527 195.386 296.498 189.186 294.419C182.986 292.341 137.912 250.786 137.912 209.08Z" fill="#277C7A"/>
<path fill-rule="evenodd" clip-rule="evenodd" d="M127.744 201.802C125.54 201.648 123.628 203.309 123.474 205.513L123.25 208.726C111.355 217.887 81.8726 245.26 74.19 296.217C73.383 301.569 74.8424 304.436 76.0085 306.727C76.8062 308.294 77.4667 309.592 77.1704 311.231L87.9225 314.201C87.9225 312.991 89.2776 312.07 91.0259 310.882C93.568 309.155 96.9414 306.864 98.1887 302.296C99.371 297.966 101.102 292.557 103.171 286.541C103.366 294.509 104.876 301.837 108.165 307.906C116.372 323.048 163.798 306.442 168.752 290.995C171.396 282.752 167.645 275.832 162.683 266.679C156.385 255.061 148.136 239.846 148.544 213.763L148.996 207.299C149.15 205.095 147.488 203.184 145.284 203.03L127.744 201.802Z" fill="#2C9491"/>
<path fill-rule="evenodd" clip-rule="evenodd" d="M404.127 154.082C399.387 156.939 394.729 158.32 392.543 157.756C387.06 156.343 386.556 136.287 390.798 128.38C395.04 120.473 416.848 117.027 417.947 132.693C418.329 138.13 416.046 142.982 412.672 146.942L418.721 175.132H401.152L404.127 154.082Z" fill="#B28B67"/>
<path fill-rule="evenodd" clip-rule="evenodd" d="M388.707 120.961C388.707 124.871 391.772 128.065 395.631 128.271C397.838 128.952 400.674 129.452 403.819 129.663C403.514 130.811 403.348 132.116 403.348 133.59C403.348 134.892 403.492 136.272 403.756 137.674C404.438 136.863 405.35 136.334 406.276 136.334C408.866 136.334 410.668 138.464 410.668 140.726C410.668 143.597 409.011 145.674 406.592 145.84C408.77 150.022 411.784 153.171 414.794 153.171C420.512 153.171 424.577 145.527 424.577 137.307C424.577 137.019 424.571 136.732 424.56 136.447C426.496 137.775 428.289 139.516 430.096 141.27C433.934 144.996 437.831 148.779 443.273 148.779C454.161 148.779 458.485 126.818 443.273 126.818C432.928 126.818 427.839 128.326 423.453 130.556C422.588 128.118 421.269 126.068 419.657 124.636C419.268 124.199 418.673 123.781 417.905 123.394C417.437 123.137 416.951 122.928 416.453 122.771C413.808 121.799 409.977 121.113 405.697 120.964C404.898 120.936 404.114 120.928 403.348 120.938C403.335 116.906 400.063 113.641 396.028 113.641C391.985 113.641 388.707 116.918 388.707 120.961Z" fill="#191847"/>
<path fill-rule="evenodd" clip-rule="evenodd" d="M430.409 236.949L402.903 327.05L389.578 403.674H379.131L393.21 236.949H430.409Z" fill="#997659"/>
<path fill-rule="evenodd" clip-rule="evenodd" d="M440.25 236.949C438.381 286.419 440.58 311.937 440.998 316.431C441.416 320.926 447.142 350.069 460.698 405.183L449.565 401.352C428.142 350.804 420.842 324.534 418.385 317.896C415.928 311.259 409.402 284.276 398.808 236.949H440.25Z" fill="#B28B67"/>
<path fill-rule="evenodd" clip-rule="evenodd" d="M458.047 400.711C459.128 400.259 460.405 400.733 460.79 401.84C461.286 403.269 461.841 405.111 461.841 406.206C461.841 408.188 461.182 411.988 461.182 411.988C458.888 411.988 419.955 411.988 419.955 411.988C419.955 411.988 418.348 406.665 421.81 406.241C425.272 405.816 427.562 405.474 427.562 405.474L446.471 397.028C446.986 396.798 447.589 397.039 447.803 397.561L448.93 400.298C448.93 400.298 452.135 401.797 454.139 401.797C455.2 401.797 456.787 401.237 458.047 400.711Z" fill="#E4E4E4"/>
<path fill-rule="evenodd" clip-rule="evenodd" d="M389.337 400.711C390.418 400.259 391.695 400.733 392.08 401.84C392.576 403.269 393.131 405.111 393.131 406.206C393.131 408.188 392.472 411.988 392.472 411.988C390.178 411.988 351.245 411.988 351.245 411.988C351.245 411.988 349.638 406.665 353.1 406.241C356.562 405.816 358.852 405.474 358.852 405.474L377.761 397.028C378.276 396.798 378.879 397.039 379.093 397.561L380.22 400.298C380.22 400.298 383.425 401.797 385.429 401.797C386.49 401.797 388.078 401.237 389.337 400.711Z" fill="#E4E4E4"/>
<path fill-rule="evenodd" clip-rule="evenodd" d="M434.064 236.949L422.369 282.854H386.647L391.973 236.949H434.064Z" fill="#69A1AC"/>
<path fill-rule="evenodd" clip-rule="evenodd" d="M440.643 236.949C446.415 254.285 442.836 282.854 442.836 282.854H406.383L396.359 236.949H440.643Z" fill="#89C5CC"/>
<path fill-rule="evenodd" clip-rule="evenodd" d="M329.447 163.967L358.081 168.339L352.705 180.991L329.578 171.443C319.522 172.252 314.672 171.932 315.028 170.484C315.328 169.264 316.401 168.912 317.39 168.588C318.161 168.335 318.88 168.1 319.142 167.483C319.74 166.076 316.529 163.081 313.36 160.37C310.19 157.658 312.358 157.206 313.714 157.269C318.517 158.472 323.761 160.704 329.447 163.967ZM346.564 236.556L367.305 216.356L374.19 228.251L352.624 240.948C347.215 249.451 344.038 253.126 343.094 251.971C342.298 250.998 342.664 249.93 343 248.947C343.262 248.181 343.507 247.466 343.171 246.886C342.405 245.563 338.076 246.322 333.998 247.218C329.92 248.114 330.864 246.114 331.731 245.07C335.586 241.964 340.53 239.126 346.564 236.556Z" fill="#B28B67"/>
<path fill-rule="evenodd" clip-rule="evenodd" d="M396.807 165.661C387.509 190.868 371.825 211.394 348.051 233.782L359.628 243.627C387.566 228.551 402.195 219.767 406.722 196.55C407.858 190.723 406.708 172.817 406.547 163.334L396.807 165.661Z" fill="#C44444"/>
<path fill-rule="evenodd" clip-rule="evenodd" d="M442.984 238.802L387.165 246.647C387.165 246.647 398.016 186.242 395.403 164.666C395.315 163.933 396.487 162.454 397.109 162.539C403.936 163.467 410.968 159.179 410.968 159.179C427.187 178.564 435.439 204.077 442.984 238.802Z" fill="#F2F2F2"/>
<path fill-rule="evenodd" clip-rule="evenodd" d="M401.522 193.558C398.05 232.113 402.747 262.614 421.994 259.909L451.756 255.726C452.026 223.351 433.424 181.13 418.79 160.571C418.231 159.786 417.07 158.321 414.864 158.631L406.216 159.847C406.214 159.859 406.212 159.871 406.21 159.883C403.61 160.27 400.758 160.767 397.669 161.307C381.765 164.082 359.59 167.951 333.392 163.44L332.509 178.598C357.177 189.945 381.67 197.978 401.522 193.558Z" fill="#EB5757"/>
</g>
<defs>
<linearGradient id="paint0_linear" x1="230.865" y1="430.564" x2="350.894" y2="11.6659" gradientUnits="userSpaceOnUse">
<stop stop-color="#010101" stop-opacity="0"/>
<stop offset="0.47" stop-color="#010101" stop-opacity="0.47"/>
<stop offset="0.95" stop-color="#010101"/>
</linearGradient>
<linearGradient id="paint1_linear" x1="16771.8" y1="51027.2" x2="30850" y2="48786.7" gradientUnits="userSpaceOnUse">
<stop stop-color="#010101" stop-opacity="0"/>
<stop offset="0.47" stop-color="#010101" stop-opacity="0.47"/>
<stop offset="0.95" stop-color="#010101"/>
</linearGradient>
<linearGradient id="paint2_linear" x1="6853.78" y1="12190.7" x2="3465.28" y2="15862.4" gradientUnits="userSpaceOnUse">
<stop stop-color="#010101" stop-opacity="0"/>
<stop offset="0.95" stop-color="#010101"/>
</linearGradient>
<linearGradient id="paint3_linear" x1="238.123" y1="192.902" x2="356.623" y2="192.902" gradientUnits="userSpaceOnUse">
<stop stop-color="#214753"/>
<stop offset="1" stop-color="#214753" stop-opacity="0"/>
</linearGradient>
<linearGradient id="paint4_linear" x1="238.123" y1="220" x2="356.623" y2="220" gradientUnits="userSpaceOnUse">
<stop stop-color="#214753"/>
<stop offset="1" stop-color="#214753" stop-opacity="0"/>
</linearGradient>
<linearGradient id="paint5_linear" x1="238.123" y1="179.951" x2="356.623" y2="179.951" gradientUnits="userSpaceOnUse">
<stop stop-color="#214753"/>
<stop offset="1" stop-color="#214753" stop-opacity="0"/>
</linearGradient>
<linearGradient id="paint6_linear" x1="238.123" y1="167" x2="356.623" y2="167" gradientUnits="userSpaceOnUse">
<stop stop-color="#214753"/>
<stop offset="1" stop-color="#214753" stop-opacity="0"/>
</linearGradient>
<linearGradient id="paint7_linear" x1="238.123" y1="205.854" x2="356.623" y2="205.854" gradientUnits="userSpaceOnUse">
<stop stop-color="#214753"/>
<stop offset="1" stop-color="#214753" stop-opacity="0"/>
</linearGradient>
<linearGradient id="paint8_linear" x1="238.123" y1="232.951" x2="356.623" y2="232.951" gradientUnits="userSpaceOnUse">
<stop stop-color="#214753"/>
<stop offset="1" stop-color="#214753" stop-opacity="0"/>
</linearGradient>
<linearGradient id="paint9_linear" x1="3993.98" y1="2082.11" x2="5709.19" y2="2157.54" gradientUnits="userSpaceOnUse">
<stop stop-color="#010101" stop-opacity="0"/>
<stop offset="0.47" stop-color="#010101" stop-opacity="0.47"/>
<stop offset="0.95" stop-color="#010101"/>
</linearGradient>
<linearGradient id="paint10_linear" x1="293.271" y1="74.6487" x2="289.329" y2="137.581" gradientUnits="userSpaceOnUse">
<stop stop-color="white" stop-opacity="0"/>
<stop offset="0.95" stop-color="white"/>
</linearGradient>
<linearGradient id="paint11_linear" x1="1162.15" y1="7189.28" x2="3190.49" y2="7375.07" gradientUnits="userSpaceOnUse">
<stop stop-color="#010101" stop-opacity="0"/>
<stop offset="0.95" stop-color="#010101"/>
</linearGradient>
</defs>
</svg>
