<svg width="30" height="19" viewBox="0 0 30 19" fill="none" xmlns="http://www.w3.org/2000/svg">
<path fill-rule="evenodd" clip-rule="evenodd" d="M0 1C0 0.447715 0.447715 0 1 0H29C29.5523 0 30 0.447715 30 1C30 1.55228 29.5523 2 29 2H1C0.447715 2 0 1.55228 0 1ZM5 9.5C5 8.94772 5.44772 8.5 6 8.5L24 8.5C24.5523 8.5 25 8.94772 25 9.5C25 10.0523 24.5523 10.5 24 10.5L6 10.5C5.44772 10.5 5 10.0523 5 9.5ZM10 18C10 17.4477 10.4477 17 11 17H18C18.5523 17 19 17.4477 19 18C19 18.5523 18.5523 19 18 19H11C10.4477 19 10 18.5523 10 18Z" fill="#2C7D98"/>
</svg>
