<svg width="744" height="622" viewBox="0 0 744 622" fill="none" xmlns="http://www.w3.org/2000/svg">
<path d="M741.172 358.138C737.867 395.347 744.411 432.87 740.715 470.051C737.02 507.233 767.521 553.776 741.172 582.352C727.607 596.711 682.734 615.215 652 615.215C628.734 617.734 595.252 607.178 571.096 610.954C526.344 618.026 480.585 611.945 435.307 615.215C373.895 619.633 313.129 622.055 251.522 622C210.57 622 168.041 615.502 131.702 599.196C113.27 591.086 100.154 580.037 85.9999 566.57C38.5438 520.894 25.9733 482.076 49.4836 422.966C72.2727 365.676 142.574 323.882 140.081 262.98C138.578 227.413 118.794 191.272 130.977 157.387C135.814 144.009 145.354 132.354 156.515 122.614C203.641 81.5202 234.486 83.4154 294.41 60.0369C319.318 50.3381 359.654 9.05457 384.02 -0.411729C402.047 -7.38834 435.796 -8.32867 454.56 -5.53803C503.067 1.68482 551.584 28.2148 583.266 62.6054C595.72 76.1482 593.554 97.7466 596.724 115.174C598.647 125.749 604.094 131.83 608.811 141.652C613.528 151.474 625.282 160.444 634.356 167.092L681.516 189.807C705.206 207.166 723.349 233.168 734.57 258.859C747.144 287.819 743.921 327.195 741.172 358.138Z" fill="url(#paint0_linear)"/>
<path fill-rule="evenodd" clip-rule="evenodd" d="M368 92L380 104L368 116L356 104L368 92Z" fill="#C0D8E0"/>
<path fill-rule="evenodd" clip-rule="evenodd" d="M494.671 55.9007L498.594 67.881L486.613 71.804L482.69 59.8237L494.671 55.9007Z" fill="#C0D8E0"/>
<path fill-rule="evenodd" clip-rule="evenodd" d="M486.876 128.651L483.799 140.876L471.574 137.799L474.651 125.574L486.876 128.651Z" fill="#C0D8E0"/>
<path opacity="0.5" fill-rule="evenodd" clip-rule="evenodd" d="M267.876 160.651L264.799 172.876L252.574 169.799L255.651 157.574L267.876 160.651Z" fill="#C0D8E0"/>
<path opacity="0.3" fill-rule="evenodd" clip-rule="evenodd" d="M296.725 256.88L286.856 264.725L279.012 254.856L288.88 247.012L296.725 256.88Z" fill="#C0D8E0"/>
<path opacity="0.3" fill-rule="evenodd" clip-rule="evenodd" d="M676.482 262.845L663.892 263.482L663.255 250.892L675.845 250.255L676.482 262.845Z" fill="#C0D8E0"/>
<path opacity="0.5" fill-rule="evenodd" clip-rule="evenodd" d="M569.686 207.366L557.084 207.686L556.764 195.084L569.366 194.763L569.686 207.366Z" fill="#C0D8E0"/>
<path opacity="0.6" fill-rule="evenodd" clip-rule="evenodd" d="M111.386 285.477C84.9365 304.15 28.4683 256.487 28.8172 210.731C29.166 164.975 95.6779 103.838 116.608 117.088C137.537 130.339 108.846 150 108.846 202.493C108.846 244 137.836 266.805 111.386 285.477Z" fill="#ECF8FB"/>
<path opacity="0.4" fill-rule="evenodd" clip-rule="evenodd" d="M426.059 208.58C399.787 184.233 435.389 99.0302 484.814 86.0268C534.239 73.0234 613.058 134.355 603.623 161.826C594.189 189.297 533.866 168.58 512.261 173.822C490.655 179.065 452.33 232.927 426.059 208.58Z" stroke="#ECF8FB"/>
<path opacity="0.2" d="M755.732 582.288C728.611 588.795 698.566 592.517 668.685 594.223C613.325 597.441 556.934 594.658 501.023 595.075C425.191 595.628 349.948 602.056 273.99 599.333C223.498 597.55 171.229 590.95 126.845 577.455C160.277 562.906 217.763 566.188 258.381 564.501C321.082 561.902 383.922 559.549 447.042 559.267C550.707 558.826 656.285 564.087 755.732 582.288Z" fill="url(#paint1_linear)"/>
<path d="M199.77 575.43H314.96V552.61H199.77V575.43Z" fill="#2C7D98"/>
<path opacity="0.5" d="M199.77 575.43H314.96V552.61H199.77V575.43Z" fill="#214753"/>
<path d="M199.98 571.13H241.39V556.19H199.98V571.13Z" fill="white"/>
<path d="M195 552.64H328.33V524.2H195V552.64Z" fill="#2C7D98"/>
<path d="M195 553H328V524H195V553Z" fill="url(#paint2_linear)"/>
<path d="M256.43 548.85H328.09V527.97H256.43V548.85Z" fill="white"/>
<path d="M200.22 524.35H314.1V503.7H200.22V524.35Z" fill="#2C7D98"/>
<path opacity="0.6" d="M200.22 524.35H314.1V503.7H200.22V524.35Z" fill="#214753"/>
<path d="M245.42 522.37H314.1V505.93H245.42V522.37Z" fill="white"/>
<path d="M214.99 503.74H306.27V488.24H214.99V503.74Z" fill="#2C7D98"/>
<path d="M214.99 503.74H306.27V488.24H214.99V503.74Z" fill="#214753"/>
<path d="M264.27 502.57H306.27V489.1H264.27V502.57Z" fill="white"/>
<path d="M200.65 488.24H315.4V473.9H200.65V488.24Z" fill="#2C7D98"/>
<path d="M200.65 488.24H315.4V473.9H200.65V488.24Z" fill="url(#paint3_linear)"/>
<path d="M273.32 484.8H315.35V476.65H273.32V484.8Z" fill="white"/>
<path d="M210.23 473.78H299.69V456.06H210.23V473.78Z" fill="#2C7D98"/>
<path d="M210.23 473.78H299.69V456.06H210.23V473.78Z" fill="#214753"/>
<path d="M210.39 470.82H242.55V459.22H210.39V470.82Z" fill="white"/>
<path d="M206.53 456.11H310.08V438.39H206.53V456.11Z" fill="#94C5D1"/>
<path d="M254.23 454.57H307.06V440.29H254.23V454.57Z" fill="white"/>
<path d="M210.57 438.32H299.02V422.28H210.57V438.32Z" fill="#2C7D98"/>
<path opacity="0.4" d="M210.57 438.32H299.02V422.28H210.57V438.32Z" fill="#214753"/>
<path d="M246.12 437.17H298.95V423.57H246.12V437.17Z" fill="white"/>
<path d="M222.05 422.36H292.94V412.06H222.05V422.36Z" fill="#2C7D98"/>
<path opacity="0.4" d="M222.05 422.36H292.94V412.06H222.05V422.36Z" fill="url(#paint4_linear)"/>
<path d="M260.33 422.36H292.95V411.9H260.33V422.36Z" fill="white"/>
<path d="M210.91 411.96H300.03V400.82H210.91V411.96Z" fill="#2C7D98"/>
<path d="M267.35 409.29H301.53V402.96H267.35V409.29Z" fill="white"/>
<path opacity="0.5" fill-rule="evenodd" clip-rule="evenodd" d="M682.401 327.876C684.886 324.332 689.498 315.332 692.996 314.066C695.249 313.251 694.592 321.687 694.62 323.296C694.728 329.52 694.122 335.704 693.374 341.875C692.026 353.005 687.618 362.918 681.572 372.391C678.461 377.265 674.812 382.199 669.758 385.24C667.432 386.641 664.632 386.875 662.335 388.082C659.659 389.487 661.116 388.351 659.911 391.139C658.236 395.01 657.7 400.005 656.926 404.135C653.368 423.097 644.755 523.333 646.248 542.62C646.381 544.33 643.997 544.739 643.878 542.652C643.246 531.586 648.719 454.954 651.48 429.893C654.242 404.832 657.036 382.692 659.838 374.022C663.237 363.503 669.376 350.854 674.486 341.044C676.86 336.487 679.447 332.087 682.401 327.876Z" fill="#69A1AC"/>
<path fill-rule="evenodd" clip-rule="evenodd" d="M700.847 450.788C707.314 446.04 714.314 455.001 708.462 459.749C705.227 462.374 701.845 461.44 699.941 459.253C698.705 460.76 697.548 462.335 696.436 463.666C693.05 467.72 689.849 471.872 686.789 476.12C680.434 484.945 674.988 494.269 669.294 503.423C663.674 512.457 658.099 521.537 653.006 530.8C648.691 538.648 642.94 547.88 641.462 556.484C643.704 538.237 652.209 520.699 662.338 504.613C672.383 488.659 683.912 471.236 699.467 458.645C697.884 456.317 697.84 452.994 700.847 450.788Z" fill="#C1DEE2"/>
<path opacity="0.5" fill-rule="evenodd" clip-rule="evenodd" d="M578.131 406.287C581.75 406.995 587.664 415.182 590.647 418.301C594.192 422.007 597.408 425.958 600.44 430.097C606.967 439.007 612.804 448.48 617.767 458.359C625.859 474.464 632.342 490.995 637.046 508.532C639.926 519.267 641.791 530.393 642.896 541.442C643.105 543.526 645.289 559.591 642.141 560.024C639.31 560.413 640.185 547.825 640.048 546.113C638.504 526.795 633.879 507.998 627.445 489.79C626.044 485.823 624.742 480.965 622.501 477.396C620.887 474.825 622.489 475.721 619.653 474.748C617.218 473.912 614.443 474.116 611.949 473.093C606.532 470.871 602.194 466.558 598.391 462.22C591.002 453.789 585.146 444.667 582.093 433.864C580.4 427.874 578.844 421.849 577.981 415.673C577.757 414.077 575.801 405.831 578.131 406.287Z" fill="#69A1AC"/>
<path opacity="0.5" fill-rule="evenodd" clip-rule="evenodd" d="M592.413 270.079C606.044 293.72 617.246 319.689 624.479 345.991C628.862 361.928 631.927 378.281 634.972 394.516C639.686 419.653 644.146 444.789 645.415 470.373C646.691 496.106 649.215 525.785 640.789 550.57C644.997 525.407 640.99 498.623 640.281 473.304C639.942 461.217 638.959 449.248 637.67 437.232C636.42 425.575 634.376 413.974 632.474 402.409C631.547 396.777 630.573 391.153 629.582 385.532C629.286 383.855 629.161 378.879 628.098 377.734C627.027 376.581 621.564 376.11 619.849 375.264C616.396 373.56 613.147 371.14 610.272 368.582C604.761 363.679 599.967 357.272 596.182 350.957C587.427 336.344 583.926 318.511 584.103 301.588C584.137 298.302 589.421 262.92 587.299 262.433C587.427 262.283 587.548 262.128 587.662 261.968C589.268 264.658 590.845 267.366 592.413 270.079Z" fill="#89C5CC"/>
<path opacity="0.5" fill-rule="evenodd" clip-rule="evenodd" d="M739.543 355.342C739.754 355.039 741.123 352.929 740.433 353.063C741.837 352.789 738.503 355.39 742 353.794C740.34 355.362 741.298 357.399 741.32 359.51C741.356 362.937 740.783 366.335 740.137 369.689C739.118 374.989 737.598 380.143 735.393 385.073C730.587 395.816 722.426 406.159 712.737 412.876C707.953 416.192 703.266 417.321 697.811 418.848C694.365 419.812 694.092 421.595 692.263 424.939C688.455 431.903 684.715 438.842 681.356 446.041C677.347 454.638 673.454 463.244 669.782 471.992C657.412 501.459 647.344 531.987 642.057 563.581C641.927 544.962 646.234 525.787 651.667 508.041C655.624 495.112 660.776 482.648 666.271 470.311C667.603 467.322 669.621 463.477 670.186 460.177C670.582 457.865 669.372 455.642 668.818 453.206C666.657 443.722 666.811 433.096 668.709 423.561C670.801 413.047 676.851 408.166 687.086 406.677C690.829 406.132 695.586 406.332 699.018 404.736C702.758 402.998 704.3 397.286 706.427 393.619C712.138 383.768 718.923 374.321 726.715 366.021C728.873 363.723 731.193 361.602 733.654 359.637C735.207 358.397 738.486 356.869 739.543 355.342Z" fill="#89C5CC"/>
<path fill-rule="evenodd" clip-rule="evenodd" d="M622.2 549.203C621.754 546.183 624.094 543.473 627.146 543.473H658.735C661.787 543.473 664.127 546.183 663.682 549.203L662.179 559.391C660.772 568.932 652.585 576 642.941 576C633.297 576 625.109 568.932 623.702 559.391L622.2 549.203Z" fill="#C1DEE2"/>
<path d="M629.56 552.61H514.37V575.43H629.56V552.61Z" fill="#2C7D98"/>
<path d="M629.56 552.61H514.37V575.43H629.56V552.61Z" fill="#214753"/>
<path d="M629.36 556.19H587.95V571.13H629.36V556.19Z" fill="white"/>
<path d="M634.33 524.2H501V552.64H634.33V524.2Z" fill="#2C7D98"/>
<path d="M634.33 524.2H501V552.64H634.33V524.2Z" fill="url(#paint5_linear)"/>
<path d="M572.91 527.97H501.25V548.85H572.91V527.97Z" fill="white"/>
<path d="M629.12 503.7H515.24V524.35H629.12V503.7Z" fill="#2C7D98"/>
<path opacity="0.2" d="M629.12 503.7H515.24V524.35H629.12V503.7Z" fill="url(#paint6_linear)"/>
<path d="M583.91 505.93H515.23V522.37H583.91V505.93Z" fill="white"/>
<path d="M614.34 488.24H523.06V503.74H614.34V488.24Z" fill="#2C7D98"/>
<path opacity="0.4" d="M614.34 488.24H523.06V503.74H614.34V488.24Z" fill="url(#paint7_linear)"/>
<path d="M565.06 489.09H523.06V502.56H565.06V489.09Z" fill="white"/>
<path d="M628.68 473.9H513.93V488.24H628.68V473.9Z" fill="#2C7D98"/>
<path d="M628.68 473.9H513.93V488.24H628.68V473.9Z" fill="url(#paint8_linear)"/>
<path d="M556.01 476.65H513.98V484.8H556.01V476.65Z" fill="white"/>
<path d="M619.1 456.05H529.64V473.77H619.1V456.05Z" fill="#2C7D98"/>
<path opacity="0.6" d="M619.1 456.05H529.64V473.77H619.1V456.05Z" fill="url(#paint9_linear)"/>
<path d="M618.94 459.22H586.78V470.82H618.94V459.22Z" fill="white"/>
<path d="M622.81 438.39H519.26V456.11H622.81V438.39Z" fill="#8FBCC7"/>
<path d="M575.11 440.29H522.28V454.57H575.11V440.29Z" fill="white"/>
<path d="M618.76 422.28H530.31V438.32H618.76V422.28Z" fill="#2C7D98"/>
<path d="M618.76 422.28H530.31V438.32H618.76V422.28Z" fill="#A6DCE9"/>
<path d="M583.21 423.58H530.38V437.18H583.21V423.58Z" fill="white"/>
<path d="M618.42 410.83H529.3V421.97H618.42V410.83Z" fill="#C0D8E0"/>
<path d="M561.98 412.96H527.8V419.29H561.98V412.96Z" fill="white"/>
<path d="M512.56 557.96H397.37V580.78H512.56V557.96Z" fill="#2C7D98"/>
<path d="M512.56 557.96H397.37V580.78H512.56V557.96Z" fill="#214753"/>
<path d="M512.35 561.54H470.94V576.48H512.35V561.54Z" fill="white"/>
<path d="M517.33 529.55H384V557.99H517.33V529.55Z" fill="#2C7D98"/>
<path d="M517.33 529.55H384V557.99H517.33V529.55Z" fill="url(#paint10_linear)"/>
<path d="M455.9 533.32H384.24V554.2H455.9V533.32Z" fill="white"/>
<path fill-rule="evenodd" clip-rule="evenodd" d="M451.04 394.23L429.59 464.117L419.2 523.551H411.053L422.032 394.23H451.04Z" fill="#997659"/>
<path fill-rule="evenodd" clip-rule="evenodd" d="M458.713 394.23C457.257 432.602 458.971 452.395 459.297 455.881C459.623 459.367 464.088 481.972 474.659 524.722L465.977 521.75C449.272 482.542 443.579 462.165 441.663 457.017C439.747 451.868 434.659 430.939 426.397 394.23H458.713Z" fill="#B28B67"/>
<path fill-rule="evenodd" clip-rule="evenodd" d="M472.154 521.429C473.243 521.004 474.517 521.473 474.885 522.582C475.224 523.604 475.55 524.778 475.55 525.515C475.55 527.052 475.036 530 475.036 530C473.248 530 442.887 530 442.887 530C442.887 530 441.634 525.871 444.334 525.542C447.034 525.213 448.82 524.947 448.82 524.947L463.36 518.487C463.874 518.259 464.475 518.499 464.69 519.019L465.482 520.933C465.482 520.933 467.981 522.095 469.544 522.095C470.252 522.095 471.262 521.777 472.154 521.429Z" fill="#E4E4E4"/>
<path fill-rule="evenodd" clip-rule="evenodd" d="M418.574 521.429C419.663 521.004 420.937 521.473 421.305 522.582C421.644 523.604 421.97 524.778 421.97 525.515C421.97 527.052 421.456 530 421.456 530C419.668 530 389.307 530 389.307 530C389.307 530 388.054 525.871 390.754 525.542C393.454 525.213 395.24 524.947 395.24 524.947L409.78 518.487C410.294 518.259 410.895 518.499 411.11 519.019L411.902 520.933C411.902 520.933 414.402 522.095 415.964 522.095C416.672 522.095 417.682 521.777 418.574 521.429Z" fill="#E4E4E4"/>
<path fill-rule="evenodd" clip-rule="evenodd" d="M453.89 394.23L444.77 429.837H416.914L421.067 394.23H453.89Z" fill="#69A1AC"/>
<path fill-rule="evenodd" clip-rule="evenodd" d="M459.02 394.23C463.521 407.677 460.73 429.837 460.73 429.837H432.304L424.487 394.23H459.02Z" fill="#89C5CC"/>
<path fill-rule="evenodd" clip-rule="evenodd" d="M442.49 332.143C435.976 332.143 433.606 324.37 429.905 320.105C427.257 317.053 422.738 317.963 421.4 313.69C418.036 302.946 427.04 295.385 438.785 295.385C450.531 295.385 458.45 302.017 460.16 311.986C461.87 321.956 454.236 332.143 442.49 332.143Z" fill="#191847"/>
<path fill-rule="evenodd" clip-rule="evenodd" d="M409.218 284.969L401.534 263.8C401.642 258.696 401.212 254.281 400.243 250.553C399.781 249.605 398.665 248.297 397.996 251.478C397.326 254.658 396.479 257.974 395.296 258.096C394.113 258.217 393.397 255.966 391.716 256.419C390.595 256.721 392.184 260.148 396.482 266.701L398.584 286.062L409.218 284.969Z" fill="#B28B67"/>
<path fill-rule="evenodd" clip-rule="evenodd" d="M434.097 348.799L437.353 345.004C423.593 326.865 414.743 304.29 410.802 277.277L385.994 281.037C396.214 311.81 411.271 336.027 434.097 348.799Z" fill="#191847"/>
<path fill-rule="evenodd" clip-rule="evenodd" d="M435.117 330.744C431.426 332.962 427.799 334.033 426.097 333.596C421.828 332.499 421.435 316.935 424.738 310.799C428.041 304.663 445.022 301.989 445.878 314.146C446.175 318.365 444.397 322.131 441.77 325.203L446.48 347.08H432.8L435.117 330.744Z" fill="#B28B67"/>
<path fill-rule="evenodd" clip-rule="evenodd" d="M444.988 305.61C455.467 315.836 444.948 326.704 442.066 326.704C441.88 325.228 441.313 323.793 440.481 322.427C440.923 321.857 441.185 321.148 441.185 320.38C441.185 318.498 439.613 316.972 437.675 316.972C437.07 316.972 436.501 317.121 436.004 317.383C431.803 313.812 426.534 311.323 423.918 310.833C419.367 309.982 434.51 295.385 444.988 305.61Z" fill="#191847"/>
<path fill-rule="evenodd" clip-rule="evenodd" d="M460.16 399.343H416.27C416.27 399.343 431.522 362.382 431.522 336.548L444.762 334.582C455.167 351.26 458.105 371.794 460.16 399.343Z" fill="#DDE3E9"/>
<path fill-rule="evenodd" clip-rule="evenodd" d="M449.346 342.841C458.048 360.596 468.078 387.531 469.65 411.048H430.32C430.32 411.048 435.741 360.549 436.248 343.885L439.448 334.774C439.448 334.774 440.068 334.747 440.894 334.712C437.93 318.62 436.132 291.524 447.002 259.87L466.54 268.583C450.036 299.337 448.951 330.119 449.346 342.841Z" fill="#2F3676"/>
<path fill-rule="evenodd" clip-rule="evenodd" d="M459.044 411.272C459.273 401.189 458.375 391.721 456.878 383.153C456.095 393.32 454.458 405.553 451.04 411.272H459.044Z" fill="black" fill-opacity="0.1"/>
<path fill-rule="evenodd" clip-rule="evenodd" d="M452.687 393.662L438.5 387.089V393.662H452.687Z" fill="white" fill-opacity="0.2"/>
<path d="M419 154H415V1.84903L419 -7V154Z" fill="#2C7D98"/>
<path d="M419 154H415V3.20348L419 -5.6123V154Z" fill="url(#paint11_linear)"/>
<path d="M474 218.996C474.015 230.719 470.164 242.127 463.032 251.482L462.917 251.64C455.103 261.845 443.882 268.964 431.259 271.728C418.635 274.492 405.432 272.719 394.006 266.727C382.579 260.735 373.675 250.914 368.883 239.017C364.091 227.121 363.722 213.924 367.844 201.783C371.966 189.642 380.309 179.349 391.384 172.741C402.459 166.133 415.544 163.64 428.302 165.709C441.06 167.778 452.66 174.273 461.031 184.034C469.402 193.795 473.999 206.187 474 218.996Z" fill="#A6DCE9"/>
<path d="M402.287 192.834C399.322 194.058 396.049 194.349 393.005 195.353C389.961 196.357 386.908 198.384 386.125 201.52C385.72 203.097 385.931 204.85 385.157 206.277C384.127 208.197 381.716 208.92 380.256 210.505C377.476 213.571 379.306 218.83 382.702 221.2C386.098 223.57 390.436 223.931 394.501 224.627C395.613 224.716 396.673 225.136 397.545 225.834C399.912 228.098 397.29 232.194 398.293 235.313C398.856 237.075 400.519 238.281 401.275 239.973C402.727 243.197 400.528 246.756 399.076 249.98C396.457 255.863 396.221 262.533 398.416 268.586C398.315 268.732 398.203 268.87 398.082 269C392.291 266.456 386.989 262.92 382.412 258.552C377.951 252.288 374.423 245.461 374.792 237.956C374.994 233.886 376.349 229.957 376.605 225.904C377.027 219.324 374.651 212.179 377.872 206.435C379.631 203.255 383.063 199.767 381.145 196.683C377.757 197.177 374.106 197.256 371 196.075C374.811 188.126 380.506 181.23 387.587 175.988C394.669 170.746 402.923 167.317 411.631 166C414.975 175.567 412.317 188.605 402.287 192.834Z" fill="url(#paint12_linear)"/>
<path d="M474 219.196C474.004 222.604 473.678 226.005 473.029 229.353C471.575 230.516 470.214 231.787 468.956 233.153C464.633 238.139 463.697 245.057 462.993 251.587C462.993 251.728 462.993 251.868 462.949 252C462.949 251.912 462.949 251.833 462.877 251.745C462.533 250.068 461.791 248.495 460.712 247.154C459.482 245.847 457.298 245.197 455.801 246.224C455.088 244.468 454.372 242.727 453.653 241.001C449.197 241.001 444.598 241.001 440.409 239.447C436.22 237.894 432.753 234.918 429.402 232.012C429.842 226.978 429.746 221.911 429.117 216.896C442.134 215.505 454.175 209.439 462.94 199.858C455.101 199.473 447.33 201.448 440.659 205.52C439.233 206.398 437.789 207.381 436.122 207.521C435.066 207.547 434.013 207.405 433.003 207.1L422.228 204.405C420.882 197.576 425.686 190.72 431.862 187.341C436.496 184.812 442.12 185.304 446.567 183.092C449.616 181.582 450.507 178.94 453.172 177H453.225C459.698 182.032 464.931 188.442 468.529 195.75C472.127 203.058 473.997 211.074 474 219.196Z" fill="url(#paint13_linear)"/>
<path d="M413.6 145.69C417.879 145.704 422.139 146.255 426.28 147.33C427.72 147.585 429.06 148.236 430.15 149.21C430.679 149.71 431.009 150.385 431.077 151.11C431.145 151.835 430.947 152.56 430.52 153.15C431.324 153.115 432.122 153.307 432.822 153.705C433.522 154.103 434.095 154.69 434.476 155.399C434.857 156.108 435.031 156.911 434.976 157.714C434.922 158.517 434.643 159.289 434.17 159.94C435.149 160.314 436.044 160.879 436.802 161.601C437.561 162.324 438.169 163.19 438.59 164.15C438.938 164.834 439.112 165.593 439.098 166.36C439.084 167.127 438.882 167.879 438.51 168.55C437.16 170.55 434.23 170.46 431.82 170.22C421.875 169.258 411.84 169.903 402.1 172.13C399.92 172.63 397.15 173.01 395.86 171.13C394.41 169.07 396.23 166.35 397.95 164.52C396.36 164.71 395.12 162.85 395.38 161.26C395.795 159.696 396.803 158.354 398.19 157.52C399.562 156.699 400.811 155.689 401.9 154.52C400.29 154.39 399.4 152.31 400.02 150.82C401.54 147.12 410.26 145.68 413.6 145.69Z" fill="#2C7D98"/>
<path d="M438.92 167.67C438.831 167.983 438.693 168.28 438.51 168.55C437.16 170.55 434.23 170.46 431.82 170.23C421.876 169.259 411.84 169.901 402.1 172.13C399.99 172.6 397.34 172.98 396.02 171.36C395.961 171.305 395.908 171.245 395.86 171.18C394.42 169.12 396.23 166.39 397.95 164.56C396.36 164.75 395.12 162.89 395.38 161.3C395.797 159.734 396.804 158.39 398.19 157.55C399.56 156.732 400.806 155.722 401.89 154.55C400.29 154.42 399.4 152.34 400.02 150.85C401.56 147.14 410.26 145.7 413.6 145.71C417.882 145.721 422.146 146.272 426.29 147.35C427.727 147.603 429.065 148.254 430.15 149.23C430.679 149.73 431.009 150.405 431.077 151.13C431.145 151.855 430.947 152.58 430.52 153.17C431.325 153.133 432.124 153.324 432.825 153.721C433.527 154.118 434.102 154.705 434.484 155.415C434.866 156.124 435.041 156.927 434.987 157.731C434.933 158.535 434.654 159.308 434.18 159.96C436.148 160.726 437.733 162.24 438.59 164.17C439.1 165.264 439.216 166.5 438.92 167.67Z" fill="url(#paint14_linear)"/>
<path opacity="0.6" d="M438.92 167.67C438.831 167.983 438.693 168.28 438.51 168.55C437.16 170.55 434.23 170.46 431.82 170.23C421.876 169.259 411.84 169.901 402.1 172.13C399.99 172.6 397.34 172.98 396.02 171.36C396.047 171.111 396.125 170.87 396.251 170.652C396.377 170.435 396.547 170.247 396.75 170.1C397.026 169.929 397.326 169.801 397.64 169.72C401.916 168.265 406.299 167.149 410.75 166.38C412.883 166.09 415.029 165.91 417.18 165.84C418.96 165.79 420.75 165.79 422.54 165.79C425.647 165.83 428.753 166.003 431.86 166.31C433.39 166.46 434.93 166.65 436.45 166.87C437.19 166.95 438.54 166.91 438.92 167.67Z" fill="#ECF8FB"/>
<path opacity="0.3" d="M410.83 154.17H427.41C428.5 154.288 429.6 154.057 430.55 153.51C430.855 153.328 431.081 153.038 431.183 152.697C431.285 152.357 431.255 151.99 431.1 151.67C430.857 151.395 430.536 151.199 430.18 151.11C425.41 149.41 420.18 149.44 415.18 149.74C412.815 149.79 410.464 150.126 408.18 150.74C406.74 151.18 402.95 152.56 402.74 154.32C403.83 154.59 405.47 154.16 406.65 154.12C408 154.17 409.42 154.17 410.83 154.17Z" fill="#ECF8FB"/>
<path opacity="0.5" d="M410.54 161.36C413.07 161.01 415.62 160.9 418.17 160.79C422.69 160.59 427.17 160.4 431.74 160.45C432.421 160.518 433.109 160.415 433.74 160.15C434.048 160.011 434.296 159.766 434.438 159.459C434.579 159.152 434.605 158.804 434.51 158.48C434.22 157.8 433.33 157.66 432.59 157.62C426.396 157.288 420.186 157.352 414 157.81C412.168 157.906 410.346 158.143 408.55 158.52C405.368 159.385 402.3 160.624 399.41 162.21C398.68 162.57 397.25 163.48 398.58 164.07C399.58 164.49 401.42 163.46 402.36 163.19C405.038 162.382 407.772 161.77 410.54 161.36Z" fill="#ECF8FB"/>
<path d="M448.773 254.846C449.175 255.575 449.508 256.332 449.771 257.113C450.178 258.654 449.709 260.35 448.856 261.907C447.929 263.433 446.812 264.891 445.525 266.256C447.129 266.09 448.617 265.273 449.892 264.359C453.042 262.094 455.341 259.148 456.45 255.951C456.567 255.71 456.576 255.453 456.477 255.228C456.366 255.089 456.214 254.978 456.032 254.903C454.677 254.169 453.853 252.952 452.702 252.021C451.887 251.367 449.684 250.196 448.37 251.132C447.144 251.996 448.35 253.957 448.773 254.846Z" fill="url(#paint15_linear)"/>
<path fill-rule="evenodd" clip-rule="evenodd" d="M461.196 266.546C461.196 266.546 461.771 264.61 462.557 260.927C462.941 259.126 467.547 252.884 470.893 249.158C472.237 247.662 471.204 246.364 470.495 246.117C464.725 244.109 462.359 248.544 458.546 251.554C454.369 254.852 453.198 248.447 449.87 250.994C451.674 253.358 455.583 257.634 455.107 261.124C454.79 263.45 455.145 263.432 455.145 263.432L461.196 266.546Z" fill="#B28B67"/>
<defs>
<linearGradient id="paint0_linear" x1="394.976" y1="-7" x2="394.976" y2="622.001" gradientUnits="userSpaceOnUse">
<stop offset="0.260417" stop-color="#ECF8FB"/>
<stop offset="1" stop-color="#ECF8FB" stop-opacity="0"/>
</linearGradient>
<linearGradient id="paint1_linear" x1="354.45" y1="605.135" x2="354.2" y2="553.091" gradientUnits="userSpaceOnUse">
<stop stop-color="#2C7D98"/>
<stop offset="1" stop-color="#2C7D98" stop-opacity="0"/>
</linearGradient>
<linearGradient id="paint2_linear" x1="18052.9" y1="12785.8" x2="18036.3" y2="14511" gradientUnits="userSpaceOnUse">
<stop stop-opacity="0"/>
<stop offset="0.99"/>
</linearGradient>
<linearGradient id="paint3_linear" x1="15131.9" y1="5539.66" x2="15136.4" y2="7206.02" gradientUnits="userSpaceOnUse">
<stop stop-opacity="0"/>
<stop offset="0.99"/>
</linearGradient>
<linearGradient id="paint4_linear" x1="9449.09" y1="3665.12" x2="9447.36" y2="3110.22" gradientUnits="userSpaceOnUse">
<stop stop-opacity="0"/>
<stop offset="0.99"/>
</linearGradient>
<linearGradient id="paint5_linear" x1="-213634" y1="12547" x2="-213618" y2="14238.9" gradientUnits="userSpaceOnUse">
<stop stop-opacity="0"/>
<stop offset="0.99"/>
</linearGradient>
<linearGradient id="paint6_linear" x1="-182780" y1="8816.62" x2="-162979" y2="3822.68" gradientUnits="userSpaceOnUse">
<stop stop-opacity="0"/>
<stop offset="0.99"/>
</linearGradient>
<linearGradient id="paint7_linear" x1="-145586" y1="6476.78" x2="-145584" y2="6061.35" gradientUnits="userSpaceOnUse">
<stop stop-opacity="0"/>
<stop offset="0.99"/>
</linearGradient>
<linearGradient id="paint8_linear" x1="-183139" y1="5537.44" x2="-183144" y2="7203.8" gradientUnits="userSpaceOnUse">
<stop stop-opacity="0"/>
<stop offset="0.99"/>
</linearGradient>
<linearGradient id="paint9_linear" x1="-142136" y1="6770.84" x2="-142138" y2="6022.92" gradientUnits="userSpaceOnUse">
<stop stop-opacity="0"/>
<stop offset="0.99"/>
</linearGradient>
<linearGradient id="paint10_linear" x1="-228839" y1="12704.2" x2="-228823" y2="14396.4" gradientUnits="userSpaceOnUse">
<stop stop-opacity="0"/>
<stop offset="0.99"/>
</linearGradient>
<linearGradient id="paint11_linear" x1="417" y1="-5.6123" x2="417" y2="154" gradientUnits="userSpaceOnUse">
<stop offset="0.328125" stop-color="#214753" stop-opacity="0"/>
<stop offset="0.979167" stop-color="#214753"/>
</linearGradient>
<linearGradient id="paint12_linear" x1="5492.06" y1="26959.4" x2="263.418" y2="-10774" gradientUnits="userSpaceOnUse">
<stop/>
<stop offset="0.807292" stop-opacity="0"/>
</linearGradient>
<linearGradient id="paint13_linear" x1="9977" y1="19425" x2="7708.84" y2="-8394.28" gradientUnits="userSpaceOnUse">
<stop offset="0.01"/>
<stop offset="0.13" stop-opacity="0.69"/>
<stop offset="0.25" stop-opacity="0.32"/>
<stop offset="1" stop-opacity="0"/>
</linearGradient>
<linearGradient id="paint14_linear" x1="415.81" y1="140.89" x2="418.72" y2="196.77" gradientUnits="userSpaceOnUse">
<stop stop-color="white" stop-opacity="0"/>
<stop offset="0.99" stop-color="white"/>
</linearGradient>
<linearGradient id="paint15_linear" x1="4717.67" y1="961.651" x2="3748.33" y2="4339.58" gradientUnits="userSpaceOnUse">
<stop stop-opacity="0"/>
<stop offset="0.99"/>
</linearGradient>
</defs>
</svg>
