<svg width="237" height="216" viewBox="0 0 237 216" fill="none" xmlns="http://www.w3.org/2000/svg">
<g filter="url(#filter0_d)">
<path d="M236.281 133.218C236.284 134.288 236.065 135.348 235.638 136.332C235.212 137.315 234.586 138.201 233.801 138.934C232.457 140.203 230.722 140.986 228.876 141.156C228.531 141.185 228.184 141.185 227.84 141.156L170.005 139.999C167.787 139.975 165.667 139.092 164.095 137.538C162.523 135.984 161.623 133.882 161.586 131.679C161.582 130.608 161.798 129.548 162.22 128.563C162.643 127.578 163.263 126.689 164.043 125.951C165.649 124.433 167.789 123.602 170.005 123.636H171.973C171.566 122.217 171.358 120.749 171.355 119.274C171.352 117.165 171.782 115.077 172.619 113.139C173.456 111.201 174.682 109.453 176.223 108.003C177.582 106.711 179.158 105.665 180.88 104.913C183.111 103.947 185.526 103.473 187.96 103.524L192.873 103.628C195.93 103.69 198.914 104.567 201.513 106.167C204.113 107.767 206.232 110.032 207.649 112.724C209.066 112.054 210.622 111.725 212.19 111.763H213.46C216.092 111.79 218.61 112.837 220.478 114.68C222.346 116.523 223.416 119.018 223.462 121.634V122.109C223.461 123.01 223.327 123.907 223.066 124.77L227.851 124.863C230.074 124.893 232.197 125.782 233.771 127.341C235.345 128.901 236.245 131.009 236.281 133.218Z" fill="white"/>
</g>
<path opacity="0.5" d="M228.876 141.156C228.531 141.185 228.184 141.185 227.84 141.156L170.005 139.999C167.787 139.975 165.667 139.092 164.095 137.538C162.523 135.984 161.623 133.882 161.586 131.679C161.582 130.608 161.798 129.548 162.22 128.563C162.643 127.578 163.263 126.689 164.043 125.951C161.714 140.149 176.677 138.113 176.677 138.113H214.251L228.876 141.156Z" fill="url(#paint0_linear)"/>
<path d="M176.211 125.349L172.007 123.764C171.6 122.345 171.393 120.877 171.39 119.401C171.387 117.292 171.817 115.205 172.654 113.267C173.491 111.329 174.717 109.581 176.257 108.13C177.617 106.838 179.193 105.793 180.915 105.041C169.283 114.946 176.211 125.349 176.211 125.349Z" fill="url(#paint1_linear)"/>
<path opacity="0.06" d="M109.045 216C149.906 216 183.03 186.267 183.03 149.589C183.03 112.912 149.906 83.1785 109.045 83.1785C68.1845 83.1785 35.0603 112.912 35.0603 149.589C35.0603 186.267 68.1845 216 109.045 216Z" fill="#214753"/>
<path d="M197.903 136.597C197.923 152.015 192.873 167.017 183.523 179.32L183.372 179.528C173.126 192.948 158.414 202.312 141.863 205.946C125.312 209.581 107.999 207.25 93.0178 199.37C78.0363 191.49 66.3613 178.573 60.0779 162.928C53.7944 147.282 53.3118 129.927 58.7162 113.96C64.1205 97.9937 75.0599 84.4564 89.5805 75.7659C104.101 67.0754 121.258 63.7978 137.985 66.5183C154.713 69.2389 169.923 77.7804 180.899 90.6175C191.875 103.455 197.902 119.751 197.903 136.597Z" fill="#A6DCE9"/>
<path opacity="0.15" d="M110.598 78.3672C108.093 78.1511 105.573 78.1899 103.076 78.4829C102.75 78.4995 102.433 78.5991 102.156 78.7722C101.997 78.9211 101.87 79.1003 101.782 79.2991C101.694 79.4979 101.647 79.7122 101.644 79.9294C101.295 83.2852 103.973 86.2014 106.86 87.9718C114.673 92.7857 124.524 92.6006 133.152 95.7481C133.975 95.9649 134.706 96.4397 135.236 97.102C135.596 97.8198 135.772 98.6148 135.749 99.4164C136.133 103.941 138.66 108.014 139.498 112.469C140.336 116.925 139.44 121.588 140.127 126.078C142.956 123.081 147.777 122.606 150.606 119.644C153.261 116.913 153.785 112.84 154.181 109.067L155.252 98.7221C155.451 97.9761 155.369 97.1837 155.021 96.4935C154.674 95.8033 154.085 95.2626 153.366 94.9728C140.627 86.7915 125.7 79.6633 110.598 78.3672Z" fill="url(#paint2_linear)"/>
<path d="M103.448 101.661C99.5245 103.27 95.193 103.652 91.1642 104.971C87.1354 106.29 83.095 108.951 82.0587 113.071C81.5231 115.142 81.8026 117.445 80.7779 119.32C79.4156 121.842 76.2252 122.791 74.2923 124.874C70.6128 128.901 73.0348 135.81 77.5293 138.923C82.0238 142.035 87.7642 142.51 93.1437 143.424C94.6158 143.541 96.0189 144.093 97.1724 145.009C100.305 147.983 96.8348 153.364 98.1622 157.461C98.9074 159.775 101.108 161.36 102.109 163.582C104.031 167.817 101.12 172.492 99.1985 176.728C95.7331 184.454 95.42 193.216 98.3252 201.167C98.1913 201.359 98.0434 201.541 97.8827 201.711C90.2199 198.37 83.2022 193.725 77.145 187.987C71.2416 179.76 66.5724 170.791 67.0615 160.932C67.3293 155.586 69.1224 150.425 69.4601 145.102C70.019 136.458 66.8752 127.073 71.1368 119.528C73.4656 115.351 78.0067 110.768 75.4683 106.718C70.9854 107.366 66.1532 107.47 62.043 105.92C67.0866 95.4775 74.6226 86.4192 83.9945 79.5336C93.3664 72.6479 104.29 68.1438 115.814 66.4133C120.239 78.9804 116.722 96.1067 103.448 101.661Z" fill="url(#paint3_linear)"/>
<path d="M197.903 136.597C197.908 141.09 197.483 145.573 196.634 149.985C194.736 151.52 192.957 153.195 191.313 154.996C185.666 161.569 184.443 170.687 183.523 179.297C183.523 179.482 183.523 179.667 183.465 179.841C183.465 179.725 183.465 179.621 183.372 179.505C182.923 177.294 181.953 175.22 180.542 173.453C178.936 171.729 176.083 170.873 174.127 172.226C173.195 169.912 172.26 167.617 171.321 165.341C165.499 165.341 159.49 165.341 154.018 163.293C148.545 161.245 144.016 157.322 139.638 153.492C140.212 146.855 140.088 140.176 139.265 133.565C156.272 131.731 172.003 123.735 183.453 111.104C173.213 110.597 163.059 113.2 154.344 118.568C152.481 119.725 150.595 121.021 148.417 121.206C147.037 121.241 145.661 121.053 144.342 120.651L130.264 117.098C128.506 108.095 134.782 99.0577 142.851 94.6026C148.906 91.2699 156.253 91.9179 162.064 89.0018C166.046 87.0115 167.21 83.5283 170.692 80.9709H170.762C179.219 87.6038 186.055 96.0545 190.755 105.689C195.456 115.323 197.9 125.89 197.903 136.597Z" fill="url(#paint4_linear)"/>
<path d="M149.377 122.481C149.044 123.829 148.729 125.406 149.377 126.537C149.696 127.021 150.116 127.388 150.591 127.6C151.145 127.926 151.76 128.056 152.37 127.978C152.98 127.899 153.561 127.614 154.047 127.154C154.556 126.468 154.916 125.635 155.094 124.732C155.961 121.453 156.581 118.084 156.948 114.665C157.017 114.351 157.017 114.019 156.948 113.705C156.803 113.376 156.571 113.118 156.29 112.974C154.817 112.003 152.509 111.226 151.657 113.374C150.61 116.139 150.119 119.556 149.377 122.481Z" fill="#B28B67"/>
<path d="M154.158 123.798C154.549 123.745 154.947 123.78 155.322 123.902C155.578 124.043 155.8 124.236 155.974 124.469L159.991 128.947C160.771 129.815 161.587 131.007 161.039 132.037C160.846 132.324 160.592 132.564 160.294 132.74C159.995 132.916 159.661 133.024 159.316 133.055C157.37 133.232 155.414 132.851 153.68 131.956C152.446 131.424 151.223 130.799 150.024 130.22C149.133 129.818 148.354 129.207 147.754 128.438C146.834 127.05 146.589 123.717 148.196 122.652C149.023 122.132 149.745 122.502 150.525 122.861C151.64 123.464 152.888 123.786 154.158 123.798Z" fill="#2C7D98"/>
<path d="M169.989 137.751C170.016 138.014 169.992 138.281 169.919 138.531C169.8 138.774 169.626 138.975 169.418 139.111C168.76 139.645 167.989 139.952 167.191 139.998C166.793 140.015 166.396 139.924 166.033 139.731C165.669 139.539 165.348 139.249 165.095 138.886C164.726 138.198 164.502 137.415 164.443 136.603C164.149 134.858 164.005 133.083 164.012 131.304C163.994 131.2 163.996 131.092 164.018 130.988C164.039 130.885 164.079 130.788 164.136 130.705C164.192 130.621 164.263 130.554 164.344 130.506C164.425 130.458 164.513 130.432 164.604 130.429C165.847 130.121 168.324 129.353 168.956 131.15C169.6 133.27 169.949 135.499 169.989 137.751Z" fill="#B28B67"/>
<path d="M176.933 137.291C178.174 137.357 179.4 137.591 180.577 137.985C181.163 138.186 181.7 138.505 182.157 138.921C182.614 139.337 182.979 139.842 183.232 140.404C183.467 140.954 183.496 141.57 183.314 142.139C182.911 142.985 182.205 143.649 181.334 144.003C177.196 146.188 172.527 147.186 167.851 146.884C166.651 146.932 165.478 146.517 164.579 145.727C163.929 144.771 163.625 143.625 163.717 142.475L163.554 137.036C164.608 137.083 165.636 137.372 166.558 137.881C168.281 138.46 168.957 137.071 170.377 136.724C172.229 136.296 175.046 137.106 176.933 137.291Z" fill="#2C7D98"/>
<path d="M154.158 123.798C154.549 123.745 154.947 123.78 155.322 123.902C155.578 124.043 155.8 124.236 155.974 124.469L159.991 128.947C160.771 129.815 161.587 131.007 161.039 132.037C160.846 132.324 160.592 132.564 160.294 132.74C159.995 132.916 159.661 133.024 159.316 133.055C157.37 133.232 155.414 132.851 153.68 131.956C152.446 131.424 151.223 130.799 150.024 130.22C149.133 129.818 148.354 129.207 147.754 128.438C146.834 127.05 146.589 123.717 148.196 122.652C149.023 122.132 149.745 122.502 150.525 122.861C151.64 123.464 152.888 123.786 154.158 123.798Z" fill="url(#paint5_linear)"/>
<path d="M176.933 137.291C178.174 137.357 179.4 137.591 180.577 137.985C181.163 138.186 181.7 138.505 182.157 138.921C182.614 139.337 182.979 139.842 183.232 140.404C183.467 140.954 183.496 141.57 183.314 142.139C182.911 142.985 182.205 143.649 181.334 144.003C177.196 146.188 172.527 147.186 167.851 146.884C166.651 146.932 165.478 146.517 164.579 145.727C163.929 144.771 163.625 143.625 163.717 142.475L163.554 137.036C164.608 137.083 165.636 137.372 166.558 137.881C168.281 138.46 168.957 137.071 170.377 136.724C172.229 136.296 175.046 137.106 176.933 137.291Z" fill="url(#paint6_linear)"/>
<path d="M162.11 77.3259C163.287 77.5605 164.378 78.1085 165.266 78.9112C166.176 80.1712 166.591 81.7192 166.43 83.2623C166.403 94.2423 164.314 105.121 160.271 115.339C160.233 115.699 160.107 116.043 159.904 116.343C159.701 116.642 159.427 116.888 159.106 117.058C158.786 117.228 158.428 117.318 158.065 117.319C157.701 117.319 157.343 117.232 157.022 117.064C154.601 116.414 152.214 115.642 149.873 114.749L153.04 93.9199C153.191 93.3419 153.158 92.7315 152.947 92.1726C152.713 91.7762 152.385 91.4425 151.992 91.2005C148.379 88.5891 144.564 86.2674 140.581 84.2574C137.402 82.6605 133.758 80.7859 132.896 77.4069C132.717 76.8295 132.681 76.2179 132.79 75.6237C132.9 75.0295 133.152 74.4702 133.525 73.9932C134.028 73.5015 134.621 73.1089 135.271 72.836C137.379 71.8061 140.034 70.5217 142.455 70.73C144.4 70.9267 145.145 72.0376 146.764 72.8592C151.258 75.081 157.231 75.9141 162.11 77.3259Z" fill="#282328"/>
<path d="M140.476 44.1954C142.036 48.4655 142.805 52.99 144.179 57.3063C144.479 58.4504 145.019 59.5188 145.762 60.4423C146.75 61.3838 147.946 62.0815 149.255 62.479C151.08 63.181 152.935 63.7943 154.821 64.3189C156.079 64.6545 157.581 65.233 157.72 66.506C157.75 66.9305 157.661 67.3549 157.464 67.7326C156.978 68.5946 156.277 69.3185 155.429 69.8351C154.581 70.3516 153.614 70.6437 152.62 70.6834C150.637 70.7362 148.661 70.4142 146.799 69.7345C145.102 69.3933 143.546 68.5597 142.327 67.3391C141.634 66.324 141.148 65.184 140.895 63.9833C136.984 57.2422 136.333 50.7305 132.989 44.5657C131.989 42.9377 131.206 41.1872 130.66 39.3584C129.892 36.1646 129.88 28.5966 133.198 31.3738C135.877 33.6188 139.3 41.0248 140.476 44.1954Z" fill="#B28B67"/>
<path d="M127.772 76.9208C129.735 76.1648 131.645 75.2795 133.49 74.2708C140.476 70.429 134.759 68.5428 132.43 63.9256C130.765 60.6508 131.44 56.7279 132.302 53.1754C133.827 46.9266 135.865 40.4463 134.398 34.2091C134.214 33.1969 133.818 32.2346 133.233 31.3856C132.806 30.8589 132.313 30.3884 131.766 29.9854C130.291 28.7193 128.594 27.7346 126.759 27.0809C123.266 25.9237 119.307 26.7684 115.989 28.4232C102.948 34.9266 100.165 51.347 100.689 64.481C100.829 68.1262 101.399 71.9796 103.763 74.7684C106.126 77.5572 109.468 78.6218 112.892 79.0384C117.951 79.5525 123.061 78.8253 127.772 76.9208Z" fill="white"/>
<path opacity="0.8" d="M108.327 69.4914C108.432 70.7241 108.832 71.9141 109.492 72.963C110.656 74.5946 112.799 75.1964 114.766 75.6708L123.627 77.8463C124.707 78.1717 125.829 78.3393 126.957 78.3439C129.379 78.2282 131.464 76.6891 133.385 75.2079C133.876 74.8741 134.302 74.4546 134.642 73.9697C129.752 73.5069 124.873 73.0209 120.006 72.315C117.142 71.8984 114.114 71.3198 112.007 69.3641C110.918 68.2952 110.089 66.993 109.585 65.557C109.236 64.666 109.072 62.3979 108.059 62.2012C107.804 64.6317 107.895 67.0858 108.327 69.4914Z" fill="url(#paint7_linear)"/>
<path fill-rule="evenodd" clip-rule="evenodd" d="M125.148 30.5336C127.68 32.0103 130.13 32.7153 131.3 32.4141C134.329 31.6345 134.607 20.57 132.264 16.208C129.92 11.846 117.873 9.94476 117.266 18.5873C117.057 21.5596 118.293 24.2151 120.129 26.3884L118 35.5C118 35.5 118 36.5 122.272 37.75C126.544 39 126 35.5 126 35.5L125.148 30.5336Z" fill="#B28B67"/>
<path fill-rule="evenodd" clip-rule="evenodd" d="M133.18 18.1666C133.084 17.6012 132.849 16.9733 132.66 16.4384C132.415 15.7488 132.045 15.127 131.638 14.5411C130.872 13.4378 129.952 12.4416 128.937 11.6148C127.083 10.1044 124.723 9.23328 122.402 9.51619C121.23 9.65902 120.093 10.1054 119.124 10.8484C118.25 11.5197 117.408 12.5079 116.275 12.5789C115.043 12.6561 113.913 11.5697 112.924 10.8987C111.81 10.1423 110.624 9.59118 109.322 9.37694C107.139 9.01814 105.089 9.75438 103.586 11.5422C101.985 13.4448 100.822 16.2349 101.873 18.7557C102.068 19.2243 102.319 19.6194 102.68 19.9468C103.011 20.247 103.516 20.5665 103.65 21.0462C103.793 21.5562 103.367 22.2141 103.202 22.6742C102.966 23.3334 102.772 24.0254 102.841 24.742C102.954 25.9188 103.695 27.0422 104.477 27.8156C105.272 28.6027 106.252 29.054 107.298 29.2621C107.996 29.401 108.71 29.4776 109.42 29.4255C109.773 29.3996 110.083 29.3018 110.425 29.2241C110.757 29.1485 110.943 29.2366 111.224 29.4184C112.533 30.2633 113.94 30.5901 115.451 30.4645C116.727 30.3584 118.197 30.0498 119.237 29.1772C120.392 28.2081 120.369 26.8717 120.097 25.4438C120.385 25.5864 121.182 25.6747 120.706 25.1064C120.518 24.8814 120.161 24.7898 119.919 24.6575C119.637 24.5033 119.351 24.3042 119.132 24.0528C118.249 23.0377 119.141 20.9719 120.252 20.6314C121.902 20.1257 122.271 22.4562 123.449 23.059C124.127 23.4056 124.835 22.9319 125.343 22.4481C126.022 21.8001 126.486 20.9416 126.886 20.068C127.215 19.3485 127.522 18.6189 127.858 17.9031C128.014 17.5688 128.557 16.6237 128.285 16.2457C129.467 16.0104 130.783 16.5008 131.801 17.1441C132.222 17.41 132.543 17.7031 132.767 18.1726C132.815 18.2732 132.92 18.5722 133.051 18.5844C133.296 18.6072 133.204 18.3087 133.18 18.1666Z" fill="#191847"/>
<path d="M159.84 91.8716C161.332 93.7603 162.511 95.8737 163.333 98.132C167.912 109.107 170.888 120.676 172.171 132.489C168.432 132.952 164.65 132.952 160.911 132.489C160.618 124.15 159.324 115.875 157.057 107.841C156.656 106.112 155.967 104.461 155.019 102.957C153.354 100.562 150.618 99.1735 148.033 97.8774C141.984 94.9564 135.663 92.6309 129.158 90.9343C126.41 90.1821 123.639 89.4878 120.938 88.6199C118.667 87.8562 112.298 85.0558 110.458 83.5399C109.494 82.8134 108.688 81.9008 108.087 80.8568C107.487 79.8128 107.105 78.659 106.965 77.4647C106.965 78.0664 124.71 79.2699 125.979 79.131C130.253 78.6797 135.295 76.2496 139.51 77.9738C142.805 79.3162 145.821 82.1166 148.825 84.0491C152.469 86.3171 156.917 88.5158 159.84 91.8716Z" fill="#473F47"/>
<path d="M140.394 90.9806L118.737 80.4618L144.132 69.7578L165.801 79.1657L140.394 90.9806Z" fill="#2C7D98"/>
<path d="M107.408 41.5917C107.408 41.9967 107.303 42.3902 107.256 42.7489C106.616 48.6737 107.198 54.4827 107.419 60.3728C107.559 64.0179 108.036 70.961 111.937 72.8241C119.226 76.2956 133.292 74.9765 133.292 74.9765C134.923 74.7166 136.589 74.7835 138.194 75.1732C139.067 75.4393 139.871 75.8906 140.721 76.2146C143.794 77.3718 147.229 76.7932 150.466 76.2146C151.024 76.1489 151.563 75.9717 152.05 75.6939C152.615 75.1953 152.96 74.4958 153.01 73.7465C153.06 72.9973 152.811 72.2586 152.318 71.6901C151.267 70.5927 149.9 69.845 148.405 69.5493C144.318 68.2231 139.939 68.0548 135.76 69.0632C135.226 69.242 134.682 69.3889 134.13 69.503C133.484 69.6072 132.829 69.6536 132.174 69.6418H127.214C121.508 69.6418 116.129 69.7113 115.267 63.0806C114.949 60.6249 114.887 58.1431 115.081 55.6746C115.418 51.2195 116.594 46.799 116.35 42.3439C116.335 40.9309 115.98 39.5421 115.314 38.2937C114.976 37.6739 114.484 37.1505 113.885 36.7737C113.285 36.3968 112.599 36.1791 111.89 36.1414C111.157 36.1958 110.45 36.4374 109.838 36.8428C109.226 37.2483 108.73 37.8038 108.397 38.4557C107.882 39.434 107.547 40.4961 107.408 41.5917Z" fill="#B28B67"/>
<path d="M174.721 57.9429L144.447 73.2524L140.395 90.9805L165.801 79.1656L174.721 57.9429Z" fill="#236277"/>
<path d="M106.348 44.8782C105.989 48.1532 105.95 51.455 106.232 54.7374C106.218 55.0223 106.291 55.3047 106.441 55.5474C106.689 55.8167 107.03 55.9822 107.396 56.0103C109.282 56.3592 111.195 56.5412 113.113 56.5542C113.382 56.6397 113.667 56.6651 113.947 56.6287C114.227 56.5923 114.496 56.495 114.734 56.3436C114.972 56.1922 115.173 55.9905 115.324 55.7529C115.474 55.5152 115.57 55.2475 115.605 54.9689C116.653 50.6178 117.689 46.2668 118.481 41.858C118.795 40.0875 119.017 38.0971 117.945 36.6622C116.397 34.5793 112.217 34.3478 110.202 35.8638C107.769 37.7268 106.732 42.0778 106.348 44.8782Z" fill="white"/>
<path d="M139.3 39.3236L142.595 47.1693C142.758 47.4743 142.823 47.8216 142.782 48.1645C142.698 48.4459 142.536 48.6984 142.316 48.8935C140.706 50.5851 138.795 51.9661 136.68 52.9668C134.73 51.2351 133.147 49.1343 132.023 46.7874C130.928 43.9986 131.173 40.8974 131.499 37.9234C131.697 36.0372 131.627 29.9735 134.852 32.3226C137.099 33.9311 138.287 36.9051 139.3 39.3236Z" fill="white"/>
<g filter="url(#filter1_d)">
<path d="M79.6952 112.921C79.6963 113.99 79.4779 115.049 79.0535 116.032C78.6291 117.014 78.0075 117.901 77.2267 118.637C75.881 119.904 74.1469 120.686 72.3014 120.859C71.9562 120.877 71.6103 120.877 71.2651 120.859L13.4301 119.702C11.2098 119.678 9.08646 118.794 7.512 117.238C5.93754 115.682 5.03628 113.576 5 111.37C4.99895 110.3 5.2173 109.242 5.64172 108.259C6.06614 107.276 6.68773 106.39 7.4685 105.654C8.26019 104.897 9.19429 104.303 10.2173 103.906C11.2403 103.509 12.3321 103.316 13.4301 103.339H15.3979C14.9854 101.917 14.7777 100.445 14.7808 98.965C14.7769 96.8559 15.2066 94.7683 16.0435 92.8302C16.8805 90.892 18.107 89.1442 19.648 87.694C21.0056 86.403 22.5824 85.3609 24.3055 84.6159C26.5361 83.6486 28.9517 83.1748 31.3849 83.2273L36.2986 83.3315C39.3365 83.3876 42.3045 84.247 44.8974 85.8212C47.4902 87.3953 49.6144 89.6275 51.0514 92.2881C52.472 91.6292 54.025 91.3007 55.5925 91.3276H56.8616C59.493 91.3603 62.008 92.4106 63.8732 94.2555C65.7383 96.1005 66.8068 98.595 66.8521 101.21V101.684C66.8567 102.582 66.7272 103.475 66.4678 104.334L71.2534 104.438C73.5018 104.46 75.6506 105.363 77.2318 106.952C78.813 108.541 79.6984 110.686 79.6952 112.921Z" fill="white"/>
</g>
<path d="M72.3014 120.859C71.9562 120.877 71.6103 120.877 71.2651 120.859L13.4301 119.702C11.2098 119.678 9.08646 118.794 7.512 117.238C5.93754 115.682 5.03628 113.577 5 111.37C4.99895 110.301 5.2173 109.242 5.64172 108.259C6.06614 107.276 6.68773 106.39 7.4685 105.654C5.19795 119.841 20.1021 117.816 20.1021 117.816H57.6767L72.3014 120.859Z" fill="url(#paint8_linear)"/>
<path opacity="0.7" d="M19.5897 105.052L15.3979 103.467C14.9854 102.045 14.7776 100.572 14.7808 99.0925C14.7769 96.9834 15.2065 94.8958 16.0435 92.9576C16.8804 91.0195 18.107 89.2717 19.6479 87.8215C21.0056 86.5305 22.5824 85.4884 24.3055 84.7434C12.6966 94.6489 19.5897 105.052 19.5897 105.052Z" fill="url(#paint9_linear)"/>
<g filter="url(#filter2_d)">
<path d="M232.253 45.6651C232.254 46.7357 232.034 47.7952 231.608 48.7783C231.181 49.7614 230.557 50.6473 229.773 51.3816C228.422 52.6487 226.685 53.4308 224.836 53.6034C224.491 53.6328 224.144 53.6328 223.799 53.6034L165.976 52.4462C163.775 52.4169 161.67 51.5411 160.105 50.0027C158.54 48.4642 157.635 46.3828 157.581 44.1955C157.569 43.1151 157.781 42.0438 158.203 41.0484C158.626 40.053 159.25 39.1547 160.038 38.4096C161.648 36.8928 163.792 36.0622 166.011 36.0952H167.967C167.56 34.6762 167.353 33.2081 167.35 31.7326C167.347 29.6236 167.777 27.5362 168.614 25.5982C169.451 23.6601 170.677 21.9123 172.217 20.4616C173.575 19.168 175.152 18.1221 176.875 17.372C179.105 16.4036 181.521 15.9297 183.954 15.9833L188.868 16.0875C191.906 16.1432 194.874 17.0038 197.465 18.5804C200.056 20.1569 202.177 22.3923 203.609 25.0557C205.026 24.3872 206.582 24.0582 208.15 24.0952H209.419C212.052 24.1219 214.569 25.1683 216.437 27.0118C218.305 28.8552 219.376 31.3502 219.421 33.966V34.4404C219.42 35.342 219.287 36.2387 219.025 37.102L223.811 37.1945C226.055 37.2219 228.199 38.1256 229.779 39.7106C231.358 41.2955 232.247 43.4344 232.253 45.6651Z" fill="white"/>
</g>
<path opacity="0.1" d="M172.147 37.7961L167.944 36.2108C167.537 34.7918 167.329 33.3237 167.327 31.8482C167.323 29.7392 167.753 27.6518 168.59 25.7137C169.427 23.7757 170.653 22.0278 172.194 20.5772C173.552 19.2836 175.128 18.2377 176.851 17.4875C165.254 27.393 172.147 37.7961 172.147 37.7961Z" fill="url(#paint10_linear)"/>
<path d="M122.649 23.9448C122.481 23.9765 122.321 24.0448 122.182 24.1448C122.044 24.2448 121.929 24.3741 121.846 24.5234C121.726 24.9562 121.682 25.4065 121.718 25.8541C121.613 27.0113 120.46 27.8329 119.82 28.8397C119.179 29.8464 118.993 31.3392 118.225 32.4154C118.082 32.6313 117.885 32.8067 117.654 32.9245C117.107 33.156 116.49 32.8551 115.919 32.751C114.231 32.4617 112.869 34.0239 111.425 34.9727C108.525 36.8705 104.729 36.3845 101.306 35.8175C100.229 35.6926 99.1792 35.3956 98.1973 34.938C97.1629 34.3313 96.2444 33.5479 95.4843 32.6237C94.2151 31.235 92.9576 29.8233 91.7117 28.4115C91.2487 27.9595 90.8806 27.4207 90.6288 26.8262C90.4955 26.4116 90.4597 25.9722 90.524 25.5417C91.067 25.2159 91.631 24.926 92.2123 24.6738C93.9973 23.7218 96.0838 23.4937 98.0343 24.0374C99.5945 24.6391 100.701 26.0161 102.04 26.9997C103.907 28.2992 106.179 28.8962 108.448 28.6842C110.718 28.4722 112.838 27.465 114.429 25.8426C115.016 25.0743 115.705 24.3891 116.478 23.8059C117.864 23.0538 120.682 23.1695 122.649 23.9448Z" fill="url(#paint11_linear)"/>
<defs>
<filter id="filter0_d" x="156.586" y="103.521" width="79.6953" height="41.6572" filterUnits="userSpaceOnUse" color-interpolation-filters="sRGB">
<feFlood flood-opacity="0" result="BackgroundImageFix"/>
<feColorMatrix in="SourceAlpha" type="matrix" values="0 0 0 0 0 0 0 0 0 0 0 0 0 0 0 0 0 0 127 0"/>
<feOffset dx="-3" dy="2"/>
<feGaussianBlur stdDeviation="1"/>
<feColorMatrix type="matrix" values="0 0 0 0 0 0 0 0 0 0 0 0 0 0 0 0 0 0 0.03 0"/>
<feBlend mode="normal" in2="BackgroundImageFix" result="effect1_dropShadow"/>
<feBlend mode="normal" in="SourceGraphic" in2="effect1_dropShadow" result="shape"/>
</filter>
<filter id="filter1_d" x="0" y="83.2234" width="79.6952" height="41.6487" filterUnits="userSpaceOnUse" color-interpolation-filters="sRGB">
<feFlood flood-opacity="0" result="BackgroundImageFix"/>
<feColorMatrix in="SourceAlpha" type="matrix" values="0 0 0 0 0 0 0 0 0 0 0 0 0 0 0 0 0 0 127 0"/>
<feOffset dx="-3" dy="2"/>
<feGaussianBlur stdDeviation="1"/>
<feColorMatrix type="matrix" values="0 0 0 0 0 0 0 0 0 0 0 0 0 0 0 0 0 0 0.03 0"/>
<feBlend mode="normal" in2="BackgroundImageFix" result="effect1_dropShadow"/>
<feBlend mode="normal" in="SourceGraphic" in2="effect1_dropShadow" result="shape"/>
</filter>
<filter id="filter2_d" x="152.58" y="15.9792" width="79.6724" height="41.6462" filterUnits="userSpaceOnUse" color-interpolation-filters="sRGB">
<feFlood flood-opacity="0" result="BackgroundImageFix"/>
<feColorMatrix in="SourceAlpha" type="matrix" values="0 0 0 0 0 0 0 0 0 0 0 0 0 0 0 0 0 0 127 0"/>
<feOffset dx="-3" dy="2"/>
<feGaussianBlur stdDeviation="1"/>
<feColorMatrix type="matrix" values="0 0 0 0 0 0 0 0 0 0 0 0 0 0 0 0 0 0 0.03 0"/>
<feBlend mode="normal" in2="BackgroundImageFix" result="effect1_dropShadow"/>
<feBlend mode="normal" in="SourceGraphic" in2="effect1_dropShadow" result="shape"/>
</filter>
<linearGradient id="paint0_linear" x1="197.601" y1="166.961" x2="192.391" y2="99.423" gradientUnits="userSpaceOnUse">
<stop offset="0.01"/>
<stop offset="0.13" stop-opacity="0.69"/>
<stop offset="0.25" stop-opacity="0.32"/>
<stop offset="1" stop-opacity="0"/>
</linearGradient>
<linearGradient id="paint1_linear" x1="1708.48" y1="3164.93" x2="2273.98" y2="3041.53" gradientUnits="userSpaceOnUse">
<stop offset="0.01"/>
<stop offset="0.13" stop-opacity="0.69"/>
<stop offset="0.25" stop-opacity="0.32"/>
<stop offset="1" stop-opacity="0"/>
</linearGradient>
<linearGradient id="paint2_linear" x1="-50339.1" y1="4215.66" x2="-53586.9" y2="9271.93" gradientUnits="userSpaceOnUse">
<stop offset="0.01"/>
<stop offset="0.13" stop-opacity="0.69"/>
<stop offset="0.25" stop-opacity="0.32"/>
<stop offset="1" stop-opacity="0"/>
</linearGradient>
<linearGradient id="paint3_linear" x1="6839.25" y1="35261.5" x2="20.1411" y2="-14318" gradientUnits="userSpaceOnUse">
<stop offset="0.01"/>
<stop offset="0.13" stop-opacity="0.69"/>
<stop offset="0.25" stop-opacity="0.32"/>
<stop offset="1" stop-opacity="0"/>
</linearGradient>
<linearGradient id="paint4_linear" x1="12613.3" y1="25454.9" x2="9596.62" y2="-11213.8" gradientUnits="userSpaceOnUse">
<stop offset="0.01"/>
<stop offset="0.13" stop-opacity="0.69"/>
<stop offset="0.25" stop-opacity="0.32"/>
<stop offset="1" stop-opacity="0"/>
</linearGradient>
<linearGradient id="paint5_linear" x1="-12473.3" y1="1680.38" x2="-12710.9" y2="1836.68" gradientUnits="userSpaceOnUse">
<stop offset="0.01"/>
<stop offset="0.13" stop-opacity="0.69"/>
<stop offset="0.25" stop-opacity="0.32"/>
<stop offset="1" stop-opacity="0"/>
</linearGradient>
<linearGradient id="paint6_linear" x1="-17610.3" y1="1899.84" x2="-17678.5" y2="1604.55" gradientUnits="userSpaceOnUse">
<stop offset="0.01"/>
<stop offset="0.13" stop-opacity="0.69"/>
<stop offset="0.25" stop-opacity="0.32"/>
<stop offset="1" stop-opacity="0"/>
</linearGradient>
<linearGradient id="paint7_linear" x1="4243.52" y1="1295.83" x2="3711.62" y2="2578.46" gradientUnits="userSpaceOnUse">
<stop offset="0.01"/>
<stop offset="0.13" stop-opacity="0.69"/>
<stop offset="0.25" stop-opacity="0.32"/>
<stop offset="1" stop-opacity="0"/>
</linearGradient>
<linearGradient id="paint8_linear" x1="4843.97" y1="2609.87" x2="4828.26" y2="1716.46" gradientUnits="userSpaceOnUse">
<stop offset="0.01"/>
<stop offset="0.13" stop-opacity="0.69"/>
<stop offset="0.25" stop-opacity="0.32"/>
<stop offset="1" stop-opacity="0"/>
</linearGradient>
<linearGradient id="paint9_linear" x1="270.995" y1="2788.22" x2="836.512" y2="2664.89" gradientUnits="userSpaceOnUse">
<stop offset="0.01"/>
<stop offset="0.13" stop-opacity="0.69"/>
<stop offset="0.25" stop-opacity="0.32"/>
<stop offset="1" stop-opacity="0"/>
</linearGradient>
<linearGradient id="paint10_linear" x1="1671.46" y1="1540.83" x2="2236.96" y2="1417.43" gradientUnits="userSpaceOnUse">
<stop offset="0.01"/>
<stop offset="0.13" stop-opacity="0.69"/>
<stop offset="0.25" stop-opacity="0.32"/>
<stop offset="1" stop-opacity="0"/>
</linearGradient>
<linearGradient id="paint11_linear" x1="5038.72" y1="1070.45" x2="4377.17" y2="-174.716" gradientUnits="userSpaceOnUse">
<stop offset="0.01"/>
<stop offset="0.13" stop-opacity="0.69"/>
<stop offset="0.25" stop-opacity="0.32"/>
<stop offset="1" stop-opacity="0"/>
</linearGradient>
</defs>
</svg>
