<svg width="60" height="60" viewBox="0 0 60 60" fill="none" xmlns="http://www.w3.org/2000/svg">
<path d="M56.4838 16.6778L39.4077 9.75462C38.9937 9.58682 38.5302 9.80763 38.3724 10.2475C38.2146 10.6878 38.4223 11.1807 38.8363 11.3485L53.9468 17.4747L43.4864 21.7161L30.3308 15.3818C29.9271 15.1873 29.4521 15.3779 29.2695 15.8068C29.0866 16.2361 29.2658 16.7413 29.6692 16.9358L41.375 22.5722L30 27.1839L6.05324 17.4747L30 7.76556L35.9013 10.1586C36.3145 10.3259 36.7784 10.1056 36.9366 9.66525C37.0944 9.22537 36.8868 8.73249 36.4727 8.56469L30.2859 6.05602C30.1018 5.98154 29.8982 5.98111 29.7141 6.05602L3.51622 16.6778C3.20558 16.804 3 17.1211 3 17.4747V21.3696C3 21.7231 3.20558 22.0403 3.51622 22.1665L11.6971 25.4831V28.4386C11.6971 28.9096 12.0559 29.2916 12.4988 29.2916C12.9421 29.2916 13.3009 28.9096 13.3009 28.4386V26.1337L29.7141 32.7883C29.8064 32.8255 29.9032 32.8444 30 32.8444C30.0968 32.8444 30.1936 32.8255 30.2859 32.7883L42.6579 27.7723V41.2698C38.7737 43.4381 34.4182 44.5999 30 44.5999C23.9702 44.5999 18.0557 42.4383 13.3009 38.5044V31.8503C13.3009 31.3793 12.9421 30.9972 12.4988 30.9972C12.0559 30.9972 11.6971 31.3793 11.6971 31.8503V38.9176C11.6971 39.1765 11.8075 39.4214 11.9974 39.5831C17.0858 43.9182 23.4795 46.3055 30 46.3055C34.3976 46.3055 38.7366 45.2181 42.6579 43.1813V46.6333C41.3655 47.0087 40.4126 48.2674 40.4126 49.7592C40.4126 51.5459 41.7795 53 43.4596 53C45.1401 53 46.5071 51.5459 46.5071 49.7592C46.5071 48.2674 45.5542 47.0087 44.2618 46.6333V42.2806C45.569 41.4897 46.8214 40.5899 48.003 39.5831C48.1929 39.4214 48.3038 39.1765 48.3038 38.9176V25.4826L56.4838 22.1661C56.7944 22.0403 57 21.7231 57 21.3691V17.4747C57 17.1211 56.7944 16.804 56.4838 16.6778ZM44.9032 49.7592C44.9032 50.6052 44.2556 51.294 43.4596 51.294C42.6641 51.294 42.0164 50.6052 42.0164 49.7592C42.0164 48.9128 42.6641 48.2241 43.4596 48.2241C44.2556 48.2241 44.9032 48.9128 44.9032 49.7592ZM4.60387 18.7128L29.1979 28.6844V30.7532L4.60387 20.7816V18.7128ZM30.8021 30.7532V28.6844L42.6579 23.8774V25.9466L30.8021 30.7532ZM46.6995 38.504C45.9171 39.1515 45.1026 39.75 44.2618 40.2994V27.1216L46.6995 26.1332V38.504ZM44.2618 25.296V23.2272L55.3961 18.7128V20.7816L44.2618 25.296Z" fill="#2C7D98"/>
</svg>
