<svg width="464" height="318" viewBox="0 0 464 318" fill="none" xmlns="http://www.w3.org/2000/svg">
<mask id="mask0" mask-type="alpha" maskUnits="userSpaceOnUse" x="0" y="0" width="464" height="318">
<rect width="464" height="318" fill="#C4C4C4"/>
</mask>
<g mask="url(#mask0)">
<path opacity="0.37" fill-rule="evenodd" clip-rule="evenodd" d="M10.8255 261.969C-0.589032 193.127 310.982 -28.5274 392.145 17.9558C473.309 64.4391 492.638 202.5 366.14 268.885C239.643 335.27 22.2401 330.811 10.8255 261.969Z" fill="#C0D8E0"/>
<path d="M140.22 51.0832L142.728 46.9883C144.987 42.9178 147.602 39.0566 150.544 35.4503C156.546 28.4627 160.089 19.7116 165.387 12.155C165.718 11.7558 165.934 11.2735 166.011 10.7603C166.109 9.55259 164.791 8.80673 163.674 8.41522C162.186 7.79438 160.569 7.54803 158.964 7.69773C158.163 7.78516 157.405 8.10576 156.784 8.61988C156.163 9.134 155.706 9.81909 155.47 10.5904C155.356 11.539 155.35 12.4976 155.454 13.4476C155.148 15.9685 154.072 18.3332 152.372 20.218L138.962 38.1666C137.188 40.1688 135.975 42.6062 135.449 45.2304C135.391 46.6212 135.845 47.9848 136.725 49.0632C137.604 50.1417 138.847 50.8603 140.22 51.0832Z" fill="#9D7E60"/>
<path d="M128.301 50.203L135.103 42.8911L141.852 50.2053L134.451 55.8256L128.301 50.203Z" fill="#84A6D5"/>
<path d="M395.679 162.614C401.824 235.662 382.702 296.928 352.987 299.428C350.381 299.647 338.017 301.544 335.453 300.903C308.595 293.967 293.646 238.337 288.037 171.67C282.29 103.358 286.508 45.6588 312.94 36.3528C314.767 35.6851 328.803 35.0183 330.729 34.8563C360.411 32.3021 389.531 89.5381 395.679 162.614Z" fill="#A6DCE9"/>
<path opacity="0.6" d="M395.679 162.614C401.824 235.662 382.702 296.928 352.987 299.428C350.381 299.647 338.017 301.544 335.453 300.903C308.595 293.967 293.646 238.337 288.037 171.67C282.29 103.358 286.508 45.6588 312.94 36.3528C314.767 35.6851 328.803 35.0183 330.729 34.8563C360.411 32.3021 389.531 89.5381 395.679 162.614Z" fill="url(#paint0_linear)"/>
<path d="M337.716 300.684C367.441 298.183 386.555 236.93 380.408 163.87C374.262 90.8109 345.183 33.6117 315.459 36.1123C285.734 38.613 266.62 99.8665 272.767 172.926C278.913 245.985 307.992 303.184 337.716 300.684Z" fill="#A6DCE9"/>
<path d="M333.009 275.921C357.101 273.894 372.594 224.248 367.612 165.033C362.63 105.818 339.061 59.4576 314.969 61.4844C290.876 63.5112 275.384 113.157 280.365 172.372C285.347 231.587 308.916 277.947 333.009 275.921Z" fill="white"/>
<path d="M330.571 246.94C348.155 245.46 359.463 209.233 355.828 166.024C352.193 122.815 334.991 88.9859 317.407 90.4653C299.822 91.9446 288.514 128.172 292.149 171.381C295.784 214.59 312.986 248.419 330.571 246.94Z" fill="#A6DCE9"/>
<path d="M328.359 220.653C340.03 219.671 347.534 195.616 345.12 166.925C342.707 138.233 331.289 115.77 319.618 116.752C307.947 117.734 300.443 141.789 302.857 170.48C305.271 199.171 316.688 221.634 328.359 220.653Z" fill="white"/>
<path d="M326.277 195.897C332.378 195.384 336.3 182.792 335.036 167.773C333.773 152.754 327.802 140.995 321.701 141.508C315.6 142.021 311.678 154.613 312.941 169.632C314.205 184.651 320.175 196.41 326.277 195.897Z" fill="#A6DCE9"/>
<path opacity="0.1" d="M277.409 206.747L294.68 190.273L295.307 197.731L329.59 168.145L287.993 178.27L294.194 182.461L275.473 195.601L277.409 206.747Z" fill="url(#paint1_linear)"/>
<path d="M18.8224 170.958L49.0471 168.415L74.0258 184.219L313.727 164.054L320.453 172.455L76.0779 193.014L58.5032 218.424L29.1284 220.895L41.2235 200.544L40.5746 192.831L18.8224 170.958Z" fill="#A6DCE9"/>
<path opacity="0.1" d="M41.1875 191.637L71.4122 189.094L75.6895 188.734L315.391 168.569L320.453 172.455L76.0781 193.014L58.5034 218.424L29.1285 220.895L41.2236 200.544L40.5748 192.831L41.1875 191.637Z" fill="url(#paint2_linear)"/>
<path d="M302.708 164.981L295.722 156.202L329.59 168.145L297.64 184.084L302.857 170.48L302.708 164.981Z" fill="#A6DCE9"/>
<path opacity="0.1" d="M302.708 164.981L295.722 156.202L329.59 168.145L297.64 184.084L302.857 170.48L302.708 164.981Z" fill="url(#paint3_linear)"/>
<path opacity="0.2" d="M329.59 168.145L302.857 170.48L297.64 184.084L329.59 168.145Z" fill="url(#paint4_linear)"/>
<path d="M37.1485 189.406L74.1999 186.289L49.0471 168.415L18.8224 170.958L37.1485 189.406Z" fill="url(#paint5_linear)"/>
<path d="M135.757 129.935C135.757 129.935 138.202 147.807 142.657 156.685C145.345 162.157 147.372 167.93 148.697 173.882C148.275 174.974 149.258 176.148 150.38 176.597C151.518 176.817 152.694 176.718 153.779 176.311L158.375 175.324C158.65 175.295 158.918 175.211 159.161 175.078C159.405 174.945 159.619 174.765 159.793 174.548C160.21 173.742 159.333 172.816 158.434 172.635C157.534 172.454 156.621 172.787 155.733 172.405C154.094 171.915 153.42 170.001 152.965 168.326L150.985 161.067C147.849 150.738 145.595 140.161 144.246 129.45C144.214 128.957 144.097 128.474 143.897 128.023C143.625 127.648 143.28 127.333 142.882 127.097C142.485 126.86 142.043 126.707 141.585 126.646C140.661 126.307 139.678 126.157 138.695 126.204C138.181 126.241 137.688 126.428 137.279 126.741C136.869 127.055 136.56 127.482 136.39 127.969" fill="#B28B67"/>
<path d="M161.096 172.411L159.892 172.341C158.944 172.246 157.988 172.269 157.045 172.409C156.846 172.436 156.661 172.531 156.523 172.678C156.385 172.825 156.301 173.014 156.286 173.215C156.206 173.58 156.05 173.924 155.829 174.225C155.565 174.437 155.26 174.591 154.933 174.677C154.606 174.764 154.265 174.781 153.931 174.727C153.226 174.751 152.521 174.686 151.832 174.532C151.159 174.332 150.533 174.013 149.837 173.872C149.653 173.804 149.456 173.777 149.26 173.793C149.064 173.81 148.874 173.869 148.704 173.967C148.56 174.131 148.441 174.314 148.35 174.511C148.192 174.854 148.088 175.219 148.042 175.594C148.073 175.95 148.16 176.3 148.3 176.629C148.345 176.844 148.439 177.046 148.575 177.219C148.711 177.391 148.886 177.53 149.084 177.624C149.283 177.718 149.501 177.765 149.72 177.76C149.94 177.756 150.155 177.7 150.35 177.599L155.965 176.526C157.733 176.178 159.475 175.86 161.205 175.4C162.16 175.153 163.087 174.807 163.971 174.368C163.971 174.368 164.226 174.346 164.202 174.063C164.178 173.779 164.188 173.893 164.181 173.808C163.723 173.338 163.175 172.966 162.571 172.713C161.966 172.459 161.317 172.33 160.662 172.333" fill="#A6DCE9"/>
<path d="M122.766 130.486C122.766 130.486 122.201 148.524 125.082 158.02C126.817 163.864 127.86 169.892 128.191 175.979C127.589 176.972 128.386 178.304 129.392 178.733C130.457 179.182 131.623 179.33 132.766 179.163L137.483 178.938C137.76 178.961 138.038 178.927 138.301 178.836C138.563 178.745 138.804 178.6 139.007 178.41C139.545 177.679 138.857 176.623 137.974 176.298C137.091 175.972 136.182 176.02 135.379 175.631C133.832 174.876 133.469 172.936 133.29 171.152L132.66 163.665C131.252 153.023 130.74 142.281 131.128 131.553C131.202 131.068 131.16 130.572 131.007 130.106C130.803 129.694 130.518 129.327 130.17 129.028C129.821 128.728 129.415 128.502 128.977 128.364C128.072 127.863 127.076 127.548 126.047 127.439C125.533 127.387 125.014 127.487 124.558 127.729C124.101 127.971 123.726 128.343 123.48 128.798" fill="#B28B67"/>
<path d="M145.224 63.0846L147.98 64.3092C148.929 64.7434 150.791 66.186 151.836 65.3841C152.881 64.5823 152.217 61.7823 152.162 60.7874C151.982 57.224 151.417 53.6904 150.477 50.2486C150.081 49.4187 149.867 48.5137 149.848 47.5943C149.83 46.6749 150.008 45.7622 150.371 44.9172C150.632 44.4443 151.022 44.0557 151.495 43.7966C151.969 43.5376 152.507 43.4189 153.045 43.4545C153.584 43.49 154.101 43.6784 154.537 43.9974C154.973 44.3165 155.309 44.7532 155.505 45.2563C155.848 46.1557 156.062 47.0992 156.141 48.0587C156.428 48.7495 156.492 49.513 156.324 50.2422C156.134 50.5552 155.97 50.8843 155.836 51.2256C155.769 51.6055 155.802 51.9965 155.932 52.3599L158.866 62.4795C159.72 64.6624 159.921 67.047 159.443 69.342C158.814 70.8506 157.692 72.1001 156.259 72.8849C154.827 73.6698 153.17 73.9432 151.562 73.6604C148.031 72.9945 144.702 71.5146 141.841 69.3377C141.539 69.1347 141.168 68.7947 141.34 68.466C141.428 68.3065 141.569 68.1833 141.739 68.1184C142.789 67.656 143.709 66.9409 144.416 66.0369C144.754 65.631 145 65.1575 145.139 64.6483C145.279 64.1391 145.307 63.6059 145.224 63.0846Z" fill="#B28B67"/>
<path fill-rule="evenodd" clip-rule="evenodd" d="M132.581 46.9842C135.587 48.133 138.398 48.4486 139.595 47.9063C142.598 46.5465 140.872 35.0662 137.644 30.9895C134.416 26.9128 121.561 27.1546 122.505 36.1932C122.832 39.3301 124.629 41.8644 126.962 43.7795L126.325 60.456L136.403 58.679L132.581 46.9842Z" fill="#B28B67"/>
<path fill-rule="evenodd" clip-rule="evenodd" d="M130.984 26.8093C129.618 26.8271 126.015 27.3089 125.356 27.4253C124.934 27.4996 124.495 27.6758 124.177 27.3354C123.917 27.0566 123.898 26.5109 123.773 26.1563C123.627 25.7444 123.453 25.3432 123.277 24.9432C122.778 23.8052 122.14 22.7511 121.34 21.797C119.839 20.007 117.879 18.7431 115.593 18.2098C113.067 17.621 110.37 17.8599 107.88 18.5087C105.215 19.203 102.924 20.521 100.519 21.8052C98.2271 23.029 95.7349 23.7911 93.1228 23.8514C90.4909 23.9122 88.3111 22.8737 85.9184 21.9451C83.469 20.9945 80.7853 20.5634 78.2046 21.2263C75.7957 21.8452 73.7215 23.2438 71.9381 24.9381C70.2695 26.5233 68.9761 28.3045 68.4698 30.5798C67.925 33.0273 68.3673 35.5305 70.2797 37.2714C73.0518 39.7949 77.3748 39.8116 80.8473 39.1219C82.8559 38.7231 84.7716 38.0083 86.5578 37.0075C88.94 35.6728 90.8687 33.7825 93.0285 32.1439C94.0421 31.375 95.1113 30.7017 96.2591 30.1501C97.373 29.6147 98.5006 29.2604 99.6855 29.7766C100.939 30.3226 102.074 30.8761 103.44 31.1154C104.75 31.345 106.099 31.3649 107.41 31.1234C109.96 30.6536 112.337 29.4194 114.724 28.4527C116.67 27.6645 118.758 26.8528 120.893 26.9042C121.784 26.9257 123.103 27.0616 123.571 27.895C118.507 29.7588 117.586 36.5463 119.892 41.0032C121.137 43.4087 126.445 45.5414 128.068 43.875C129.097 42.8194 128.185 41.8324 127.593 41.1791C126.458 39.9282 125.836 38.1741 127.304 36.9051C128.57 35.8106 130.411 37.5549 130.439 37.5477C130.823 37.4487 133.85 34.9681 135.68 31.8048C137.988 31.5366 138.07 29.9793 137.309 28.8519C136.548 27.7245 132.872 26.7849 130.984 26.8093Z" fill="#191847"/>
<path d="M139.89 89.8923C140.368 98.6193 144.154 106.668 147.318 114.77C149.918 121.605 152.83 131.126 143.69 134.38C139.907 135.291 136.051 135.864 132.166 136.092C129.355 136.585 126.585 137.561 123.57 138.014C120.312 138.516 116.986 138.338 113.799 137.494C112.695 137.241 111.672 136.719 110.818 135.974C108.429 133.691 109.694 129.729 110.86 126.632C115.071 115.312 113.172 103.592 120.484 93.524C121.494 92.3849 122.238 91.0345 122.661 89.5711C122.845 88.1848 122.755 86.7759 122.398 85.4238C121.519 80.956 121.032 76.4197 120.944 71.867C120.887 67.746 121.617 63.6521 123.096 59.8059C123.619 58.0466 124.446 56.3922 125.537 54.9171C126.72 53.4678 128.373 52.4798 130.209 52.1252C131.123 51.9716 132.062 52.0574 132.933 52.3745C133.805 52.6915 134.58 53.2288 135.182 53.9343C138.38 58.0346 143.078 58.6104 146.804 62.2093C147.015 62.3767 147.172 62.6015 147.258 62.8565C147.275 63.1539 147.201 63.4493 147.044 63.7027C145.986 65.7051 144.956 67.7051 143.924 69.6768C143.612 70.3264 143.233 70.942 142.795 71.5138C142.405 71.9749 141.927 72.3864 141.537 72.8475C140.547 74.3124 140.008 76.0357 139.986 77.8043C139.648 81.8253 139.616 85.8663 139.89 89.8923V89.8923Z" fill="#99BDEE"/>
<path d="M140.623 176.589L139.43 176.318C138.493 176.04 137.52 175.901 136.543 175.904C136.372 175.877 136.197 175.892 136.033 175.947C135.851 176.084 135.718 176.276 135.651 176.493C135.527 176.842 135.318 177.154 135.043 177.401C134.748 177.567 134.421 177.668 134.083 177.696C133.746 177.725 133.407 177.68 133.088 177.566C132.387 177.473 131.701 177.291 131.046 177.024C130.422 176.733 129.843 176.297 129.194 176.037C129.01 175.968 128.813 175.942 128.617 175.958C128.421 175.974 128.231 176.034 128.061 176.132C127.885 176.269 127.734 176.436 127.618 176.627C127.399 176.924 127.234 177.256 127.13 177.61C127.103 177.972 127.134 178.335 127.22 178.688C127.257 178.996 127.37 179.291 127.549 179.545C127.755 179.724 127.999 179.854 128.261 179.925C128.524 179.997 128.8 180.009 129.068 179.96L134.764 179.852C136.549 179.702 138.352 179.779 140.134 179.6C141.09 179.539 142.033 179.354 142.941 179.05C143.012 179.038 143.078 179.008 143.134 178.963C143.19 178.919 143.234 178.861 143.262 178.795C143.262 178.795 143.247 178.624 143.24 178.539C142.458 177.453 141.279 176.721 139.959 176.502" fill="#A6DCE9"/>
<path opacity="0.1" d="M149.957 125.799C149.154 126.153 148.283 126.329 147.406 126.314C146.528 126.299 145.664 126.094 144.872 125.713C143.574 124.851 142.471 123.725 141.638 122.407C140.804 121.089 140.258 119.61 140.036 118.067C138.42 111.406 138.43 104.066 134.4 98.5503C132.886 97.083 131.893 95.1609 131.572 93.0767C131.617 90.9025 133.506 89.2871 134.513 87.3462C135.436 85.1418 135.831 82.7515 135.666 80.3667L135.732 66.9105C135.827 68.0448 140.957 70.0121 142.887 71.5917C142.498 72.0529 142.019 72.4644 141.63 72.9255C140.64 74.3904 140.1 76.1137 140.078 77.8823C139.714 81.8751 139.651 85.8899 139.89 89.8923C140.368 98.6194 144.154 106.668 147.318 114.77C148.892 118.244 149.788 121.988 149.957 125.799Z" fill="url(#paint6_linear)"/>
<path d="M165.935 36.64C166.526 40.1279 166.229 43.7086 165.07 47.0506C164.885 47.1752 164.681 47.2695 164.466 47.3299C164.306 47.4022 164.126 47.4173 163.956 47.3728C162.641 46.998 155.294 41.3904 146.255 43.8073C145.778 43.9604 145.274 44.004 144.778 43.9348C144.282 43.8656 143.809 43.6853 143.392 43.4074C142.976 43.1295 142.628 42.7612 142.373 42.3298C142.119 41.8985 141.965 41.4153 141.923 40.9161C141.881 40.417 141.952 39.9148 142.131 39.447C142.31 38.9792 142.591 38.5578 142.956 38.2143C143.32 37.8707 143.756 37.6139 144.234 37.4628C144.711 37.3118 145.216 37.2704 145.711 37.3418C145.711 37.3418 157.783 34.3557 160.716 27.5121C161.145 26.5051 161.804 26.1927 162.559 26.3576C163.017 26.4901 163.438 26.7286 163.787 27.0539V27.0539C165.089 30.0889 165.817 33.3393 165.935 36.64Z" fill="#C0D8E0"/>
<path opacity="0.2" d="M165.935 36.6401C166.526 40.128 166.228 43.7087 165.07 47.0507C165.013 47.1304 164.94 47.1978 164.856 47.249C164.772 47.3002 164.679 47.3341 164.582 47.3488C163.397 47.1629 162.075 42.6477 161.603 37.0331C161.131 31.4184 161.627 27.15 162.68 26.4332C162.761 26.4018 162.849 26.3944 162.935 26.4118C163.246 26.3856 163.584 26.6713 163.915 27.2146C165.154 30.2078 165.838 33.4017 165.935 36.6401Z" fill="url(#paint7_linear)"/>
<path d="M193.136 85.9902L187.657 115.123C187.077 117.334 187.274 119.676 188.215 121.759C189.862 123.854 192.227 125.263 194.852 125.713C208.007 129.957 219.362 138.494 227.102 149.958C224.786 146.497 235.111 132.921 236.187 129.774C239.039 121.624 235.295 119.169 229.527 113C218.911 102.099 207.268 91.8837 193.136 85.9902Z" fill="white"/>
<path d="M138.938 269.113L185.372 272.403C187.516 272.813 189.732 272.612 191.769 271.825C193.805 271.038 195.58 269.696 196.893 267.95C208.536 256.804 220.485 245.232 226.886 230.443L195.022 236.208C185.778 237.9 178.181 248.648 170.4 253.815C165.354 257.159 160.088 260.159 154.638 262.795C150.827 264.629 143.273 269.434 138.938 269.113Z" fill="white"/>
<path d="M98.8406 216.468C98.9437 216.161 99.1409 215.895 99.4042 215.707C99.7026 215.595 100.026 215.568 100.339 215.628C105.608 215.87 110.875 216.198 116.14 216.612C114.555 219.449 114.141 222.794 114.985 225.933C115.869 229.045 117.696 231.805 120.213 233.832C118.995 233.902 117.772 233.783 116.589 233.48L107.216 231.585C105.242 231.18 101.956 231.113 100.66 229.28C99.8272 227.574 99.2421 225.758 98.9227 223.886C98.01 221.503 97.9809 218.871 98.8406 216.468Z" fill="white"/>
<path opacity="0.1" d="M47.6826 219.334L60.9403 194.83L76.0781 193.014L58.2768 218.443L47.6826 219.334Z" fill="url(#paint8_linear)"/>
<path opacity="0.1" d="M29.1285 220.895L43.826 196.212L57.524 194.575L39.6944 220.006L29.1285 220.895Z" fill="url(#paint9_linear)"/>
<path opacity="0.2" d="M29.4733 170.062L52.275 188.134L63.3791 187.2L40.0392 169.173L29.4733 170.062Z" fill="url(#paint10_linear)"/>
</g>
<defs>
<linearGradient id="paint0_linear" x1="503.878" y1="128.638" x2="-101.232" y2="267.774" gradientUnits="userSpaceOnUse">
<stop offset="0.01"/>
<stop offset="0.08" stop-opacity="0.69"/>
<stop offset="0.21" stop-opacity="0.32"/>
<stop offset="1" stop-opacity="0"/>
</linearGradient>
<linearGradient id="paint1_linear" x1="6528.29" y1="2162.63" x2="9038.08" y2="4628.02" gradientUnits="userSpaceOnUse">
<stop offset="0.01"/>
<stop offset="0.08" stop-opacity="0.69"/>
<stop offset="0.21" stop-opacity="0.32"/>
<stop offset="1" stop-opacity="0"/>
</linearGradient>
<linearGradient id="paint2_linear" x1="23272.5" y1="-220.356" x2="23444.4" y2="1975.26" gradientUnits="userSpaceOnUse">
<stop offset="0.01"/>
<stop offset="0.08" stop-opacity="0.69"/>
<stop offset="0.21" stop-opacity="0.32"/>
<stop offset="1" stop-opacity="0"/>
</linearGradient>
<linearGradient id="paint3_linear" x1="4076.43" y1="1753.81" x2="6221.32" y2="3261.64" gradientUnits="userSpaceOnUse">
<stop offset="0.01"/>
<stop offset="0.08" stop-opacity="0.69"/>
<stop offset="0.21" stop-opacity="0.32"/>
<stop offset="1" stop-opacity="0"/>
</linearGradient>
<linearGradient id="paint4_linear" x1="4144.42" y1="662.537" x2="4527.44" y2="1762.44" gradientUnits="userSpaceOnUse">
<stop offset="0.01"/>
<stop offset="0.08" stop-opacity="0.69"/>
<stop offset="0.21" stop-opacity="0.32"/>
<stop offset="1" stop-opacity="0"/>
</linearGradient>
<linearGradient id="paint5_linear" x1="2441.77" y1="1653.91" x2="2149.53" y2="969.308" gradientUnits="userSpaceOnUse">
<stop offset="0.01"/>
<stop offset="0.08" stop-opacity="0.69"/>
<stop offset="0.21" stop-opacity="0.32"/>
<stop offset="1" stop-opacity="0"/>
</linearGradient>
<linearGradient id="paint6_linear" x1="1180.71" y1="2875.35" x2="2120.49" y2="2850.2" gradientUnits="userSpaceOnUse">
<stop offset="0.01"/>
<stop offset="0.13" stop-opacity="0.69"/>
<stop offset="0.25" stop-opacity="0.32"/>
<stop offset="1" stop-opacity="0"/>
</linearGradient>
<linearGradient id="paint7_linear" x1="569.913" y1="653.876" x2="628.47" y2="652.748" gradientUnits="userSpaceOnUse">
<stop offset="0.01"/>
<stop offset="0.13" stop-opacity="0.69"/>
<stop offset="0.25" stop-opacity="0.32"/>
<stop offset="1" stop-opacity="0"/>
</linearGradient>
<linearGradient id="paint8_linear" x1="1377.96" y1="1674.45" x2="1358.54" y2="2663.94" gradientUnits="userSpaceOnUse">
<stop offset="0.01"/>
<stop offset="0.08" stop-opacity="0.69"/>
<stop offset="0.21" stop-opacity="0.32"/>
<stop offset="1" stop-opacity="0"/>
</linearGradient>
<linearGradient id="paint9_linear" x1="1160.32" y1="1692.76" x2="1140.9" y2="2682.25" gradientUnits="userSpaceOnUse">
<stop offset="0.01"/>
<stop offset="0.08" stop-opacity="0.69"/>
<stop offset="0.21" stop-opacity="0.32"/>
<stop offset="1" stop-opacity="0"/>
</linearGradient>
<linearGradient id="paint10_linear" x1="-3750.03" y1="-60556.4" x2="-3868.55" y2="-61265.6" gradientUnits="userSpaceOnUse">
<stop offset="0.01"/>
<stop offset="0.08" stop-opacity="0.69"/>
<stop offset="0.21" stop-opacity="0.32"/>
<stop offset="1" stop-opacity="0"/>
</linearGradient>
</defs>
</svg>
