<svg width="60" height="60" viewBox="0 0 60 60" fill="none" xmlns="http://www.w3.org/2000/svg">
<path d="M28.5894 36.8542C28.1629 36.4254 27.4734 36.4254 27.0469 36.852L23.0029 40.8993H20.1818C19.5785 40.8993 19.0909 41.388 19.0909 41.9913V44.1742H16.909C16.3058 44.1742 15.8182 44.6629 15.8182 45.2662V47.449H13.6364C13.0343 47.449 12.5455 47.9377 12.5455 48.541V51.3643L12.0939 51.816H8.18184V47.9018L26.4066 29.6618C26.8331 29.2364 26.8331 28.5447 26.4077 28.1183L26.0881 27.7975C25.7968 27.5074 25.6375 27.1211 25.6375 26.7098V26.7054C25.6375 26.1022 25.1499 25.6156 24.5467 25.6156C23.9434 25.6156 23.4558 26.1065 23.4558 26.7098C23.4558 27.4876 23.6925 28.2293 24.1322 28.8512L6.31959 46.6777C6.11456 46.8829 6 47.1599 6 47.4502V52.909C6 53.5112 6.48872 53.9999 7.09088 53.9999H12.5454C12.8346 53.9999 13.1127 53.8843 13.3167 53.6803L14.4076 52.5883C14.6127 52.3832 14.7272 52.1062 14.7272 51.817V49.6342H16.909C17.5123 49.6342 17.9999 49.1454 17.9999 48.5422V46.3593H20.1818C20.785 46.3593 21.2726 45.8706 21.2726 45.2673V43.0844H23.4545C23.7446 43.0844 24.0218 42.9688 24.2258 42.7648L28.5893 38.3979C29.016 37.9712 29.016 37.2806 28.5894 36.8542Z" fill="#EB5757"/>
<path d="M45.4985 18.8399L41.135 14.473C39.8498 13.1846 37.6048 13.1846 36.3197 14.473C34.9921 15.8017 34.9921 17.9639 36.3197 19.2916L40.6833 23.6585C41.3258 24.302 42.1811 24.6566 43.0909 24.6566C44.0007 24.6566 44.856 24.302 45.4985 23.6585C46.8261 22.3297 46.8261 20.1676 45.4985 18.8399ZM43.956 22.1137C43.4934 22.5763 42.6884 22.5763 42.2258 22.1137L37.8622 17.7469C37.3866 17.2701 37.3866 16.4934 37.8622 16.0156C38.0935 15.7843 38.4001 15.6567 38.7274 15.6567C39.0546 15.6567 39.3612 15.7843 39.5925 16.0156L43.9561 20.3825C44.4327 20.8592 44.4327 21.637 43.956 22.1137Z" fill="#EB5757"/>
<path d="M52.9092 19.705L40.2699 7.05591C38.8615 5.64863 36.4113 5.64751 35.003 7.05591L24.5455 17.521C23.8419 18.2246 23.4546 19.1606 23.4546 20.1566C23.4546 21.1526 23.8419 22.0886 24.5455 22.7922L35.0029 33.2574L34.3615 33.8999C34.0713 34.1901 33.6851 34.3505 33.2749 34.3505H33.2738C32.8625 34.3505 32.4752 34.1901 32.1839 33.8989L29.1348 30.8476C28.7083 30.421 28.0188 30.421 27.5923 30.8476L21.5923 36.852C21.1657 37.2786 21.1657 37.9691 21.5923 38.3956C21.805 38.6083 22.0843 38.7152 22.3635 38.7152C22.6428 38.7152 22.9221 38.6083 23.1348 38.3956L28.3635 33.1636L30.6414 35.4425C31.345 36.1461 32.2788 36.5334 33.2748 36.5334C33.2759 36.5334 33.277 36.5334 33.2781 36.5334C34.2708 36.5322 35.2035 36.1439 35.9039 35.4425L37.3167 34.0286C37.7432 33.6021 37.7432 32.9115 37.3167 32.485L26.088 21.2476C25.7956 20.9563 25.6364 20.569 25.6364 20.1567C25.6364 19.7443 25.7957 19.3571 26.088 19.0647L36.5455 8.60063C37.1291 8.01591 38.1436 8.01704 38.7273 8.60063L51.3666 21.2498C51.659 21.541 51.8183 21.9283 51.8183 22.3406C51.8183 22.7529 51.659 23.1402 51.3666 23.4326L40.9092 33.8966C40.6168 34.189 40.2306 34.3494 39.8183 34.3494C39.215 34.3494 38.7274 34.8381 38.7274 35.4414C38.7274 36.0446 39.215 36.5334 39.8183 36.5334C40.8121 36.5334 41.7481 36.1461 42.4517 35.4414L52.9092 24.9762C53.6128 24.2726 54 23.3366 54 22.3406C54 21.3436 53.6128 20.4076 52.9092 19.705Z" fill="#EB5757"/>
</svg>
