<svg width="360" height="527" viewBox="0 0 360 527" fill="none" xmlns="http://www.w3.org/2000/svg">
<path opacity="0.21" fill-rule="evenodd" clip-rule="evenodd" d="M-16 514H377.075L385 0H-16V514Z" fill="url(#paint0_radial)"/>
<path fill-rule="evenodd" clip-rule="evenodd" d="M299 85L311 96.7306L299 108.461L287 96.7306L299 85Z" fill="#C0D8E0"/>
<rect x="52" y="150" width="108.457" height="206" rx="8" fill="#DDE3E9"/>
<path fill-rule="evenodd" clip-rule="evenodd" d="M105.887 343.04C111.538 343.04 116.119 338.459 116.119 332.808C116.119 327.157 111.538 322.576 105.887 322.576C100.237 322.576 95.6556 327.157 95.6556 332.808C95.6556 338.459 100.237 343.04 105.887 343.04Z" fill="white"/>
<path fill-rule="evenodd" clip-rule="evenodd" d="M97.0199 163.642C97.7733 163.642 98.3841 163.032 98.3841 162.278C98.3841 161.525 97.7733 160.914 97.0199 160.914C96.2664 160.914 95.6556 161.525 95.6556 162.278C95.6556 163.032 96.2664 163.642 97.0199 163.642Z" fill="white"/>
<rect x="101.795" y="160.914" width="14.3245" height="2.72848" rx="1.36424" fill="white"/>
<g clip-path="url(#clip0)">
<g clip-path="url(#clip1)">
<rect x="61.5497" y="169.099" width="89" height="37" rx="4" fill="white"/>
<g clip-path="url(#clip2)">
<rect x="70.5497" y="180.15" width="31" height="5.52517" rx="2.76258" fill="#DDE3E9"/>
<rect x="70.5497" y="189.358" width="20.8082" height="5.52517" rx="2.76258" fill="#DDE3E9"/>
</g>
<path fill-rule="evenodd" clip-rule="evenodd" d="M157.55 194.099C161.416 194.099 164.55 190.965 164.55 187.099C164.55 183.233 161.416 180.099 157.55 180.099C153.684 180.099 150.55 183.233 150.55 187.099C150.55 190.965 153.684 194.099 157.55 194.099Z" fill="#DDE3E9"/>
</g>
<g clip-path="url(#clip3)">
<rect x="61.5497" y="211.391" width="89" height="29" rx="4" fill="white"/>
<g clip-path="url(#clip4)">
<rect x="100.55" y="219.985" width="31" height="4.29735" rx="2.14868" fill="#DDE3E9"/>
<rect x="100.55" y="227.148" width="20.8082" height="4.29735" rx="2.14868" fill="#DDE3E9"/>
</g>
<path fill-rule="evenodd" clip-rule="evenodd" d="M82.5497 237.391C89.1771 237.391 94.5497 232.018 94.5497 225.391C94.5497 218.763 89.1771 213.391 82.5497 213.391C75.9223 213.391 70.5497 218.763 70.5497 225.391C70.5497 232.018 75.9223 237.391 82.5497 237.391Z" fill="#C5CFD6"/>
</g>
<g clip-path="url(#clip5)">
<rect x="61.5497" y="245.497" width="89" height="29" rx="4" fill="white"/>
<g clip-path="url(#clip6)">
<rect x="70.5497" y="254.091" width="31" height="4.29735" rx="2.14867" fill="#DDE3E9"/>
<rect x="70.5497" y="261.254" width="20.8082" height="4.29735" rx="2.14868" fill="#AFB9C5"/>
</g>
<path fill-rule="evenodd" clip-rule="evenodd" d="M157.55 266.497C161.416 266.497 164.55 263.363 164.55 259.497C164.55 255.631 161.416 252.497 157.55 252.497C153.684 252.497 150.55 255.631 150.55 259.497C150.55 263.363 153.684 266.497 157.55 266.497Z" fill="#DDE3E9"/>
</g>
<g clip-path="url(#clip7)">
<rect x="61.5497" y="279.603" width="89" height="29" rx="4" fill="white"/>
<g clip-path="url(#clip8)">
<rect x="100.55" y="288.197" width="31" height="4.29735" rx="2.14868" fill="#DDE3E9"/>
<rect x="100.55" y="295.36" width="20.8082" height="4.29735" rx="2.14868" fill="#DDE3E9"/>
</g>
<path fill-rule="evenodd" clip-rule="evenodd" d="M82.5497 305.603C89.1771 305.603 94.5497 300.23 94.5497 293.603C94.5497 286.975 89.1771 281.603 82.5497 281.603C75.9223 281.603 70.5497 286.975 70.5497 293.603C70.5497 300.23 75.9223 305.603 82.5497 305.603Z" fill="#C5CFD6"/>
</g>
</g>
<path fill-rule="evenodd" clip-rule="evenodd" d="M47.187 476C66.6203 476 82.3741 460.882 82.3741 442.232C82.3741 423.583 66.6203 408.465 47.187 408.465C27.7537 408.465 11.9999 423.583 11.9999 442.232C11.9999 460.882 27.7537 476 47.187 476Z" fill="#FFE7CA"/>
<g clip-path="url(#clip9)">
<rect x="104.417" y="175.507" width="300" height="263" rx="8" fill="#F2F2F2"/>
<path d="M104.417 183.507C104.417 179.089 107.999 175.507 112.417 175.507H396.417C400.836 175.507 404.417 179.089 404.417 183.507V202.507H104.417V183.507Z" fill="#C5CFD6"/>
<path fill-rule="evenodd" clip-rule="evenodd" d="M117.417 193.507C119.626 193.507 121.417 191.716 121.417 189.507C121.417 187.298 119.626 185.507 117.417 185.507C115.208 185.507 113.417 187.298 113.417 189.507C113.417 191.716 115.208 193.507 117.417 193.507Z" fill="#F2F2F2"/>
<path fill-rule="evenodd" clip-rule="evenodd" d="M129.417 193.507C131.626 193.507 133.417 191.716 133.417 189.507C133.417 187.298 131.626 185.507 129.417 185.507C127.208 185.507 125.417 187.298 125.417 189.507C125.417 191.716 127.208 193.507 129.417 193.507Z" fill="#F2F2F2"/>
<path fill-rule="evenodd" clip-rule="evenodd" d="M141.417 193.507C143.626 193.507 145.417 191.716 145.417 189.507C145.417 187.298 143.626 185.507 141.417 185.507C139.208 185.507 137.417 187.298 137.417 189.507C137.417 191.716 139.208 193.507 141.417 193.507Z" fill="#F2F2F2"/>
<rect x="117" y="208" width="243" height="36" rx="4" fill="white"/>
<g clip-path="url(#clip10)">
<rect x="126" y="218.8" width="185" height="5.4" rx="2.7" fill="#DDE3E9"/>
<rect x="126" y="227.8" width="124.178" height="5.4" rx="2.7" fill="#DDE3E9"/>
</g>
<path fill-rule="evenodd" clip-rule="evenodd" d="M351.435 232.5C355.301 232.5 358.435 229.366 358.435 225.5C358.435 221.634 355.301 218.5 351.435 218.5C347.569 218.5 344.435 221.634 344.435 225.5C344.435 229.366 347.569 232.5 351.435 232.5Z" fill="#DDE3E9"/>
<path fill-rule="evenodd" clip-rule="evenodd" d="M351.435 228.5C353.092 228.5 354.435 227.157 354.435 225.5C354.435 223.843 353.092 222.5 351.435 222.5C349.778 222.5 348.435 223.843 348.435 225.5C348.435 227.157 349.778 228.5 351.435 228.5Z" fill="#F2F2F2"/>
<rect x="117" y="250" width="243" height="29" rx="4" fill="white"/>
<g clip-path="url(#clip11)">
<rect x="126" y="258.7" width="185" height="4.35" rx="2.175" fill="#DDE3E9"/>
<rect x="126" y="265.95" width="124.178" height="4.35" rx="2.175" fill="#DDE3E9"/>
</g>
<path fill-rule="evenodd" clip-rule="evenodd" d="M351.435 271.5C355.301 271.5 358.435 268.366 358.435 264.5C358.435 260.634 355.301 257.5 351.435 257.5C347.569 257.5 344.435 260.634 344.435 264.5C344.435 268.366 347.569 271.5 351.435 271.5Z" fill="#DDE3E9"/>
<path fill-rule="evenodd" clip-rule="evenodd" d="M351.435 267.5C353.092 267.5 354.435 266.157 354.435 264.5C354.435 262.843 353.092 261.5 351.435 261.5C349.778 261.5 348.435 262.843 348.435 264.5C348.435 266.157 349.778 267.5 351.435 267.5Z" fill="#F2F2F2"/>
<rect x="117" y="286" width="243" height="29" rx="4" fill="white"/>
<g clip-path="url(#clip12)">
<rect x="126" y="294.7" width="185" height="4.35" rx="2.175" fill="#DDE3E9"/>
<rect x="126" y="301.95" width="124.178" height="4.35" rx="2.175" fill="#DDE3E9"/>
</g>
<path fill-rule="evenodd" clip-rule="evenodd" d="M351.435 307.5C355.301 307.5 358.435 304.366 358.435 300.5C358.435 296.634 355.301 293.5 351.435 293.5C347.569 293.5 344.435 296.634 344.435 300.5C344.435 304.366 347.569 307.5 351.435 307.5Z" fill="#DDE3E9"/>
<path fill-rule="evenodd" clip-rule="evenodd" d="M351.435 303.5C353.092 303.5 354.435 302.157 354.435 300.5C354.435 298.843 353.092 297.5 351.435 297.5C349.778 297.5 348.435 298.843 348.435 300.5C348.435 302.157 349.778 303.5 351.435 303.5Z" fill="#AFB9C5"/>
<rect x="117" y="393" width="243" height="29" rx="4" fill="white"/>
<g clip-path="url(#clip13)">
<rect x="126" y="401.7" width="185" height="4.35" rx="2.175" fill="#DDE3E9"/>
<rect x="126" y="408.95" width="124.178" height="4.35" rx="2.175" fill="#DDE3E9"/>
</g>
<path fill-rule="evenodd" clip-rule="evenodd" d="M351.435 414.5C355.301 414.5 358.435 411.366 358.435 407.5C358.435 403.634 355.301 400.5 351.435 400.5C347.569 400.5 344.435 403.634 344.435 407.5C344.435 411.366 347.569 414.5 351.435 414.5Z" fill="#DDE3E9"/>
<path fill-rule="evenodd" clip-rule="evenodd" d="M351.435 410.5C353.092 410.5 354.435 409.157 354.435 407.5C354.435 405.843 353.092 404.5 351.435 404.5C349.778 404.5 348.435 405.843 348.435 407.5C348.435 409.157 349.778 410.5 351.435 410.5Z" fill="#F2F2F2"/>
<rect x="117" y="357" width="243" height="29" rx="4" fill="white"/>
<g clip-path="url(#clip14)">
<rect x="126" y="365.7" width="185" height="4.35" rx="2.175" fill="#DDE3E9"/>
<rect x="126" y="372.95" width="124.178" height="4.35" rx="2.175" fill="#DDE3E9"/>
</g>
<path fill-rule="evenodd" clip-rule="evenodd" d="M351.435 378.5C355.301 378.5 358.435 375.366 358.435 371.5C358.435 367.634 355.301 364.5 351.435 364.5C347.569 364.5 344.435 367.634 344.435 371.5C344.435 375.366 347.569 378.5 351.435 378.5Z" fill="#DDE3E9"/>
<path fill-rule="evenodd" clip-rule="evenodd" d="M351.435 374.5C353.092 374.5 354.435 373.157 354.435 371.5C354.435 369.843 353.092 368.5 351.435 368.5C349.778 368.5 348.435 369.843 348.435 371.5C348.435 373.157 349.778 374.5 351.435 374.5Z" fill="#F2F2F2"/>
<rect x="117" y="321" width="243" height="30" rx="4" fill="white"/>
<rect x="126" y="330" width="185" height="4.5" rx="2.25" fill="#DDE3E9"/>
<rect x="126" y="337.5" width="124.178" height="4.5" rx="2.25" fill="#DDE3E9"/>
<path fill-rule="evenodd" clip-rule="evenodd" d="M351.435 342.5C355.301 342.5 358.435 339.366 358.435 335.5C358.435 331.634 355.301 328.5 351.435 328.5C347.569 328.5 344.435 331.634 344.435 335.5C344.435 339.366 347.569 342.5 351.435 342.5Z" fill="#DDE3E9"/>
<path fill-rule="evenodd" clip-rule="evenodd" d="M351.435 338.5C353.092 338.5 354.435 337.157 354.435 335.5C354.435 333.843 353.092 332.5 351.435 332.5C349.778 332.5 348.435 333.843 348.435 335.5C348.435 337.157 349.778 338.5 351.435 338.5Z" fill="#F2F2F2"/>
<path opacity="0.3" fill-rule="evenodd" clip-rule="evenodd" d="M239.108 359.9C268.234 359.9 291.846 336.289 291.846 307.162C291.846 278.036 268.234 254.424 239.108 254.424C209.981 254.424 186.37 278.036 186.37 307.162C186.37 336.289 209.981 359.9 239.108 359.9Z" fill="#A6DCE9"/>
</g>
<path fill-rule="evenodd" clip-rule="evenodd" d="M109.526 307.311C113.91 309.174 118.048 309.79 119.845 309.048C124.352 307.188 122.385 290.064 117.822 283.846C113.26 277.628 94.2489 277.311 95.1835 290.771C95.5079 295.443 98.0349 299.297 101.385 302.261L99.5954 326.971L114.579 324.864L109.526 307.311Z" fill="#B28B67"/>
<path fill-rule="evenodd" clip-rule="evenodd" d="M110.875 277.352C108.74 277.017 105.738 277.223 104.508 277.542C104.98 275.742 104.996 273.809 104.507 271.997C104.032 270.237 103.015 268.824 102.048 267.329C101.603 266.641 101.112 265.962 100.455 265.48C99.785 264.988 98.9862 264.714 98.1791 264.643C97.3531 264.571 96.5188 264.704 95.7411 264.984C95.3971 265.109 95.1018 265.315 94.7668 265.454C94.4238 265.596 94.2199 265.398 93.9301 265.211C93.2318 264.76 92.2817 264.623 91.4806 264.639C90.5818 264.656 89.6834 264.918 88.8812 265.327C88.1004 265.724 87.3766 266.293 86.8771 267.044C86.6547 267.378 86.4625 267.75 86.3591 268.145C86.3168 268.308 86.319 268.4 86.1736 268.478C86.0391 268.549 85.8735 268.574 85.7342 268.644C84.3867 269.321 83.3303 270.582 82.8684 272.074C82.5989 272.945 82.6189 274.409 82.8951 276.013C83.1714 277.618 85.221 281.618 86.8009 282.96C88.2112 284.158 90.1283 284.81 91.9116 284.963C90.9485 286.432 90.4146 288.173 90.0836 289.914C89.7239 291.805 89.6079 293.734 89.7362 295.665C89.8581 297.5 90.1155 299.422 90.7918 301.138C91.4244 302.744 92.4695 303.987 94.0161 304.652C94.7245 304.956 95.4687 305.155 96.2133 305.328C96.9471 305.498 97.682 305.66 98.4324 305.708C99.8525 305.799 101.436 305.526 102.345 304.281C102.673 303.832 103.025 303.276 103.236 302.754C103.312 302.566 103.357 302.444 103.211 302.292C103.036 302.109 102.778 301.987 102.568 301.854C101.369 301.099 100.535 299.982 100.166 298.568C99.7915 297.133 99.9198 295.195 101.252 294.358C102.897 293.326 104.956 293.956 106.634 294.577C106.97 292.15 108.036 289.857 110.019 288.486C112.214 286.97 114.904 286.45 117.188 285.093C117.783 284.739 118.384 284.348 118.774 283.743C118.937 283.49 119.124 283.165 119.16 282.856C119.207 282.45 118.907 282.157 118.669 281.879C117.404 280.405 113.01 277.687 110.875 277.352Z" fill="#191847"/>
<path fill-rule="evenodd" clip-rule="evenodd" d="M104.961 376.503L151.808 454.633L186.931 520.685H194.496L135.648 376.503L104.961 376.503Z" fill="#997659"/>
<path fill-rule="evenodd" clip-rule="evenodd" d="M184.791 517.243C183.706 516.807 182.431 517.278 182.056 518.386C181.656 519.564 181.247 520.982 181.247 521.852C181.247 523.553 181.815 526.817 181.815 526.817C183.793 526.817 217.375 526.817 217.375 526.817C217.375 526.817 218.761 522.245 215.774 521.881C212.788 521.516 210.813 521.223 210.813 521.223L194.631 514.026C194.117 513.798 193.515 514.038 193.3 514.558L192.383 516.778C192.383 516.778 189.618 518.065 187.89 518.065C187.05 518.065 185.826 517.66 184.791 517.243Z" fill="#E4E4E4"/>
<path fill-rule="evenodd" clip-rule="evenodd" d="M177.176 510.108L191.765 505.705C191.765 505.705 182.177 477.113 168.263 442.776C154.348 408.439 138.375 376.503 138.375 376.503H97.1705C97.1705 376.503 114.929 416.9 134.823 449.915C154.717 482.929 177.176 510.108 177.176 510.108Z" fill="#C74949"/>
<path fill-rule="evenodd" clip-rule="evenodd" d="M101.882 376.503C97.4602 403.959 88.9322 439.036 88.1274 440.118C87.5909 440.84 68.2754 447.297 30.1809 459.488L31.815 466.143C77.2426 459.604 101.179 454.532 103.624 450.925C107.292 445.514 125.607 402.769 132.701 376.503H101.882Z" fill="#B28B67"/>
<path fill-rule="evenodd" clip-rule="evenodd" d="M43.5718 453.736L46.4501 464.454C80.4273 467.426 101.246 465.278 108.906 458.01C116.566 450.741 125.296 423.572 135.096 376.503H95.805C89.5958 415.046 86.1245 435.127 85.391 436.745C84.6575 438.363 70.7178 444.026 43.5718 453.736Z" fill="#EB5757"/>
<path fill-rule="evenodd" clip-rule="evenodd" d="M32.8631 459.101C33.1058 457.954 32.4181 456.777 31.2589 456.601C30.0269 456.413 28.5582 456.258 27.7006 456.409C26.0212 456.704 22.8978 457.829 22.8978 457.829C23.2413 459.772 29.0726 492.763 29.0726 492.763C29.0726 492.763 33.8261 493.33 33.6673 490.333C33.5086 487.336 33.4555 485.345 33.4555 485.345L37.7487 468.203C37.8856 467.656 37.5432 467.104 36.9921 466.983L34.6431 466.468C34.6431 466.468 32.8927 463.975 32.5926 462.277C32.4471 461.454 32.6329 460.188 32.8631 459.101Z" fill="#E4E4E4"/>
<path fill-rule="evenodd" clip-rule="evenodd" d="M149.283 321.057L129.275 335.944L138.481 343.387L152.207 326.791C160.182 323.344 163.741 321.142 162.884 320.186C162.162 319.379 161.204 319.545 160.32 319.699C159.633 319.818 158.991 319.929 158.542 319.567C157.518 318.739 158.748 315.166 160.061 311.826C161.375 308.485 159.544 309.018 158.537 309.613C155.371 312.467 152.287 316.281 149.283 321.057ZM173.404 334.606L164.618 341.161L166.499 350.614C166.499 350.614 172.04 345.308 177.137 343.087C183.636 340.255 186.17 338.434 188.885 333.769C190.337 331.272 191.203 326.543 189.314 325.309C188.589 324.835 186.371 326.507 184.107 328.212C182.382 329.512 180.631 330.832 179.495 331.237C177.965 331.782 177.864 329.719 177.783 328.071C177.724 326.889 177.677 325.92 177.119 326.28C174.34 326.72 173.404 334.606 173.404 334.606Z" fill="#997659"/>
<path fill-rule="evenodd" clip-rule="evenodd" d="M118.351 334.791C125.93 333.643 135.827 330.621 145.667 322.263L151.233 331.102C144.82 339.525 135.196 347.057 126.001 348.089C118.755 348.902 113.843 340.711 118.351 334.791Z" fill="#4349B7"/>
<path fill-rule="evenodd" clip-rule="evenodd" d="M106.96 402.312C99.6117 402.388 92.8601 402.458 89.0392 403.783C82.6243 390.12 85.022 380.612 87.2354 371.836C88.5694 366.546 89.8365 361.521 89.067 356.013C86.826 339.971 96.269 313.466 98.1686 313.199L115.492 310.763C117.66 320.58 122.475 330.862 127.321 341.21C128.453 343.627 129.587 346.047 130.688 348.466C143.678 349.546 170.24 335.692 170.24 335.692C170.24 335.692 179.342 349.264 179.681 355.541C164.601 366.308 151.185 372.05 139.731 373.915C141.051 380.664 141.13 387.252 139.173 393.557C136.551 402.005 120.711 402.17 106.96 402.312Z" fill="#454EEB"/>
<path fill-rule="evenodd" clip-rule="evenodd" d="M34.6057 391.012L54.335 410.741L34.6057 430.471L14.8763 410.741L34.6057 391.012Z" fill="#CFEFF7"/>
<path fill-rule="evenodd" clip-rule="evenodd" d="M218.645 308.091C218.644 308.095 218.642 308.099 218.639 308.103C218.642 308.099 218.646 308.084 218.645 308.091Z" fill="#C5CFD6"/>
<path fill-rule="evenodd" clip-rule="evenodd" d="M218.642 308.097C218.642 308.098 218.641 308.099 218.641 308.101C218.641 308.097 218.648 308.086 218.642 308.097Z" fill="#C5CFD6"/>
<path fill-rule="evenodd" clip-rule="evenodd" d="M218.672 308.034C218.666 308.049 218.658 308.063 218.651 308.078C218.654 308.071 218.658 308.065 218.661 308.057C218.57 308.249 218.628 308.124 218.672 308.034Z" fill="#C5CFD6"/>
<path fill-rule="evenodd" clip-rule="evenodd" d="M218.652 308.079C218.649 308.086 218.645 308.093 218.642 308.1C218.617 308.141 218.652 308.079 218.652 308.079Z" fill="#C5CFD6"/>
<path fill-rule="evenodd" clip-rule="evenodd" d="M218.642 308.097C218.642 308.096 218.642 308.096 218.643 308.096C218.642 308.096 218.642 308.096 218.642 308.097Z" fill="#C5CFD6"/>
<path fill-rule="evenodd" clip-rule="evenodd" d="M218.638 308.102C218.633 308.111 218.662 308.069 218.638 308.102V308.102Z" fill="#C5CFD6"/>
<path fill-rule="evenodd" clip-rule="evenodd" d="M218.642 308.097L218.643 308.096C218.643 308.096 218.642 308.097 218.642 308.097Z" fill="#C5CFD6"/>
<rect x="183.104" y="265" width="75.882" height="50.0821" rx="4" transform="rotate(3.53824 183.104 265)" fill="#2B44FF"/>
<path fill-rule="evenodd" clip-rule="evenodd" d="M210.826 281.368L186.782 315.614L230.468 318.315L210.826 281.368Z" fill="black" fill-opacity="0.2"/>
<path fill-rule="evenodd" clip-rule="evenodd" d="M232.757 292.295L211.836 317.163L250.456 319.551L232.757 292.295Z" fill="black" fill-opacity="0.2"/>
<path fill-rule="evenodd" clip-rule="evenodd" d="M241 293.155C244.974 293.401 248.394 290.378 248.64 286.405C248.886 282.431 245.863 279.01 241.89 278.765C237.916 278.519 234.495 281.541 234.25 285.515C234.004 289.489 237.026 292.909 241 293.155Z" fill="white"/>
<path fill-rule="evenodd" clip-rule="evenodd" d="M296.622 297.105C292.691 300.176 288.673 301.92 286.653 301.658C281.59 300.999 278.941 283.156 281.873 275.634C284.804 268.111 303.95 262.638 306.651 276.498C307.588 281.308 306.076 285.89 303.49 289.794L311.994 314.287L296.265 316.218L296.622 297.105Z" fill="#B28B67"/>
<path fill-rule="evenodd" clip-rule="evenodd" d="M293.681 279.658C292.073 277.806 290.578 276.426 288.769 275.74C281.867 276.698 280.906 275.562 280.395 271.397C281.414 270.463 285.19 268.638 289.557 267.718C291.729 266.8 294.411 266.593 297.112 267.349C300.393 267.856 303.316 269.458 304.946 272.929C310.144 279.785 307.831 287.87 303.763 291.034C302.425 289.798 301.241 288.586 300.174 287.417C300.818 286.616 301.15 285.567 301.015 284.468C300.749 282.303 298.773 280.764 296.601 281.031C296.441 281.05 296.285 281.079 296.133 281.117C296.367 283.835 297.09 293.042 296.424 296.352C295.639 300.255 288.484 302.068 285.95 302.379C283.76 302.648 283.581 300.572 283.453 299.085C283.434 298.871 283.417 298.669 283.395 298.487C283.348 298.109 283.842 298.05 284.4 297.982C285.124 297.895 285.957 297.794 285.855 296.966C285.744 296.063 284.408 295.524 283.211 295.042C282.465 294.741 281.773 294.462 281.468 294.131C280.506 293.085 280.04 291.573 281.279 291.421C281.956 291.338 282.934 291.613 284.11 291.944C285.885 292.444 288.112 293.071 290.443 292.785C294.294 292.312 293.689 279.815 293.681 279.658Z" fill="#191847"/>
<path fill-rule="evenodd" clip-rule="evenodd" d="M323.082 369.693L298.895 452.774L287.518 515.153H276.1L287.498 369.693H323.082Z" fill="#997659"/>
<path fill-rule="evenodd" clip-rule="evenodd" d="M333.952 369.693C332.264 412.853 332.93 436.394 333.308 440.315C333.685 444.236 335.83 470.499 350.442 516.469H338.566C319.214 472.368 312.458 446.106 310.239 440.315C308.019 434.524 301.464 410.983 291.894 369.693H333.952Z" fill="#B28B67"/>
<path fill-rule="evenodd" clip-rule="evenodd" d="M323.601 369.693C317.31 398.281 306.428 443.916 290.957 506.596H274.256C273.022 442.261 278.27 399.917 287.357 369.693H323.601Z" fill="#69A1AC"/>
<path fill-rule="evenodd" clip-rule="evenodd" d="M334.036 369.693C332.384 412.853 336.667 455.374 349.936 507.268H332.117C312.73 463.826 298.834 421.514 289.337 369.693H334.036Z" fill="#89C5CC"/>
<path fill-rule="evenodd" clip-rule="evenodd" d="M352.135 525.025L351.557 515.742C351.518 515.103 350.894 514.664 350.263 514.775C344.581 515.777 337.063 513.178 337.063 513.178C329.568 518.471 318.948 521.061 314.386 521.984C313.206 522.223 312.454 523.417 312.783 524.575L313.473 527H337.063H350.825L352.135 525.025Z" fill="#191847"/>
<path fill-rule="evenodd" clip-rule="evenodd" d="M290.067 525.025L289.489 515.742C289.45 515.103 288.826 514.664 288.195 514.775C282.513 515.777 274.995 513.178 274.995 513.178C267.5 518.471 256.88 521.061 252.318 521.984C251.138 522.223 250.386 523.417 250.715 524.575L251.405 527H274.995H288.757L290.067 525.025Z" fill="#191847"/>
<path fill-rule="evenodd" clip-rule="evenodd" d="M248.28 384.203L267.307 366.334L273.326 377.153L253.675 388.252C248.662 395.827 245.739 399.087 244.906 398.032C244.204 397.143 244.55 396.187 244.869 395.307C245.118 394.621 245.35 393.981 245.056 393.454C244.386 392.25 240.47 392.866 236.778 393.61C233.087 394.353 233.97 392.566 234.768 391.64C238.294 388.903 242.798 386.424 248.28 384.203ZM361.223 397.705C358.826 394.057 347.638 357.006 347.638 357.006L333.949 358.742C333.949 358.742 351.645 398.002 352.963 400.375C354.674 403.458 353.022 408.446 351.902 411.828C351.729 412.351 351.568 412.836 351.435 413.269C353.649 413.948 354.518 412.692 355.434 411.369C356.47 409.874 357.565 408.292 360.726 409.312C361.947 409.706 363.118 410.205 364.262 410.693C368.215 412.377 371.845 413.925 376.108 410.523C376.784 409.984 377.377 408.192 375.279 407.107C370.052 404.403 362.395 399.488 361.223 397.705Z" fill="#B28B67"/>
<path fill-rule="evenodd" clip-rule="evenodd" d="M301.683 304.5L295.897 304.227C277.094 324.915 272.728 360.759 249.217 382.35L256.362 389.253C300.396 378.245 306.269 334.456 301.683 304.5Z" fill="#DE8F2E"/>
<path fill-rule="evenodd" clip-rule="evenodd" d="M335.104 372.458C335.104 372.458 301.02 376.643 284.96 378.615C282.669 378.896 282.696 375.545 282.823 373.84C284.287 354.164 296.668 331.628 293.311 304.287L307.497 300.25C321.815 317.961 328.852 341.067 335.104 372.458Z" fill="#DDE3E9"/>
<path fill-rule="evenodd" clip-rule="evenodd" d="M326.326 316.846C328.934 316.336 331.175 314.946 332.345 312.061C336.464 301.903 333.912 296.902 328.051 295.875C324.828 295.311 321.986 296.315 318.583 297.518C315.798 298.502 312.637 299.619 308.586 300.117C308.193 300.165 307.839 300.235 307.521 300.325L302.755 301.187C302.755 301.187 291.352 369.412 302.793 390.351L342.427 385.484C345.343 390.603 348.131 395.039 350.657 398.4L361.411 397.079C357.989 359.647 340.303 332.692 326.326 316.846Z" fill="#FFAC47"/>
<path fill-rule="evenodd" clip-rule="evenodd" d="M342.427 385.485C338.601 378.769 334.554 370.878 330.589 362.703C330.656 372.234 330.006 381.894 327.613 387.303L342.427 385.485Z" fill="black" fill-opacity="0.1"/>
<defs>
<radialGradient id="paint0_radial" cx="0" cy="0" r="1" gradientUnits="userSpaceOnUse" gradientTransform="translate(329.577 256.43) rotate(168.723) scale(314.705 262.186)">
<stop offset="0.682292" stop-color="#A6DCE9"/>
<stop offset="0.98471" stop-color="#A6DCE9" stop-opacity="0"/>
</radialGradient>
<clipPath id="clip0">
<rect width="89.3576" height="139.152" fill="white" transform="translate(61.5497 169.099)"/>
</clipPath>
<clipPath id="clip1">
<rect width="89.3576" height="36.8344" fill="white" transform="translate(61.5497 169.099)"/>
</clipPath>
<clipPath id="clip2">
<rect width="31" height="14.7338" fill="white" transform="translate(70.5497 180.15)"/>
</clipPath>
<clipPath id="clip3">
<rect width="89.3576" height="28.649" fill="white" transform="translate(61.5497 211.391)"/>
</clipPath>
<clipPath id="clip4">
<rect width="31" height="11.4596" fill="white" transform="translate(100.55 219.985)"/>
</clipPath>
<clipPath id="clip5">
<rect width="89.3576" height="28.649" fill="white" transform="translate(61.5497 245.497)"/>
</clipPath>
<clipPath id="clip6">
<rect width="31" height="11.4596" fill="white" transform="translate(70.5497 254.091)"/>
</clipPath>
<clipPath id="clip7">
<rect width="89.3576" height="28.649" fill="white" transform="translate(61.5497 279.603)"/>
</clipPath>
<clipPath id="clip8">
<rect width="31" height="11.4596" fill="white" transform="translate(100.55 288.197)"/>
</clipPath>
<clipPath id="clip9">
<rect width="300.493" height="262.552" fill="white" transform="translate(104.417 175.507)"/>
</clipPath>
<clipPath id="clip10">
<rect width="185" height="14.5532" fill="white" transform="translate(126 218.8)"/>
</clipPath>
<clipPath id="clip11">
<rect width="185" height="11.8974" fill="white" transform="translate(126 258.7)"/>
</clipPath>
<clipPath id="clip12">
<rect width="185" height="11.8974" fill="white" transform="translate(126 294.7)"/>
</clipPath>
<clipPath id="clip13">
<rect width="185" height="11.8974" fill="white" transform="translate(126 401.7)"/>
</clipPath>
<clipPath id="clip14">
<rect width="185" height="11.8974" fill="white" transform="translate(126 365.7)"/>
</clipPath>
</defs>
</svg>
