<svg width="779" height="720" viewBox="0 0 779 720" fill="none" xmlns="http://www.w3.org/2000/svg">
<path fill-rule="evenodd" clip-rule="evenodd" d="M779 0H478.027L395 720H779V0Z" fill="#A6DCE9"/>
<path opacity="0.15" fill-rule="evenodd" clip-rule="evenodd" d="M93.9999 720H394.973L478 0H93.9999V720Z" fill="url(#paint0_linear)"/>
<path fill-rule="evenodd" clip-rule="evenodd" d="M417 99L429 111L417 123L405 111L417 99Z" fill="#C0D8E0"/>
<path opacity="0.4" fill-rule="evenodd" clip-rule="evenodd" d="M83.9009 340.004C48.1198 341.636 12.3983 256.484 37.8162 212.146C63.2342 167.808 162.239 154.689 175.19 180.688C188.142 206.687 131.052 235.126 119.627 254.198C108.201 273.271 119.682 338.371 83.9009 340.004Z" fill="#FFE7CA"/>
<path opacity="0.4" fill-rule="evenodd" clip-rule="evenodd" d="M465.059 206.582C438.787 182.235 474.389 97.0326 523.814 84.0293C573.239 71.0259 652.058 132.357 642.624 159.828C633.189 187.3 572.866 166.582 551.261 171.825C529.655 177.068 491.33 230.929 465.059 206.582Z" stroke="#ECF8FB"/>
<rect x="127" y="107" width="159" height="302" rx="8" fill="#DDE3E9"/>
<path fill-rule="evenodd" clip-rule="evenodd" d="M206 390C214.284 390 221 383.284 221 375C221 366.716 214.284 360 206 360C197.716 360 191 366.716 191 375C191 383.284 197.716 390 206 390Z" fill="white"/>
<path fill-rule="evenodd" clip-rule="evenodd" d="M193 127C194.105 127 195 126.105 195 125C195 123.895 194.105 123 193 123C191.895 123 191 123.895 191 125C191 126.105 191.895 127 193 127Z" fill="white"/>
<rect x="200" y="123" width="21" height="4" rx="2" fill="white"/>
<rect x="141" y="135" width="131" height="54" rx="4" fill="white"/>
<g clip-path="url(#clip0)">
<rect x="150" y="151.2" width="73" height="8.1" rx="3" fill="#DDE3E9"/>
<rect x="150" y="164.7" width="49" height="8.1" rx="3" fill="#DDE3E9"/>
</g>
<path fill-rule="evenodd" clip-rule="evenodd" d="M258 169C261.866 169 265 165.866 265 162C265 158.134 261.866 155 258 155C254.134 155 251 158.134 251 162C251 165.866 254.134 169 258 169Z" fill="#DDE3E9"/>
<path fill-rule="evenodd" clip-rule="evenodd" d="M258 165C259.657 165 261 163.657 261 162C261 160.343 259.657 159 258 159C256.343 159 255 160.343 255 162C255 163.657 256.343 165 258 165Z" fill="#F2F2F2"/>
<rect x="141" y="197" width="131" height="42" rx="4" fill="white"/>
<g clip-path="url(#clip1)">
<rect x="180" y="209.6" width="73" height="6.3" rx="3" fill="#DDE3E9"/>
<rect x="180" y="220.1" width="49" height="6.3" rx="3" fill="#DDE3E9"/>
</g>
<path fill-rule="evenodd" clip-rule="evenodd" d="M162 230C168.627 230 174 224.627 174 218C174 211.373 168.627 206 162 206C155.373 206 150 211.373 150 218C150 224.627 155.373 230 162 230Z" fill="#C5CFD6"/>
<rect x="141" y="247" width="131" height="42" rx="4" fill="white"/>
<g clip-path="url(#clip2)">
<rect x="150" y="259.6" width="73" height="6.3" rx="3" fill="#DDE3E9"/>
<rect x="150" y="270.1" width="49" height="6.3" rx="3" fill="#AFB9C5"/>
</g>
<path fill-rule="evenodd" clip-rule="evenodd" d="M258 275C261.866 275 265 271.866 265 268C265 264.134 261.866 261 258 261C254.134 261 251 264.134 251 268C251 271.866 254.134 275 258 275Z" fill="#DDE3E9"/>
<path fill-rule="evenodd" clip-rule="evenodd" d="M258 271C259.657 271 261 269.657 261 268C261 266.343 259.657 265 258 265C256.343 265 255 266.343 255 268C255 269.657 256.343 271 258 271Z" fill="#F2F2F2"/>
<rect x="141" y="297" width="131" height="42" rx="4" fill="white"/>
<g clip-path="url(#clip3)">
<rect x="180" y="309.6" width="73" height="6.3" rx="3" fill="#DDE3E9"/>
<rect x="180" y="320.1" width="49" height="6.3" rx="3" fill="#DDE3E9"/>
</g>
<path fill-rule="evenodd" clip-rule="evenodd" d="M162 330C168.627 330 174 324.627 174 318C174 311.373 168.627 306 162 306C155.373 306 150 311.373 150 318C150 324.627 155.373 330 162 330Z" fill="#C5CFD6"/>
<g clip-path="url(#clip4)">
<path fill-rule="evenodd" clip-rule="evenodd" d="M121.58 540C147.19 540 167.951 520.077 167.951 495.5C167.951 470.923 147.19 451 121.58 451C95.9702 451 75.2092 470.923 75.2092 495.5C75.2092 520.077 95.9702 540 121.58 540Z" fill="#FFE7CA"/>
<rect x="197" y="144" width="396" height="346" rx="8" fill="#F2F2F2"/>
<path d="M197 152C197 147.582 200.582 144 205 144H585C589.418 144 593 147.582 593 152V171H197V152Z" fill="#C5CFD6"/>
<path fill-rule="evenodd" clip-rule="evenodd" d="M210 162C212.209 162 214 160.209 214 158C214 155.791 212.209 154 210 154C207.791 154 206 155.791 206 158C206 160.209 207.791 162 210 162Z" fill="#F2F2F2"/>
<path fill-rule="evenodd" clip-rule="evenodd" d="M222 162C224.209 162 226 160.209 226 158C226 155.791 224.209 154 222 154C219.791 154 218 155.791 218 158C218 160.209 219.791 162 222 162Z" fill="#F2F2F2"/>
<path fill-rule="evenodd" clip-rule="evenodd" d="M234 162C236.209 162 238 160.209 238 158C238 155.791 236.209 154 234 154C231.791 154 230 155.791 230 158C230 160.209 231.791 162 234 162Z" fill="#F2F2F2"/>
<rect x="507" y="276" width="70" height="194" rx="8" fill="white"/>
<rect x="525" y="294" width="34" height="26" rx="4" fill="#DDE3E9"/>
<rect x="525" y="328" width="34" height="25" rx="4" fill="#AFB9C5"/>
<rect x="525" y="361" width="34" height="25" rx="4" fill="#DDE3E9"/>
<rect x="525" y="427" width="34" height="25" rx="4" fill="#DDE3E9"/>
<rect x="525" y="394" width="34" height="25" rx="4" fill="#C5CFD6"/>
<rect x="507" y="187" width="70" height="81" rx="8" fill="white"/>
<path fill-rule="evenodd" clip-rule="evenodd" d="M542 234C550.837 234 558 226.837 558 218C558 209.163 550.837 202 542 202C533.163 202 526 209.163 526 218C526 226.837 533.163 234 542 234Z" fill="#DDE3E9"/>
<rect x="517" y="238" width="50" height="6" rx="3" fill="#DDE3E9"/>
<rect x="525" y="248" width="34" height="6" rx="3" fill="#DDE3E9"/>
<rect x="213" y="187" width="286" height="47" rx="4" fill="white"/>
<g clip-path="url(#clip5)">
<rect x="222" y="201.1" width="228" height="7.05" rx="3" fill="#DDE3E9"/>
<rect x="222" y="212.85" width="153.041" height="7.05" rx="3" fill="#DDE3E9"/>
</g>
<path fill-rule="evenodd" clip-rule="evenodd" d="M468.435 217.5C472.301 217.5 475.435 214.366 475.435 210.5C475.435 206.634 472.301 203.5 468.435 203.5C464.569 203.5 461.435 206.634 461.435 210.5C461.435 214.366 464.569 217.5 468.435 217.5Z" fill="#DDE3E9"/>
<path fill-rule="evenodd" clip-rule="evenodd" d="M468.435 213.5C470.092 213.5 471.435 212.157 471.435 210.5C471.435 208.843 470.092 207.5 468.435 207.5C466.778 207.5 465.435 208.843 465.435 210.5C465.435 212.157 466.778 213.5 468.435 213.5Z" fill="#F2F2F2"/>
<rect x="213" y="242" width="286" height="39" rx="4" fill="white"/>
<g clip-path="url(#clip6)">
<rect x="222" y="253.7" width="228" height="5.85" rx="2.925" fill="#DDE3E9"/>
<rect x="222" y="263.45" width="153.041" height="5.85" rx="2.925" fill="#DDE3E9"/>
</g>
<path fill-rule="evenodd" clip-rule="evenodd" d="M468.435 268.5C472.301 268.5 475.435 265.366 475.435 261.5C475.435 257.634 472.301 254.5 468.435 254.5C464.569 254.5 461.435 257.634 461.435 261.5C461.435 265.366 464.569 268.5 468.435 268.5Z" fill="#DDE3E9"/>
<path fill-rule="evenodd" clip-rule="evenodd" d="M468.435 264.5C470.092 264.5 471.435 263.157 471.435 261.5C471.435 259.843 470.092 258.5 468.435 258.5C466.778 258.5 465.435 259.843 465.435 261.5C465.435 263.157 466.778 264.5 468.435 264.5Z" fill="#F2F2F2"/>
<rect x="213" y="289" width="286" height="39" rx="4" fill="white"/>
<g clip-path="url(#clip7)">
<rect x="222" y="300.7" width="228" height="5.85" rx="2.925" fill="#DDE3E9"/>
<rect x="222" y="310.45" width="153.041" height="5.85" rx="2.925" fill="#DDE3E9"/>
</g>
<path fill-rule="evenodd" clip-rule="evenodd" d="M468.435 315.5C472.301 315.5 475.435 312.366 475.435 308.5C475.435 304.634 472.301 301.5 468.435 301.5C464.569 301.5 461.435 304.634 461.435 308.5C461.435 312.366 464.569 315.5 468.435 315.5Z" fill="#DDE3E9"/>
<path fill-rule="evenodd" clip-rule="evenodd" d="M468.435 311.5C470.092 311.5 471.435 310.157 471.435 308.5C471.435 306.843 470.092 305.5 468.435 305.5C466.778 305.5 465.435 306.843 465.435 308.5C465.435 310.157 466.778 311.5 468.435 311.5Z" fill="#AFB9C5"/>
<rect x="213" y="430" width="286" height="39" rx="4" fill="white"/>
<g clip-path="url(#clip8)">
<rect x="222" y="441.7" width="228" height="5.85" rx="2.925" fill="#DDE3E9"/>
<rect x="222" y="451.45" width="153.041" height="5.85" rx="2.925" fill="#DDE3E9"/>
</g>
<path fill-rule="evenodd" clip-rule="evenodd" d="M468.435 456.5C472.301 456.5 475.435 453.366 475.435 449.5C475.435 445.634 472.301 442.5 468.435 442.5C464.569 442.5 461.435 445.634 461.435 449.5C461.435 453.366 464.569 456.5 468.435 456.5Z" fill="#DDE3E9"/>
<path fill-rule="evenodd" clip-rule="evenodd" d="M468.435 452.5C470.092 452.5 471.435 451.157 471.435 449.5C471.435 447.843 470.092 446.5 468.435 446.5C466.778 446.5 465.435 447.843 465.435 449.5C465.435 451.157 466.778 452.5 468.435 452.5Z" fill="#F2F2F2"/>
<rect x="213" y="383" width="286" height="39" rx="4" fill="white"/>
<g clip-path="url(#clip9)">
<rect x="222" y="394.7" width="228" height="5.85" rx="2.925" fill="#DDE3E9"/>
<rect x="222" y="404.45" width="153.041" height="5.85" rx="2.925" fill="#DDE3E9"/>
</g>
<path fill-rule="evenodd" clip-rule="evenodd" d="M468.435 409.5C472.301 409.5 475.435 406.366 475.435 402.5C475.435 398.634 472.301 395.5 468.435 395.5C464.569 395.5 461.435 398.634 461.435 402.5C461.435 406.366 464.569 409.5 468.435 409.5Z" fill="#DDE3E9"/>
<path fill-rule="evenodd" clip-rule="evenodd" d="M468.435 405.5C470.092 405.5 471.435 404.157 471.435 402.5C471.435 400.843 470.092 399.5 468.435 399.5C466.778 399.5 465.435 400.843 465.435 402.5C465.435 404.157 466.778 405.5 468.435 405.5Z" fill="#F2F2F2"/>
<rect x="213" y="336" width="286" height="39" rx="4" fill="white"/>
<g clip-path="url(#clip10)">
<rect x="222" y="347.7" width="228" height="5.85" rx="2.925" fill="#DDE3E9"/>
<rect x="222" y="357.45" width="153.041" height="5.85" rx="2.925" fill="#DDE3E9"/>
</g>
<path fill-rule="evenodd" clip-rule="evenodd" d="M468.435 362.5C472.301 362.5 475.435 359.366 475.435 355.5C475.435 351.634 472.301 348.5 468.435 348.5C464.569 348.5 461.435 351.634 461.435 355.5C461.435 359.366 464.569 362.5 468.435 362.5Z" fill="#DDE3E9"/>
<path fill-rule="evenodd" clip-rule="evenodd" d="M468.435 358.5C470.092 358.5 471.435 357.157 471.435 355.5C471.435 353.843 470.092 352.5 468.435 352.5C466.778 352.5 465.435 353.843 465.435 355.5C465.435 357.157 466.778 358.5 468.435 358.5Z" fill="#F2F2F2"/>
<path opacity="0.3" fill-rule="evenodd" clip-rule="evenodd" d="M374.5 387C412.884 387 444 355.884 444 317.5C444 279.116 412.884 248 374.5 248C336.116 248 305 279.116 305 317.5C305 355.884 336.116 387 374.5 387Z" fill="#A6DCE9"/>
<path fill-rule="evenodd" clip-rule="evenodd" d="M191.229 313.942C197.929 316.788 204.251 317.729 206.998 316.596C213.885 313.754 210.88 287.585 203.907 278.082C196.934 268.58 167.882 268.096 169.31 288.665C169.806 295.804 173.668 301.695 178.787 306.224L176.053 343.985L198.951 340.765L191.229 313.942Z" fill="#B28B67"/>
<path fill-rule="evenodd" clip-rule="evenodd" d="M193.29 268.157C190.027 267.646 185.44 267.962 183.56 268.449C184.282 265.698 184.306 262.743 183.559 259.975C182.832 257.284 181.278 255.125 179.801 252.842C179.12 251.789 178.37 250.752 177.365 250.015C176.342 249.264 175.122 248.845 173.888 248.737C172.626 248.626 171.351 248.829 170.162 249.258C169.637 249.448 169.185 249.763 168.674 249.975C168.149 250.192 167.838 249.89 167.395 249.604C166.328 248.915 164.876 248.706 163.652 248.729C162.278 248.756 160.905 249.157 159.679 249.781C158.486 250.388 157.38 251.258 156.617 252.405C156.277 252.916 155.983 253.485 155.825 254.089C155.76 254.336 155.764 254.477 155.541 254.596C155.336 254.706 155.083 254.744 154.87 254.851C152.811 255.885 151.196 257.812 150.491 260.093C150.079 261.423 150.109 263.66 150.531 266.112C150.953 268.565 154.086 274.678 156.5 276.729C158.655 278.559 161.585 279.556 164.31 279.789C162.838 282.033 162.023 284.694 161.517 287.355C160.967 290.246 160.79 293.193 160.986 296.144C161.172 298.947 161.565 301.884 162.599 304.508C163.566 306.962 165.163 308.862 167.526 309.877C168.609 310.342 169.746 310.646 170.884 310.91C172.005 311.17 173.129 311.418 174.275 311.491C176.445 311.63 178.865 311.213 180.255 309.31C180.755 308.624 181.293 307.775 181.616 306.977C181.733 306.69 181.801 306.504 181.578 306.271C181.311 305.992 180.916 305.805 180.595 305.602C178.762 304.448 177.489 302.741 176.925 300.58C176.352 298.387 176.548 295.425 178.584 294.147C181.098 292.569 184.245 293.532 186.809 294.482C187.322 290.772 188.951 287.268 191.982 285.173C195.336 282.856 199.447 282.062 202.937 279.987C203.846 279.446 204.766 278.849 205.361 277.924C205.61 277.538 205.896 277.041 205.951 276.569C206.023 275.948 205.565 275.501 205.2 275.076C203.267 272.824 196.552 268.669 193.29 268.157Z" fill="#191847"/>
<path fill-rule="evenodd" clip-rule="evenodd" d="M184.251 419.68L255.843 539.077L309.517 640.017H321.078L231.147 419.68L184.251 419.68Z" fill="#997659"/>
<path fill-rule="evenodd" clip-rule="evenodd" d="M305.189 634.313C304.117 633.845 302.845 634.321 302.447 635.42C301.749 637.349 300.831 640.19 300.831 641.8C300.831 644.399 301.699 649.387 301.699 649.387C304.723 649.387 356.041 649.387 356.041 649.387C356.041 649.387 358.159 642.401 353.595 641.844C349.032 641.287 346.013 640.839 346.013 640.839L320.789 629.621C320.275 629.392 319.673 629.633 319.458 630.153L317.849 634.046C317.849 634.046 313.624 636.013 310.983 636.013C309.397 636.013 306.917 635.068 305.189 634.313Z" fill="#E4E4E4"/>
<path fill-rule="evenodd" clip-rule="evenodd" d="M294.61 623.853L316.905 617.125C316.905 617.125 302.253 573.431 280.989 520.957C259.725 468.484 235.315 419.68 235.315 419.68H172.347C172.347 419.68 199.485 481.414 229.887 531.867C260.289 582.319 294.61 623.853 294.61 623.853Z" fill="#C74949"/>
<path fill-rule="evenodd" clip-rule="evenodd" d="M179.546 419.68C172.789 461.637 159.757 515.242 158.527 516.896C157.707 517.999 128.189 527.866 69.9739 546.497L72.4711 556.666C141.893 546.674 178.473 538.922 182.209 533.41C187.815 525.141 215.803 459.819 226.644 419.68H179.546Z" fill="#B28B67"/>
<path fill-rule="evenodd" clip-rule="evenodd" d="M90.4376 537.706L94.8363 554.085C146.76 558.628 178.575 555.345 190.28 544.237C201.986 533.129 215.328 491.61 230.304 419.68H170.26C160.771 478.581 155.466 509.268 154.345 511.741C153.224 514.213 131.922 522.868 90.4376 537.706Z" fill="#EB5757"/>
<path fill-rule="evenodd" clip-rule="evenodd" d="M74.3282 544.783C74.6051 543.644 73.9131 542.47 72.7577 542.27C70.7322 541.919 67.7718 541.511 66.1833 541.791C63.6168 542.242 58.8437 543.961 58.8437 543.961C59.3687 546.931 68.28 597.347 68.28 597.347C68.28 597.347 75.5442 598.214 75.3016 593.634C75.059 589.054 74.9779 586.011 74.9779 586.011L81.6708 559.287C81.8078 558.74 81.4653 558.188 80.9142 558.067L76.7927 557.163C76.7927 557.163 74.1178 553.354 73.6591 550.759C73.3842 549.204 73.8838 546.611 74.3282 544.783Z" fill="#E4E4E4"/>
<path fill-rule="evenodd" clip-rule="evenodd" d="M251.984 334.947L221.409 357.698L235.477 369.072L256.453 343.709C268.64 338.442 274.079 335.077 272.77 333.616C271.666 332.383 270.201 332.637 268.852 332.872C267.8 333.054 266.819 333.224 266.134 332.67C264.568 331.404 266.449 325.945 268.456 320.84C270.463 315.735 267.664 316.549 266.127 317.459C261.289 321.82 256.574 327.649 251.984 334.947ZM288.846 355.653L275.419 365.67L278.293 380.116C278.293 380.116 286.762 372.008 294.551 368.613C304.482 364.286 308.355 361.502 312.503 354.373C314.723 350.558 316.047 343.332 313.159 341.445C312.051 340.721 308.661 343.276 305.202 345.882C302.566 347.869 299.89 349.885 298.154 350.504C295.817 351.337 295.661 348.185 295.537 345.667C295.448 343.859 295.375 342.378 294.523 342.929C290.276 343.601 288.846 355.653 288.846 355.653Z" fill="#997659"/>
<path fill-rule="evenodd" clip-rule="evenodd" d="M204.715 355.935C216.297 354.182 231.422 349.563 246.458 336.791L254.965 350.299C245.164 363.17 230.457 374.681 216.405 376.257C205.332 377.499 197.825 364.983 204.715 355.935Z" fill="#4349B7"/>
<path fill-rule="evenodd" clip-rule="evenodd" d="M187.306 459.121C176.077 459.237 165.759 459.344 159.92 461.368C150.117 440.488 153.781 425.959 157.164 412.547C159.202 404.463 161.139 396.785 159.963 388.366C156.538 363.852 170.969 323.347 173.872 322.939L174.705 322.822L197.711 319.587L200.345 319.216C203.659 334.219 211.017 349.932 218.423 365.745C220.152 369.439 221.884 373.137 223.568 376.833C243.419 378.484 284.01 357.312 284.01 357.312C284.01 357.312 297.921 378.053 298.438 387.646C275.392 404.1 254.892 412.874 237.387 415.724C239.404 426.039 239.525 436.106 236.535 445.741C232.527 458.652 208.321 458.903 187.306 459.121Z" fill="#454EEB"/>
<path fill-rule="evenodd" clip-rule="evenodd" d="M105 428L131 454L105 480L79 454L105 428Z" fill="#CFEFF7"/>
<path fill-rule="evenodd" clip-rule="evenodd" d="M331.165 316.709C331.164 316.714 331.164 316.719 331.162 316.726C331.164 316.72 331.163 316.7 331.165 316.709Z" fill="#C5CFD6"/>
<path fill-rule="evenodd" clip-rule="evenodd" d="M331.162 316.717C331.163 316.718 331.162 316.72 331.163 316.722C331.161 316.717 331.167 316.701 331.162 316.717Z" fill="#C5CFD6"/>
<path fill-rule="evenodd" clip-rule="evenodd" d="M331.176 316.627C331.174 316.648 331.17 316.668 331.167 316.69C331.168 316.679 331.17 316.67 331.172 316.66C331.133 316.937 331.157 316.757 331.176 316.627Z" fill="#C5CFD6"/>
<path fill-rule="evenodd" clip-rule="evenodd" d="M331.169 316.691C331.167 316.7 331.165 316.711 331.164 316.721C331.149 316.782 331.169 316.691 331.169 316.691Z" fill="#C5CFD6"/>
<path fill-rule="evenodd" clip-rule="evenodd" d="M331.163 316.717C331.163 316.716 331.163 316.716 331.164 316.715C331.163 316.716 331.163 316.716 331.163 316.717Z" fill="#C5CFD6"/>
<path fill-rule="evenodd" clip-rule="evenodd" d="M331.16 316.725C331.157 316.739 331.176 316.674 331.16 316.725V316.725Z" fill="#C5CFD6"/>
<path fill-rule="evenodd" clip-rule="evenodd" d="M331.163 316.717L331.164 316.715C331.163 316.716 331.164 316.717 331.163 316.717Z" fill="#C5CFD6"/>
<rect x="269.392" y="276.676" width="100" height="66" rx="4" transform="rotate(-14 269.392 276.676)" fill="#2B44FF"/>
<path fill-rule="evenodd" clip-rule="evenodd" d="M310.727 286.234L294.113 338.815L350.08 324.861L310.727 286.234Z" fill="black" fill-opacity="0.2"/>
<path fill-rule="evenodd" clip-rule="evenodd" d="M342.625 291.255L326.21 330.812L375.689 318.476L342.625 291.255Z" fill="black" fill-opacity="0.2"/>
<path fill-rule="evenodd" clip-rule="evenodd" d="M353.324 289.063C358.414 287.793 361.512 282.637 360.243 277.547C358.974 272.456 353.818 269.358 348.727 270.627C343.636 271.896 340.538 277.052 341.808 282.143C343.077 287.234 348.233 290.332 353.324 289.063Z" fill="white"/>
</g>
<path fill-rule="evenodd" clip-rule="evenodd" d="M506.793 292.269C500.71 297.021 494.492 299.719 491.368 299.313C483.533 298.294 479.434 270.684 483.97 259.044C488.506 247.404 518.132 238.935 522.311 260.381C523.762 267.825 521.422 274.914 517.42 280.955L530.579 318.855L506.24 321.843L506.793 292.269Z" fill="#B28B67"/>
<path fill-rule="evenodd" clip-rule="evenodd" d="M502.243 265.271C499.754 262.404 497.44 260.269 494.641 259.208C483.962 260.69 482.474 258.932 481.683 252.487C483.26 251.043 489.103 248.218 495.86 246.796C499.222 245.374 503.372 245.055 507.55 246.224C512.628 247.009 517.151 249.488 519.673 254.859C527.717 265.467 524.137 277.978 517.843 282.874C515.773 280.961 513.941 279.085 512.29 277.277C513.285 276.037 513.799 274.414 513.59 272.713C513.179 269.363 510.121 266.982 506.76 267.395C506.513 267.425 506.272 267.47 506.036 267.528C506.399 271.735 507.516 285.98 506.486 291.103C505.271 297.142 494.201 299.947 490.279 300.429C486.891 300.845 486.614 297.633 486.415 295.331C486.387 295 486.36 294.687 486.325 294.407C486.254 293.821 487.018 293.729 487.881 293.625C489.002 293.49 490.29 293.334 490.133 292.052C489.961 290.655 487.893 289.821 486.042 289.075C484.887 288.609 483.817 288.178 483.345 287.665C481.856 286.048 481.134 283.708 483.051 283.472C484.1 283.344 485.612 283.769 487.432 284.282C490.178 285.055 493.625 286.026 497.232 285.583C503.191 284.851 502.255 265.513 502.243 265.271Z" fill="#191847"/>
<path fill-rule="evenodd" clip-rule="evenodd" d="M547.736 404.587L510.31 533.145L492.706 629.668H475.037L492.675 404.587H547.736Z" fill="#997659"/>
<path fill-rule="evenodd" clip-rule="evenodd" d="M564.556 404.587C561.945 471.372 562.975 507.799 563.559 513.866C564.144 519.934 567.462 560.571 590.073 631.705H571.696C541.751 563.464 531.298 522.827 527.864 513.866C524.429 504.906 514.286 468.479 499.477 404.587H564.556Z" fill="#B28B67"/>
<path fill-rule="evenodd" clip-rule="evenodd" d="M548.54 404.587C538.805 448.824 521.967 519.438 498.026 616.428H472.184C470.275 516.877 478.395 451.356 492.456 404.587H548.54Z" fill="#69A1AC"/>
<path fill-rule="evenodd" clip-rule="evenodd" d="M564.687 404.587C562.129 471.372 568.757 537.168 589.289 617.467H561.717C531.717 550.246 510.216 484.775 495.521 404.587H564.687Z" fill="#89C5CC"/>
<path fill-rule="evenodd" clip-rule="evenodd" d="M592.692 644.945L591.756 629.897C591.716 629.257 591.094 628.82 590.467 628.953C581.61 630.843 569.371 626.612 569.371 626.612C557.048 635.313 539.271 639.294 533.072 640.476C531.889 640.702 531.131 641.895 531.46 643.053L532.867 648H569.371H590.664L592.692 644.945Z" fill="#191847"/>
<path fill-rule="evenodd" clip-rule="evenodd" d="M496.65 644.945L495.714 629.897C495.674 629.257 495.052 628.82 494.425 628.953C485.568 630.843 473.329 626.612 473.329 626.612C461.006 635.313 443.229 639.294 437.03 640.476C435.847 640.702 435.089 641.895 435.418 643.053L436.825 648H473.329H494.622L496.65 644.945Z" fill="#191847"/>
<path fill-rule="evenodd" clip-rule="evenodd" d="M431.991 427.04L461.432 399.39L470.746 416.132L440.339 433.306C432.581 445.027 428.059 450.071 426.77 448.439C425.683 447.063 426.219 445.584 426.712 444.222C427.097 443.161 427.456 442.171 427.002 441.355C425.965 439.492 419.905 440.446 414.193 441.596C408.48 442.746 409.847 439.982 411.082 438.548C416.537 434.313 423.507 430.477 431.991 427.04ZM606.755 447.932C603.045 442.288 585.733 384.957 585.733 384.957L564.551 387.642C564.551 387.642 591.934 448.392 593.973 452.064C596.621 456.835 594.065 464.553 592.332 469.786C592.063 470.596 591.815 471.346 591.608 472.017C595.034 473.066 596.379 471.124 597.797 469.076C599.399 466.763 601.094 464.315 605.985 465.893C607.875 466.502 609.687 467.275 611.458 468.03C617.573 470.637 623.191 473.032 629.787 467.767C630.833 466.933 631.751 464.161 628.505 462.481C620.417 458.298 608.568 450.692 606.755 447.932Z" fill="#B28B67"/>
<path fill-rule="evenodd" clip-rule="evenodd" d="M514.624 303.71L505.671 303.288C476.575 335.299 469.82 390.764 433.44 424.173L444.495 434.855C512.633 417.821 521.721 350.064 514.624 303.71Z" fill="#DE8F2E"/>
<path fill-rule="evenodd" clip-rule="evenodd" d="M566.339 408.866C566.339 408.866 513.598 415.342 488.748 418.393C485.203 418.829 485.244 413.643 485.44 411.005C487.706 380.559 506.863 345.687 501.669 303.381L523.62 297.135C545.776 324.539 556.664 360.292 566.339 408.866Z" fill="#DDE3E9"/>
<path fill-rule="evenodd" clip-rule="evenodd" d="M552.755 322.815C556.792 322.025 560.259 319.875 562.07 315.41C568.443 299.692 564.494 291.954 555.425 290.365C550.438 289.491 546.04 291.045 540.775 292.906C536.465 294.429 531.575 296.158 525.305 296.928C524.698 297.002 524.15 297.111 523.658 297.25L516.284 298.584C516.284 298.584 498.638 404.153 516.341 436.553L577.67 429.023C582.182 436.943 586.496 443.808 590.405 449.008L607.046 446.965C601.751 389.043 574.384 347.334 552.755 322.815Z" fill="#FFAC47"/>
<path fill-rule="evenodd" clip-rule="evenodd" d="M577.67 429.023C571.75 418.631 565.488 406.422 559.352 393.773C559.456 408.52 558.451 423.468 554.748 431.838L577.67 429.023Z" fill="black" fill-opacity="0.1"/>
<defs>
<linearGradient id="paint0_linear" x1="490" y1="360" x2="93.9999" y2="360" gradientUnits="userSpaceOnUse">
<stop stop-color="#A6DCE9"/>
<stop offset="1" stop-color="#A6DCE9" stop-opacity="0"/>
</linearGradient>
<clipPath id="clip0">
<rect width="73" height="21.6" fill="white" transform="translate(150 151.2)"/>
</clipPath>
<clipPath id="clip1">
<rect width="73" height="16.8" fill="white" transform="translate(180 209.6)"/>
</clipPath>
<clipPath id="clip2">
<rect width="73" height="16.8" fill="white" transform="translate(150 259.6)"/>
</clipPath>
<clipPath id="clip3">
<rect width="73" height="16.8" fill="white" transform="translate(180 309.6)"/>
</clipPath>
<clipPath id="clip4">
<rect width="665" height="534" fill="white" transform="translate(22 114)"/>
</clipPath>
<clipPath id="clip5">
<rect width="228" height="19" fill="white" transform="translate(222 201.1)"/>
</clipPath>
<clipPath id="clip6">
<rect width="228" height="16" fill="white" transform="translate(222 253.7)"/>
</clipPath>
<clipPath id="clip7">
<rect width="228" height="16" fill="white" transform="translate(222 300.7)"/>
</clipPath>
<clipPath id="clip8">
<rect width="228" height="16" fill="white" transform="translate(222 441.7)"/>
</clipPath>
<clipPath id="clip9">
<rect width="228" height="16" fill="white" transform="translate(222 394.7)"/>
</clipPath>
<clipPath id="clip10">
<rect width="228" height="16" fill="white" transform="translate(222 347.7)"/>
</clipPath>
</defs>
</svg>
