<svg width="60" height="60" viewBox="0 0 60 60" fill="none" xmlns="http://www.w3.org/2000/svg">
<path d="M7.97828 55.2693C8.37519 56.3148 9.37903 57.0045 10.4974 57H22.6564C23.3231 57.0003 23.9665 56.7549 24.4636 56.3106L26.0638 54.8706C26.4351 54.5425 26.6528 54.0743 26.6644 53.579C26.676 53.0836 26.4805 52.6058 26.125 52.2606L27.196 51.2175C27.5372 50.8857 27.9944 50.7001 28.4704 50.7H30.1624C33.0921 50.705 35.8389 49.2764 37.5172 46.875C38.5431 45.3933 39.6459 43.9664 40.821 42.6C40.9327 42.4676 41.0344 42.3271 41.1252 42.1797L46.8924 36.0192C48.188 34.623 48.1337 32.4484 46.77 31.1187C46.2797 30.6563 45.6267 30.4063 44.9529 30.423C44.2132 30.4427 43.5115 30.7551 43.0017 31.2915L41.4771 32.889C41.3202 32.4891 41.0832 32.1256 40.7805 31.8207C39.524 30.6505 37.5767 30.6505 36.3202 31.8207C35.7285 32.4114 35.3973 33.214 35.4004 34.05V39.288L34.045 40.71C33.513 41.2484 32.8113 41.5864 32.0587 41.6667C31.9587 41.6867 31.8572 41.6978 31.7554 41.7H28.0744C27.9556 41.697 27.8373 41.684 27.7207 41.6613C26.9974 41.5803 26.3235 41.2545 25.8109 40.7379L19.4938 34.0968C18.8755 33.4725 17.9013 33.3743 17.1709 33.8628C17.1433 33.882 17.1169 33.9027 17.0917 33.9249C16.1255 34.8071 15.5506 36.0378 15.4942 37.3449C15.4083 38.5387 15.8085 39.7166 16.6039 40.611L19.3147 43.5477C19.4864 43.7124 19.5838 43.9398 19.5847 44.1777C19.5849 44.4198 19.4875 44.6517 19.3147 44.8212L18.5326 45.6033L18.5263 45.597C17.8409 44.9919 16.8122 44.9919 16.1269 45.597L8.68748 52.2912C7.85373 53.0392 7.57116 54.2258 7.97828 55.2693ZM44.3103 32.5281C44.4897 32.3382 44.7369 32.2269 44.9979 32.2185C45.1983 32.2149 45.3921 32.2898 45.5379 32.4273C46.1881 33.0719 46.2068 34.1169 45.5802 34.7844L41.7003 38.928V35.265L44.3103 32.5281ZM19.8862 46.7868L20.5837 46.0893C21.0966 45.5818 21.3837 44.8893 21.3802 44.1678C21.3826 43.466 21.105 42.7922 20.6089 42.2958L17.9296 39.3915C17.4626 38.8523 17.2325 38.1476 17.2915 37.4367C17.3267 36.6528 17.6508 35.9097 18.2014 35.3505L24.5104 41.9853C25.2985 42.7915 26.3378 43.3051 27.457 43.4415C27.6607 43.4789 27.8672 43.4985 28.0744 43.5H31.7554C31.9446 43.4995 32.1334 43.4824 32.3197 43.4487C33.4673 43.3132 34.5338 42.788 35.341 41.961L36.9519 40.2681C37.1112 40.1009 37.2002 39.8789 37.2003 39.648V34.05C37.2009 33.6919 37.3421 33.3483 37.5936 33.0933C38.1333 32.5937 38.9665 32.5937 39.5061 33.0933C39.7582 33.348 39.8999 33.6917 39.9003 34.05V40.251C39.9013 40.563 39.8159 40.8692 39.6537 41.1357C39.6348 41.1636 39.6177 41.1924 39.6015 41.2257C39.559 41.2986 39.5093 41.367 39.453 41.43C38.2388 42.8436 37.0991 44.3195 36.0385 45.8517C34.6959 47.7674 32.5016 48.9057 30.1624 48.9H28.4704C27.526 48.9006 26.6191 49.2701 25.9432 49.9296L24.7732 51.0681L20.1535 47.0181L19.8862 46.7868ZM9.89618 53.6268L17.3311 46.9389L24.217 52.9689L24.8695 53.526L23.2693 54.966C23.1017 55.1183 22.8828 55.2019 22.6564 55.2H10.4974C10.123 55.2019 9.78646 54.9719 9.65238 54.6223C9.51831 54.2727 9.61468 53.8766 9.89438 53.6277L9.89618 53.6268Z" fill="#2C7D98"/>
<path d="M20.364 54.0363C20.7172 54.3774 21.2785 54.3725 21.6257 54.0253C21.9728 53.6782 21.9777 53.1168 21.6366 52.7637L20.0472 51.1743C19.6941 50.8332 19.1327 50.8381 18.7856 51.1852C18.4384 51.5324 18.4335 52.0937 18.7746 52.4469L20.364 54.0363Z" fill="#2C7D98"/>
<path d="M12.9544 31.4517C13.5082 31.8571 14.2444 31.9123 14.8525 31.5939L18.7369 29.5671L22.6204 31.5939C23.2254 31.9104 23.9574 31.8573 24.5104 31.4569C25.0635 31.0564 25.3423 30.3775 25.2304 29.7039L24.4897 25.4217L27.6271 22.3878C28.1178 21.9115 28.2947 21.1975 28.0829 20.5472C27.8712 19.8969 27.3078 19.4239 26.6308 19.3278L22.2901 18.6978L20.3497 14.7981C20.0471 14.1848 19.4216 13.7975 18.7378 13.8C18.0538 13.7968 17.4278 14.1838 17.125 14.7972L15.1855 18.6969L10.8448 19.3269C10.1673 19.4223 9.60333 19.8954 9.39151 20.5459C9.1797 21.1965 9.35703 21.9109 9.84848 22.3869L12.985 25.4208L12.2452 29.703C12.1276 30.3736 12.4029 31.0525 12.9544 31.4517ZM11.1004 21.1053L15.9082 20.4114C16.2028 20.3704 16.4582 20.1865 16.5904 19.92L18.7396 15.5928V15.5973L20.8897 19.9173C21.0215 20.1819 21.2748 20.3649 21.5674 20.4069L26.377 21.0864L22.8976 24.4506C22.6833 24.6579 22.5855 24.9579 22.6366 25.2516L23.4538 30L19.1536 27.75C18.8928 27.614 18.5819 27.614 18.3211 27.75L14.0182 30L14.839 25.2489C14.89 24.9552 14.7923 24.6552 14.578 24.4479L11.1004 21.1053Z" fill="#2C7D98"/>
<path d="M48.2398 10.56L42.0532 9.66002L39.2848 4.01973C38.9793 3.39576 38.3452 3.00018 37.6504 3.00018C36.9557 3.00018 36.3216 3.39576 36.016 4.01973L33.2476 9.66002L27.0601 10.56C26.3738 10.6622 25.8045 11.1441 25.5905 11.8042C25.3764 12.4642 25.5546 13.1885 26.0503 13.674L30.5296 18.0633L29.4721 24.2625C29.3538 24.947 29.6347 25.6393 30.1965 26.0478C30.7583 26.4564 31.5034 26.5102 32.1181 26.1867L37.6504 23.2635L43.1827 26.1876C43.7976 26.5113 44.543 26.4574 45.1049 26.0486C45.6668 25.6398 45.9475 24.9472 45.8287 24.2625L44.7712 18.0642L49.2505 13.6749C49.7462 13.1891 49.9241 12.4646 49.7099 11.8044C49.4957 11.1443 48.9263 10.6623 48.2398 10.56ZM43.1746 17.1084C42.9636 17.315 42.8675 17.612 42.9172 17.9031L44.0242 24.6L38.0707 21.45C37.8077 21.3111 37.4931 21.3111 37.2301 21.45L31.246 24.5658L32.3836 17.9058C32.4334 17.6147 32.3372 17.3177 32.1262 17.1111L27.3211 12.3411L33.9811 11.3682C34.2745 11.3255 34.5279 11.141 34.6588 10.875L37.6621 4.80003L37.6693 4.81173L40.6465 10.8741C40.7774 11.1401 41.0309 11.3246 41.3242 11.3673L47.9914 12.3879L43.1746 17.1084Z" fill="#2C7D98"/>
<path d="M3.72492 14.9907L5.48982 15.3417C5.54911 15.3533 5.6094 15.3591 5.66982 15.3588C6.13307 15.3593 6.52101 15.008 6.56639 14.547C6.61177 14.0859 6.29977 13.6658 5.84532 13.5759L4.08042 13.2249C3.59281 13.128 3.11895 13.4447 3.02202 13.9323C2.9251 14.4199 3.24181 14.8938 3.72942 14.9907H3.72492Z" fill="#2C7D98"/>
<path d="M54.1592 24.8241L55.925 25.1751C55.9843 25.1863 56.0446 25.192 56.105 25.1922C56.5681 25.1922 56.9555 24.8408 57.0007 24.3799C57.0458 23.919 56.7339 23.4991 56.2796 23.4093L54.5147 23.0583C54.0271 22.9611 53.553 23.2776 53.4558 23.7652C53.3587 24.2528 53.6752 24.7269 54.1628 24.8241H54.1592Z" fill="#2C7D98"/>
<path d="M3.90038 25.1922C3.96078 25.192 4.02103 25.1863 4.08038 25.1751L5.84618 24.8241C6.33379 24.7269 6.6503 24.2528 6.55313 23.7652C6.45595 23.2776 5.98189 22.9611 5.49428 23.0583L3.72938 23.4093C3.27576 23.499 2.96392 23.9178 3.00806 24.3781C3.05221 24.8384 3.43798 25.1903 3.90038 25.1922Z" fill="#2C7D98"/>
<path d="M54.3346 15.3588C54.395 15.3591 54.4553 15.3533 54.5146 15.3417L56.2795 14.9907C56.7671 14.8938 57.0838 14.4199 56.9869 13.9323C56.89 13.4447 56.4161 13.128 55.9285 13.2249L54.1627 13.5759C53.7083 13.6658 53.3963 14.0859 53.4416 14.547C53.487 15.008 53.875 15.3593 54.3382 15.3588H54.3346Z" fill="#2C7D98"/>
<path d="M7.79831 34.5999C7.97609 34.5999 8.14989 34.5473 8.29781 34.4487L9.7945 33.4488C10.2078 33.1724 10.3188 32.6133 10.0425 32.2C9.76609 31.7867 9.20701 31.6757 8.7937 31.9521L7.29701 32.952C6.96759 33.1725 6.82124 33.5826 6.93661 33.9618C7.05198 34.3411 7.4019 34.6002 7.79831 34.5999Z" fill="#2C7D98"/>
<path d="M51.703 3.9513L50.2063 4.9512C49.9371 5.12903 49.7837 5.43738 49.8042 5.75939C49.8247 6.0814 50.016 6.36779 50.3057 6.51002C50.5953 6.65224 50.9389 6.62854 51.2062 6.4479L52.7038 5.448C53.1171 5.17163 53.2281 4.61255 52.9518 4.19925C52.6754 3.78595 52.1163 3.67494 51.703 3.9513Z" fill="#2C7D98"/>
<path d="M8.7937 6.44793C9.06106 6.6267 9.40349 6.64926 9.69199 6.50711C9.98049 6.36496 10.1712 6.07969 10.1924 5.75876C10.2135 5.43783 10.0619 5.13 9.7945 4.95123L8.2978 3.95133C8.03044 3.77255 7.68801 3.74999 7.39951 3.89214C7.11101 4.0343 6.92025 4.31957 6.89911 4.64049C6.87796 4.96142 7.02964 5.26925 7.297 5.44803L8.7937 6.44793Z" fill="#2C7D98"/>
<path d="M52.9504 34.2003C53.2266 33.7872 53.1159 33.2284 52.7029 32.952L51.2053 31.9521C50.792 31.6792 50.236 31.7913 49.9609 32.2031C49.6858 32.6149 49.795 33.1716 50.2054 33.4488L51.7021 34.4487C52.1154 34.7248 52.6742 34.6136 52.9504 34.2003Z" fill="#2C7D98"/>
</svg>
