<svg width="405" height="317" viewBox="0 0 405 317" fill="none" xmlns="http://www.w3.org/2000/svg">
<g clip-path="url(#clip0)">
<path opacity="0.44" d="M235.595 318.75C259.354 313.038 282.211 304.683 304.706 295.819C338.034 282.688 372.783 266.773 390.484 238.598C403.231 218.309 405.333 194.175 404.959 170.966C404.698 156.022 403.45 140.824 397.404 126.858C386.177 100.911 357.683 81.4635 326.404 78.3942C308.347 76.6166 289.85 79.8933 272.03 76.7588C221.618 67.8708 195.108 12.5636 144.768 3.3912C131.849 1.02106 118.448 2.0343 105.392 3.72895C77.148 7.40266 -43.5388 79.3423 16.567 212.763C26.154 234.035 45.5656 250.614 66.4265 263.929C83.5988 274.891 103.01 283.222 118.579 295.925C126.509 302.39 133.714 310.146 143.806 313.518C150.019 315.604 156.796 315.829 163.437 316.03L217.52 317.695" fill="#FFE7CA"/>
<path opacity="0.8" d="M139.24 148.104V191.472H107.705V223.86H64.2492V191.472H32.738V148.104H64.2492V117.618H107.705V148.104H139.24Z" fill="#FFE7CA"/>
<path fill-rule="evenodd" clip-rule="evenodd" d="M200.263 28.1411C188.389 28.1411 178.763 37.767 178.763 49.6411V73.3453C178.763 84.6953 187.558 93.991 198.704 94.7897C198.706 94.816 198.707 94.8423 198.709 94.8687H228.966C233.671 90.2764 229.211 61.4007 225.64 47.8605C224.735 36.8194 215.488 28.1411 204.213 28.1411H200.263Z" fill="#191847"/>
<path fill-rule="evenodd" clip-rule="evenodd" d="M202.693 78.4239C209.449 82.4919 216.087 84.4575 219.203 83.6551C227.017 81.643 227.735 53.0874 221.69 41.8299C215.644 30.5724 184.562 25.6657 182.996 47.9704C182.452 55.7116 185.706 62.6202 190.514 68.2575L181.893 108.395H206.933L202.693 78.4239Z" fill="#B28B67"/>
<path fill-rule="evenodd" clip-rule="evenodd" d="M179.683 48.1005C180.41 47.3823 181.113 46.6875 181.811 46.0656L181.777 45.2554C181.777 45.2554 189.636 29.1831 201.718 29.1831C213.789 29.1831 217.606 34.789 220.852 39.5543L220.86 39.5672C219.163 45.3852 214.047 47.7391 208.262 50.4012C205.771 51.5472 203.157 52.7502 200.637 54.3113C199.651 53.5103 198.392 53.0303 197.022 53.0303C193.852 53.0303 191.283 55.5968 191.283 58.7627C191.283 61.9286 193.852 64.4951 197.022 64.4951C197.109 64.4951 197.196 64.4931 197.282 64.4893C198.436 76.8692 197.974 91.0067 194.536 94.3627H164.279C163.41 79.2874 167.314 74.987 171.303 70.5926C175.057 66.4578 178.886 62.2398 178.886 48.8846C179.155 48.6219 179.42 48.3598 179.682 48.1008L179.683 48.1005Z" fill="#191847"/>
<path fill-rule="evenodd" clip-rule="evenodd" d="M141.629 297.134C141.629 297.134 179.172 307.624 206.411 307.624C233.651 307.624 257.013 291.47 257.013 291.47C257.013 291.47 220.274 280.703 196.5 280.703C172.726 280.703 141.629 297.134 141.629 297.134Z" fill="#D6C7C5"/>
<path fill-rule="evenodd" clip-rule="evenodd" d="M228.078 317.704C227.837 317.342 227.633 316.948 227.472 316.52C224.126 307.682 170.539 212.334 165.2 194.901H225.532C229.591 208.155 247.86 291.33 250.431 307.925C258.543 334.101 275.246 418.877 277.378 424.75C279.621 430.928 267 437.364 263.637 429.769C258.286 417.683 245.535 384.242 239.858 363.824C234.535 344.681 230.202 327.46 228.078 317.704Z" fill="#997659"/>
<path fill-rule="evenodd" clip-rule="evenodd" d="M159.655 332.965C159.606 332.532 159.604 332.088 159.655 331.634C160.71 322.243 156.527 212.948 159.73 195L213.416 222.526C210.981 236.172 189.291 318.521 184.007 334.461C179.283 361.455 155.468 444.513 154.686 450.712C153.863 457.233 139.696 457.202 140.169 448.909C140.921 435.713 144.832 400.139 149.095 379.379C153.093 359.916 157.093 342.614 159.655 332.965Z" fill="#997659"/>
<path fill-rule="evenodd" clip-rule="evenodd" d="M162.07 194.901C162.07 194.901 197.356 184.816 228.843 194.901C236.147 228.188 253.893 241.4 257.013 292.434C221.54 310.042 177.72 279.877 141.203 297.048C130.77 273.03 145.377 215.188 162.07 194.901Z" fill="#EAD4D0"/>
<path fill-rule="evenodd" clip-rule="evenodd" d="M304.467 147.922L263.273 153.535L270.664 171.972L304.089 158.734C318.497 160.154 325.463 159.812 324.989 157.708C324.589 155.935 323.058 155.399 321.648 154.906C320.549 154.522 319.523 154.163 319.163 153.265C318.341 151.213 323.024 146.961 327.64 143.117C332.256 139.273 329.157 138.566 327.209 138.623C320.288 140.243 312.708 143.343 304.467 147.922ZM104.058 249.003C107.116 242.806 133.868 163.06 133.868 163.06L156.715 163.146C156.715 163.146 119.137 247.621 117.528 251.606C115.437 256.782 118.989 264.302 121.397 269.402C121.769 270.19 122.114 270.921 122.407 271.577C119.066 273.07 117.461 271.265 115.768 269.362C113.857 267.212 111.835 264.937 107.074 267.15C105.234 268.005 103.494 269.015 101.793 270.003C95.9193 273.414 90.5232 276.547 83.1825 272.022C82.0187 271.305 80.7434 268.604 83.8247 266.493C91.5013 261.235 102.564 252.032 104.058 249.003Z" fill="#997659"/>
<path fill-rule="evenodd" clip-rule="evenodd" d="M196.447 90.6763L214.335 91.8667C218.741 131.682 242.737 156.831 296.463 148.317L303.601 199.59C253.386 206.073 209.347 185.99 200.321 131.614C197.985 117.538 196.14 102.889 196.447 90.6763Z" fill="#84AEB3"/>
<path fill-rule="evenodd" clip-rule="evenodd" d="M107.192 238.676C119.612 172.664 145.825 121.593 185.833 85.4648H187.549H187.608L187.622 85.4815L214.725 91.6822C214.725 124.205 221.967 148.505 228.931 171.868C231.938 181.957 234.893 191.871 237.19 202.197H163.994C162.962 214.028 162.329 226.187 161.999 238.676H107.192Z" fill="#89C5CC"/>
<path fill-rule="evenodd" clip-rule="evenodd" d="M163.994 202.197C166.093 178.112 169.841 155.39 176.038 134.032C174.68 156.872 174.303 185.207 178.87 202.197H163.994Z" fill="black" fill-opacity="0.1"/>
<path d="M306.817 118.709C306.817 118.709 315.187 104.959 328.484 109.837C341.781 114.716 342.246 124.202 342.246 124.202C342.246 124.202 349.484 108.336 366.799 119.299C384.114 130.262 364.77 149.527 362.262 150.547C359.753 151.567 330.434 169.731 330.434 169.731C330.434 169.731 305.575 136.841 304.428 133.747C303.28 130.653 302.61 125.159 306.817 118.709Z" fill="#2C7D98"/>
<path opacity="0.2" d="M311.687 120.473C311.687 120.473 319.365 106.696 330.682 111.035C341.999 115.374 342.071 124.679 342.071 124.679C342.071 124.679 351.809 109.731 366.799 119.299C384.371 130.51 364.463 149.461 362.262 150.547C360.061 151.633 330.359 169.77 330.359 169.77C330.359 169.77 310.011 138.312 309.123 135.31C308.235 132.308 307.841 126.945 311.687 120.473Z" fill="#C0D8E0"/>
<path d="M309.97 119.076C312.48 114.959 317.122 111.694 321.896 112.432C322.214 112.458 322.518 112.574 322.773 112.765C322.923 112.935 323.037 113.135 323.106 113.351C323.176 113.567 323.2 113.795 323.178 114.021C323.174 117.244 320.91 119.959 319.694 122.94C317.338 128.719 318.983 135.247 320.199 141.367C320.404 142.368 320.511 143.597 319.703 144.224C319.417 144.397 319.099 144.513 318.768 144.563C318.438 144.614 318.1 144.599 317.775 144.52C306.557 142.923 305.09 127.083 309.97 119.076Z" fill="url(#paint0_linear)"/>
<path d="M332.878 154.694L331.035 133.69L325.779 140.502L306.471 136.996L304.051 133.097L324.18 136.651L333.828 124.138L335.523 143.395L343.274 130.664L345.222 139.122L352.102 128.84L353.484 143.146L366.932 146.045L364.194 149.101L350.139 146.199L349.472 139.275L343.576 148.083L341.742 140.14L332.878 154.694Z" fill="white"/>
</g>
<defs>
<linearGradient id="paint0_linear" x1="2640.78" y1="11172.7" x2="3885.45" y2="11521.1" gradientUnits="userSpaceOnUse">
<stop stop-color="white" stop-opacity="0"/>
<stop offset="0.95" stop-color="white"/>
</linearGradient>
<clipPath id="clip0">
<rect width="405" height="317" fill="white"/>
</clipPath>
</defs>
</svg>
