<svg width="60" height="60" viewBox="0 0 60 60" fill="none" xmlns="http://www.w3.org/2000/svg">
<path d="M14.375 55C14.2417 55 14.1042 54.9729 13.9771 54.9208C13.5875 54.7604 13.3333 54.3792 13.3333 53.9583V44.5833H10.2083C7.33542 44.5833 5 42.2479 5 39.375V10.2083C5 7.33542 7.33542 5 10.2083 5H49.7917C52.6646 5 55 7.33542 55 10.2083V39.375C55 42.2479 52.6646 44.5833 49.7917 44.5833H25.2229L15.1104 54.6958C14.9125 54.8937 14.6458 55 14.375 55ZM10.2083 7.08333C8.48542 7.08333 7.08333 8.48542 7.08333 10.2083V39.375C7.08333 41.0979 8.48542 42.5 10.2083 42.5H14.375C14.95 42.5 15.4167 42.9667 15.4167 43.5417V51.4437L24.0542 42.8062C24.25 42.6104 24.5146 42.5 24.7917 42.5H49.7917C51.5146 42.5 52.9167 41.0979 52.9167 39.375V10.2083C52.9167 8.48542 51.5146 7.08333 49.7917 7.08333H10.2083Z" fill="#EB5757"/>
<path d="M34.083 21.0702C34.4954 21.8111 34.7333 22.6325 34.765 23.47C38.7621 24.533 41.522 26.7879 41.522 29.3971C41.522 33.0211 36.1926 35.9524 29.6101 35.9524C23.0277 35.9524 17.6982 33.0211 17.6982 29.3971C17.6982 26.7879 20.4581 24.533 24.4552 23.4861C24.4076 24.4847 24.6455 25.4672 25.1372 26.3369L28.8646 32.9083C29.1343 33.3915 29.3405 33.923 29.4515 34.4867L29.6101 34.2129C30.5301 32.5862 30.5301 30.589 29.6101 28.9623L26.6123 23.7116C25.7082 22.0849 25.7082 20.0877 26.6282 18.4771L26.7868 18.2033C26.8978 18.7509 27.0882 19.2824 27.3737 19.7817L29.1184 22.8419L31.8466 27.6577C32.1321 28.1409 32.3224 28.6724 32.4334 29.2361L32.592 28.9623C33.512 27.3355 33.512 25.3384 32.592 23.7116L29.6101 18.461C28.6902 16.8342 28.6902 14.8371 29.6101 13.2103L29.7687 12.9365C29.8798 13.5002 30.0701 14.0318 30.3556 14.531L34.083 21.0702Z" fill="#EB5757"/>
</svg>
