<svg width="518" height="408" viewBox="0 0 518 408" fill="none" xmlns="http://www.w3.org/2000/svg">
<g clip-path="url(#clip0)">
<path opacity="0.15" d="M75.5183 28.2799C50.8561 42.2164 29.0071 62.2461 16.5353 87.6504C4.06357 113.055 1.93806 141.303 0.625239 169.175C-0.687578 200.423 -0.531291 231.671 7.12681 261.981C14.2223 289.885 27.5692 315.82 42.5416 340.412C53.5443 358.473 65.9535 376.472 83.7078 388.002C96.7291 395.849 111.123 401.151 126.124 403.626C176.79 413.429 229.276 406.246 275.442 383.19C309.825 365.942 339.707 340.225 375.997 328.007C407.848 317.289 443.607 317.258 472.301 299.884C508.06 278.011 524.439 231.327 515.687 190.361C506.935 149.396 476.146 115.367 438.825 96.2435C417.663 85.4318 394.783 79.1823 373.465 69.0893C352.148 58.9963 332.674 45.1849 311.888 33.967C237.62 -6.18615 150.349 -14.0293 75.5183 28.2799Z" fill="#EB5757"/>
<path d="M319.612 114.04C318.5 112.611 317.6 111.02 316.942 109.321C316.203 107.148 315.749 104.884 315.592 102.589C315.472 101.764 315.532 100.922 315.768 100.124C316.149 99.042 317.088 98.2304 317.382 97.1183C317.425 97.0021 317.425 96.8739 317.382 96.7577C317.382 96.7577 317.235 96.5172 317 96.5172L315.768 96.1866C315.974 95.1596 315.807 94.0906 315.298 93.1809C315.149 92.8497 314.908 92.5707 314.606 92.3783C314.303 92.186 313.952 92.0888 313.596 92.0988C312.833 92.0988 312.452 93.0907 311.806 93.5416C311.16 93.9924 310.456 94.0526 309.899 94.5034C309.306 95.1582 308.971 96.015 308.959 96.9079C308.919 99.071 309.237 101.225 309.899 103.28C310.32 105.679 310.889 108.048 311.601 110.373C313.858 117.545 317.467 124.193 322.224 129.94C324.043 132.135 331.028 140.791 333.786 138.567C337.689 135.561 335.136 130.602 332.436 128.227C327.613 124.052 323.306 119.287 319.612 114.04Z" fill="#B28B67"/>
<path d="M336.017 128.137C334.696 130.211 333.405 132.345 332.202 134.509C331.972 134.83 331.807 135.195 331.717 135.582C331.626 135.969 331.611 136.37 331.673 136.763C331.892 137.273 332.29 137.681 332.788 137.905C333.813 138.374 334.937 138.571 336.055 138.476C337.173 138.381 338.25 137.999 339.186 137.364C341.03 136.035 342.663 134.423 344.028 132.585C344.765 131.569 345.68 130.702 346.728 130.03C347.26 129.705 347.869 129.533 348.489 129.533C349.109 129.533 349.717 129.705 350.249 130.03C350.505 130.198 350.723 130.418 350.889 130.678C351.055 130.938 351.165 131.231 351.213 131.538C351.26 131.845 351.243 132.159 351.163 132.458C351.083 132.758 350.941 133.037 350.748 133.276C350.748 132.315 349.604 131.713 348.694 131.954C347.811 132.326 347.076 132.993 346.611 133.848C345.903 134.879 345.257 135.953 344.674 137.064C344.204 137.877 343.858 138.759 343.647 139.679C343.587 140.818 343.751 141.959 344.129 143.033C344.507 144.107 345.091 145.092 345.847 145.93C346.392 146.596 346.828 147.347 347.139 148.155C347.363 149.452 347.262 150.786 346.845 152.032C345.774 157.328 345.507 162.762 346.053 168.142C346.19 168.657 346.206 169.199 346.099 169.721C345.992 170.244 345.765 170.733 345.437 171.148C344.87 171.602 344.159 171.827 343.441 171.779C340.066 171.779 336.721 170.998 333.317 171.088C331.231 171.318 329.134 171.428 327.037 171.419C326.883 171.438 326.728 171.416 326.584 171.357C326.441 171.297 326.315 171.201 326.218 171.078C326.121 170.954 326.057 170.808 326.03 170.652C326.004 170.496 326.017 170.336 326.068 170.186C327.008 164.223 327.156 158.156 326.508 152.152C325.803 149.429 325.37 146.639 325.217 143.826C325.19 143.208 325.3 142.591 325.54 142.023C325.811 141.475 326.157 140.968 326.567 140.52C328.772 137.796 330.356 134.603 331.204 131.172" fill="white"/>
<path opacity="0.1" d="M344.556 155.94C344.578 156.441 344.486 156.941 344.288 157.4C344.089 157.859 343.789 158.264 343.412 158.585C343.168 158.697 342.933 158.827 342.708 158.975C342.267 159.396 342.326 160.117 342.238 160.719C341.862 161.822 341.285 162.842 340.536 163.724C340.181 164.193 339.989 164.769 339.989 165.362C339.989 165.955 340.181 166.532 340.536 167C341.064 167.541 341.945 167.632 342.385 168.263C342.825 168.894 342.385 170.938 343.295 171.569C343.591 171.698 343.922 171.714 344.228 171.615C344.535 171.516 344.797 171.308 344.967 171.028C345.282 170.459 345.454 169.818 345.466 169.165C346.151 162.412 346.777 155.629 347.344 148.816C347.422 148.459 347.412 148.088 347.315 147.737C347.218 147.385 347.036 147.064 346.787 146.802C346.347 146.171 345.76 144.969 345.114 144.638C344.38 145.75 344.938 148.155 344.938 149.447C344.821 151.641 344.732 153.805 344.556 155.94Z" fill="#020202"/>
<path d="M328.475 116.415C328.09 116.922 327.837 117.522 327.741 118.158C327.814 118.606 327.974 119.036 328.21 119.42C328.633 120.368 328.881 121.387 328.944 122.426C328.919 123.207 329.112 123.979 329.502 124.65C329.844 124.983 330.251 125.238 330.696 125.399C331.141 125.56 331.614 125.622 332.084 125.582H334.256C334.515 125.508 334.789 125.508 335.048 125.582C335.288 125.708 335.483 125.908 335.606 126.153C336.28 127.776 336.687 129.503 336.809 131.263C336.869 131.561 337 131.84 337.19 132.074C337.34 132.293 337.542 132.469 337.777 132.585C339.305 133.202 341.004 133.202 342.531 132.585C342.924 132.464 343.266 132.209 343.5 131.864C343.65 131.426 343.65 130.949 343.5 130.511C343.333 129.301 343.078 128.106 342.737 126.934C342.125 125.398 341.806 123.755 341.798 122.095C341.798 120.623 342.59 119.27 342.825 117.827C342.996 116.304 342.687 114.764 341.942 113.434C341.198 112.104 340.057 111.052 338.687 110.433C337.521 109.962 336.267 109.766 335.017 109.859C333.767 109.953 332.554 110.334 331.468 110.974C330.676 111.395 330.03 111.606 329.648 112.477C329.267 113.349 329.179 115.182 328.475 116.415Z" fill="#B28B67"/>
<path d="M328.68 107.458C328.552 106.906 328.483 106.342 328.475 105.775C328.475 103.851 329.56 101.657 331.409 101.597C332.73 101.597 333.904 102.619 335.254 102.619C335.81 102.542 336.359 102.421 336.897 102.258C338.307 101.927 339.772 101.927 341.181 102.258C344.228 102.81 346.944 104.557 348.753 107.127C349.653 108.438 350.16 109.989 350.212 111.591C350.264 113.192 349.859 114.775 349.046 116.144C348.078 117.647 346.581 118.729 345.554 120.202C345.061 121.121 344.523 122.014 343.94 122.877C343.412 123.508 342.179 124.53 341.299 124.079C340.418 123.628 340.36 122.156 339.743 121.524C340.348 121.036 340.926 120.514 341.475 119.961C341.742 119.681 341.928 119.33 342.011 118.948C342.093 118.566 342.071 118.167 341.944 117.797C341.592 117.076 340.389 116.926 340.096 117.797C340.187 116.785 340.049 115.765 339.693 114.816C339.336 113.868 338.771 113.016 338.041 112.327C337.83 112.059 337.572 111.834 337.278 111.666C336.958 111.605 336.63 111.605 336.31 111.666C335.4 111.666 334.52 111.666 333.61 111.666C332.055 111.666 331.292 112.117 330.177 110.764C329.412 109.81 328.897 108.672 328.68 107.458Z" fill="#333333"/>
<path opacity="0.2" d="M337.484 125.882C337.727 125.86 337.969 125.936 338.159 126.093C338.315 126.299 338.398 126.553 338.394 126.814C338.511 128.144 338.511 129.482 338.394 130.812C338.361 131.165 338.272 131.51 338.129 131.834C338.045 131.991 337.922 132.123 337.773 132.218C337.624 132.312 337.454 132.366 337.278 132.375C336.897 132.375 336.574 132.044 336.163 131.954C335.949 131.907 335.727 131.909 335.514 131.961C335.3 132.013 335.101 132.113 334.931 132.254C334.6 132.548 334.304 132.881 334.05 133.246C333.4 134.086 332.683 134.87 331.908 135.591C332.431 133.765 333.222 132.032 334.256 130.451C334.49 129.995 334.86 129.626 335.312 129.399C335.664 129.399 336.105 129.399 336.339 129.008C336.574 128.618 336.339 127.866 336.075 127.355C335.811 126.844 335.136 126.123 335.547 125.762C335.958 125.402 337.132 125.852 337.484 125.882Z" fill="#333333"/>
<path d="M365.773 118.789C366.932 117.678 368.011 116.482 369.002 115.212C371.836 111.586 373.387 107.083 373.403 102.438C373.301 101.933 373.301 101.411 373.403 100.905C373.464 100.659 373.593 100.437 373.776 100.266C373.958 100.095 374.186 99.9829 374.431 99.9434C374.645 99.9734 374.862 99.9734 375.076 99.9434C375.399 99.9434 375.546 99.4925 375.81 99.2521C376.03 99.1107 376.284 99.0356 376.544 99.0356C376.803 99.0356 377.057 99.1107 377.277 99.2521C377.726 99.5423 378.115 99.9202 378.422 100.364C378.891 101.025 379.361 101.717 379.772 102.408C380.143 102.938 380.367 103.561 380.417 104.211C380.293 105.26 379.778 106.219 378.979 106.887C378.07 106.887 377.365 109.381 377.13 109.892C376.661 111.245 376.133 112.597 375.546 113.89C372.047 121.704 366.871 128.608 360.403 134.088C358.232 135.921 350.015 143.105 347.55 140.55C344.175 136.883 347.55 132.465 350.484 130.571C356.043 127.316 361.18 123.358 365.773 118.789Z" fill="#B28B67"/>
<path d="M326.833 121.585H326.567C326.584 121.565 326.604 121.55 326.627 121.539C326.65 121.529 326.675 121.523 326.7 121.523C326.725 121.523 326.75 121.529 326.773 121.539C326.796 121.55 326.816 121.565 326.833 121.585Z" fill="#EB5757"/>
<path d="M375.722 114.221C375.627 115.846 375.176 117.428 374.401 118.849C369.713 128.927 361.699 136.986 351.775 141.602C351.206 141.791 350.692 142.122 350.279 142.564C349.981 142.987 349.771 143.468 349.662 143.977C347.403 152.994 347.902 162.191 346.288 171.208C346.234 172.015 345.913 172.778 345.378 173.372C344.603 173.934 343.644 174.161 342.707 174.004H340.8C336.269 173.752 331.753 173.261 327.271 172.531C326.484 172.49 325.74 172.146 325.188 171.569C324.809 170.852 324.704 170.016 324.894 169.225C325.105 163.033 324.86 156.834 324.161 150.68C323.911 147.679 323.911 144.663 324.161 141.662C324.528 140.163 324.528 138.593 324.161 137.094C323.992 136.656 323.754 136.25 323.456 135.892C322.174 134.64 320.822 133.465 319.407 132.375C317.459 130.109 316.07 127.399 315.357 124.47C314.007 120.322 312.598 116.204 311.307 112.057C310.339 109.051 311.865 107.638 314.066 106.496C314.858 106.075 315.738 105.684 316.648 105.264C317.427 108.476 318.549 111.591 319.994 114.551C321.421 117.476 323.725 119.856 326.567 121.344C326.52 121.344 326.476 121.363 326.443 121.397C326.41 121.431 326.391 121.477 326.391 121.524C326.391 121.637 326.417 121.748 326.469 121.847C326.52 121.947 326.594 122.032 326.684 122.095C328.651 123.959 330.646 125.792 332.554 127.686C332.921 128.078 333.374 128.377 333.874 128.558C334.461 128.558 336.486 128.017 336.398 129.129C336.412 129.188 336.412 129.25 336.398 129.309C336.398 129.7 336.046 130 335.987 130.391C335.977 130.629 336.035 130.864 336.156 131.067C336.276 131.27 336.452 131.433 336.662 131.533C337.079 131.747 337.549 131.831 338.012 131.774C338.524 131.742 339.029 131.631 339.509 131.443C340.301 131.113 340.947 130.541 341.71 130.151C342.874 129.705 344.143 129.631 345.349 129.94C346.664 130.042 347.987 129.961 349.281 129.7C353.026 128.806 356.489 126.955 359.347 124.32C363.341 120.353 367.049 116.094 370.439 111.576C370.818 111.055 371.311 110.633 371.877 110.343C372.356 110.181 372.871 110.163 373.36 110.291C373.849 110.419 374.291 110.687 374.636 111.065C375.027 111.48 375.327 111.977 375.514 112.522C375.701 113.066 375.772 113.646 375.722 114.221Z" fill="white"/>
<path d="M375.722 114.221C375.627 115.846 375.176 117.428 374.401 118.849C369.713 128.927 361.699 136.986 351.775 141.602C351.206 141.791 350.692 142.122 350.279 142.564C349.981 142.987 349.771 143.468 349.662 143.977C347.403 152.994 347.902 162.191 346.288 171.208C346.234 172.015 345.913 172.778 345.378 173.372C344.603 173.934 343.644 174.161 342.707 174.004H340.8C336.269 173.752 331.753 173.261 327.271 172.531C326.484 172.49 325.74 172.146 325.188 171.569C324.809 170.852 324.704 170.016 324.894 169.225C325.105 163.033 324.86 156.834 324.161 150.68C323.911 147.679 323.911 144.663 324.161 141.662C324.528 140.163 324.528 138.593 324.161 137.094C323.992 136.656 323.754 136.25 323.456 135.892C322.174 134.64 320.822 133.465 319.407 132.375C317.459 130.109 316.07 127.399 315.357 124.47C314.007 120.322 312.598 116.204 311.307 112.057C310.339 109.051 311.865 107.638 314.066 106.496C314.858 106.075 315.738 105.684 316.648 105.264C317.427 108.476 318.549 111.591 319.994 114.551C321.421 117.476 323.725 119.856 326.567 121.344C326.52 121.344 326.476 121.363 326.443 121.397C326.41 121.431 326.391 121.477 326.391 121.524C326.391 121.637 326.417 121.748 326.469 121.847C326.52 121.947 326.594 122.032 326.684 122.095C328.651 123.959 330.646 125.792 332.554 127.686C332.921 128.078 333.374 128.377 333.874 128.558C334.461 128.558 336.486 128.017 336.398 129.129C336.412 129.188 336.412 129.25 336.398 129.309C336.398 129.7 336.046 130 335.987 130.391C335.977 130.629 336.035 130.864 336.156 131.067C336.276 131.27 336.452 131.433 336.662 131.533C337.079 131.747 337.549 131.831 338.012 131.774C338.524 131.742 339.029 131.631 339.509 131.443C340.301 131.113 340.947 130.541 341.71 130.151C342.874 129.705 344.143 129.631 345.349 129.94C346.664 130.042 347.987 129.961 349.281 129.7C353.026 128.806 356.489 126.955 359.347 124.32C363.341 120.353 367.049 116.094 370.439 111.576C370.818 111.055 371.311 110.633 371.877 110.343C372.356 110.181 372.871 110.163 373.36 110.291C373.849 110.419 374.291 110.687 374.636 111.065C375.027 111.48 375.327 111.977 375.514 112.522C375.701 113.066 375.772 113.646 375.722 114.221Z" fill="url(#paint0_linear)" fill-opacity="0.3"/>
<path opacity="0.1" d="M324.219 136.974C323.985 136.613 323.779 136.222 323.515 135.892C322.233 134.64 320.881 133.465 319.465 132.375C317.518 130.11 316.129 127.399 315.416 124.47C314.066 120.322 312.657 116.204 311.366 112.057C310.397 109.051 311.923 107.638 314.124 106.496C314.576 106.927 314.935 107.449 315.181 108.029C315.637 109.303 315.962 110.623 316.149 111.966C316.873 115.034 318.125 117.945 319.847 120.563C321.578 123.388 323.222 126.273 324.953 129.099C325.055 129.257 325.134 129.429 325.188 129.61C325.259 129.886 325.259 130.176 325.188 130.451C324.841 131.563 324.624 132.713 324.542 133.878C324.395 134.599 324.777 136.583 324.219 136.974Z" fill="#333333"/>
<path opacity="0.1" d="M375.722 114.221C375.627 115.846 375.176 117.428 374.401 118.849C369.713 128.928 361.699 136.986 351.775 141.602C351.206 141.791 350.692 142.122 350.279 142.564C349.981 142.987 349.771 143.468 349.663 143.977C347.403 152.994 347.902 162.191 346.288 171.208C346.234 172.015 345.913 172.778 345.378 173.373C344.603 173.934 343.644 174.161 342.707 174.004H340.8C340.249 173.964 339.72 173.766 339.274 173.433C338.85 173.018 338.58 172.466 338.511 171.87C338.114 168.459 337.966 165.023 338.071 161.59C338.133 159.861 337.793 158.142 337.079 156.574C336.364 155.006 335.296 153.635 333.962 152.573C333.285 152.241 332.662 151.806 332.114 151.281C331.855 151.006 331.711 150.64 331.711 150.259C331.711 149.878 331.855 149.511 332.114 149.237C332.392 149.047 332.718 148.943 333.053 148.936C334.964 148.798 336.866 148.537 338.746 148.155C340.634 147.798 342.321 146.724 343.47 145.149C344.439 143.646 344.644 141.723 345.701 140.28C347.139 138.79 348.961 137.748 350.954 137.274C357.865 134.511 363.983 130.003 368.737 124.17C370.85 121.555 372.464 116.836 375.076 114.882C375.259 114.631 375.477 114.408 375.722 114.221Z" fill="#333333"/>
<path d="M204.963 230.45C192.841 239.416 179.978 247.281 166.519 253.954L164.612 254.195H164.084C163.569 254.172 163.065 254.034 162.607 253.79C162.149 253.547 161.749 253.205 161.433 252.788C161.117 252.37 160.894 251.887 160.78 251.372C160.665 250.857 160.661 250.323 160.768 249.807C160.891 248.714 161.078 247.63 161.325 246.561C163.027 238.385 164.739 230.22 166.461 222.064C166.558 221.766 166.553 221.442 166.446 221.147C166.339 220.852 166.137 220.603 165.874 220.441L135.148 196.005C134.954 195.81 134.701 195.686 134.43 195.653C134.159 195.621 133.886 195.681 133.652 195.825C131.832 196.786 129.954 197.658 128.076 198.53C121.473 201.716 115.105 204.721 108.59 207.727C108.163 207.948 107.695 208.075 107.216 208.098C106.738 208.121 106.26 208.041 105.815 207.862C105.369 207.683 104.965 207.41 104.629 207.061C104.293 206.711 104.033 206.293 103.866 205.834L103.484 204.932C103.484 204.932 103.484 204.601 103.484 204.451C103.776 202.037 104.187 199.639 104.717 197.267C107.998 184.792 112.026 172.536 116.778 160.568C119 154.127 123.349 148.684 129.074 145.179C133.417 142.664 138.205 141.06 143.16 140.46C146.992 139.895 150.852 139.553 154.722 139.438C155.925 139.438 157.158 139.438 158.391 139.438C158.646 139.402 158.891 139.315 159.113 139.181C159.335 139.046 159.528 138.868 159.682 138.657C162.616 134.268 165.375 129.64 168.486 125.432C172.819 119.098 177.482 113.008 182.454 107.187C187.638 101.78 193.083 96.6439 198.771 91.798C204.522 86.5847 210.708 81.8979 217.259 77.7915C227.095 72.0022 237.633 67.5657 248.6 64.5966C250.713 63.9354 252.856 63.3643 254.998 62.7631L259.4 62.2822H260.192C261.219 62.4069 262.191 62.8296 262.991 63.5005C263.792 64.1715 264.389 65.0627 264.711 66.0694C264.726 66.1992 264.726 66.3303 264.711 66.4601C264.911 67.4521 265.048 68.456 265.122 69.4658C265.553 74.7422 265.455 80.0499 264.829 85.3057C264.188 94.8025 262.364 104.176 259.4 113.198C256.429 121.592 252.899 129.766 248.835 137.665C245.629 144.411 241.838 150.849 237.508 156.901C230.601 166.166 223.215 175.046 215.381 183.501C215.137 183.727 214.964 184.022 214.886 184.349C214.807 184.676 214.826 185.019 214.94 185.335C215.469 187.679 215.968 190.024 216.378 192.368C217.428 197.229 217.823 202.215 217.552 207.186C217.378 211.802 216.148 216.312 213.961 220.353C211.775 224.393 208.692 227.852 204.963 230.45Z" fill="white"/>
<path opacity="0.6" d="M153.754 208.509L135.266 193.751C135.266 193.751 143.218 168.653 154.722 139.438C155.925 139.438 157.158 139.438 158.39 139.438C158.646 139.402 158.891 139.315 159.113 139.181C159.335 139.046 159.528 138.868 159.682 138.657C162.616 134.268 165.375 129.64 168.485 125.432C172.819 119.098 177.482 113.008 182.454 107.187C187.637 101.78 193.083 96.6439 198.771 91.798C204.522 86.5847 210.708 81.8979 217.259 77.7915C227.095 72.0022 237.632 67.5657 248.6 64.5966C250.713 63.9354 252.855 63.3643 254.998 62.7631L259.4 62.2822H260.192C261.219 62.4069 262.19 62.8296 262.991 63.5005C263.792 64.1715 264.389 65.0627 264.711 66.0694C264.725 66.1992 264.725 66.3303 264.711 66.4601C254.235 75.1766 178.551 139.228 153.754 208.509Z" fill="url(#paint1_linear)"/>
<path opacity="0.1" d="M175.98 150.507C178.317 149.247 180.414 147.567 182.172 145.548C185.782 150.447 187.043 156.699 189.479 162.29C189.936 163.665 190.823 164.848 192.003 165.656C193.06 166.109 194.207 166.294 195.348 166.197C197.608 166.197 199.868 166.197 202.127 166.197C204.536 166.208 206.919 165.685 209.112 164.664C210.315 164.063 211.489 162.861 211.137 161.658C210.784 160.456 209.082 159.915 207.703 159.915C205.968 160.028 204.225 159.866 202.538 159.434C200.412 158.491 198.721 156.748 197.813 154.565C196.873 152.533 196.107 150.421 195.524 148.253C194.318 144.57 192.827 140.992 191.064 137.553C190.066 135.411 188.704 133.467 187.043 131.812C186.213 130.992 185.227 130.356 184.147 129.942C183.067 129.529 181.915 129.347 180.763 129.407C176.596 129.858 173.896 134.187 170.023 135.81C168.177 136.274 166.379 136.918 164.652 137.733C163.558 138.551 162.623 139.57 161.894 140.739C159.622 144.005 157.96 147.673 156.993 151.559C163.251 153.46 169.959 153.089 175.98 150.507Z" fill="url(#paint2_linear)"/>
<path d="M181.222 128.948C181.222 128.948 187.091 128.407 189.263 130.601C192.645 134.614 194.995 139.429 196.1 144.608C196.629 146.592 197.274 148.515 197.714 150.619C197.991 152.48 198.525 154.292 199.299 155.999C199.776 156.953 200.581 157.692 201.559 158.073C202.328 158.254 203.119 158.314 203.906 158.254C204.888 158.244 205.87 158.314 206.841 158.464C207.029 158.479 207.21 158.541 207.369 158.644C207.48 158.794 207.55 158.97 207.575 159.155C207.632 159.674 207.557 160.199 207.356 160.678C207.155 161.158 206.836 161.575 206.43 161.89C203.947 163.11 201.135 163.438 198.448 162.822C195.22 161.71 194.193 155.579 193.019 152.723C191.317 148.545 189.497 144.457 187.561 140.4C187.356 139.862 187.035 139.379 186.622 138.987C186.135 138.659 185.584 138.444 185.007 138.356L177.935 136.793C178.61 134.178 180.488 131.533 181.222 128.948Z" fill="#B28B67"/>
<path d="M212.798 148.756C222.377 148.756 230.142 140.803 230.142 130.992C230.142 121.182 222.377 113.229 212.798 113.229C203.22 113.229 195.455 121.182 195.455 130.992C195.455 140.803 203.22 148.756 212.798 148.756Z" fill="#EB5757"/>
<path d="M212.798 142.804C219.168 142.804 224.331 137.516 224.331 130.992C224.331 124.468 219.168 119.18 212.798 119.18C206.429 119.18 201.265 124.468 201.265 130.992C201.265 137.516 206.429 142.804 212.798 142.804Z" fill="#473F47"/>
<path d="M161.648 140.49L134.151 196.275L108.062 208.298C108.062 208.298 102.985 211.754 103.484 204.661C106.076 187.265 116.82 157.294 121.473 152.182C125.494 146.651 137.731 136.552 161.648 140.49Z" fill="#EB5757"/>
<path d="M214.706 184.132L166.461 222.064L159.418 255.547C160.473 256.978 161.981 257.989 163.683 258.405C165.386 258.822 167.177 258.619 168.75 257.832C175.353 255.577 209.482 232.283 213.737 227.023C217.993 221.763 224.39 206.855 214.706 184.132Z" fill="#EB5757"/>
<path d="M241.499 66.9408L264.741 85.3356C264.741 85.3356 265.944 66.2796 264.741 62.282C263.538 58.2845 241.499 66.9408 241.499 66.9408Z" fill="#EB5757"/>
<path d="M135.295 193.781L130.688 202.167L161.648 226.513L168.779 220.261L135.295 193.781Z" fill="#EB5757"/>
<path opacity="0.28" d="M130.688 202.136C130.688 202.136 41.2995 299.641 99.933 344.425C158.567 389.21 226.327 359.694 226.327 359.694C226.327 359.694 129.485 381.605 115.369 325.97C107.123 293.419 161.648 226.512 161.648 226.512L130.688 202.136Z" fill="url(#paint3_linear)"/>
<path d="M342.883 288.881L364.658 302.437H309.37L331.145 288.009V276.257L327.506 271.839V257.832C291.88 245.208 292.731 166.94 292.731 166.94H381.297C381.297 166.94 381.297 167.241 381.297 167.872C381.826 176.468 384.79 242.353 351.423 256.72C350.109 257.299 348.755 257.782 347.373 258.163V270.186L344.439 274.063L342.883 276.077V288.881Z" fill="#EB5757"/>
<path d="M296.487 234.778C295.412 234.816 294.341 234.636 293.334 234.249C292.327 233.863 291.404 233.276 290.618 232.524C289.67 231.464 289.033 230.152 288.779 228.738C288.525 227.324 288.664 225.866 289.18 224.529L293.23 225.731C292.972 226.347 292.884 227.023 292.977 227.686C293.071 228.349 293.341 228.973 293.758 229.488C294.381 229.986 295.116 230.315 295.895 230.446C296.674 230.577 297.473 230.506 298.219 230.24C298.765 230.132 299.278 229.889 299.712 229.533C300.147 229.177 300.49 228.718 300.713 228.196C300.361 226.934 294.844 222.185 290.559 218.187C278.821 207.667 264.148 194.592 268.931 184.073C269.592 182.418 270.629 180.949 271.956 179.788C273.283 178.628 274.862 177.809 276.561 177.4C285.952 175.176 298.395 185.515 298.923 185.966L296.253 189.303C293.112 186.658 283.604 180.285 277.5 181.608C276.428 181.878 275.435 182.41 274.607 183.158C273.78 183.907 273.141 184.85 272.746 185.906C269.283 193.48 283.751 206.375 293.289 214.911C301.799 222.515 305.526 226.002 304.792 229.218C304.413 230.502 303.709 231.66 302.75 232.574C301.79 233.487 300.612 234.124 299.334 234.418C298.403 234.657 297.447 234.778 296.487 234.778Z" fill="#EB5757"/>
<path d="M380.3 234.779C379.357 234.782 378.419 234.65 377.512 234.388C376.229 234.099 375.044 233.464 374.079 232.55C373.115 231.637 372.405 230.476 372.024 229.188C371.29 225.972 374.959 222.485 383.528 214.881C393.095 206.345 407.562 193.45 404.07 185.876C403.69 184.898 403.087 184.027 402.311 183.336C401.535 182.646 400.609 182.156 399.609 181.909C392.948 180.406 382.002 187.92 378.451 190.926L375.927 187.559C376.543 187.078 390.6 175.537 400.695 177.731C402.328 178.108 403.85 178.881 405.131 179.984C406.413 181.088 407.417 182.49 408.061 184.073C412.874 194.593 398.201 207.667 386.433 218.187C382.06 222.095 376.631 226.934 376.279 228.497C376.514 229.248 377.717 229.939 378.774 230.24C379.513 230.515 380.309 230.591 381.085 230.459C381.862 230.328 382.592 229.993 383.205 229.489C383.593 228.961 383.833 228.336 383.9 227.679C383.968 227.023 383.859 226.36 383.586 225.762L387.666 224.559C388.182 225.898 388.318 227.359 388.058 228.774C387.799 230.188 387.154 231.499 386.198 232.554C385.408 233.306 384.479 233.89 383.466 234.272C382.454 234.653 381.378 234.826 380.3 234.779Z" fill="#EB5757"/>
<path opacity="0.2" d="M351.482 256.75C350.167 257.329 348.814 257.812 347.432 258.193V258.493H327.506V257.832C291.88 245.208 292.731 166.94 292.731 166.94H314.447C314.447 166.94 304.822 218.788 337.19 250.198C344.087 256.93 346.581 255.247 351.482 256.75Z" fill="white"/>
<path d="M363.338 258.463C361.995 258.664 360.631 258.664 359.288 258.463H363.338Z" fill="#EB5757"/>
<path opacity="0.28" d="M334.021 258.494V271.568L337.19 275.927V288.039L328.621 302.497H312.129L333.493 288.851V276.197L329.267 270.907V257.742L334.021 258.494Z" fill="white"/>
<path opacity="0.2" d="M327.506 258.524V257.863C291.88 245.239 292.731 166.971 292.731 166.971H299.04C299.04 166.971 295.167 235.891 329.267 257.742L330.441 258.524H327.506Z" fill="white"/>
<path d="M347.432 258.193V270.216L344.498 274.093C338.276 271.899 337.308 267.21 347.432 258.193Z" fill="#EB5757"/>
<path d="M351.482 256.75C350.167 257.33 348.814 257.812 347.432 258.193C380.417 228.888 363.338 166.971 363.338 166.971L381.356 167.902C381.796 176.499 384.731 242.383 351.482 256.75Z" fill="url(#paint4_linear)"/>
<path d="M164.788 87.6805L166.842 83.3824C168.752 79.133 171 75.0515 173.562 71.1793C178.874 63.6952 181.633 54.6481 186.211 46.653C186.511 46.2186 186.693 45.7103 186.739 45.1802C186.739 44.008 185.389 43.3467 184.244 43.0461C182.741 42.5333 181.136 42.4196 179.578 42.7155C178.802 42.8745 178.087 43.2598 177.52 43.825C176.952 44.3902 176.557 45.1113 176.38 45.9015C176.36 46.818 176.429 47.7341 176.585 48.6367C176.494 51.1952 175.633 53.6623 174.12 55.7001L162.558 74.8763C160.965 77.0244 159.953 79.5643 159.623 82.2402C159.69 83.6354 160.252 84.9575 161.203 85.959C162.154 86.9604 163.428 87.5725 164.788 87.6805Z" fill="#B28B67"/>
<path opacity="0.2" d="M164.788 88.8115C165.725 87.3489 166.072 85.5713 165.756 83.8522C165.419 81.591 165.419 79.2905 165.756 77.0293C166.455 74.8567 166.576 72.533 166.108 70.2965C166.108 70.2965 166.108 70.0861 165.932 70.026C165.862 69.9806 165.781 69.9565 165.698 69.9565C165.614 69.9565 165.533 69.9806 165.463 70.026C164.747 70.4671 164.214 71.1624 163.966 71.9797C162.734 74.9854 158.977 80.065 159.506 83.3412C159.569 84.761 160.144 86.1063 161.12 87.1168C162.095 88.1273 163.402 88.7312 164.788 88.8115Z" fill="url(#paint5_linear)"/>
<path d="M155.192 89.6344L161.237 81.7896L168.427 88.5223L161.648 94.7741L155.192 89.6344Z" fill="#EB5757"/>
<path opacity="0.2" d="M155.192 89.6344L161.237 81.7896L168.427 88.5223L161.648 94.7741L155.192 89.6344Z" fill="url(#paint6_linear)"/>
<path d="M170.657 99.3124L173.445 100.304C174.413 100.635 176.38 101.957 177.289 101.056C178.199 100.154 177.289 97.4189 177.289 96.427C176.827 92.8686 175.99 89.3718 174.795 85.9973C174.351 85.191 174.077 84.2981 173.991 83.3765C173.905 82.4548 174.009 81.525 174.296 80.6472C174.548 80.1873 174.914 79.8035 175.357 79.5345C175.8 79.2654 176.305 79.1205 176.82 79.1143C177.328 79.1228 177.827 79.2587 178.272 79.5103C178.717 79.7618 179.095 80.1211 179.373 80.557C179.771 81.5212 180.056 82.5301 180.224 83.5627C180.536 84.2363 180.658 84.9859 180.576 85.7268C180.414 86.0563 180.277 86.3979 180.165 86.7487C180.145 87.1407 180.215 87.532 180.371 87.8908L184.039 97.7795C185.055 99.8928 185.443 102.265 185.154 104.602C184.645 106.139 183.642 107.454 182.31 108.333C180.978 109.212 179.394 109.602 177.818 109.442C174.319 109.086 170.951 107.892 167.987 105.955C167.664 105.775 167.282 105.444 167.4 105.083C167.489 104.927 167.621 104.801 167.781 104.723C168.73 104.161 169.527 103.366 170.099 102.408C170.419 101.971 170.635 101.464 170.732 100.927C170.829 100.39 170.803 99.8376 170.657 99.3124Z" fill="#B28B67"/>
<path d="M162.382 83.2321C162.312 83.644 162.117 84.0227 161.824 84.3142C161.372 84.6043 160.859 84.7795 160.327 84.8251C159.781 84.8877 159.262 85.1064 158.831 85.4563C158.764 85.5806 158.729 85.7202 158.729 85.8621C158.729 86.004 158.764 86.1436 158.831 86.2679L159.623 89.7244C159.71 89.9772 159.71 90.2531 159.623 90.5059C159.467 90.8049 159.204 91.0308 158.889 91.1371C157.716 91.7082 156.219 92.2191 155.192 91.4076C154.675 90.9305 154.316 90.3001 154.165 89.6042C152.654 85.7668 151.742 81.7094 151.465 77.5814C151.355 76.3382 151.507 75.0852 151.912 73.9078C152.317 72.7304 152.966 71.6562 153.813 70.7585C155.461 69.3884 157.567 68.7307 159.682 68.9251C160.155 68.9487 160.616 69.0896 161.025 69.3357C161.434 69.5817 161.779 69.9255 162.029 70.3378C162.352 70.9389 162.029 71.5701 162.235 72.2313C162.327 73.1951 162.494 74.1499 162.734 75.0867C162.854 75.5363 163.001 75.978 163.174 76.4092C163.371 76.7643 163.51 77.1502 163.585 77.5514C163.587 78.2899 163.427 79.0194 163.115 79.6854C162.821 80.5017 162.615 81.3483 162.499 82.2102C162.558 82.631 162.558 82.9316 162.382 83.2321Z" fill="#B28B67"/>
<path d="M163.291 68.5346C163.174 69.3 162.874 70.0239 162.418 70.6424C161.963 71.261 161.366 71.7552 160.68 72.0813C157.51 73.6142 152.991 73.4038 154.194 78.0927C154.887 79.9232 155.157 81.8929 154.984 83.848C154.811 85.8031 154.199 87.6909 153.196 89.364C152.463 90.4761 151.553 91.4379 150.907 92.6101C149.851 94.4135 149.528 96.6077 148.384 98.351C146.095 101.807 141.458 102.529 137.408 102.529C135.859 102.495 134.32 102.792 132.889 103.401C129.573 105.084 128.076 110.073 124.408 110.253C120.74 110.434 119.478 105.535 117.423 103.13C116.02 101.683 115.076 99.8356 114.715 97.8299C114.354 95.8242 114.592 93.7535 115.399 91.8887C119.184 83.9537 131.539 84.4347 136.205 76.8603C139.081 72.472 139.081 66.4607 144.07 63.6353C146.811 62.3283 149.822 61.722 152.843 61.8686C155.863 62.0152 158.804 62.9102 161.413 64.4769C162.102 64.8667 162.653 65.468 162.99 66.196C163.327 66.924 163.433 67.742 163.291 68.5346Z" fill="#473F47"/>
<path d="M168.72 124.921C169.077 125.218 169.485 125.442 169.923 125.582C171.46 125.968 173.055 126.04 174.619 125.792C176.877 125.672 179.14 125.672 181.398 125.792C181.946 125.764 182.49 125.911 182.953 126.213C183.716 126.874 183.481 128.107 183.159 129.069C181.752 133.444 180.116 137.738 178.258 141.933C177.616 143.766 176.5 145.387 175.03 146.622C173.868 147.36 172.569 147.841 171.215 148.034C168.493 148.606 165.739 148.997 162.968 149.207C160.271 149.61 157.517 149.235 155.016 148.125C152.344 146.475 150.375 143.857 149.499 140.791C148.375 137.836 148.1 134.613 148.706 131.503C149.44 128.197 150.907 127.235 149.997 123.688C148.793 119.29 147.949 114.796 147.474 110.253C147.092 106.13 147.47 101.97 148.589 97.9899C149.033 96.1469 149.788 94.3974 150.819 92.8201C151.872 91.2714 153.418 90.1452 155.192 89.6341C156.071 89.4023 156.995 89.4108 157.87 89.6587C158.746 89.9065 159.542 90.3852 160.181 91.0468C163.614 94.864 168.309 95.0744 172.212 98.3506C172.441 98.5006 172.616 98.722 172.711 98.9818C172.813 99.2526 172.813 99.5525 172.711 99.8234L170.158 106.105C169.906 106.781 169.582 107.427 169.19 108.029C168.838 108.54 168.397 108.961 168.075 109.472C167.188 111.008 166.741 112.768 166.783 114.551C166.754 117.557 166.05 122.787 168.72 124.921Z" fill="#EB5757"/>
<path opacity="0.1" d="M164.994 128.949C164.53 129.181 164.014 129.284 163.499 129.247C162.983 129.21 162.487 129.035 162.059 128.738C160.005 127.175 161.589 126.093 162.059 124.47C162.688 122.226 162.857 119.872 162.558 117.557C162.235 113.079 161.883 108.54 161.56 104.092C161.736 105.204 166.901 106.767 168.926 108.18C168.574 108.69 168.134 109.111 167.811 109.622C165.522 113.049 166.725 119.902 166.784 123.779C166.93 125.643 166.696 127.987 164.994 128.949Z" fill="url(#paint7_linear)"/>
<path d="M188.793 71.119C189.667 74.5481 189.667 78.1496 188.793 81.5787C188.636 81.7407 188.446 81.8641 188.236 81.9394C188.074 81.9967 187.898 81.9967 187.737 81.9394C186.416 81.6689 178.933 76.6494 170.129 79.8054C169.683 79.9761 169.206 80.0438 168.732 80.0037C168.258 79.9636 167.799 79.8167 167.386 79.5734C166.974 79.3302 166.62 78.9966 166.348 78.5966C166.076 78.1966 165.894 77.7401 165.815 77.2597C165.736 76.7792 165.761 76.2868 165.889 75.8176C166.018 75.3484 166.246 74.914 166.557 74.5455C166.868 74.177 167.255 73.8836 167.69 73.6861C168.125 73.4886 168.597 73.3921 169.073 73.4033C169.073 73.4033 180.606 69.4658 183.1 62.4626C183.423 61.4106 184.068 61.0199 184.802 61.1401C185.264 61.234 185.696 61.4401 186.064 61.7413C187.535 64.6661 188.461 67.8464 188.793 71.119Z" fill="#EB5757"/>
<path opacity="0.3" d="M188.793 71.119C189.667 74.5482 189.667 78.1496 188.793 81.5788C188.751 81.6691 188.69 81.7485 188.614 81.8109C188.537 81.8734 188.448 81.9174 188.353 81.9395C187.179 81.9395 185.418 77.4309 184.597 71.8704C183.775 66.3099 183.834 61.9517 184.802 61.1401H185.037C185.36 61.1401 185.683 61.3505 186.064 61.8615C187.522 64.7493 188.447 67.8876 188.793 71.119Z" fill="url(#paint8_linear)"/>
<path d="M205.902 157.773C205.503 157.892 205.161 158.157 204.939 158.516C204.717 158.876 204.632 159.307 204.699 159.727C204.699 160.208 205.256 160.688 205.051 161.139C204.98 161.263 204.882 161.367 204.765 161.445C204.648 161.524 204.515 161.573 204.376 161.59C201.623 162.453 198.657 162.25 196.042 161.019C195.977 161.256 195.976 161.507 196.038 161.744C196.1 161.982 196.223 162.199 196.394 162.372C196.796 163.134 197.395 163.768 198.125 164.205C198.612 164.397 199.129 164.499 199.651 164.506C203.747 164.45 207.721 163.072 211.008 160.568C211.321 160.367 211.599 160.113 211.83 159.817C211.929 159.655 211.981 159.467 211.981 159.276C211.981 159.085 211.929 158.897 211.83 158.735C211.654 158.284 211.125 158.134 210.656 158.043C209.839 157.919 209.016 157.839 208.191 157.803C207.438 157.634 206.659 157.624 205.902 157.773Z" fill="#EB5757"/>
<path opacity="0.7" fill-rule="evenodd" clip-rule="evenodd" d="M171.92 298.14L179.419 313.92L163.639 321.419L156.14 305.639L171.92 298.14Z" fill="#EB5757"/>
<path opacity="0.6" fill-rule="evenodd" clip-rule="evenodd" d="M85.5251 226.136L84.6415 235.525L75.2526 234.642L76.1362 225.253L85.5251 226.136Z" fill="#EB5757"/>
<path opacity="0.7" fill-rule="evenodd" clip-rule="evenodd" d="M49.2292 269.622L56.5912 278.229L47.9844 285.591L40.6224 276.984L49.2292 269.622Z" fill="#EB5757"/>
<ellipse opacity="0.2" cx="357.615" cy="337.707" rx="54.3237" ry="12.7126" transform="rotate(8.61502 357.615 337.707)" fill="#EB5757"/>
<g clip-path="url(#clip1)">
<path d="M375.504 48.2722C375.464 47.2169 375.164 46.1819 374.645 45.2484L369.948 37.0091C369.589 36.38 369.349 35.7103 369.209 35L369.009 35.345C367.85 37.3947 367.85 39.9111 369.009 41.9608L372.766 48.5766C373.925 50.6263 373.925 53.1428 372.766 55.1924L372.566 55.5374C372.426 54.8272 372.187 54.1575 371.827 53.5486L368.389 47.4808L366.191 43.6249C365.831 42.9958 365.591 42.3261 365.452 41.6361L365.252 41.9811C364.093 44.0105 364.093 46.5269 365.232 48.5766L369.009 55.1924C370.168 57.2421 370.168 59.7586 369.009 61.8083L368.809 62.1533C368.669 61.443 368.409 60.7733 368.07 60.1645L363.373 51.8845C362.754 50.7887 362.454 49.5507 362.514 48.2925C357.477 49.6116 354 52.4528 354 55.7404C354 60.3065 360.715 64 369.009 64C377.303 64 384.018 60.3065 384.018 55.7404C384.018 52.4528 380.54 49.6116 375.504 48.2722ZM389.674 62.3968C389.714 61.4024 389.894 60.4283 390.213 59.515C391.832 60.2456 393.591 60.6109 395.37 60.6312C397.988 60.6312 399.447 59.7789 399.447 58.0742C399.447 56.3695 398.367 55.6389 395.729 54.4619L394.29 53.8328C391.632 52.6557 389.834 51.1337 389.834 48.1099C389.834 44.8425 392.052 42.7523 396.629 42.7523C398.387 42.732 400.126 43.0161 401.785 43.5843C401.725 44.5584 401.525 45.5122 401.225 46.4458C399.746 45.9181 398.187 45.634 396.609 45.6137C394.15 45.6137 393.031 46.5878 393.031 48.1099C393.031 49.6319 394.13 50.464 396.109 51.3163L397.628 51.9657C401.205 53.508 402.704 55.1519 402.704 57.9321C402.704 61.2197 400.246 63.4927 395.469 63.4927C393.151 63.4927 391.253 63.1477 389.674 62.3968ZM417.853 48.7187V63.0259H415.015L414.855 61.3009C414.056 62.5591 412.857 63.3506 410.878 63.3506C407.161 63.3506 404.683 60.6109 404.683 55.8013C404.683 50.7684 407.341 47.9069 412.557 47.9069C414.555 47.9069 416.214 48.1302 417.853 48.7187ZM414.735 59.7586V50.7684C413.996 50.6466 413.256 50.5857 412.517 50.606C409.299 50.606 407.82 52.6151 407.82 55.8216C407.82 58.7439 408.98 60.7936 411.737 60.7936C412.817 60.7936 413.876 60.4283 414.735 59.7586ZM433.721 53.4066V63.0259H430.624V53.9545C430.624 51.7019 429.884 50.606 426.786 50.606C425.967 50.6263 425.148 50.6872 424.328 50.8293V63.0259H421.231V48.7187C423.209 48.2316 425.367 47.9272 426.866 47.9272C432.043 47.9069 433.721 49.9363 433.721 53.4066ZM442.315 60.6718C443.134 60.6718 443.954 60.5297 444.733 60.2456C444.653 61.098 444.533 62.0721 444.373 62.9041C443.534 63.2288 442.655 63.3709 441.755 63.3506C438.738 63.3506 436.819 61.9503 436.819 58.4598V43.4423C437.818 43.1379 438.878 42.9755 439.917 42.9755V48.394H444.813C444.773 49.2869 444.673 50.2001 444.533 51.0931H439.917V58.1148C439.917 59.9615 440.816 60.6718 442.315 60.6718ZM458.943 48.6984V63.0056H456.105L455.925 61.2806C455.126 62.5388 453.926 63.3303 451.948 63.3303C448.231 63.3303 445.752 60.5906 445.752 55.781C445.752 50.7481 448.41 47.8866 453.627 47.8866C455.645 47.9069 457.304 48.1302 458.943 48.6984ZM455.845 59.7586V50.7684C455.106 50.6466 454.366 50.5857 453.627 50.606C450.409 50.606 448.91 52.6151 448.91 55.8216C448.91 58.7439 450.069 60.7936 452.827 60.7936C453.926 60.7936 454.986 60.4283 455.845 59.7586ZM474.811 53.4066V63.0259H471.713V53.9545C471.713 51.7019 470.974 50.606 467.876 50.606C467.057 50.6263 466.237 50.6872 465.438 50.8293V63.0259H462.32V48.7187C464.299 48.2316 466.457 47.9272 467.956 47.9272C473.152 47.9069 474.811 49.9363 474.811 53.4066ZM490.539 42.9755V63.0056H487.702L487.542 61.1791C486.742 62.5185 485.543 63.3506 483.505 63.3506C479.787 63.3506 477.309 60.6109 477.309 55.8013C477.309 50.7684 479.967 47.9069 485.163 47.9069C485.943 47.9069 486.722 47.9881 487.482 48.1302V43.422C488.441 43.077 489.54 42.9755 490.539 42.9755ZM487.482 59.6977V50.8901C486.662 50.7075 485.843 50.606 485.004 50.606C481.926 50.606 480.467 52.5542 480.467 55.8216C480.467 58.7439 481.626 60.7936 484.384 60.7936C485.503 60.7936 486.602 60.408 487.482 59.6977ZM506.148 56.8971H496.255C496.655 59.4542 498.114 60.6718 500.872 60.6718C502.591 60.6718 504.269 60.3065 505.828 59.5759C505.708 60.408 505.548 61.5038 505.349 62.4374C503.93 63.0868 502.451 63.3506 500.792 63.3506C495.596 63.3506 493.098 60.4283 493.098 55.5374C493.098 51.2757 495.036 47.8866 499.973 47.8866C504.389 47.8866 506.308 50.8293 506.308 54.4416C506.308 55.2736 506.248 56.0854 506.148 56.8971ZM496.195 54.2589H503.19C503.19 51.9048 501.951 50.5451 499.813 50.5451C497.594 50.5451 496.435 51.8237 496.195 54.2589ZM517 48.0287C517 48.9419 516.92 49.8349 516.72 50.7278C515.941 50.6466 515.161 50.606 514.382 50.606C513.622 50.606 512.863 50.6669 512.104 50.7684V63.0259H509.006V48.7187C510.325 48.2722 512.563 47.9272 514.302 47.9272C515.181 47.9069 516.101 47.9475 517 48.0287Z" fill="#EC0000"/>
</g>
</g>
<defs>
<linearGradient id="paint0_linear" x1="335.987" y1="203.489" x2="345.158" y2="96.0425" gradientUnits="userSpaceOnUse">
<stop offset="0.01"/>
<stop offset="0.08" stop-opacity="0.69"/>
<stop offset="0.21" stop-opacity="0.32"/>
<stop offset="1" stop-opacity="0"/>
</linearGradient>
<linearGradient id="paint1_linear" x1="72.1422" y1="107.999" x2="348.134" y2="161.588" gradientUnits="userSpaceOnUse">
<stop offset="0.01"/>
<stop offset="0.13" stop-opacity="0.69"/>
<stop offset="0.25" stop-opacity="0.32"/>
<stop offset="1" stop-opacity="0"/>
</linearGradient>
<linearGradient id="paint2_linear" x1="3977.5" y1="1951.19" x2="3833.75" y2="3672.62" gradientUnits="userSpaceOnUse">
<stop offset="0.01"/>
<stop offset="0.13" stop-opacity="0.69"/>
<stop offset="0.25" stop-opacity="0.32"/>
<stop offset="1" stop-opacity="0"/>
</linearGradient>
<linearGradient id="paint3_linear" x1="3802.55" y1="10983.5" x2="18844.5" y2="37329" gradientUnits="userSpaceOnUse">
<stop offset="0.01" stop-color="#EB5757"/>
<stop offset="0.08" stop-color="#EB5757"/>
<stop offset="0.21" stop-color="#EB5757"/>
<stop offset="1" stop-color="#EB5757" stop-opacity="0"/>
</linearGradient>
<linearGradient id="paint4_linear" x1="5575.92" y1="8567.64" x2="2834.21" y2="8423.88" gradientUnits="userSpaceOnUse">
<stop offset="0.01"/>
<stop offset="0.13" stop-opacity="0.69"/>
<stop offset="0.25" stop-opacity="0.32"/>
<stop offset="1" stop-opacity="0"/>
</linearGradient>
<linearGradient id="paint5_linear" x1="1389.94" y1="-2447.89" x2="1442.66" y2="-2463.13" gradientUnits="userSpaceOnUse">
<stop offset="0.01"/>
<stop offset="0.13" stop-opacity="0.69"/>
<stop offset="0.25" stop-opacity="0.32"/>
<stop offset="1" stop-opacity="0"/>
</linearGradient>
<linearGradient id="paint6_linear" x1="3721.63" y1="-1943.46" x2="3903.05" y2="-1999.64" gradientUnits="userSpaceOnUse">
<stop offset="0.01"/>
<stop offset="0.13" stop-opacity="0.69"/>
<stop offset="0.25" stop-opacity="0.32"/>
<stop offset="1" stop-opacity="0"/>
</linearGradient>
<linearGradient id="paint7_linear" x1="1576.45" y1="-3168.6" x2="1729.75" y2="-3182.9" gradientUnits="userSpaceOnUse">
<stop offset="0.01"/>
<stop offset="0.13" stop-opacity="0.69"/>
<stop offset="0.25" stop-opacity="0.32"/>
<stop offset="1" stop-opacity="0"/>
</linearGradient>
<linearGradient id="paint8_linear" x1="849.573" y1="-2738.2" x2="917.543" y2="-2743.79" gradientUnits="userSpaceOnUse">
<stop offset="0.01"/>
<stop offset="0.13" stop-opacity="0.69"/>
<stop offset="0.25" stop-opacity="0.32"/>
<stop offset="1" stop-opacity="0"/>
</linearGradient>
<clipPath id="clip0">
<rect width="518" height="408" fill="white"/>
</clipPath>
<clipPath id="clip1">
<rect width="163" height="29" fill="white" transform="translate(354 35)"/>
</clipPath>
</defs>
</svg>
