<svg width="601" height="517" viewBox="0 0 601 517" fill="none" xmlns="http://www.w3.org/2000/svg">
<path opacity="0.24" d="M594.643 458.163C594.077 459.522 593.398 460.881 592.719 462.197C581.403 483.877 558.331 498.06 534.24 504.812C510.15 511.563 484.633 511.826 459.558 512.024L247.879 513.734C190.272 514.194 125.785 522.995 69.2193 509.623C42.8429 503.376 15.1313 484.414 6.64466 458.163C-7.14892 424.317 1.49611 384.256 23.6858 354.87C36.9702 337.267 55.4257 321.363 58.4696 299.771C61.0721 281.346 51.6803 263.601 44.891 246.25C26.1978 198.254 28.5175 139.121 64.1273 101.153C77.3778 87.047 94.317 76.6891 111.369 67.1753C196.055 20.0775 294.567 -11.0946 390.964 3.71322C410.698 6.7822 430.432 11.8131 447.326 22.0942C461.538 30.6983 473.352 42.766 482.913 56.0722C499.724 79.4252 510.125 106.537 513.137 134.857C518.184 182.974 502.772 236.451 530.19 276.852C537.194 287.133 546.529 295.705 554.529 305.273C570.586 324.4 581.075 347.351 589.483 370.653C599.644 398.921 606.728 430.981 594.643 458.163Z" fill="url(#paint0_linear)"/>
<path opacity="0.7" fill-rule="evenodd" clip-rule="evenodd" d="M448.92 358.14L456.419 373.92L440.639 381.419L433.14 365.639L448.92 358.14Z" fill="#2C7D98"/>
<path opacity="0.4" fill-rule="evenodd" clip-rule="evenodd" d="M124.525 382.136L123.642 391.525L114.253 390.642L115.136 381.253L124.525 382.136Z" fill="#2C7D98"/>
<path opacity="0.4" fill-rule="evenodd" clip-rule="evenodd" d="M290.662 385.65L282.128 389.662L278.116 381.128L286.65 377.116L290.662 385.65Z" fill="#2C7D98"/>
<path opacity="0.7" fill-rule="evenodd" clip-rule="evenodd" d="M85.2291 444.622L92.5911 453.229L83.9843 460.591L76.6222 451.984L85.2291 444.622Z" fill="#2C7D98"/>
<g clip-path="url(#clip0)">
<path opacity="0.3" d="M279.307 513.809C280.978 504.399 273.773 499.791 267.848 492.325C261.923 484.858 254.813 477.937 251.4 468.977C249.444 463.798 248.638 457.777 244.491 454.103C241.694 451.626 237.795 450.666 235.07 448.106C229.346 442.725 231.242 433.41 233.233 425.813C235.224 418.216 236.101 408.438 229.524 404.148C225.163 401.315 219.321 402.323 214.521 400.332C208.181 397.677 205.041 390.27 204.839 383.407C204.638 376.545 206.688 369.825 207.66 363.023C212.696 328.06 189.434 293.678 194.21 258.727C191.2 258.55 187.325 258.253 184.326 258.087C184.646 282.976 184.955 308.066 180.214 332.504C175.474 356.943 165.247 380.978 147.294 398.222C140.409 404.824 131.711 412.219 133.074 421.665C133.879 427.472 138.56 433.042 136.629 438.565C135.728 441.113 133.571 442.974 131.592 444.823C125.481 450.481 120.503 457.25 116.921 464.77C110.143 479.205 105.427 504.695 92.0356 513.382C161 518.5 212 513.382 279.307 513.809Z" fill="#A6DCE9"/>
<path d="M173.187 204.21C173.635 200.609 175.034 197.194 177.24 194.313C177.632 193.777 178.171 193.366 178.792 193.128C180.345 192.666 181.755 194.136 182.644 195.499C187.787 203.427 189.967 212.85 191.982 222.082C194.376 233.128 196.746 244.268 196.746 255.563C196.804 256.202 196.703 256.846 196.449 257.436C195.894 258.252 195.045 258.821 194.079 259.024C190.37 260.209 183.129 261.679 180.226 258.135C177.655 254.994 177.726 247.646 176.92 243.913C174.147 230.888 170.853 217.519 173.187 204.21Z" fill="#A6DCE9"/>
<path d="M303.944 173.158C305.378 173.395 377.002 203.688 377.002 203.688C377.002 203.688 378.673 232.678 378.436 231.955C378.199 231.232 185.63 249.922 185.879 248.251C186.128 246.58 183.236 211.795 183.236 211.795L245.865 180.174L303.944 173.158Z" fill="#A6DCE9"/>
<path opacity="0.6" d="M299.643 180.115C301.076 180.364 373.956 211.617 373.956 211.617C373.956 211.617 378.697 232.677 378.436 231.954C378.175 231.231 185.63 249.921 185.879 248.25C186.128 246.579 183.71 219.699 183.71 219.699L246.517 187.368L299.643 180.115Z" fill="url(#paint1_linear)"/>
<path d="M236.907 246.544C239.099 248.25 241.09 250.68 243.875 250.846C245.205 250.824 246.517 250.525 247.726 249.969C249.246 249.583 250.578 248.667 251.483 247.385C251.775 246.749 251.955 246.067 252.016 245.37C252.804 239.252 251.903 233.034 249.409 227.391C248.532 225.4 249.018 219.652 247.039 218.704C245.06 217.756 241.113 221.762 238.921 222.082C238.7 222.106 238.484 222.166 238.281 222.259C237.57 222.651 237.629 223.67 237.772 224.464C238.671 229.342 239.099 234.295 239.052 239.255C238.921 237.619 237.037 236.671 235.402 236.683C232.842 236.683 228.848 239.172 229.915 242.277C230.282 243.32 231.396 243.593 232.285 243.984C233.929 244.635 235.482 245.496 236.907 246.544Z" fill="#B28B67"/>
<path opacity="0.2" d="M243.27 235.569C243.703 235.696 244.164 235.696 244.597 235.569C245.51 235.249 245.782 234.112 245.853 233.199C245.847 231.95 245.728 230.705 245.498 229.478L244.384 222.461C244.378 222.299 244.325 222.142 244.23 222.011C244.137 221.928 244.028 221.866 243.91 221.829C243.791 221.793 243.666 221.782 243.543 221.798C241.511 221.821 239.502 222.223 237.617 222.983L238.257 228.115C238.274 228.35 238.326 228.582 238.411 228.802C238.522 229.01 238.645 229.212 238.779 229.406C239.608 230.71 238.779 232.263 239.513 233.483C240.248 234.704 242.097 235.285 243.27 235.569Z" fill="#333333"/>
<path d="M246.695 220.707L248.413 227.64C248.757 229.131 249.193 230.6 249.717 232.037C251.411 236.363 254.789 240.025 255.642 244.588C255.796 245.359 255.962 246.271 256.685 246.579C257.132 246.721 257.612 246.721 258.059 246.579C262.325 245.631 266.769 246.153 271.095 245.75C274.345 245.34 277.564 244.711 280.729 243.865C290.545 241.571 300.513 239.986 310.557 239.125C311.576 239.03 312.796 238.817 313.175 237.868C313.301 237.487 313.338 237.081 313.282 236.683C312.701 227.569 308.542 219.155 305.662 210.491C305.543 210.271 305.475 210.027 305.464 209.777C305.454 209.527 305.501 209.278 305.601 209.05C305.702 208.821 305.854 208.618 306.045 208.457C306.237 208.296 306.462 208.181 306.705 208.121C313.202 204.861 319.362 200.971 325.097 196.506L317.821 185.413C313.614 178.989 309.028 172.234 302.024 169.057C297.651 167.09 292.734 166.687 287.946 166.687C282.791 166.687 277.648 167.173 272.54 167.635C269.29 167.767 266.058 168.188 262.882 168.891C254.22 171.262 241.101 178.171 237.997 185.033C229.701 203.25 233.719 220.518 232.972 221.572C232.647 221.914 232.393 222.317 232.225 222.757C231.977 223.729 233.019 224.642 234.015 224.689C235.021 224.631 235.996 224.317 236.847 223.777C239.916 222.267 243.257 221.388 246.671 221.193C246.624 221.418 246.624 220.435 246.695 220.707Z" fill="#785087"/>
<path fill-rule="evenodd" clip-rule="evenodd" d="M252.78 168.687C259.222 170.339 283.927 157.701 282.635 139.387C281.343 121.073 255.715 125.102 250.729 134.345C245.744 143.589 246.337 167.035 252.78 168.687Z" fill="#B28B67"/>
<path fill-rule="evenodd" clip-rule="evenodd" d="M278.449 168.714L278.5 169L278.385 169.042C277.434 173.779 274.88 178.051 271.142 181.134C269.747 182.36 268.082 183.241 266.284 183.706C265.388 183.931 264.455 183.961 263.547 183.793C262.639 183.625 261.778 183.264 261.022 182.734C259.764 181.639 258.843 180.208 258.368 178.61C258.261 178.313 258.154 178.005 258.059 177.709C257.754 176.653 257.761 175.531 258.081 174.479C258.401 173.427 259.019 172.49 259.861 171.783C260.093 171.574 260.296 171.335 260.465 171.072C260.568 170.889 260.648 170.694 260.702 170.491C261.191 168.756 260.793 167.289 260.399 165.835C260.201 165.103 260.003 164.375 259.92 163.617C259.921 163.012 260.05 162.414 260.299 161.862C260.549 161.31 260.912 160.818 261.366 160.417C262.775 158.736 264.505 157.371 266.443 156.393L268.612 148.779H274.869L278.384 168.355C278.427 168.353 278.47 168.35 278.513 168.346C278.493 168.469 278.471 168.592 278.449 168.714Z" fill="#B28B67"/>
<path fill-rule="evenodd" clip-rule="evenodd" d="M265.361 141.41C263.576 138.765 261.861 136.747 259.631 135.575C250.554 135.718 249.491 134.099 249.491 128.644C250.957 127.6 256.13 125.843 261.923 125.349C264.878 124.507 268.379 124.665 271.752 126.069C275.915 127.244 279.44 129.774 280.997 134.512C286.631 144.183 282.355 154.25 276.593 157.689C275.059 155.881 273.72 154.129 272.526 152.452C273.485 151.52 274.081 150.219 274.081 148.779C274.081 145.943 271.77 143.644 268.919 143.644C268.709 143.644 268.503 143.657 268.3 143.681C268.171 147.226 267.644 159.222 266.257 163.388C264.622 168.3 255.082 169.507 251.755 169.507C248.881 169.507 248.979 166.8 249.05 164.86C249.06 164.58 249.069 164.317 249.069 164.079C249.069 163.584 249.717 163.585 250.449 163.587C251.4 163.589 252.493 163.591 252.493 162.506C252.493 161.323 250.849 160.416 249.379 159.604C248.462 159.097 247.612 158.628 247.27 158.152C246.191 156.65 245.828 154.625 247.455 154.625C248.344 154.625 249.565 155.135 251.033 155.748C253.249 156.675 256.03 157.837 259.09 157.837C264.144 157.837 265.347 141.613 265.361 141.41Z" fill="#191847"/>
<path d="M282.945 205.869C282.977 208.193 282.854 210.517 282.578 212.826C282.569 213.247 282.442 213.658 282.21 214.011C281.685 214.49 281.002 214.76 280.291 214.769C272.209 215.8 264.008 215.54 255.843 215.291C255.49 215.3 255.139 215.235 254.812 215.101C254.456 214.884 254.181 214.555 254.03 214.165C253.284 212.577 252.347 209.424 254.196 208.132C256.045 206.84 260.382 207.398 262.491 207.255L282.945 205.869Z" fill="#A6DCE9"/>
<path opacity="0.1" d="M282.945 205.869C282.977 208.193 282.854 210.517 282.578 212.826C282.569 213.247 282.442 213.658 282.21 214.011C281.685 214.49 281.002 214.76 280.291 214.769C272.209 215.8 264.008 215.54 255.843 215.291C255.49 215.3 255.139 215.235 254.812 215.101C254.456 214.884 254.181 214.555 254.03 214.165C253.284 212.577 252.347 209.424 254.196 208.132C256.045 206.84 260.382 207.398 262.491 207.255L282.945 205.869Z" fill="#333333"/>
<path d="M259.552 244.197C259.552 243.64 258.687 243.747 258.225 244.043C244.005 253.098 230.401 263.006 216.749 272.795C213.556 274.942 210.591 277.408 207.897 280.155C205.29 283.011 203.156 286.591 203.156 290.454C203.204 292.576 203.646 294.669 204.46 296.629C209.722 310.709 222.473 320.332 231.586 332.326C236.136 338.252 239.964 345.067 246.102 349.381C247.287 350.222 248.65 351.064 249.112 352.451C248.97 352.593 250.499 352.083 250.357 352.225C255.219 349.268 259.67 345.682 263.593 341.559C259.302 337.896 255.337 333.867 251.743 329.517C249.8 327.313 247.856 325.109 246.126 322.738C243.201 318.534 240.602 314.112 238.352 309.512C236.634 306.217 234.039 303.586 235.093 300.03C236.598 294.946 250.084 287.977 257.846 283.438C265.359 279.029 277.992 272.226 277.672 272.368C277.672 272.368 270.668 303.325 287.33 328.072C303.991 352.818 326.543 390.258 327.823 389.831C329.102 389.404 340.645 373.156 340.645 373.156L309.016 319.289C309.016 319.289 318.093 252.671 310.557 238.958L259.552 244.197Z" fill="#3E3E54"/>
<path d="M259.552 244.197C259.552 243.64 258.687 243.747 258.225 244.043C244.005 253.098 230.401 263.006 216.749 272.795C213.556 274.942 210.591 277.408 207.897 280.155C205.29 283.011 203.156 286.591 203.156 290.454C203.204 292.576 203.646 294.669 204.46 296.629C209.722 310.709 222.473 320.332 231.586 332.326C236.136 338.252 239.964 345.067 246.102 349.381C247.287 350.222 248.65 351.064 249.112 352.451C248.97 352.593 250.499 352.083 250.357 352.225C255.219 349.268 259.67 345.682 263.593 341.559C259.302 337.896 255.337 333.867 251.743 329.517C249.8 327.313 247.856 325.109 246.126 322.738C243.201 318.534 240.602 314.112 238.352 309.512C236.634 306.217 234.039 303.586 235.093 300.03C236.598 294.946 250.084 287.977 257.846 283.438C265.359 279.029 277.992 272.226 277.672 272.368C277.672 272.368 270.668 303.325 287.33 328.072C303.991 352.818 326.543 390.258 327.823 389.831C329.102 389.404 340.645 373.156 340.645 373.156L309.016 319.289C309.016 319.289 318.093 252.671 310.557 238.958L259.552 244.197Z" fill="url(#paint2_linear)"/>
<path d="M256.573 356.63C257.008 362.414 257.616 368.181 258.398 373.933C258.564 375.119 258.849 376.505 259.903 377.074C260.428 377.277 260.997 377.34 261.554 377.257C262.111 377.174 262.636 376.948 263.079 376.6C265.211 375.119 266.797 372.979 267.594 370.508C268.371 368.055 268.872 365.523 269.087 362.959L270.367 352.683C270.545 351.19 270.664 349.483 269.621 348.405C268.578 347.326 266.824 347.386 265.355 346.994C263.103 346.39 261.397 344.624 259.809 342.917C258.529 344.399 254.476 347.314 254.559 349.282C254.559 350.337 255.673 351.569 255.969 352.6C256.306 353.92 256.509 355.27 256.573 356.63Z" fill="#333333"/>
<path d="M332.45 387.355C332.796 388.466 332.979 389.621 332.993 390.785C333.326 394.56 333.86 398.316 334.592 402.035C334.736 403.225 335.076 404.382 335.599 405.46C335.866 405.998 336.261 406.463 336.75 406.813C337.239 407.163 337.806 407.387 338.402 407.466C340.385 407.647 341.819 405.637 342.752 403.889C344.609 400.666 345.964 397.178 346.77 393.546C347.554 389.913 347.159 386.125 345.642 382.732C345.396 382.142 345 381.626 344.494 381.234C343.782 380.895 343.028 380.65 342.252 380.505C340.199 379.793 339.121 377.54 337.342 376.306C337.174 376.162 336.966 376.073 336.746 376.049C336.396 376.076 336.069 376.238 335.836 376.502C333.986 378.163 332.303 380.002 330.811 381.992C329.821 383.318 329.556 383.484 330.67 384.704C331.425 385.468 332.029 386.367 332.45 387.355Z" fill="#333333"/>
<path d="M364.381 188.826C364.832 185.229 366.226 181.815 368.422 178.93C368.819 178.392 369.362 177.981 369.986 177.745C371.539 177.271 372.949 178.752 373.838 180.115C378.981 188.032 381.161 197.466 383.176 206.698C385.546 217.732 387.916 228.885 387.987 240.179C388.041 240.815 387.939 241.453 387.691 242.04C387.14 242.861 386.289 243.431 385.321 243.628C381.612 244.813 374.359 246.283 371.468 242.751C368.896 239.599 368.967 232.263 368.15 228.529C365.329 215.504 362.035 202.135 364.381 188.826Z" fill="#A6DCE9"/>
<path opacity="0.3" d="M539 504C517.456 500.018 523.01 492.882 512.167 473.848C509.454 469.107 506.657 464.117 502.142 461.024C497.627 457.931 490.825 457.398 487.08 461.392C484.242 450.77 479.794 440.646 473.891 431.371C468.605 423.075 461.614 415.146 452.169 412.408C442.724 409.671 430.72 414.198 428.338 423.727C420.256 424.201 414.117 416.082 412.363 408.189C410.61 400.296 411.546 391.94 409.389 384.142C407.955 378.915 405.146 373.985 404.898 368.581C404.388 357.061 415.563 346.264 411.842 335.396C409.626 328.877 402.812 325.097 399.221 319.23C396.851 315.307 395.974 310.65 395.168 306.11L383.757 241.222C380.984 241.874 377.215 244.849 374.442 245.501C379.348 298.679 383.816 354.691 361.667 403.283C357.093 413.309 351.144 423.182 341.984 429.356C336.284 433.173 329.66 435.282 323.284 437.866C313.022 441.931 302.878 447.347 296.087 456.046C289.297 464.746 286.607 477.38 291.999 487.015C295.898 493.996 291.181 504.318 291.644 512.295C376.528 510.861 502.142 516.5 539 504Z" fill="#A6DCE9"/>
<path d="M292.189 240.689H286.726C286.146 240.186 285.661 239.584 285.292 238.911C278.027 226.348 279.094 169.152 281.274 166.616C283.206 164.317 290.056 164.542 292.177 164.672H292.817L296.076 166.675C288.728 182.224 292.189 240.689 292.189 240.689Z" fill="#A6DCE9"/>
<path opacity="0.3" d="M288.728 238.911H285.292C278.027 226.348 279.094 169.152 281.274 166.616C283.206 164.317 290.056 164.542 292.177 164.672L292.603 164.933C285.256 180.435 288.728 238.911 288.728 238.911Z" fill="url(#paint3_linear)"/>
<path d="M298.659 250.74C296.902 250.736 295.175 250.277 293.648 249.406C292.122 248.536 290.847 247.284 289.949 245.774L269.258 211.036C269.021 210.593 268.964 210.076 269.099 209.592C269.233 209.108 269.549 208.694 269.98 208.436C270.412 208.179 270.926 208.097 271.416 208.208C271.905 208.319 272.334 208.615 272.612 209.033L293.362 243.794C293.984 244.849 294.905 245.695 296.008 246.227C297.111 246.758 298.347 246.951 299.559 246.781C313.697 244.873 320.748 243.498 322.928 242.787C322.928 241.175 322.928 238.686 322.928 237.691C322.919 237.434 322.96 237.178 323.05 236.937C323.14 236.696 323.276 236.475 323.451 236.287C323.626 236.099 323.836 235.947 324.07 235.84C324.303 235.733 324.556 235.673 324.813 235.664C325.069 235.655 325.326 235.696 325.566 235.786C325.807 235.875 326.028 236.012 326.216 236.187C326.404 236.362 326.556 236.572 326.663 236.806C326.77 237.039 326.83 237.292 326.839 237.549C326.839 238.034 326.993 242.289 326.839 244.091C326.685 245.892 325.749 246.58 315.937 248.286C310.746 249.187 304.477 250.076 300.14 250.657C299.649 250.719 299.154 250.746 298.659 250.74Z" fill="#A6DCE9"/>
<path d="M239.869 257.092C239.204 257.088 238.551 256.912 237.973 256.582C237.136 256.014 236.419 255.286 235.864 254.44C235.308 253.594 234.926 252.646 234.738 251.652L225.139 216.926C225.001 216.425 225.067 215.889 225.324 215.437C225.581 214.985 226.007 214.653 226.508 214.514C227.009 214.376 227.545 214.443 227.997 214.699C228.449 214.956 228.781 215.382 228.919 215.883L238.506 250.609C239.004 252.41 239.691 253.062 239.893 253.169C246.221 251.32 249.113 250.076 250.061 249.507C250.262 246.639 251.044 238.082 251.08 237.655C251.103 237.399 251.177 237.15 251.296 236.922C251.416 236.695 251.579 236.493 251.776 236.328C251.974 236.164 252.202 236.04 252.447 235.963C252.693 235.887 252.951 235.86 253.207 235.883C253.463 235.906 253.712 235.98 253.939 236.1C254.167 236.219 254.369 236.382 254.533 236.58C254.698 236.777 254.822 237.005 254.898 237.251C254.975 237.496 255.002 237.754 254.978 238.01C254.647 241.685 253.995 248.985 253.936 250.313C253.865 251.924 252.514 252.944 248.366 254.508C245.913 255.421 242.974 256.321 240.936 256.878C240.593 257.002 240.233 257.074 239.869 257.092Z" fill="#A6DCE9"/>
<path d="M298.659 250.905C296.902 250.906 295.175 250.45 293.648 249.582C292.121 248.713 290.846 247.462 289.949 245.951L269.246 211.214C268.999 210.771 268.933 210.25 269.062 209.76C269.191 209.271 269.506 208.85 269.939 208.587C270.372 208.324 270.891 208.24 271.385 208.352C271.879 208.464 272.31 208.763 272.588 209.187L293.291 243.924C293.916 244.974 294.835 245.816 295.935 246.347C297.035 246.878 298.266 247.074 299.477 246.911C313.626 245.003 320.677 243.628 322.857 242.917C322.857 241.305 322.857 238.816 322.857 237.809C322.84 237.29 323.03 236.786 323.384 236.407C323.739 236.028 324.229 235.806 324.748 235.788C325.266 235.771 325.77 235.96 326.149 236.315C326.528 236.669 326.751 237.16 326.768 237.679C326.768 238.164 326.934 242.419 326.768 244.221C326.602 246.022 325.678 246.71 315.866 248.416C310.663 249.317 304.406 250.206 300.069 250.787C299.603 250.863 299.131 250.902 298.659 250.905Z" fill="url(#paint4_linear)"/>
<path d="M298.659 250.585C296.903 250.584 295.176 250.127 293.65 249.259C292.123 248.391 290.848 247.141 289.949 245.631L269.258 210.894C269.112 210.673 269.012 210.425 268.964 210.165C268.916 209.905 268.922 209.637 268.98 209.379C269.039 209.121 269.149 208.878 269.304 208.663C269.46 208.449 269.657 208.269 269.884 208.133C270.112 207.997 270.364 207.909 270.626 207.874C270.889 207.839 271.155 207.857 271.41 207.928C271.665 207.999 271.903 208.121 272.11 208.286C272.316 208.452 272.487 208.657 272.612 208.891L293.314 243.616C293.939 244.67 294.86 245.516 295.962 246.049C297.064 246.582 298.299 246.779 299.512 246.615C313.65 244.695 320.701 243.32 322.881 242.609C322.881 240.997 322.881 238.52 322.881 237.513C322.865 237.002 323.049 236.505 323.395 236.129C323.74 235.752 324.22 235.526 324.73 235.498C325.249 235.485 325.752 235.677 326.131 236.031C326.51 236.386 326.735 236.876 326.756 237.394C326.756 237.868 326.91 242.135 326.756 243.936C326.602 245.738 325.666 246.413 315.854 248.12C310.663 249.021 304.395 249.91 300.057 250.49C299.594 250.553 299.127 250.584 298.659 250.585Z" fill="url(#paint5_linear)"/>
<path d="M239.834 257.092C239.168 257.09 238.514 256.914 237.937 256.582C236.246 255.432 235.079 253.66 234.69 251.652L225.103 216.926C225.03 216.677 225.007 216.416 225.035 216.158C225.064 215.9 225.143 215.65 225.269 215.423C225.395 215.196 225.565 214.997 225.769 214.836C225.973 214.675 226.207 214.557 226.457 214.488C226.707 214.419 226.969 214.4 227.226 214.433C227.484 214.466 227.732 214.549 227.957 214.679C228.182 214.809 228.378 214.983 228.536 215.189C228.693 215.396 228.807 215.632 228.872 215.883L238.471 250.609C238.627 251.593 239.112 252.495 239.845 253.169C246.185 251.32 249.077 250.076 250.025 249.507C250.226 246.639 251.008 238.082 251.044 237.655C251.091 237.138 251.342 236.661 251.741 236.328C252.14 235.996 252.654 235.836 253.171 235.883C253.688 235.93 254.165 236.181 254.497 236.58C254.83 236.979 254.99 237.493 254.943 238.011C254.611 241.685 253.947 248.985 253.9 250.313C253.829 251.924 252.478 252.944 248.318 254.508C245.877 255.421 242.938 256.321 240.9 256.878C240.557 257.002 240.198 257.074 239.834 257.092Z" fill="url(#paint6_linear)"/>
<g opacity="0.69">
<path opacity="0.69" d="M240.059 257.021C239.393 257.017 238.74 256.842 238.163 256.511C236.474 255.359 235.308 253.588 234.916 251.581L225.329 216.844C225.201 216.347 225.272 215.82 225.529 215.376C225.786 214.932 226.206 214.607 226.7 214.47C227.195 214.333 227.723 214.396 228.171 214.645C228.619 214.894 228.952 215.309 229.097 215.801L238.696 250.538C238.857 251.52 239.341 252.421 240.071 253.098C246.411 251.237 249.302 250.005 250.25 249.424C250.452 246.556 251.234 237.999 251.269 237.572C251.293 237.316 251.366 237.067 251.486 236.84C251.605 236.612 251.768 236.41 251.966 236.246C252.163 236.081 252.391 235.957 252.637 235.881C252.882 235.804 253.14 235.777 253.396 235.8C253.652 235.824 253.901 235.897 254.129 236.017C254.356 236.136 254.558 236.3 254.723 236.497C254.887 236.695 255.011 236.923 255.088 237.168C255.164 237.414 255.191 237.672 255.168 237.928C254.836 241.602 254.173 248.903 254.125 250.23C254.054 251.842 252.703 252.861 248.556 254.414C246.102 255.338 243.164 256.239 241.125 256.784C240.784 256.915 240.424 256.995 240.059 257.021Z" fill="url(#paint7_linear)"/>
</g>
<path d="M233.968 223.575C234.891 223.582 235.805 223.767 236.658 224.12C237.081 224.301 237.458 224.576 237.758 224.926C238.058 225.275 238.274 225.689 238.388 226.135C238.554 226.977 238.246 227.877 238.542 228.683C238.838 229.489 239.395 229.868 239.608 230.508C240.011 231.694 238.969 233.068 239.312 234.313C239.466 234.87 239.881 235.332 240.023 235.901C240.132 236.441 240.066 237.002 239.834 237.501C238.649 240.582 234.928 242.005 231.609 241.91C229.666 241.961 227.776 241.271 226.324 239.978C225.252 238.72 224.561 237.182 224.333 235.545C223.892 233.484 223.661 231.384 223.646 229.276C223.599 223.469 229.263 223.35 233.968 223.575Z" fill="#B28B67"/>
<path d="M322.549 198.568C322.549 198.568 338.879 229.714 334.234 234.739C329.588 239.764 292.414 236.114 292.414 236.114C289.036 235.948 286.382 238.876 283.04 239.338C281.824 239.492 280.59 239.307 279.473 238.803C278.356 238.299 277.4 237.496 276.712 236.482C276.358 235.745 275.834 235.103 275.183 234.609C274.828 234.407 274.401 234.336 273.998 234.159C272.481 233.447 272.221 231.409 272.268 229.726C272.317 229.404 272.259 229.075 272.102 228.79C271.971 228.631 271.815 228.495 271.64 228.387C271.158 227.925 270.841 227.318 270.736 226.659C270.631 226 270.745 225.325 271.059 224.736C271.738 223.568 272.808 222.678 274.081 222.224C275.266 221.714 276.629 221.454 277.885 221.039C279.56 220.463 281.121 219.597 282.495 218.479C283.396 217.744 284.498 216.843 285.588 217.294C285.985 217.48 286.337 217.751 286.619 218.088L290.174 221.738C290.583 222.284 291.123 222.717 291.745 222.997C292.367 223.276 293.05 223.394 293.729 223.338L306.184 223.788C308.888 224.053 311.618 223.803 314.23 223.054L305.414 210.775C305.094 210.325 304.762 209.768 304.987 209.258C305.149 208.986 305.388 208.767 305.674 208.63C311.374 205.157 316.92 201.981 322.549 198.568Z" fill="#B28B67"/>
<path d="M259.553 244.197L256.91 244.683L255.275 244.979L248.295 221.631C235.484 199.848 240.627 176.595 242.654 174.225C243.483 173.241 245.782 172.482 248.176 171.937C250.448 171.416 252.746 171.02 255.061 170.752C248.65 184.879 259.553 244.197 259.553 244.197Z" fill="#A6DCE9"/>
<path opacity="0.1" d="M256.934 244.683L255.298 244.979L248.318 221.631C235.508 199.848 240.651 176.595 242.678 174.224C243.507 173.241 245.806 172.482 248.2 171.937C250.594 171.392 252.454 171.321 252.454 171.321C246.114 185.199 256.625 243.012 256.934 244.683Z" fill="url(#paint8_linear)"/>
<path opacity="0.2" d="M310.509 205.418C310.509 205.418 321.637 220.115 319.753 222.011C317.868 223.907 313.033 223.682 313.033 223.682C313.245 223.226 313.328 222.72 313.271 222.221C313.215 221.721 313.022 221.247 312.713 220.849C311.659 219.273 304.312 208.998 304.312 208.998L310.509 205.418Z" fill="#333333"/>
<path opacity="0.3" fill-rule="evenodd" clip-rule="evenodd" d="M368.237 264.315L366.529 271.237L359.607 269.528L361.316 262.607L368.237 264.315Z" fill="#2C7D98"/>
<path opacity="0.7" fill-rule="evenodd" clip-rule="evenodd" d="M143.229 133.622L150.591 142.229L141.985 149.591L134.622 140.984L143.229 133.622Z" fill="#2C7D98"/>
</g>
<path opacity="0.25" fill-rule="evenodd" clip-rule="evenodd" d="M337.269 139.78C349.34 162.391 370.489 145.35 397.68 121.697C424.87 98.0443 459.345 74.6923 447.274 52.0817C435.204 29.4711 391.838 32.3596 364.647 56.0126C337.456 79.6656 325.199 117.17 337.269 139.78Z" fill="#A6DCE9"/>
<path opacity="0.1" fill-rule="evenodd" clip-rule="evenodd" d="M550.272 87.503C530.977 80.7495 530.738 114.249 531.464 158.713C532.189 203.178 529.178 254.243 548.472 260.996C567.766 267.75 587.247 224.706 586.521 180.242C585.796 135.777 569.566 94.2565 550.272 87.503Z" fill="#A6DCE9"/>
<defs>
<linearGradient id="paint0_linear" x1="300.5" y1="0" x2="300.5" y2="517" gradientUnits="userSpaceOnUse">
<stop stop-color="#A6DCE9" stop-opacity="0.16"/>
<stop offset="0.744681" stop-color="#A6DCE9"/>
</linearGradient>
<linearGradient id="paint1_linear" x1="273.335" y1="156.589" x2="298.854" y2="397.996" gradientUnits="userSpaceOnUse">
<stop stop-opacity="0"/>
<stop offset="0.99"/>
</linearGradient>
<linearGradient id="paint2_linear" x1="19608.2" y1="34504.4" x2="27837.2" y2="29667.9" gradientUnits="userSpaceOnUse">
<stop stop-opacity="0"/>
<stop offset="0.99"/>
</linearGradient>
<linearGradient id="paint3_linear" x1="286.127" y1="164.597" x2="286.127" y2="238.911" gradientUnits="userSpaceOnUse">
<stop stop-color="#333333" stop-opacity="0"/>
<stop offset="1" stop-color="#333333"/>
</linearGradient>
<linearGradient id="paint4_linear" x1="9592.33" y1="6247.9" x2="11877.9" y2="4112.93" gradientUnits="userSpaceOnUse">
<stop stop-opacity="0"/>
<stop offset="0.99"/>
</linearGradient>
<linearGradient id="paint5_linear" x1="289.57" y1="231.35" x2="280.551" y2="236.185" gradientUnits="userSpaceOnUse">
<stop offset="0.02" stop-color="white" stop-opacity="0"/>
<stop offset="0.58" stop-color="white" stop-opacity="0.39"/>
<stop offset="0.68" stop-color="white" stop-opacity="0.68"/>
<stop offset="1" stop-color="white"/>
</linearGradient>
<linearGradient id="paint6_linear" x1="3606.52" y1="6299.84" x2="5257.39" y2="5782.08" gradientUnits="userSpaceOnUse">
<stop stop-opacity="0"/>
<stop offset="0.99"/>
</linearGradient>
<linearGradient id="paint7_linear" x1="4011.51" y1="6034.01" x2="3847.2" y2="6064.63" gradientUnits="userSpaceOnUse">
<stop offset="0.02" stop-color="white" stop-opacity="0"/>
<stop offset="0.58" stop-color="white" stop-opacity="0.39"/>
<stop offset="0.68" stop-color="white" stop-opacity="0.68"/>
<stop offset="1" stop-color="white"/>
</linearGradient>
<linearGradient id="paint8_linear" x1="2913" y1="7686.69" x2="1363.03" y2="7924.87" gradientUnits="userSpaceOnUse">
<stop stop-opacity="0"/>
<stop offset="0.99"/>
</linearGradient>
<clipPath id="clip0">
<rect width="467" height="391" fill="white" transform="translate(92 126)"/>
</clipPath>
</defs>
</svg>
