<svg width="60" height="60" viewBox="0 0 60 60" fill="none" xmlns="http://www.w3.org/2000/svg">
<path d="M30.8666 13.1076V13.1H30H29.1334V13.1076C14.9889 13.3295 4 18.9651 4 26.1V33.9C4 41.18 15.44 46.9 30 46.9C44.56 46.9 56 41.18 56 33.9V26.9666V26.1C56 18.9651 45.0111 13.3295 30.8666 13.1076ZM30 37.3666C25.0326 37.3666 20.3615 36.627 16.4688 35.3806L30.2969 26.9666H54.1905C53.1969 32.6536 42.5413 37.3666 30 37.3666ZM33.8123 14.9837C33.5952 15.1328 33.4666 15.384 33.4666 15.7C33.4666 16.22 33.8133 16.5666 34.3333 16.5666C34.8533 16.5666 35.1999 16.22 35.1999 15.7C35.1999 15.4511 35.1198 15.2425 34.9798 15.0921C36.2459 15.2248 37.4789 15.4044 38.6696 15.6267C38.668 15.6508 38.6665 15.675 38.6665 15.7C38.6665 16.22 39.0132 16.5666 39.5332 16.5666C39.9538 16.5666 40.2609 16.3396 40.3629 15.9777C42.6232 16.4946 44.7004 17.1686 46.522 17.9661C46.4862 18.0665 46.4665 18.1783 46.4665 18.3C46.4665 18.82 46.8132 19.1666 47.3332 19.1666C47.6936 19.1666 47.9705 18.9999 48.1066 18.7245C51.5204 20.5125 53.758 22.7794 54.1798 25.2333H30.8666V23.5V18.3V14.8418C31.5294 14.8533 32.1863 14.8779 32.8363 14.915C33.1634 14.9348 33.4888 14.9577 33.8123 14.9837ZM5.74139 25.8167C5.7417 25.8122 5.7423 25.8076 5.74251 25.8029C5.89363 23.2731 7.96703 20.908 11.2991 19.0264C11.3319 19.0079 11.3645 18.9894 11.3975 18.9711C11.4696 18.9309 11.5428 18.8911 11.6162 18.8513C11.6872 18.8129 11.7582 18.7745 11.8302 18.7365C11.8639 18.7187 11.8979 18.7011 11.9318 18.6833C15.5792 16.7848 20.5558 15.4388 26.0897 14.9882C26.1509 14.9833 26.2118 14.9781 26.2731 14.9735C26.3316 14.969 26.3904 14.9649 26.449 14.9606C27.3307 14.8973 28.2265 14.8574 29.1332 14.8417V25.5799L14.3857 34.6354C11.1295 33.3403 8.58981 31.6632 7.12701 29.7772C6.29795 28.6945 5.82071 27.5612 5.74454 26.4231C5.74403 26.4144 5.74281 26.4059 5.7423 26.3973C5.73621 26.2982 5.73306 26.199 5.73306 26.0998C5.73337 26.0054 5.73601 25.911 5.74139 25.8167ZM54.2666 33.9C54.2666 39.9666 43.1733 45.1666 30 45.1666C16.8267 45.1666 5.73337 39.9666 5.73337 33.9V30.8666C7.56241 33.2486 10.749 35.2753 14.8411 36.722C14.8565 36.7275 14.8721 36.733 14.8876 36.7384C15.035 36.7903 15.1835 36.8414 15.3332 36.8917C15.3539 36.8987 15.3744 36.9057 15.3951 36.9127C15.5588 36.9674 15.7237 37.0214 15.8901 37.0742C15.9072 37.0797 15.9247 37.0849 15.9417 37.0904C16.08 37.1342 16.2194 37.1772 16.3595 37.2197C16.4207 37.2383 16.4822 37.2564 16.5438 37.2747C16.6412 37.3037 16.739 37.3323 16.8372 37.3606C16.9092 37.3814 16.9811 37.4022 17.0535 37.4226C17.1463 37.4487 17.2396 37.4743 17.333 37.4999C17.4703 37.5375 17.6085 37.5744 17.7473 37.6108C17.8261 37.6314 17.9048 37.6523 17.9841 37.6725C18.0808 37.6972 18.1783 37.7214 18.2758 37.7455C18.3414 37.7617 18.407 37.7779 18.4729 37.7938C18.575 37.8186 18.6776 37.8431 18.7806 37.8672C18.837 37.8804 18.8937 37.8933 18.9503 37.9063C19.3177 37.9907 19.6898 38.071 20.0666 38.1469C20.1168 38.1571 20.1669 38.1673 20.2173 38.1772C20.3333 38.2002 20.4497 38.2227 20.5665 38.2448C20.6178 38.2546 20.6693 38.2641 20.7206 38.2737C21.109 38.346 21.502 38.4137 21.8995 38.477C21.9502 38.485 22.0005 38.4933 22.0513 38.5012C22.1673 38.5193 22.2838 38.5367 22.4005 38.5541C22.4635 38.5635 22.5266 38.5726 22.5899 38.5817C22.7047 38.5983 22.8195 38.6146 22.935 38.6305C22.9958 38.6388 23.0571 38.6466 23.1181 38.6548C23.323 38.682 23.5288 38.7079 23.7358 38.7327C23.8107 38.7416 23.8852 38.7508 23.9603 38.7595C24.0639 38.7714 24.168 38.7827 24.2721 38.794C24.3582 38.8033 24.4444 38.8126 24.5309 38.8215C24.631 38.8319 24.7312 38.8421 24.8319 38.8519C24.9306 38.8615 25.0297 38.8706 25.1289 38.8797C25.2187 38.8879 25.3083 38.8965 25.3985 38.9043C25.5747 38.9195 25.7517 38.9337 25.9293 38.9472C26.0102 38.9532 26.0917 38.9588 26.1729 38.9646C26.2899 38.9729 26.4071 38.9811 26.5247 38.9886C26.6077 38.9939 26.6907 38.9991 26.774 39.004C26.9005 39.0115 27.0276 39.0186 27.1547 39.0253C27.225 39.0289 27.2952 39.0329 27.3657 39.0363C27.5585 39.0457 27.7519 39.0541 27.946 39.0614C27.9946 39.0632 28.0436 39.0646 28.0924 39.0663C28.247 39.0717 28.4019 39.0765 28.5574 39.0806C28.626 39.0824 28.6947 39.084 28.7634 39.0855C28.9072 39.0887 29.0513 39.0914 29.1958 39.0935C29.2591 39.0944 29.3224 39.0955 29.3857 39.0962C29.59 39.0985 29.7947 39.1 30.0002 39.1C30.2057 39.1 30.4104 39.0985 30.6147 39.0962C30.6781 39.0955 30.7413 39.0944 30.8046 39.0935C30.949 39.0914 31.0932 39.0887 31.237 39.0855C31.3058 39.084 31.3744 39.0824 31.443 39.0806C31.5985 39.0765 31.7534 39.0717 31.9081 39.0663C31.9568 39.0646 32.0058 39.0632 32.0544 39.0614C32.2486 39.0541 32.442 39.0457 32.6347 39.0363C32.7052 39.0329 32.7754 39.029 32.8457 39.0253C32.9728 39.0186 33.0998 39.0116 33.2264 39.004C33.3096 38.9991 33.3927 38.994 33.4757 38.9886C33.5933 38.981 33.7105 38.9729 33.8275 38.9646C33.9087 38.9588 33.9902 38.9534 34.0711 38.9472C34.2487 38.9336 34.4257 38.9194 34.6019 38.9043C34.6921 38.8966 34.7817 38.8879 34.8715 38.8797C34.9707 38.8707 35.0698 38.8615 35.1685 38.8519C35.2691 38.8421 35.3694 38.8319 35.4695 38.8215C35.556 38.8126 35.6422 38.8033 35.7283 38.794C35.8324 38.7827 35.9365 38.7714 36.0401 38.7595C36.1153 38.7508 36.1899 38.7416 36.2648 38.7327C36.4716 38.7079 36.6774 38.6819 36.8821 38.6548C36.9432 38.6466 37.0045 38.6388 37.0654 38.6305C37.1809 38.6147 37.2957 38.5983 37.4105 38.5817C37.4738 38.5726 37.5368 38.5635 37.5999 38.5541C37.7166 38.5368 37.8331 38.5193 37.9491 38.5012C37.9999 38.4933 38.0504 38.485 38.1009 38.477C38.4983 38.4137 38.8914 38.346 39.2798 38.2737C39.3313 38.2641 39.3826 38.2546 39.4339 38.2448C39.5507 38.2227 39.6671 38.2002 39.7831 38.1772C39.8335 38.1673 39.8836 38.157 39.9338 38.1469C40.3106 38.071 40.6828 37.9907 41.0501 37.9063C41.1067 37.8933 41.1634 37.8804 41.2198 37.8672C41.3227 37.8432 41.4252 37.8187 41.5273 37.7939C41.5934 37.778 41.6592 37.7617 41.7249 37.7455C41.8222 37.7214 41.9195 37.6973 42.0161 37.6726C42.0959 37.6522 42.175 37.6313 42.2543 37.6105C42.3925 37.5742 42.53 37.5375 42.6666 37.5001C42.7603 37.4744 42.854 37.4488 42.947 37.4226C43.0193 37.4022 43.0912 37.3815 43.1631 37.3607C43.2614 37.3324 43.3593 37.3038 43.4567 37.2748C43.5182 37.2565 43.5796 37.2384 43.6408 37.2198C43.7812 37.1772 43.9209 37.1341 44.0595 37.0902C44.0764 37.0849 44.0934 37.0797 44.1102 37.0743C44.2766 37.0214 44.4416 36.9674 44.6053 36.9127C44.626 36.9057 44.6465 36.8986 44.6672 36.8917C44.817 36.8414 44.9654 36.7903 45.1128 36.7384C45.1283 36.7329 45.1439 36.7275 45.1593 36.722C49.2514 35.2753 52.438 33.2486 54.267 30.8666V33.9H54.2666Z" fill="#2C7D98"/>
<path d="M39.5334 21.7666C40.0534 21.7666 40.4001 21.42 40.4001 20.9C40.4001 20.38 40.0534 20.0334 39.5334 20.0334C39.0134 20.0334 38.6668 20.38 38.6668 20.9C38.6667 21.42 39.0134 21.7666 39.5334 21.7666Z" fill="#2C7D98"/>
<path d="M42.1334 19.1666C42.6534 19.1666 43 18.82 43 18.3C43 17.78 42.6534 17.4333 42.1334 17.4333C41.6134 17.4333 41.2667 17.78 41.2667 18.3C41.2667 18.82 41.6134 19.1666 42.1334 19.1666Z" fill="#2C7D98"/>
<path d="M34.3334 21.7666C34.8534 21.7666 35.2 21.42 35.2 20.9C35.2 20.38 34.8534 20.0334 34.3334 20.0334C33.8134 20.0334 33.4667 20.38 33.4667 20.9C33.4666 21.42 33.8134 21.7666 34.3334 21.7666Z" fill="#2C7D98"/>
<path d="M36.9333 19.1666C37.4533 19.1666 37.8 18.82 37.8 18.3C37.8 17.78 37.4533 17.4333 36.9333 17.4333C36.4133 17.4333 36.0667 17.78 36.0667 18.3C36.0667 18.82 36.4133 19.1666 36.9333 19.1666Z" fill="#2C7D98"/>
<path d="M31.7335 19.1666C32.2535 19.1666 32.6001 18.82 32.6001 18.3C32.6001 17.78 32.2535 17.4333 31.7335 17.4333C31.2135 17.4333 30.8668 17.78 30.8668 18.3C30.8668 18.82 31.2135 19.1666 31.7335 19.1666Z" fill="#2C7D98"/>
<path d="M36.9333 24.3666C37.4533 24.3666 37.8 24.02 37.8 23.5C37.8 22.98 37.4533 22.6334 36.9333 22.6334C36.4133 22.6334 36.0667 22.98 36.0667 23.5C36.0667 24.02 36.4133 24.3666 36.9333 24.3666Z" fill="#2C7D98"/>
<path d="M44.7335 21.7666C45.2535 21.7666 45.6001 21.42 45.6001 20.9C45.6001 20.38 45.2535 20.0334 44.7335 20.0334C44.2135 20.0334 43.8668 20.38 43.8668 20.9C43.8667 21.42 44.2135 21.7666 44.7335 21.7666Z" fill="#2C7D98"/>
<path d="M31.7335 24.3666C32.2535 24.3666 32.6001 24.02 32.6001 23.5C32.6001 22.98 32.2535 22.6334 31.7335 22.6334C31.2135 22.6334 30.8668 22.98 30.8668 23.5C30.8668 24.02 31.2135 24.3666 31.7335 24.3666Z" fill="#2C7D98"/>
<path d="M42.1334 24.3666C42.6534 24.3666 43 24.02 43 23.5C43 22.98 42.6534 22.6334 42.1334 22.6334C41.6134 22.6334 41.2667 22.98 41.2667 23.5C41.2667 24.02 41.6134 24.3666 42.1334 24.3666Z" fill="#2C7D98"/>
<path d="M49.9333 21.7666C50.4533 21.7666 50.8 21.42 50.8 20.9C50.8 20.38 50.4533 20.0334 49.9333 20.0334C49.4133 20.0334 49.0667 20.38 49.0667 20.9C49.0666 21.42 49.4133 21.7666 49.9333 21.7666Z" fill="#2C7D98"/>
<path d="M47.3334 24.3666C47.8534 24.3666 48.2 24.02 48.2 23.5C48.2 22.98 47.8534 22.6334 47.3334 22.6334C46.8134 22.6334 46.4667 22.98 46.4667 23.5C46.4667 24.02 46.8134 24.3666 47.3334 24.3666Z" fill="#2C7D98"/>
<path d="M52.5334 24.3666C53.0534 24.3666 53.4001 24.02 53.4001 23.5C53.4001 22.98 53.0534 22.6334 52.5334 22.6334C52.0134 22.6334 51.6668 22.98 51.6668 23.5C51.6668 24.02 52.0134 24.3666 52.5334 24.3666Z" fill="#2C7D98"/>
</svg>
