<svg width="150" height="210" viewBox="0 0 150 210" fill="none" xmlns="http://www.w3.org/2000/svg">
<mask id="mask0" mask-type="alpha" maskUnits="userSpaceOnUse" x="0" y="0" width="150" height="210">
<rect width="149.809" height="210" rx="40" transform="matrix(-1 0 0 1 150 0)" fill="#C4C4C4"/>
</mask>
<g mask="url(#mask0)">
<path fill-rule="evenodd" clip-rule="evenodd" d="M69.1312 86.1021C62.164 90.6439 55.2402 92.9684 51.9235 92.2443C43.607 90.4285 41.7497 60.4061 47.691 48.3261C53.6324 36.2461 86.2159 29.8831 88.7268 53.2947C89.5983 61.4201 86.4334 68.8159 81.5814 74.9337L92.2167 116.839L65.814 117.805L69.1312 86.1021Z" fill="#B28B67"/>
<path fill-rule="evenodd" clip-rule="evenodd" d="M99.9517 45.0601C100.774 44.1863 101.195 42.9667 101.555 41.8101C101.93 40.6085 102.292 39.3952 102.524 38.1504C102.988 35.6632 102.89 32.8259 101.055 30.9749C99.5826 29.4906 97.4332 28.8794 95.4673 28.8014C94.1576 28.7493 92.8228 28.9808 91.5858 29.437C90.3585 29.8895 89.3174 30.7401 88.1316 31.2877C87.9883 28.6309 87.4297 25.8659 85.9939 23.6454C84.6122 21.509 82.4919 20.3594 80.1164 20.1216C77.6782 19.8776 75.3033 20.5313 73.1743 21.7817C72.6413 22.0949 72.1138 22.4218 71.6111 22.7884C71.1901 23.0954 70.7541 23.4625 70.252 23.5994C69.6922 23.7523 69.4005 23.4374 69.0185 23.0401C68.5706 22.5744 68.0704 22.168 67.5436 21.8108C65.2147 20.2316 62.2137 19.6571 59.6225 20.7496C58.4286 21.253 57.2798 22.0756 56.4977 23.1799C55.8006 24.1643 55.3339 25.7024 54.3478 26.4065C53.9293 26.7055 53.6127 26.3413 53.2121 26.0783C52.6104 25.6831 52.0342 25.2437 51.4258 24.8601C50.5713 24.3212 49.653 23.9282 48.6781 23.7406C47.251 23.466 45.2981 23.6141 44.9612 25.4768C44.8347 26.1765 44.9783 26.9146 45.053 27.6122C45.1555 28.57 45.2609 29.5274 45.3796 30.4832C45.4698 31.209 45.5758 31.9092 45.7398 32.6191C45.8272 32.9975 46.0833 33.6996 45.9333 34.0873C45.7459 34.5718 44.7906 34.3352 44.3873 34.3666C43.5907 34.4286 42.7946 34.5974 42.0694 34.9643C41.5074 35.2487 40.9205 35.6581 40.7031 36.3202C40.5695 36.727 40.6236 37.1377 40.7088 37.548C40.811 38.0405 40.7245 38.3068 40.68 38.809C39.5893 38.3222 35.8334 37.2893 35.4363 39.2209C35.3041 39.8641 35.6847 40.5715 35.9746 41.0992C36.4831 42.0248 37.136 42.8639 37.8014 43.6626C39.1893 45.3287 40.8255 46.7498 42.5739 47.9523C40.612 48.9092 40.1868 51.5354 41.9703 53.0256C42.7578 53.6835 43.7884 53.7987 44.7484 53.7196C45.0998 53.6907 45.6023 53.5372 45.8814 53.5882C46.0317 53.6156 46.1959 53.7357 46.4028 53.7422C47.7634 53.7852 49.2835 53.4031 50.5991 53.0544C52.9435 52.4328 55.1406 51.2343 56.9059 49.4669C57.3588 49.0135 57.7369 48.7482 58.3681 48.7315C58.9213 48.7168 59.4694 48.8481 60.0223 48.8419C61.4854 48.8256 62.7773 48.0649 64.1173 47.541C64.2673 49.3662 64.8632 51.3605 65.6735 52.9778C66.3343 54.2966 67.6188 54.4448 68.8783 54.5165C72.9058 54.7461 76.9184 54.1785 80.9375 54.037C77.0792 55.0561 73.0724 55.5646 69.2543 56.7374C67.5284 57.2674 68.9022 58.3899 69.6772 59.1745C70.9532 60.4665 71.9263 62.0896 72.623 63.8115C74.4356 61.2686 77.7398 59.5158 80.7478 60.1666C84.0713 60.8855 86.5525 65.2402 84.5637 68.509C83.409 70.4066 81.2276 71.2027 79.4199 72.066C80.9072 73.4989 81.3341 75.68 82.2642 77.4963C82.723 78.3921 83.3578 79.4006 84.3207 79.6834C84.677 79.788 85.0901 79.783 85.3782 80.0589C85.7351 80.4004 85.8315 80.7934 86.2819 81.0817C88.0791 82.2325 90.8136 82.0386 92.3091 80.3963C93.6616 78.911 93.213 76.6554 91.9864 75.2447C93.8258 74.4001 97.1921 73.2773 96.3436 70.4033C100.381 69.9873 109.968 63.0835 104.361 58.5003C107.281 56.7115 109.869 52.5061 107.822 48.9575C106.245 46.225 102.771 45.1049 99.9517 45.0601Z" fill="#DAB956"/>
<path fill-rule="evenodd" clip-rule="evenodd" d="M-23.2011 225.133L6.85333 193.682L17.8575 211.159L-13.8516 231.393C-21.5101 244.452 -26.0805 250.141 -27.563 248.459C-28.813 247.041 -28.3232 245.419 -27.8721 243.925C-27.5207 242.761 -27.1928 241.675 -27.7289 240.823C-28.9534 238.879 -35.4179 240.255 -41.4967 241.822C-47.5754 243.389 -46.2674 240.336 -45.0222 238.722C-39.4012 233.85 -32.1275 229.321 -23.2011 225.133ZM162.101 262.447C158.638 256.044 145.334 192.894 145.334 192.894L122.348 193.825C122.348 193.825 146.148 261.575 147.999 265.706C150.403 271.072 146.947 279.123 144.605 284.582C144.242 285.427 143.906 286.21 143.623 286.911C147.204 288.353 148.827 286.392 150.538 284.323C152.47 281.987 154.515 279.515 159.62 281.66C161.593 282.489 163.467 283.485 165.298 284.459C171.623 287.821 177.433 290.91 184.999 285.865C186.199 285.066 187.439 282.174 184.109 280.072C175.812 274.835 163.794 265.577 162.101 262.447Z" fill="#B28B67"/>
<path fill-rule="evenodd" clip-rule="evenodd" d="M76.4815 99.1087L66.9092 97.8301C52.0241 139.22 24.7865 177.33 -14.8038 212.159L17.4017 248.384C56.47 199.424 79.8304 149.532 76.4815 99.1087Z" fill="#184447"/>
<path fill-rule="evenodd" clip-rule="evenodd" d="M122.312 216.778L37.6039 219.879C37.6039 219.879 64.4296 147.441 62.604 97.5615L88.0175 92.8306C109.278 124.296 116.4 163.734 122.312 216.778Z" fill="#DDE3E9"/>
<path fill-rule="evenodd" clip-rule="evenodd" d="M162.141 251.563C149.063 147.702 88.5787 92.8099 88.5787 92.8099L88.5591 92.8286C88.5555 92.8227 88.5519 92.8169 88.5484 92.811L86.8804 92.872C83.8904 93.0844 77.7742 93.5762 77.7742 93.5762L72.2436 111.394C72.4415 143.603 65.5474 241.487 65.5474 241.487L120.994 239.457C121.064 243.931 121.021 248.472 120.853 253.075L162.141 251.563Z" fill="#2F6E76"/>
<path fill-rule="evenodd" clip-rule="evenodd" d="M121.001 239.89C120.731 220.406 118.329 202.19 114.834 185.753C114.041 205.438 111.747 229.173 105.554 240.455L121.001 239.89Z" fill="black" fill-opacity="0.1"/>
<path fill-rule="evenodd" clip-rule="evenodd" d="M107.487 206.338L79.6422 194.65L80.1067 207.34L107.487 206.338Z" fill="white" fill-opacity="0.2"/>
</g>
</svg>
