<svg width="150" height="210" viewBox="0 0 150 210" fill="none" xmlns="http://www.w3.org/2000/svg">
<mask id="mask0" mask-type="alpha" maskUnits="userSpaceOnUse" x="0" y="0" width="150" height="210">
<rect width="149.809" height="210" rx="40" transform="matrix(-1 0 0 1 150 0)" fill="#C4C4C4"/>
</mask>
<g mask="url(#mask0)">
<path fill-rule="evenodd" clip-rule="evenodd" d="M82.6834 91.6463C70.7746 91.6463 66.4435 77.2968 59.6778 69.4221C54.837 63.788 46.5753 65.468 44.1299 57.5804C37.9806 37.7461 54.4392 23.7864 75.9105 23.7864C97.3818 23.7864 111.859 36.0295 114.985 54.4342C118.111 72.8389 104.155 91.6463 82.6834 91.6463Z" fill="#191847"/>
<path fill-rule="evenodd" clip-rule="evenodd" d="M69.205 89.0638C62.4575 93.1572 55.8278 95.1349 52.7157 94.3276C44.9119 92.303 44.1945 63.57 50.2326 52.2426C56.2707 40.9151 87.3116 35.9779 88.8762 58.4212C89.4193 66.2105 86.1696 73.162 81.3682 78.8343L89.9774 119.221H64.9697L69.205 89.0638Z" fill="#B28B67"/>
<path fill-rule="evenodd" clip-rule="evenodd" d="M87.2507 42.6635C106.406 61.5406 87.1775 81.6046 81.909 81.6046C81.569 78.881 80.5316 76.2316 79.0116 73.71C79.8188 72.6576 80.2973 71.3488 80.2973 69.9304C80.2973 66.4552 77.4251 63.638 73.8821 63.638C72.7756 63.638 71.7345 63.9128 70.8259 64.3967C63.1464 57.8049 53.5147 53.2096 48.7322 52.306C40.4142 50.7344 68.0956 23.7864 87.2507 42.6635Z" fill="#191847"/>
<path fill-rule="evenodd" clip-rule="evenodd" d="M179.209 244.317C175.323 238.571 152.844 177.463 152.844 177.463L134.388 180.161C134.388 180.161 164.104 245.05 166.25 248.795C169.038 253.66 166.572 261.651 164.9 267.069C164.641 267.907 164.401 268.683 164.203 269.377C167.715 270.398 169.052 268.375 170.46 266.242C172.052 263.832 173.735 261.282 178.752 262.821C180.69 263.416 182.552 264.179 184.371 264.925C190.655 267.502 196.427 269.869 203.058 264.334C204.109 263.456 204.994 260.587 201.653 258.915C193.33 254.749 181.109 247.127 179.209 244.317ZM-21.0413 215.915L10.4128 189.077L19.0094 206.797L-12.8723 222.811C-21.3955 234.443 -26.2701 239.385 -27.4959 237.637C-28.5296 236.164 -27.9053 234.672 -27.3302 233.298C-26.8823 232.228 -26.4642 231.229 -26.883 230.365C-27.8396 228.394 -34.0624 229.046 -39.9414 229.92C-45.8204 230.793 -44.2818 228.025 -42.9474 226.618C-37.1664 222.558 -29.8643 218.991 -21.0413 215.915Z" fill="#B28B67"/>
<path fill-rule="evenodd" clip-rule="evenodd" d="M75.7077 101.741L64.272 97.9345C48.7593 136.937 25.6241 174.674 -13.0301 206.549L-3.47139 223.147C30.5001 203.006 62.6583 187.36 75.7077 157.137C80.0874 146.994 76.065 113.869 75.7077 101.741Z" fill="#C5CFD6"/>
<path fill-rule="evenodd" clip-rule="evenodd" d="M114.985 211.509C114.985 211.509 65.8478 216.753 37.6321 211.509C35.3016 211.076 34.9339 207.149 36.0147 204.484C52.845 162.979 64.3861 126.763 64.3861 97.9346C69.0183 100.285 80.5997 98.6391 80.5997 98.6391C101.35 128.348 110.888 162.435 114.985 211.509Z" fill="#323337"/>
<path fill-rule="evenodd" clip-rule="evenodd" d="M86.546 96.1489C86.0105 95.7857 85.7276 95.605 85.7276 95.605L85.7581 96.1489H77.1107C76.6762 98.7209 76.0397 108.254 75.1116 122.155C71.739 172.67 64.5157 280.858 49.1415 322.261H155.221C152.983 275.19 135.74 218.899 117.878 171.102C131.058 184.301 146.452 206.426 158.893 243.257L178.762 238.123C158.513 150.304 99.1871 105.013 87.6753 96.9291C87.5628 96.6676 87.4509 96.4075 87.3397 96.1489H86.546Z" fill="#DDE3E9"/>
</g>
</svg>
