<svg width="150" height="210" viewBox="0 0 150 210" fill="none" xmlns="http://www.w3.org/2000/svg">
<rect width="150" height="169" rx="40" transform="matrix(-1 0 0 1 150 41)" fill="url(#paint0_linear)"/>
<mask id="mask0" mask-type="alpha" maskUnits="userSpaceOnUse" x="0" y="0" width="151" height="210">
<rect width="149.809" height="210" rx="40" transform="matrix(-1 0 0 1 150 0)" fill="#C4C4C4"/>
</mask>
<g mask="url(#mask0)">
<path fill-rule="evenodd" clip-rule="evenodd" d="M69.1311 86.1021C62.1639 90.6439 55.24 92.9684 51.9234 92.2443C43.6069 90.4285 41.7496 60.4061 47.6909 48.3261C53.6323 36.2461 86.2158 29.8831 88.7267 53.2947C89.5982 61.4201 86.4333 68.8159 81.5812 74.9337L92.2165 116.839L65.8139 117.805L69.1311 86.1021Z" fill="#B28B67"/>
<path fill-rule="evenodd" clip-rule="evenodd" d="M99.9515 45.0601C100.773 44.1863 101.195 42.9667 101.555 41.8101C101.93 40.6085 102.292 39.3952 102.524 38.1504C102.988 35.6632 102.89 32.8259 101.054 30.9749C99.5824 29.4906 97.433 28.8794 95.4671 28.8014C94.1573 28.7493 92.8226 28.9808 91.5856 29.437C90.3582 29.8895 89.3171 30.7401 88.1313 31.2877C87.9881 28.6309 87.4295 25.8659 85.9936 23.6454C84.6119 21.509 82.4916 20.3594 80.1161 20.1216C77.678 19.8776 75.303 20.5313 73.1741 21.7817C72.641 22.0949 72.1136 22.4218 71.6108 22.7884C71.1898 23.0954 70.7539 23.4625 70.2518 23.5994C69.692 23.7523 69.4002 23.4374 69.0182 23.0401C68.5704 22.5744 68.0701 22.168 67.5434 21.8108C65.2144 20.2316 62.2135 19.6571 59.6223 20.7496C58.4283 21.253 57.2796 22.0756 56.4975 23.1799C55.8003 24.1643 55.3337 25.7024 54.3475 26.4065C53.9291 26.7055 53.6125 26.3413 53.2119 26.0783C52.6102 25.6831 52.034 25.2437 51.4256 24.8601C50.571 24.3212 49.6527 23.9282 48.6779 23.7406C47.2508 23.466 45.2979 23.6141 44.9609 25.4768C44.8344 26.1765 44.978 26.9146 45.0528 27.6122C45.1552 28.57 45.2606 29.5274 45.3794 30.4832C45.4695 31.209 45.5755 31.9092 45.7395 32.6191C45.827 32.9975 46.083 33.6996 45.9331 34.0873C45.7457 34.5718 44.7903 34.3352 44.387 34.3666C43.5904 34.4286 42.7944 34.5974 42.0692 34.9643C41.5071 35.2487 40.9203 35.6581 40.7029 36.3202C40.5692 36.727 40.6234 37.1377 40.7086 37.548C40.8107 38.0405 40.7243 38.3068 40.6798 38.809C39.589 38.3222 35.8332 37.2893 35.4361 39.2209C35.3039 39.8641 35.6844 40.5715 35.9744 41.0992C36.4829 42.0248 37.1358 42.8639 37.8012 43.6626C39.1891 45.3287 40.8252 46.7498 42.5736 47.9523C40.6117 48.9092 40.1866 51.5354 41.9701 53.0256C42.7575 53.6835 43.7881 53.7987 44.7482 53.7196C45.0996 53.6907 45.602 53.5372 45.8812 53.5882C46.0314 53.6156 46.1956 53.7357 46.4026 53.7422C47.7631 53.7852 49.2832 53.4031 50.5989 53.0544C52.9432 52.4328 55.1403 51.2343 56.9057 49.4669C57.3585 49.0135 57.7366 48.7482 58.3679 48.7315C58.9211 48.7168 59.4691 48.8481 60.0221 48.8419C61.4852 48.8256 62.7771 48.0649 64.1171 47.541C64.2671 49.3662 64.863 51.3605 65.6733 52.9778C66.334 54.2966 67.6185 54.4448 68.878 54.5165C72.9056 54.7461 76.9182 54.1785 80.9373 54.037C77.079 55.0561 73.0721 55.5646 69.254 56.7374C67.5282 57.2674 68.902 58.3899 69.6769 59.1745C70.953 60.4665 71.926 62.0896 72.6227 63.8115C74.4353 61.2686 77.7395 59.5158 80.7475 60.1666C84.0711 60.8855 86.5522 65.2402 84.5634 68.509C83.4088 70.4066 81.2274 71.2027 79.4196 72.066C80.907 73.4989 81.3339 75.68 82.264 77.4963C82.7227 78.3921 83.3575 79.4006 84.3205 79.6834C84.6767 79.788 85.0898 79.783 85.3779 80.0589C85.7349 80.4004 85.8313 80.7934 86.2817 81.0817C88.0789 82.2325 90.8133 82.0386 92.3089 80.3963C93.6613 78.911 93.2127 76.6554 91.9862 75.2447C93.8255 74.4001 97.1918 73.2773 96.3433 70.4033C100.381 69.9873 109.968 63.0835 104.361 58.5003C107.28 56.7115 109.869 52.5061 107.822 48.9575C106.245 46.225 102.77 45.1049 99.9515 45.0601Z" fill="#DAB956"/>
<path fill-rule="evenodd" clip-rule="evenodd" d="M-23.2016 225.133L6.85285 193.682L17.857 211.159L-13.8521 231.393C-21.5106 244.452 -26.081 250.141 -27.5635 248.459C-28.8135 247.041 -28.3237 245.419 -27.8726 243.925C-27.5212 242.761 -27.1933 241.675 -27.7294 240.823C-28.9539 238.879 -35.4184 240.255 -41.4972 241.822C-47.5759 243.389 -46.2678 240.336 -45.0227 238.722C-39.4017 233.85 -32.128 229.321 -23.2016 225.133ZM162.1 262.447C158.638 256.044 145.333 192.894 145.333 192.894L122.347 193.825C122.347 193.825 146.148 261.575 147.998 265.706C150.402 271.072 146.947 279.123 144.604 284.582C144.242 285.427 143.906 286.21 143.622 286.911C147.203 288.353 148.826 286.392 150.537 284.323C152.47 281.987 154.515 279.515 159.62 281.66C161.592 282.489 163.467 283.485 165.298 284.459C171.623 287.821 177.433 290.91 184.999 285.865C186.198 285.066 187.439 282.174 184.109 280.072C175.812 274.835 163.793 265.577 162.1 262.447Z" fill="#B28B67"/>
<path fill-rule="evenodd" clip-rule="evenodd" d="M76.4809 99.1087L66.9086 97.8301C52.0235 139.22 24.7859 177.33 -14.8044 212.159L17.401 248.384C56.4694 199.424 79.8297 149.532 76.4809 99.1087Z" fill="#184447"/>
<path fill-rule="evenodd" clip-rule="evenodd" d="M122.312 216.778L37.6031 219.879C37.6031 219.879 64.4289 147.441 62.6033 97.5615L88.0168 92.8306C109.277 124.296 116.399 163.734 122.312 216.778Z" fill="#DDE3E9"/>
<path fill-rule="evenodd" clip-rule="evenodd" d="M162.14 251.563C149.063 147.702 88.5781 92.8099 88.5781 92.8099L88.5585 92.8286C88.5549 92.8227 88.5513 92.8169 88.5478 92.811L86.8798 92.872C83.8898 93.0844 77.7735 93.5762 77.7735 93.5762L72.243 111.394C72.4409 143.603 65.5468 241.487 65.5468 241.487L120.994 239.457C121.063 243.931 121.02 248.472 120.852 253.075L162.14 251.563Z" fill="#2F6E76"/>
<path fill-rule="evenodd" clip-rule="evenodd" d="M121 239.89C120.73 220.406 118.329 202.19 114.834 185.753C114.041 205.438 111.746 229.173 105.553 240.455L121 239.89Z" fill="black" fill-opacity="0.1"/>
<path fill-rule="evenodd" clip-rule="evenodd" d="M107.487 206.338L79.6417 194.65L80.1062 207.34L107.487 206.338Z" fill="white" fill-opacity="0.2"/>
</g>
<defs>
<linearGradient id="paint0_linear" x1="75" y1="0" x2="75" y2="169" gradientUnits="userSpaceOnUse">
<stop stop-color="#A6DCE9"/>
<stop offset="1" stop-color="#7FBBCA"/>
</linearGradient>
</defs>
</svg>
