<svg width="6" height="6" viewBox="0 0 6 6" fill="none" xmlns="http://www.w3.org/2000/svg">
<path d="M0.308339 0.0524901C0.362649 0.0252212 0.421564 0.00636382 0.482602 0.00166071C0.482602 0.00166071 0.607701 -0.0243413 0.86422 0.232607L3.00042 2.37238L5.1372 0.232023C5.39318 -0.0243831 5.51733 0.000669457 5.51733 0.000669457C5.57896 0.00541772 5.63819 0.0245916 5.69313 0.0524935C5.74722 0.0768224 5.79913 0.11092 5.84464 0.156503C5.89046 0.202403 5.92392 0.254363 5.94852 0.308855C5.97574 0.363256 5.99457 0.42227 5.99926 0.48341C5.99926 0.48341 6.02522 0.608719 5.7687 0.865667L3.63246 3.00549L5.88978 5.26658C6.0393 5.41635 6.01908 5.67973 5.84463 5.85446C5.67019 6.0292 5.40726 6.04946 5.25773 5.89968L3.00042 3.63859L0.743147 5.89964C0.593623 6.04941 0.330693 6.02916 0.156249 5.85442C-0.0181946 5.67968 -0.03842 5.41631 0.111103 5.26654L2.36838 3.00549L0.231635 0.865167C-0.0243423 0.608761 0.000668337 0.484401 0.000668337 0.484401C0.00540866 0.422674 0.0245505 0.363343 0.0524057 0.308308C0.0766941 0.254132 0.110734 0.202128 0.156241 0.156545C0.202064 0.110645 0.253938 0.0771355 0.308339 0.0524901Z" fill="#BDBDBD"/>
</svg>
