<svg width="18" height="18" viewBox="0 0 18 18" fill="none" xmlns="http://www.w3.org/2000/svg">
<path fill-rule="evenodd" clip-rule="evenodd" d="M6.65206 10.3482C3.62676 10.8686 0 12.2977 0 14.625V18H18V14.625C18 12.2977 14.3732 10.8686 11.3479 10.3482C10.4832 10.1995 9.66769 10.125 9 10.125C8.33231 10.125 7.51675 10.1995 6.65206 10.3482ZM6.90897 8.48611C7.53364 8.81432 8.24504 9 9 9C9.75496 9 10.4664 8.81432 11.091 8.48611C12.5235 7.73346 13.5 6.23129 13.5 4.5C13.5 2.01375 11.4862 0 9 0C6.51375 0 4.5 2.01375 4.5 4.5C4.5 6.23129 5.47646 7.73346 6.90897 8.48611ZM16.2 16.2V14.625C16.2 14.538 16.1707 14.3286 15.7953 13.9821C15.4078 13.6244 14.7844 13.2552 13.957 12.9237C12.2993 12.2596 10.2769 11.925 9 11.925C7.72314 11.925 5.70068 12.2596 4.04296 12.9237C3.21555 13.2552 2.59224 13.6244 2.20466 13.9821C1.8293 14.3286 1.8 14.538 1.8 14.625V16.2H16.2ZM9 1.8C7.50786 1.8 6.3 3.00786 6.3 4.5C6.3 5.99214 7.50786 7.2 9 7.2C10.4921 7.2 11.7 5.99214 11.7 4.5C11.7 3.00786 10.4921 1.8 9 1.8Z" fill="#A6DCE9"/>
</svg>
